  0
SECTION
  2
HEADER
  9
$ACADVER
  1
AC1009
  9
$INSBASE
 10
0.0
 20
0.0
 30
0.0
  9
$EXTMIN
 10
879.76757803585576
 20
1038.9258418664169
 30
-0.0000000349181948
  9
$EXTMAX
 10
1827.344699952595
 20
1635.335599758921
 30
0.0000000814935746
  9
$LIMMIN
 10
0.0
 20
0.0
  9
$LIMMAX
 10
420.0
 20
297.0
  9
$ORTHOMODE
 70
     1
  9
$REGENMODE
 70
     1
  9
$FILLMODE
 70
     1
  9
$QTEXTMODE
 70
     0
  9
$MIRRTEXT
 70
     0
  9
$DRAGMODE
 70
     2
  9
$LTSCALE
 40
1.0
  9
$OSMODE
 70
   695
  9
$ATTMODE
 70
     1
  9
$TEXTSIZE
 40
2.5
  9
$TRACEWID
 40
1.0
  9
$TEXTSTYLE
  7
STANDARD
  9
$CLAYER
  8
0
  9
$CELTYPE
  6
BYLAYER
  9
$CECOLOR
 62
   256
  9
$DIMSCALE
 40
1.0
  9
$DIMASZ
 40
2.5
  9
$DIMEXO
 40
0.625
  9
$DIMDLI
 40
3.75
  9
$DIMRND
 40
0.0
  9
$DIMDLE
 40
0.0
  9
$DIMEXE
 40
1.25
  9
$DIMTP
 40
0.0
  9
$DIMTM
 40
0.0
  9
$DIMTXT
 40
2.5
  9
$DIMCEN
 40
2.5
  9
$DIMTSZ
 40
0.0
  9
$DIMTOL
 70
     0
  9
$DIMLIM
 70
     0
  9
$DIMTIH
 70
     0
  9
$DIMTOH
 70
     0
  9
$DIMSE1
 70
     0
  9
$DIMSE2
 70
     0
  9
$DIMTAD
 70
     1
  9
$DIMZIN
 70
     8
  9
$DIMBLK
  1

  9
$DIMASO
 70
     1
  9
$DIMSHO
 70
     1
  9
$DIMPOST
  1

  9
$DIMAPOST
  1

  9
$DIMALT
 70
     0
  9
$DIMALTD
 70
     3
  9
$DIMALTF
 40
0.03937007874016
  9
$DIMLFAC
 40
1.0
  9
$DIMTOFL
 70
     1
  9
$DIMTVP
 40
0.0
  9
$DIMTIX
 70
     0
  9
$DIMSOXD
 70
     0
  9
$DIMSAH
 70
     0
  9
$DIMBLK1
  1

  9
$DIMBLK2
  1

  9
$DIMSTYLE
  2
ISO-25
  9
$DIMCLRD
 70
     0
  9
$DIMCLRE
 70
     0
  9
$DIMCLRT
 70
     0
  9
$DIMTFAC
 40
1.0
  9
$DIMGAP
 40
0.625
  9
$LUNITS
 70
     2
  9
$LUPREC
 70
     4
  9
$SKETCHINC
 40
1.0
  9
$FILLETRAD
 40
0.0
  9
$AUNITS
 70
     0
  9
$AUPREC
 70
     0
  9
$MENU
  1
.
  9
$ELEVATION
 40
0.0
  9
$PELEVATION
 40
0.0
  9
$THICKNESS
 40
0.0
  9
$LIMCHECK
 70
     0
  9
$BLIPMODE
 70
     0
  9
$CHAMFERA
 40
0.0
  9
$CHAMFERB
 40
0.0
  9
$SKPOLY
 70
     0
  9
$TDCREATE
 40
2456564.5824573152
  9
$TDUPDATE
 40
2456564.5862223268
  9
$TDINDWG
 40
0.003771169
  9
$TDUSRTIMER
 40
0.0037709838
  9
$USRTIMER
 70
     1
  9
$ANGBASE
 50
0.0
  9
$ANGDIR
 70
     0
  9
$PDMODE
 70
     0
  9
$PDSIZE
 40
0.0
  9
$PLINEWID
 40
0.0
  9
$COORDS
 70
     1
  9
$SPLFRAME
 70
     0
  9
$SPLINETYPE
 70
     6
  9
$SPLINESEGS
 70
     8
  9
$ATTDIA
 70
     0
  9
$ATTREQ
 70
     1
  9
$HANDLING
 70
     1
  9
$HANDSEED
  5
9DA
  9
$SURFTAB1
 70
     6
  9
$SURFTAB2
 70
     6
  9
$SURFTYPE
 70
     6
  9
$SURFU
 70
     6
  9
$SURFV
 70
     6
  9
$UCSNAME
  2

  9
$UCSORG
 10
0.0
 20
0.0
 30
0.0
  9
$UCSXDIR
 10
1.0
 20
0.0
 30
0.0
  9
$UCSYDIR
 10
0.0
 20
1.0
 30
0.0
  9
$PUCSNAME
  2

  9
$PUCSORG
 10
0.0
 20
0.0
 30
0.0
  9
$PUCSXDIR
 10
1.0
 20
0.0
 30
0.0
  9
$PUCSYDIR
 10
0.0
 20
1.0
 30
0.0
  9
$USERI1
 70
     0
  9
$USERI2
 70
     0
  9
$USERI3
 70
     0
  9
$USERI4
 70
     0
  9
$USERI5
 70
     0
  9
$USERR1
 40
0.0
  9
$USERR2
 40
0.0
  9
$USERR3
 40
0.0
  9
$USERR4
 40
0.0
  9
$USERR5
 40
0.0
  9
$WORLDVIEW
 70
     1
  9
$SHADEDGE
 70
     3
  9
$SHADEDIF
 70
    70
  9
$TILEMODE
 70
     1
  9
$MAXACTVP
 70
    64
  9
$PLIMCHECK
 70
     0
  9
$PEXTMIN
 10
0.0
 20
0.0
 30
0.0
  9
$PEXTMAX
 10
0.0
 20
0.0
 30
0.0
  9
$PLIMMIN
 10
0.0
 20
0.0
  9
$PLIMMAX
 10
12.0
 20
9.0
  9
$UNITMODE
 70
     0
  9
$VISRETAIN
 70
     1
  9
$PLINEGEN
 70
     0
  9
$PSLTSCALE
 70
     1
  0
ENDSEC
  0
SECTION
  2
TABLES
  0
TABLE
  2
VPORT
 70
     1
  0
VPORT
  2
*ACTIVE
 70
     0
 10
0.0
 20
0.0
 11
1.0
 21
1.0
 12
1353.556138994225
 22
1337.1307208126691
 13
0.0
 23
0.0
 14
10.0
 24
10.0
 15
10.0
 25
10.0
 16
0.0
 26
0.0
 36
1.0
 17
0.0
 27
0.0
 37
0.0
 40
601.42160459748402
 41
1.6058906030855531
 42
50.0
 43
0.0
 44
0.0
 50
0.0
 51
0.0
 71
     0
 72
  1000
 73
     1
 74
     3
 75
     0
 76
     0
 77
     0
 78
     0
  0
ENDTAB
  0
TABLE
  2
LTYPE
 70
     2
  0
LTYPE
  2
CONTINUOUS
 70
     0
  3
Solid line
 72
    65
 73
     0
 40
0.0
  0
LTYPE
  2
HIDDEN
 70
     0
  3
Hidden __ __ __ __ __ __ __ __ __ __ __ __ __ _
 72
    65
 73
     2
 40
0.375
 49
0.25
 49
-0.125
  0
ENDTAB
  0
TABLE
  2
LAYER
 70
     5
  0
LAYER
  2
0
 70
     0
 62
     7
  6
CONTINUOUS
  0
LAYER
  2
DEFPOINTS
 70
     0
 62
     7
  6
CONTINUOUS
  0
LAYER
  2
FP-402
 70
     0
 62
     7
  6
CONTINUOUS
  0
LAYER
  2
0___3
 70
     0
 62
     7
  6
CONTINUOUS
  0
ENDTAB
  0
TABLE
  2
STYLE
 70
     1
  0
STYLE
  2
STANDARD
 70
     0
 40
0.0
 41
1.0
 50
0.0
 71
     0
 42
2.5
  3
txt
  4
extfont2.shx
  0
ENDTAB
  0
TABLE
  2
VIEW
 70
     0
  0
ENDTAB
  0
TABLE
  2
UCS
 70
     0
  0
ENDTAB
  0
TABLE
  2
APPID
 70
    12
  0
APPID
  2
ACAD
 70
     0
  0
APPID
  2
ACAD_PSEXT
 70
     0
  0
APPID
  2
ACADANNOPO
 70
     0
  0
APPID
  2
ACADANNOTATIVE
 70
     0
  0
APPID
  2
ACAD_DSTYLE_DIMJAG
 70
     0
  0
APPID
  2
ACAD_DSTYLE_DIMTALN
 70
     0
  0
APPID
  2
ACAD_MLEADERVER
 70
     0
  0
APPID
  2
ACAECLAYERSTANDARD
 70
     0
  0
APPID
  2
ACAD_DSTYLE_DIMBREAK
 70
     0
  0
APPID
  2
ACAD_DSTYLE_DIMTEXT_FILL
 70
     0
  0
APPID
  2
ACADANNOTATIVEDECOMPOSITION
 70
     0
  0
APPID
  2
ACAD_EXEMPT_FROM_CAD_STANDARDS
 70
     0
  0
ENDTAB
  0
TABLE
  2
DIMSTYLE
 70
     1
  0
DIMSTYLE
  2
ISO-25
 70
     0
  3

  4

  5

  6

  7

 40
1.0
 41
2.5
 42
0.625
 43
3.75
 44
1.25
 45
0.0
 46
0.0
 47
0.0
 48
0.0
140
2.5
141
2.5
142
0.0
143
0.03937007874016
144
1.0
145
0.0
146
1.0
147
0.625
 71
     0
 72
     0
 73
     0
 74
     0
 75
     0
 76
     0
 77
     1
 78
     8
170
     0
171
     3
172
     1
173
     0
174
     0
175
     0
176
     0
177
     0
178
     0
  0
ENDTAB
  0
ENDSEC
  0
SECTION
  2
BLOCKS
  0
BLOCK
  8
0
  2
$MODEL_SPACE
 70
     0
 10
0.0
 20
0.0
 30
0.0
  3
$MODEL_SPACE
  1

  0
ENDBLK
  5
21
  8
0
  0
BLOCK
 67
     1
  8
0
  2
$PAPER_SPACE
 70
     0
 10
0.0
 20
0.0
 30
0.0
  3
$PAPER_SPACE
  1

  0
ENDBLK
  5
D5
 67
     1
  8
0
  0
BLOCK
  8
0
  2
A$C35614DF8
 70
     0
 10
0.0
 20
0.0
 30
0.0
  3
A$C35614DF8
  1

  0
LINE
  5
21C
  8
FP-402
 10
31.499994933580641
 20
0.99999670826287
 30
0.0
 11
33.999994933580638
 21
0.99999670826287
 31
0.0
  0
LINE
  5
21D
  8
FP-402
 10
33.999994933580638
 20
0.99999670826287
 30
0.0
 11
33.999994933580638
 21
8.99999670826287
 31
0.0
  0
LINE
  5
21E
  8
FP-402
 10
33.999994933580638
 20
8.99999670826287
 30
0.0
 11
31.499994933580641
 21
8.99999670826287
 31
0.0
  0
LINE
  5
21F
  8
FP-402
 10
31.499994933580641
 20
8.99999670826287
 30
0.0
 11
31.499994933580641
 21
0.99999670826287
 31
0.0
  0
POLYLINE
  5
220
  8
FP-402
 66
     1
 10
0.0
 20
0.0
 30
0.0
  0
VERTEX
  5
787
  8
FP-402
 10
31.499994933580641
 20
8.99999670826287
 30
0.0
  0
VERTEX
  5
788
  8
FP-402
 10
31.458194933580671
 20
8.8263967082682484
 30
0.0
  0
VERTEX
  5
789
  8
FP-402
 10
31.334194933580651
 20
8.6579967082733447
 30
0.0
  0
VERTEX
  5
78A
  8
FP-402
 10
31.131494933580601
 20
8.49999670826287
 30
0.0
  0
VERTEX
  5
78B
  8
FP-402
 10
30.856494933580741
 20
8.3571967082614265
 30
0.0
  0
VERTEX
  5
78C
  8
FP-402
 10
30.517694933580749
 20
8.2339967082741623
 30
0.0
  0
VERTEX
  5
78D
  8
FP-402
 10
30.124994933580641
 20
8.1339967082683415
 30
0.0
  0
VERTEX
  5
78E
  8
FP-402
 10
29.69049493358057
 20
8.0602967082747892
 30
0.0
  0
VERTEX
  5
78F
  8
FP-402
 10
29.22739493358063
 20
8.0151967082717874
 30
0.0
  0
VERTEX
  5
790
  8
FP-402
 10
28.749994933580641
 20
7.99999670826287
 30
0.0
  0
VERTEX
  5
791
  8
FP-402
 10
28.272594933580649
 20
8.0151967082717874
 30
0.0
  0
VERTEX
  5
792
  8
FP-402
 10
27.809494933580709
 20
8.0602967082747892
 30
0.0
  0
VERTEX
  5
793
  8
FP-402
 10
27.374994933580641
 20
8.1339967082683415
 30
0.0
  0
VERTEX
  5
794
  8
FP-402
 10
26.98229493358053
 20
8.2339967082741623
 30
0.0
  0
VERTEX
  5
795
  8
FP-402
 10
26.643494933580541
 20
8.3571967082614265
 30
0.0
  0
VERTEX
  5
796
  8
FP-402
 10
26.368494933580681
 20
8.49999670826287
 30
0.0
  0
VERTEX
  5
797
  8
FP-402
 10
26.165794933580631
 20
8.6579967082733447
 30
0.0
  0
VERTEX
  5
798
  8
FP-402
 10
26.041794933580601
 20
8.8263967082682484
 30
0.0
  0
VERTEX
  5
799
  8
FP-402
 10
25.999994933580641
 20
8.99999670826287
 30
0.0
  0
SEQEND
  5
79A
  8
FP-402
  0
POLYLINE
  5
221
  8
FP-402
 66
     1
 10
0.0
 20
0.0
 30
0.0
  0
VERTEX
  5
79B
  8
FP-402
 10
23.999994933580641
 20
8.99999670826287
 30
0.0
  0
VERTEX
  5
79C
  8
FP-402
 10
23.984794933580591
 20
8.8263967082682484
 30
0.0
  0
VERTEX
  5
79D
  8
FP-402
 10
23.939694933580771
 20
8.6579967082733447
 30
0.0
  0
VERTEX
  5
79E
  8
FP-402
 10
23.86599493358062
 20
8.49999670826287
 30
0.0
  0
VERTEX
  5
79F
  8
FP-402
 10
23.765994933580711
 20
8.3571967082614265
 30
0.0
  0
VERTEX
  5
7A0
  8
FP-402
 10
23.642794933580721
 20
8.2339967082741623
 30
0.0
  0
VERTEX
  5
7A1
  8
FP-402
 10
23.499994933580641
 20
8.1339967082683415
 30
0.0
  0
VERTEX
  5
7A2
  8
FP-402
 10
23.34199493358074
 20
8.0602967082747892
 30
0.0
  0
VERTEX
  5
7A3
  8
FP-402
 10
23.17359493358072
 20
8.0151967082717874
 30
0.0
  0
VERTEX
  5
7A4
  8
FP-402
 10
22.999994933580641
 20
7.99999670826287
 30
0.0
  0
VERTEX
  5
7A5
  8
FP-402
 10
22.826394933580559
 20
8.0151967082717874
 30
0.0
  0
VERTEX
  5
7A6
  8
FP-402
 10
22.65799493358077
 20
8.0602967082747892
 30
0.0
  0
VERTEX
  5
7A7
  8
FP-402
 10
22.499994933580641
 20
8.1339967082683415
 30
0.0
  0
VERTEX
  5
7A8
  8
FP-402
 10
22.357194933580558
 20
8.2339967082741623
 30
0.0
  0
VERTEX
  5
7A9
  8
FP-402
 10
22.233994933580561
 20
8.3571967082614265
 30
0.0
  0
VERTEX
  5
7AA
  8
FP-402
 10
22.133994933580649
 20
8.49999670826287
 30
0.0
  0
VERTEX
  5
7AB
  8
FP-402
 10
22.060294933580732
 20
8.6579967082733447
 30
0.0
  0
VERTEX
  5
7AC
  8
FP-402
 10
22.015194933580691
 20
8.8263967082682484
 30
0.0
  0
VERTEX
  5
7AD
  8
FP-402
 10
21.999994933580641
 20
8.99999670826287
 30
0.0
  0
SEQEND
  5
7AE
  8
FP-402
  0
POLYLINE
  5
222
  8
FP-402
 66
     1
 10
0.0
 20
0.0
 30
0.0
  0
VERTEX
  5
7AF
  8
FP-402
 10
23.999994933580641
 20
0.99999670826287
 30
0.0
  0
VERTEX
  5
7B0
  8
FP-402
 10
23.984794933580591
 20
0.8263967082682484
 30
0.0
  0
VERTEX
  5
7B1
  8
FP-402
 10
23.939694933580771
 20
0.657996708273231
 30
0.0
  0
VERTEX
  5
7B2
  8
FP-402
 10
23.86599493358062
 20
0.4999967082628701
 30
0.0
  0
VERTEX
  5
7B3
  8
FP-402
 10
23.765994933580711
 20
0.3571967082614265
 30
0.0
  0
VERTEX
  5
7B4
  8
FP-402
 10
23.642794933580721
 20
0.2339967082741623
 30
0.0
  0
VERTEX
  5
7B5
  8
FP-402
 10
23.499994933580641
 20
0.1339967082683415
 30
0.0
  0
VERTEX
  5
7B6
  8
FP-402
 10
23.34199493358074
 20
0.060296708274791
 30
0.0
  0
VERTEX
  5
7B7
  8
FP-402
 10
23.17359493358072
 20
0.0151967082717874
 30
0.0
  0
VERTEX
  5
7B8
  8
FP-402
 10
22.999994933580641
 20
-0.00000329173713
 30
0.0
  0
VERTEX
  5
7B9
  8
FP-402
 10
22.826394933580559
 20
0.0151967082717874
 30
0.0
  0
VERTEX
  5
7BA
  8
FP-402
 10
22.65799493358077
 20
0.060296708274791
 30
0.0
  0
VERTEX
  5
7BB
  8
FP-402
 10
22.499994933580641
 20
0.1339967082683415
 30
0.0
  0
VERTEX
  5
7BC
  8
FP-402
 10
22.357194933580558
 20
0.2339967082741623
 30
0.0
  0
VERTEX
  5
7BD
  8
FP-402
 10
22.233994933580561
 20
0.3571967082614265
 30
0.0
  0
VERTEX
  5
7BE
  8
FP-402
 10
22.133994933580649
 20
0.4999967082628701
 30
0.0
  0
VERTEX
  5
7BF
  8
FP-402
 10
22.060294933580732
 20
0.657996708273231
 30
0.0
  0
VERTEX
  5
7C0
  8
FP-402
 10
22.015194933580691
 20
0.8263967082682484
 30
0.0
  0
VERTEX
  5
7C1
  8
FP-402
 10
21.999994933580641
 20
0.99999670826287
 30
0.0
  0
SEQEND
  5
7C2
  8
FP-402
  0
POLYLINE
  5
223
  8
FP-402
 66
     1
 10
0.0
 20
0.0
 30
0.0
  0
VERTEX
  5
7C3
  8
FP-402
 10
31.499994933580641
 20
0.99999670826287
 30
0.0
  0
VERTEX
  5
7C4
  8
FP-402
 10
31.458194933580671
 20
0.8263967082682484
 30
0.0
  0
VERTEX
  5
7C5
  8
FP-402
 10
31.334194933580651
 20
0.657996708273231
 30
0.0
  0
VERTEX
  5
7C6
  8
FP-402
 10
31.131494933580601
 20
0.4999967082628701
 30
0.0
  0
VERTEX
  5
7C7
  8
FP-402
 10
30.856494933580741
 20
0.3571967082614265
 30
0.0
  0
VERTEX
  5
7C8
  8
FP-402
 10
30.517694933580749
 20
0.2339967082741623
 30
0.0
  0
VERTEX
  5
7C9
  8
FP-402
 10
30.124994933580641
 20
0.1339967082683415
 30
0.0
  0
VERTEX
  5
7CA
  8
FP-402
 10
29.69049493358057
 20
0.060296708274791
 30
0.0
  0
VERTEX
  5
7CB
  8
FP-402
 10
29.22739493358063
 20
0.0151967082717874
 30
0.0
  0
VERTEX
  5
7CC
  8
FP-402
 10
28.749994933580641
 20
-0.00000329173713
 30
0.0
  0
VERTEX
  5
7CD
  8
FP-402
 10
28.272594933580649
 20
0.0151967082717874
 30
0.0
  0
VERTEX
  5
7CE
  8
FP-402
 10
27.809494933580709
 20
0.060296708274791
 30
0.0
  0
VERTEX
  5
7CF
  8
FP-402
 10
27.374994933580641
 20
0.1339967082683415
 30
0.0
  0
VERTEX
  5
7D0
  8
FP-402
 10
26.98229493358053
 20
0.2339967082741623
 30
0.0
  0
VERTEX
  5
7D1
  8
FP-402
 10
26.643494933580541
 20
0.3571967082614265
 30
0.0
  0
VERTEX
  5
7D2
  8
FP-402
 10
26.368494933580681
 20
0.4999967082628701
 30
0.0
  0
VERTEX
  5
7D3
  8
FP-402
 10
26.165794933580631
 20
0.657996708273231
 30
0.0
  0
VERTEX
  5
7D4
  8
FP-402
 10
26.041794933580601
 20
0.8263967082682484
 30
0.0
  0
VERTEX
  5
7D5
  8
FP-402
 10
25.999994933580641
 20
0.99999670826287
 30
0.0
  0
SEQEND
  5
7D6
  8
FP-402
  0
POLYLINE
  5
224
  8
FP-402
 66
     1
 10
0.0
 20
0.0
 30
0.0
  0
VERTEX
  5
7D7
  8
FP-402
 10
37.499994933580638
 20
0.99999670826287
 30
0.0
  0
VERTEX
  5
7D8
  8
FP-402
 10
37.473394933580721
 20
0.8263967082682484
 30
0.0
  0
VERTEX
  5
7D9
  8
FP-402
 10
37.394494933580752
 20
0.657996708273231
 30
0.0
  0
VERTEX
  5
7DA
  8
FP-402
 10
37.265494933580612
 20
0.4999967082628701
 30
0.0
  0
VERTEX
  5
7DB
  8
FP-402
 10
37.090494933580658
 20
0.3571967082614265
 30
0.0
  0
VERTEX
  5
7DC
  8
FP-402
 10
36.87489493358067
 20
0.2339967082741623
 30
0.0
  0
VERTEX
  5
7DD
  8
FP-402
 10
36.624994933580638
 20
0.1339967082683415
 30
0.0
  0
VERTEX
  5
7DE
  8
FP-402
 10
36.348494933580703
 20
0.060296708274791
 30
0.0
  0
VERTEX
  5
7DF
  8
FP-402
 10
36.053794933580548
 20
0.0151967082717874
 30
0.0
  0
VERTEX
  5
7E0
  8
FP-402
 10
35.749994933580638
 20
-0.00000329173713
 30
0.0
  0
VERTEX
  5
7E1
  8
FP-402
 10
35.446194933580728
 20
0.0151967082717874
 30
0.0
  0
VERTEX
  5
7E2
  8
FP-402
 10
35.15149493358058
 20
0.060296708274791
 30
0.0
  0
VERTEX
  5
7E3
  8
FP-402
 10
34.874994933580638
 20
0.1339967082683415
 30
0.0
  0
VERTEX
  5
7E4
  8
FP-402
 10
34.625094933580613
 20
0.2339967082741623
 30
0.0
  0
VERTEX
  5
7E5
  8
FP-402
 10
34.409494933580618
 20
0.3571967082614265
 30
0.0
  0
VERTEX
  5
7E6
  8
FP-402
 10
34.23449493358067
 20
0.4999967082628701
 30
0.0
  0
VERTEX
  5
7E7
  8
FP-402
 10
34.10549493358053
 20
0.657996708273231
 30
0.0
  0
VERTEX
  5
7E8
  8
FP-402
 10
34.026594933580562
 20
0.8263967082682484
 30
0.0
  0
VERTEX
  5
7E9
  8
FP-402
 10
33.999994933580638
 20
0.99999670826287
 30
0.0
  0
SEQEND
  5
7EA
  8
FP-402
  0
POLYLINE
  5
225
  8
FP-402
 66
     1
 10
0.0
 20
0.0
 30
0.0
  0
VERTEX
  5
7EB
  8
FP-402
 10
37.499994933580638
 20
8.99999670826287
 30
0.0
  0
VERTEX
  5
7EC
  8
FP-402
 10
37.473394933580721
 20
8.8263967082682484
 30
0.0
  0
VERTEX
  5
7ED
  8
FP-402
 10
37.394494933580752
 20
8.6579967082733447
 30
0.0
  0
VERTEX
  5
7EE
  8
FP-402
 10
37.265494933580612
 20
8.49999670826287
 30
0.0
  0
VERTEX
  5
7EF
  8
FP-402
 10
37.090494933580658
 20
8.3571967082614265
 30
0.0
  0
VERTEX
  5
7F0
  8
FP-402
 10
36.87489493358067
 20
8.2339967082741623
 30
0.0
  0
VERTEX
  5
7F1
  8
FP-402
 10
36.624994933580638
 20
8.1339967082683415
 30
0.0
  0
VERTEX
  5
7F2
  8
FP-402
 10
36.348494933580703
 20
8.0602967082747892
 30
0.0
  0
VERTEX
  5
7F3
  8
FP-402
 10
36.053794933580548
 20
8.0151967082717874
 30
0.0
  0
VERTEX
  5
7F4
  8
FP-402
 10
35.749994933580638
 20
7.99999670826287
 30
0.0
  0
VERTEX
  5
7F5
  8
FP-402
 10
35.446194933580728
 20
8.0151967082717874
 30
0.0
  0
VERTEX
  5
7F6
  8
FP-402
 10
35.15149493358058
 20
8.0602967082747892
 30
0.0
  0
VERTEX
  5
7F7
  8
FP-402
 10
34.874994933580638
 20
8.1339967082683415
 30
0.0
  0
VERTEX
  5
7F8
  8
FP-402
 10
34.625094933580613
 20
8.2339967082741623
 30
0.0
  0
VERTEX
  5
7F9
  8
FP-402
 10
34.409494933580618
 20
8.3571967082614265
 30
0.0
  0
VERTEX
  5
7FA
  8
FP-402
 10
34.23449493358067
 20
8.49999670826287
 30
0.0
  0
VERTEX
  5
7FB
  8
FP-402
 10
34.10549493358053
 20
8.6579967082733447
 30
0.0
  0
VERTEX
  5
7FC
  8
FP-402
 10
34.026594933580562
 20
8.8263967082682484
 30
0.0
  0
VERTEX
  5
7FD
  8
FP-402
 10
33.999994933580638
 20
8.99999670826287
 30
0.0
  0
SEQEND
  5
7FE
  8
FP-402
  0
LINE
  5
226
  8
FP-402
 10
19.999994933580641
 20
10.99999670826287
 30
0.0
 11
39.999994933580638
 21
10.99999670826287
 31
0.0
  0
LINE
  5
227
  8
FP-402
 10
39.999994933580638
 20
10.99999670826287
 30
0.0
 11
39.999994933580638
 21
12.49999670826287
 31
0.0
  0
LINE
  5
228
  8
FP-402
 10
39.999994933580638
 20
12.49999670826287
 30
0.0
 11
19.999994933580641
 21
12.49999670826287
 31
0.0
  0
LINE
  5
229
  8
FP-402
 10
19.999994933580641
 20
12.49999670826287
 30
0.0
 11
19.999994933580641
 21
10.99999670826287
 31
0.0
  0
LINE
  5
22A
  8
FP-402
 10
23.999994933580641
 20
0.99999670826287
 30
0.0
 11
25.999994933580641
 21
0.99999670826287
 31
0.0
  0
LINE
  5
22B
  8
FP-402
 10
25.999994933580641
 20
0.99999670826287
 30
0.0
 11
25.999994933580641
 21
8.99999670826287
 31
0.0
  0
LINE
  5
22C
  8
FP-402
 10
25.999994933580641
 20
8.99999670826287
 30
0.0
 11
23.999994933580641
 21
8.99999670826287
 31
0.0
  0
LINE
  5
22D
  8
FP-402
 10
23.999994933580641
 20
8.99999670826287
 30
0.0
 11
23.999994933580641
 21
0.99999670826287
 31
0.0
  0
LINE
  5
22E
  8
FP-402
 10
23.999994933580641
 20
0.99999670826287
 30
0.0
 11
25.999994933580641
 21
0.99999670826287
 31
0.0
  0
LINE
  5
22F
  8
FP-402
 10
25.999994933580641
 20
0.99999670826287
 30
0.0
 11
25.999994933580641
 21
8.99999670826287
 31
0.0
  0
LINE
  5
230
  8
FP-402
 10
25.999994933580641
 20
8.99999670826287
 30
0.0
 11
23.999994933580641
 21
8.99999670826287
 31
0.0
  0
LINE
  5
231
  8
FP-402
 10
23.999994933580641
 20
8.99999670826287
 30
0.0
 11
23.999994933580641
 21
0.99999670826287
 31
0.0
  0
LINE
  5
232
  8
FP-402
 10
37.499994933580638
 20
0.99999670826287
 30
0.0
 11
37.999994933580638
 21
0.99999670826287
 31
0.0
  0
LINE
  5
233
  8
FP-402
 10
37.999994933580638
 20
0.99999670826287
 30
0.0
 11
37.999994933580638
 21
8.99999670826287
 31
0.0
  0
LINE
  5
234
  8
FP-402
 10
37.999994933580638
 20
8.99999670826287
 30
0.0
 11
37.499994933580638
 21
8.99999670826287
 31
0.0
  0
LINE
  5
235
  8
FP-402
 10
37.499994933580638
 20
8.99999670826287
 30
0.0
 11
37.499994933580638
 21
0.99999670826287
 31
0.0
  0
LINE
  5
236
  8
FP-402
 10
21.999994933580641
 20
7.99999670826287
 30
0.0
 11
21.999994933580641
 21
0.99999670826287
 31
0.0
  0
LINE
  5
237
  8
FP-402
 10
22.999994933580641
 20
-0.00000329173713
 30
0.0
 11
36.999994933580638
 21
-0.00000329173713
 31
0.0
  0
LINE
  5
238
  8
FP-402
 10
36.999994933580638
 20
-0.00000329173713
 30
0.0
 11
37.999994933580638
 21
0.99999670826287
 31
0.0
  0
LINE
  5
239
  8
FP-402
 10
21.999994933580641
 20
7.99999670826287
 30
0.0
 11
21.999994933580641
 21
8.99999670826287
 31
0.0
  0
LINE
  5
23A
  8
FP-402
 10
39.999994933580638
 20
10.99999670826287
 30
0.0
 11
37.999994933580638
 21
8.99999670826287
 31
0.0
  0
LINE
  5
23B
  8
FP-402
 10
21.999994933580641
 20
8.99999670826287
 30
0.0
 11
19.999994933580641
 21
10.99999670826287
 31
0.0
  0
ARC
  5
23C
  8
FP-402
 10
1.9999949335806371
 20
14.49999670826298
 30
0.0
 40
2.0
 50
180.0
 51
270.0
  0
ARC
  5
23D
  8
FP-402
 10
1.9999949335806371
 20
390.49999670826293
 30
0.0
 40
2.0
 50
90.0
 51
180.0
  0
ARC
  5
23E
  8
FP-402
 10
277.99999493358058
 20
390.49999670826293
 30
0.0
 40
2.0
 50
0.0
 51
90.0
  0
LINE
  5
23F
  8
FP-402
 10
279.99999493358058
 20
390.49999670826293
 30
0.0
 11
279.99999493358058
 21
14.49999670826298
 31
0.0
  0
LINE
  5
240
  8
FP-402
 10
1.9999949335806371
 20
392.49999670826293
 30
0.0
 11
277.99999493358058
 21
392.49999670826293
 31
0.0
  0
ARC
  5
241
  8
FP-402
 10
277.99999493358058
 20
14.49999670826298
 30
0.0
 40
2.0
 50
270.0
 51
0.0
  0
LINE
  5
242
  8
FP-402
 10
-0.0000050664193623
 20
14.49999670826298
 30
0.0
 11
-0.0000050664193623
 21
390.49999670826293
 31
0.0
  0
LINE
  5
243
  8
FP-402
 10
277.99999493358058
 20
12.49999670826287
 30
0.0
 11
1.9999949335806371
 21
12.49999670826287
 31
0.0
  0
LINE
  5
244
  8
FP-402
 10
19.999994933580641
 20
45.499996708262522
 30
0.0
 11
19.999994933580641
 21
359.49999670826293
 31
0.0
  0
ARC
  5
245
  8
FP-402
 10
21.999994933580641
 20
45.499996708262522
 30
0.0
 40
2.0
 50
180.0
 51
270.0
  0
ARC
  5
246
  8
FP-402
 10
21.999994933580641
 20
359.49999670826293
 30
0.0
 40
2.0
 50
90.0
 51
180.0
  0
ARC
  5
247
  8
FP-402
 10
247.99999493358061
 20
359.49999670826293
 30
0.0
 40
2.0
 50
0.0
 51
90.0
  0
LINE
  5
248
  8
FP-402
 10
21.999994933580641
 20
361.49999670826293
 30
0.0
 11
247.99999493358061
 21
361.49999670826293
 31
0.0
  0
LINE
  5
249
  8
FP-402
 10
21.999994933580641
 20
43.49999670826287
 30
0.0
 11
248.00219493358071
 21
43.49999670826287
 31
0.0
  0
ARC
  5
24A
  8
FP-402
 10
247.99999493358061
 20
45.499996708262522
 30
0.0
 40
2.0
 50
270.0
 51
0.0
  0
LINE
  5
24B
  8
FP-402
 10
249.99999493358061
 20
45.499696708262938
 30
0.0
 11
249.99999493358061
 21
359.49999670826293
 31
0.0
  0
LINE
  5
24C
  8
FP-402
 10
43.899994933580729
 20
11.99999670826287
 30
0.0
 11
64.899994933580729
 21
11.99999670826287
 31
0.0
  0
LINE
  5
24D
  8
FP-402
 10
64.899994933580729
 20
11.99999670826287
 30
0.0
 11
64.899994933580729
 21
12.49999670826287
 31
0.0
  0
LINE
  5
24E
  8
FP-402
 10
64.899994933580729
 20
12.49999670826287
 30
0.0
 11
43.899994933580729
 21
12.49999670826287
 31
0.0
  0
LINE
  5
24F
  8
FP-402
 10
43.899994933580729
 20
12.49999670826287
 30
0.0
 11
43.899994933580729
 21
11.99999670826287
 31
0.0
  0
LINE
  5
250
  8
FP-402
 10
46.899994933580722
 20
11.99999670826287
 30
0.0
 11
50.399994933580729
 21
8.99999670826287
 31
0.0
  0
LINE
  5
251
  8
FP-402
 10
50.399994933580729
 20
8.99999670826287
 30
0.0
 11
61.899994933580722
 21
11.99999670826287
 31
0.0
  0
LINE
  5
252
  8
FP-402
 10
77.499994933580638
 20
9.49999670826287
 30
0.0
 11
78.499994933580638
 21
9.49999670826287
 31
0.0
  0
LINE
  5
253
  8
FP-402
 10
78.499994933580638
 20
9.49999670826287
 30
0.0
 11
78.499994933580638
 21
8.49999670826287
 31
0.0
  0
LINE
  5
254
  8
FP-402
 10
78.499994933580638
 20
8.49999670826287
 30
0.0
 11
77.499994933580638
 21
8.49999670826287
 31
0.0
  0
LINE
  5
255
  8
FP-402
 10
77.499994933580638
 20
8.49999670826287
 30
0.0
 11
77.499994933580638
 21
9.49999670826287
 31
0.0
  0
LINE
  5
256
  8
FP-402
 10
70.999994933580638
 20
12.49999670826287
 30
0.0
 11
84.999994933580638
 21
12.49999670826287
 31
0.0
  0
LINE
  5
257
  8
FP-402
 10
84.999994933580638
 20
12.49999670826287
 30
0.0
 11
84.999994933580638
 21
5.49999670826287
 31
0.0
  0
LINE
  5
258
  8
FP-402
 10
84.999994933580638
 20
5.49999670826287
 30
0.0
 11
70.999994933580638
 21
5.49999670826287
 31
0.0
  0
LINE
  5
259
  8
FP-402
 10
70.999994933580638
 20
5.49999670826287
 30
0.0
 11
70.999994933580638
 21
12.49999670826287
 31
0.0
  0
ARC
  5
25A
  8
FP-402
  6
HIDDEN
 10
237.99999493358069
 20
348.99999670826293
 30
0.0
 40
2.0
 50
0.0
 51
90.0
  0
ARC
  5
25B
  8
FP-402
  6
HIDDEN
 10
237.99999493358069
 20
55.999996708262749
 30
0.0
 40
2.0
 50
270.0
 51
0.0
  0
ARC
  5
25C
  8
FP-402
  6
HIDDEN
 10
31.999994933580641
 20
55.999996708262749
 30
0.0
 40
2.0
 50
180.0
 51
270.0
  0
ARC
  5
25D
  8
FP-402
  6
HIDDEN
 10
31.999994933580641
 20
348.99999670826293
 30
0.0
 40
2.0
 50
90.0
 51
180.0
  0
ARC
  5
25E
  8
FP-402
  6
HIDDEN
 10
31.999994933580641
 20
348.99999670826293
 30
0.0
 40
2.0
 50
90.0
 51
180.0
  0
ARC
  5
25F
  8
FP-402
  6
HIDDEN
 10
237.99999493358069
 20
348.99999670826293
 30
0.0
 40
2.0
 50
0.0
 51
90.0
  0
ARC
  5
260
  8
FP-402
  6
HIDDEN
 10
31.999994933580641
 20
55.999996708262749
 30
0.0
 40
2.0
 50
180.0
 51
270.0
  0
ARC
  5
261
  8
FP-402
  6
HIDDEN
 10
237.99999493358069
 20
55.999996708262749
 30
0.0
 40
2.0
 50
270.0
 51
0.0
  0
LINE
  5
262
  8
FP-402
  6
HIDDEN
 10
237.99999493358069
 20
53.999996708262529
 30
0.0
 11
31.999994933580641
 21
53.999996708262529
 31
0.0
  0
LINE
  5
263
  8
FP-402
  6
HIDDEN
 10
29.999994933580641
 20
55.999996708262749
 30
0.0
 11
29.999994933580641
 21
348.99999670826293
 31
0.0
  0
LINE
  5
264
  8
FP-402
  6
HIDDEN
 10
31.999994933580641
 20
350.99999670826293
 30
0.0
 11
237.99999493358069
 21
350.99999670826293
 31
0.0
  0
LINE
  5
265
  8
FP-402
  6
HIDDEN
 10
239.99999493358069
 20
348.99999670826293
 30
0.0
 11
239.99999493358069
 21
55.999996708262749
 31
0.0
  0
ENDBLK
  5
266
  8
0
  0
BLOCK
  8
0
  2
A$C30B5737C
 70
     0
 10
0.0
 20
0.0
 30
0.0
  3
A$C30B5737C
  1

  0
ARC
  5
26A
  8
FP-402
 10
1.9999949335806371
 20
36.499995936491132
 30
0.0
 40
2.0
 50
90.0
 51
180.0
  0
LINE
  5
26B
  8
FP-402
 10
-0.0000050664193623
 20
36.499995936491132
 30
0.0
 11
-0.0000050664193623
 21
3.4999959364910751
 31
0.0
  0
LINE
  5
26C
  8
FP-402
 10
277.99999493358058
 20
38.499995936491132
 30
0.0
 11
1.9999949335806371
 21
38.499995936491132
 31
0.0
  0
ARC
  5
26D
  8
FP-402
 10
277.99999493358058
 20
36.499995936491132
 30
0.0
 40
2.0
 50
0.0
 51
90.0
  0
LINE
  5
26E
  8
FP-402
 10
20.499994933580641
 20
38.999995936491132
 30
0.0
 11
249.49999493358061
 21
38.999995936491132
 31
0.0
  0
LINE
  5
26F
  8
FP-402
 10
249.49999493358061
 20
38.999995936491132
 30
0.0
 11
249.49999493358061
 21
38.499995936491132
 31
0.0
  0
LINE
  5
270
  8
FP-402
 10
249.49999493358061
 20
38.499995936491132
 30
0.0
 11
20.499994933580641
 21
38.499995936491132
 31
0.0
  0
LINE
  5
271
  8
FP-402
 10
20.499994933580641
 20
38.499995936491132
 30
0.0
 11
20.499994933580641
 21
38.999995936491132
 31
0.0
  0
LINE
  5
272
  8
FP-402
 10
279.99999493358058
 20
36.499995936491132
 30
0.0
 11
279.99999493358058
 21
3.4999959364910751
 31
0.0
  0
LINE
  5
273
  8
FP-402
 10
4.9999949335806368
 20
3.4999959364910751
 30
0.0
 11
17.999994933580641
 21
3.4999959364910751
 31
0.0
  0
LINE
  5
274
  8
FP-402
 10
5.9999949335806368
 20
-0.0000040635089249
 30
0.0
 11
16.999994933580631
 21
-0.0000040635089249
 31
0.0
  0
LINE
  5
275
  8
FP-402
 10
4.9999949335806368
 20
3.4999959364910751
 30
0.0
 11
5.9999949335806368
 21
-0.0000040635089249
 31
0.0
  0
LINE
  5
276
  8
FP-402
 10
16.999994933580631
 20
-0.0000040635089249
 30
0.0
 11
17.999994933580641
 21
3.4999959364910751
 31
0.0
  0
LINE
  5
277
  8
FP-402
 10
261.99999493358058
 20
3.4999959364910751
 30
0.0
 11
274.99999493358058
 21
3.4999959364910751
 31
0.0
  0
LINE
  5
278
  8
FP-402
 10
262.99999493358069
 20
-0.0000040635089249
 30
0.0
 11
273.99999493358058
 21
-0.0000040635089249
 31
0.0
  0
LINE
  5
279
  8
FP-402
 10
261.99999493358058
 20
3.4999959364910751
 30
0.0
 11
262.99999493358069
 21
-0.0000040635089249
 31
0.0
  0
LINE
  5
27A
  8
FP-402
 10
273.99999493358058
 20
-0.0000040635089249
 30
0.0
 11
274.99999493358058
 21
3.4999959364910751
 31
0.0
  0
LINE
  5
27B
  8
FP-402
 10
279.99999493358058
 20
3.4999959364910751
 30
0.0
 11
-0.0000050664193623
 21
3.4999959364910751
 31
0.0
  0
CIRCLE
  5
27C
  8
FP-402
 10
93.499994933580638
 20
19.499995936491072
 30
0.0
 40
2.799999999999998
  0
LINE
  5
27D
  8
FP-402
 10
91.699994933580669
 20
19.19999593650283
 30
0.0
 11
91.699994933580669
 21
19.799995936494099
 31
0.0
  0
LINE
  5
27E
  8
FP-402
 10
93.199994933580683
 20
21.299995936493989
 30
0.0
 11
93.799994933580592
 21
21.299995936493989
 31
0.0
  0
LINE
  5
27F
  8
FP-402
 10
95.299994933580805
 20
19.19999593650283
 30
0.0
 11
95.299994933580805
 21
19.799995936494099
 31
0.0
  0
LINE
  5
280
  8
FP-402
 10
93.199994933580683
 20
17.69999593650283
 30
0.0
 11
93.799994933580592
 21
17.69999593650283
 31
0.0
  0
LINE
  5
281
  8
FP-402
 10
95.299994933580805
 20
19.19999593650283
 30
0.0
 11
94.699994933580683
 21
19.19999593650283
 31
0.0
  0
LINE
  5
282
  8
FP-402
 10
93.799994933580592
 20
17.69999593650283
 30
0.0
 11
93.799994933580592
 21
18.299995936493978
 31
0.0
  0
LINE
  5
283
  8
FP-402
 10
93.199994933580683
 20
17.69999593650283
 30
0.0
 11
93.199994933580683
 21
18.299995936493978
 31
0.0
  0
LINE
  5
284
  8
FP-402
 10
91.699994933580669
 20
19.799995936494099
 30
0.0
 11
92.299994933580592
 21
19.799995936494099
 31
0.0
  0
LINE
  5
285
  8
FP-402
 10
93.799994933580592
 20
21.299995936493989
 30
0.0
 11
93.799994933580592
 21
20.69999593650283
 31
0.0
  0
LINE
  5
286
  8
FP-402
 10
95.299994933580805
 20
19.19999593650283
 30
0.0
 11
94.699994933580683
 21
19.19999593650283
 31
0.0
  0
LINE
  5
287
  8
FP-402
 10
95.299994933580805
 20
19.799995936494099
 30
0.0
 11
94.699994933580683
 21
19.799995936494099
 31
0.0
  0
LINE
  5
288
  8
FP-402
 10
93.199994933580683
 20
21.299995936493989
 30
0.0
 11
93.199994933580683
 21
20.69999593650283
 31
0.0
  0
LINE
  5
289
  8
FP-402
 10
91.699994933580669
 20
19.19999593650283
 30
0.0
 11
92.299994933580592
 21
19.19999593650283
 31
0.0
  0
ARC
  5
28A
  8
FP-402
 10
94.599994933580774
 20
20.599995936496899
 30
0.0
 40
0.8
 50
172.00000001490159
 51
277.99999998517433
  0
ARC
  5
28B
  8
FP-402
 10
92.399994933580729
 20
20.599995936496899
 30
0.0
 40
0.8
 50
262.00000001482567
 51
0.0
  0
ARC
  5
28C
  8
FP-402
 10
92.399994933580729
 20
20.599995936496899
 30
0.0
 40
0.8
 50
0.0
 51
7.9999999850983414
  0
ARC
  5
28D
  8
FP-402
 10
92.399994933580729
 20
18.39999593649992
 30
0.0
 40
0.8
 50
352.00000001490167
 51
0.0
  0
ARC
  5
28E
  8
FP-402
 10
92.399994933580729
 20
18.39999593649992
 30
0.0
 40
0.8
 50
0.0
 51
97.999999985174327
  0
ARC
  5
28F
  8
FP-402
 10
94.599994933580774
 20
18.39999593649992
 30
0.0
 40
0.8
 50
82.000000014825673
 51
187.9999999850983
  0
LINE
  5
290
  8
FP-402
 10
64.999994933580638
 20
26.999995936491128
 30
0.0
 11
43.999994933580631
 21
26.999995936491128
 31
0.0
  0
LINE
  5
291
  8
FP-402
 10
43.999994933580631
 20
26.999995936491128
 30
0.0
 11
43.999994933580631
 21
11.99999593649107
 31
0.0
  0
LINE
  5
292
  8
FP-402
 10
43.999994933580631
 20
11.99999593649107
 30
0.0
 11
64.999994933580638
 21
11.99999593649107
 31
0.0
  0
LINE
  5
293
  8
FP-402
 10
64.999994933580638
 20
11.99999593649107
 30
0.0
 11
64.999994933580638
 21
26.999995936491128
 31
0.0
  0
POLYLINE
  5
294
  8
FP-402
 66
     1
 10
0.0
 20
0.0
 30
0.0
  0
VERTEX
  5
7FF
  8
FP-402
 10
47.499994933580631
 20
19.499995936491072
 30
0.0
  0
VERTEX
  5
800
  8
FP-402
 10
47.515194933580688
 20
19.673595936500298
 30
0.0
  0
VERTEX
  5
801
  8
FP-402
 10
47.560294933580728
 20
19.841995936495259
 30
0.0
  0
VERTEX
  5
802
  8
FP-402
 10
47.633994933580652
 20
19.999995936491072
 30
0.0
  0
VERTEX
  5
803
  8
FP-402
 10
47.733994933580561
 20
20.142795936492568
 30
0.0
  0
VERTEX
  5
804
  8
FP-402
 10
47.857194933580558
 20
20.265995936494392
 30
0.0
  0
VERTEX
  5
805
  8
FP-402
 10
47.999994933580638
 20
20.365995936500209
 30
0.0
  0
VERTEX
  5
806
  8
FP-402
 10
48.157994933580767
 20
20.43969593649382
 30
0.0
  0
VERTEX
  5
807
  8
FP-402
 10
48.326394933580559
 20
20.48479593649671
 30
0.0
  0
VERTEX
  5
808
  8
FP-402
 10
48.499994933580638
 20
20.499995936491079
 30
0.0
  0
VERTEX
  5
809
  8
FP-402
 10
48.673594933580723
 20
20.48479593649671
 30
0.0
  0
VERTEX
  5
80A
  8
FP-402
 10
48.841994933580743
 20
20.43969593649382
 30
0.0
  0
VERTEX
  5
80B
  8
FP-402
 10
48.999994933580631
 20
20.365995936500209
 30
0.0
  0
VERTEX
  5
80C
  8
FP-402
 10
49.142794933580717
 20
20.265995936494392
 30
0.0
  0
VERTEX
  5
80D
  8
FP-402
 10
49.265994933580721
 20
20.142795936492568
 30
0.0
  0
VERTEX
  5
80E
  8
FP-402
 10
49.36599493358063
 20
19.999995936491072
 30
0.0
  0
VERTEX
  5
80F
  8
FP-402
 10
49.439694933580768
 20
19.841995936495259
 30
0.0
  0
VERTEX
  5
810
  8
FP-402
 10
49.484794933580588
 20
19.673595936500298
 30
0.0
  0
VERTEX
  5
811
  8
FP-402
 10
49.499994933580631
 20
19.499995936491072
 30
0.0
  0
VERTEX
  5
812
  8
FP-402
 10
49.484794933580588
 20
19.32639593649651
 30
0.0
  0
VERTEX
  5
813
  8
FP-402
 10
49.439694933580768
 20
19.157995936501489
 30
0.0
  0
VERTEX
  5
814
  8
FP-402
 10
49.36599493358063
 20
18.999995936491072
 30
0.0
  0
VERTEX
  5
815
  8
FP-402
 10
49.265994933580721
 20
18.857195936489742
 30
0.0
  0
VERTEX
  5
816
  8
FP-402
 10
49.142794933580717
 20
18.733995936502371
 30
0.0
  0
VERTEX
  5
817
  8
FP-402
 10
48.999994933580631
 20
18.6339959364966
 30
0.0
  0
VERTEX
  5
818
  8
FP-402
 10
48.841994933580743
 20
18.560295936502989
 30
0.0
  0
VERTEX
  5
819
  8
FP-402
 10
48.673594933580723
 20
18.515195936500099
 30
0.0
  0
VERTEX
  5
81A
  8
FP-402
 10
48.499994933580638
 20
18.499995936491072
 30
0.0
  0
VERTEX
  5
81B
  8
FP-402
 10
48.326394933580559
 20
18.515195936500099
 30
0.0
  0
VERTEX
  5
81C
  8
FP-402
 10
48.157994933580767
 20
18.560295936502989
 30
0.0
  0
VERTEX
  5
81D
  8
FP-402
 10
47.999994933580638
 20
18.6339959364966
 30
0.0
  0
VERTEX
  5
81E
  8
FP-402
 10
47.857194933580558
 20
18.733995936502371
 30
0.0
  0
VERTEX
  5
81F
  8
FP-402
 10
47.733994933580561
 20
18.857195936489742
 30
0.0
  0
VERTEX
  5
820
  8
FP-402
 10
47.633994933580652
 20
18.999995936491072
 30
0.0
  0
VERTEX
  5
821
  8
FP-402
 10
47.560294933580728
 20
19.157995936501489
 30
0.0
  0
VERTEX
  5
822
  8
FP-402
 10
47.515194933580688
 20
19.32639593649651
 30
0.0
  0
VERTEX
  5
823
  8
FP-402
 10
47.499994933580631
 20
19.499995936491072
 30
0.0
  0
SEQEND
  5
824
  8
FP-402
  0
LINE
  5
295
  8
FP-402
 10
61.999994933580631
 20
23.999995936491128
 30
0.0
 11
46.999994933580631
 21
23.999995936491128
 31
0.0
  0
LINE
  5
296
  8
FP-402
 10
46.999994933580631
 20
23.999995936491128
 30
0.0
 11
46.999994933580631
 21
14.99999593649107
 31
0.0
  0
LINE
  5
297
  8
FP-402
 10
46.999994933580631
 20
14.99999593649107
 30
0.0
 11
61.999994933580631
 21
14.99999593649107
 31
0.0
  0
LINE
  5
298
  8
FP-402
 10
61.999994933580631
 20
14.99999593649107
 30
0.0
 11
61.999994933580631
 21
23.999995936491128
 31
0.0
  0
LINE
  5
299
  8
FP-402
 10
50.499994933580638
 20
23.499995936491128
 30
0.0
 11
50.499994933580638
 21
15.49999593649107
 31
0.0
  0
ARC
  5
29A
  8
FP-402
 10
16.499994933580641
 20
27.499995936491128
 30
0.0
 40
2.0
 50
90.0
 51
180.0
  0
ARC
  5
29B
  8
FP-402
 10
16.499994933580641
 20
11.49999593649107
 30
0.0
 40
2.0
 50
180.0
 51
270.0
  0
ARC
  5
29C
  8
FP-402
 10
87.499994933580638
 20
11.49999593649107
 30
0.0
 40
2.0
 50
270.0
 51
0.0
  0
ARC
  5
29D
  8
FP-402
 10
87.499994933580638
 20
27.499995936491128
 30
0.0
 40
2.0
 50
0.0
 51
90.0
  0
LINE
  5
29E
  8
FP-402
 10
89.499994933580624
 20
27.499995936491128
 30
0.0
 11
89.499994933580624
 21
11.49999593649107
 31
0.0
  0
LINE
  5
29F
  8
FP-402
 10
87.499994933580638
 20
9.4999959364910751
 30
0.0
 11
16.499994933580641
 21
9.4999959364910751
 31
0.0
  0
LINE
  5
2A0
  8
FP-402
 10
14.499994933580631
 20
11.49999593649107
 30
0.0
 11
14.499994933580631
 21
27.499995936491128
 31
0.0
  0
LINE
  5
2A1
  8
FP-402
 10
16.499994933580641
 20
29.499995936491128
 30
0.0
 11
87.499994933580638
 21
29.499995936491128
 31
0.0
  0
CIRCLE
  5
2A2
  8
FP-402
 10
10.49999493358064
 20
19.499995936491072
 30
0.0
 40
2.799999999999998
  0
LINE
  5
2A3
  8
FP-402
 10
8.6999949335806832
 20
19.19999593650283
 30
0.0
 11
8.6999949335806832
 21
19.799995936494099
 31
0.0
  0
LINE
  5
2A4
  8
FP-402
 10
10.19999493358068
 20
21.299995936493989
 30
0.0
 11
10.79999493358059
 21
21.299995936493989
 31
0.0
  0
LINE
  5
2A5
  8
FP-402
 10
12.29999493358059
 20
19.19999593650283
 30
0.0
 11
12.29999493358059
 21
19.799995936494099
 31
0.0
  0
LINE
  5
2A6
  8
FP-402
 10
10.19999493358068
 20
17.69999593650283
 30
0.0
 11
10.79999493358059
 21
17.69999593650283
 31
0.0
  0
LINE
  5
2A7
  8
FP-402
 10
12.29999493358059
 20
19.19999593650283
 30
0.0
 11
11.69999493358068
 21
19.19999593650283
 31
0.0
  0
LINE
  5
2A8
  8
FP-402
 10
10.79999493358059
 20
17.69999593650283
 30
0.0
 11
10.79999493358059
 21
18.299995936493978
 31
0.0
  0
LINE
  5
2A9
  8
FP-402
 10
10.19999493358068
 20
17.69999593650283
 30
0.0
 11
10.19999493358068
 21
18.299995936493978
 31
0.0
  0
LINE
  5
2AA
  8
FP-402
 10
8.6999949335806832
 20
19.799995936494099
 30
0.0
 11
9.2999949335805923
 21
19.799995936494099
 31
0.0
  0
LINE
  5
2AB
  8
FP-402
 10
10.79999493358059
 20
21.299995936493989
 30
0.0
 11
10.79999493358059
 21
20.69999593650283
 31
0.0
  0
LINE
  5
2AC
  8
FP-402
 10
12.29999493358059
 20
19.19999593650283
 30
0.0
 11
11.69999493358068
 21
19.19999593650283
 31
0.0
  0
LINE
  5
2AD
  8
FP-402
 10
12.29999493358059
 20
19.799995936494099
 30
0.0
 11
11.69999493358068
 21
19.799995936494099
 31
0.0
  0
LINE
  5
2AE
  8
FP-402
 10
10.19999493358068
 20
21.299995936493989
 30
0.0
 11
10.19999493358068
 21
20.69999593650283
 31
0.0
  0
LINE
  5
2AF
  8
FP-402
 10
8.6999949335806832
 20
19.19999593650283
 30
0.0
 11
9.2999949335805923
 21
19.19999593650283
 31
0.0
  0
ARC
  5
2B0
  8
FP-402
 10
11.599994933580771
 20
20.599995936496899
 30
0.0
 40
0.8
 50
172.00000001490159
 51
277.99999998517433
  0
ARC
  5
2B1
  8
FP-402
 10
9.3999949335807287
 20
20.599995936496899
 30
0.0
 40
0.8
 50
262.00000001482567
 51
0.0
  0
ARC
  5
2B2
  8
FP-402
 10
9.3999949335807287
 20
20.599995936496899
 30
0.0
 40
0.8
 50
0.0
 51
7.9999999850983414
  0
ARC
  5
2B3
  8
FP-402
 10
9.3999949335807287
 20
18.39999593649992
 30
0.0
 40
0.8
 50
352.00000001490167
 51
0.0
  0
ARC
  5
2B4
  8
FP-402
 10
9.3999949335807287
 20
18.39999593649992
 30
0.0
 40
0.8
 50
0.0
 51
97.999999985174327
  0
ARC
  5
2B5
  8
FP-402
 10
11.599994933580771
 20
18.39999593649992
 30
0.0
 40
0.8
 50
82.000000014825673
 51
187.9999999850983
  0
CIRCLE
  5
2B6
  8
FP-402
 10
79.499994933580624
 20
19.499995936491072
 30
0.0
 40
8.5
  0
CIRCLE
  5
2B7
  8
FP-402
 10
79.499994933580624
 20
19.499995936491072
 30
0.0
 40
7.0
  0
LINE
  5
2B8
  8
FP-402
 10
78.999994933580624
 20
27.499995936491128
 30
0.0
 11
79.999994933580638
 21
27.499995936491128
 31
0.0
  0
LINE
  5
2B9
  8
FP-402
 10
79.999994933580638
 20
27.499995936491128
 30
0.0
 11
79.999994933580638
 21
26.499995936491128
 31
0.0
  0
LINE
  5
2BA
  8
FP-402
 10
79.999994933580638
 20
26.499995936491128
 30
0.0
 11
78.999994933580624
 21
26.499995936491128
 31
0.0
  0
LINE
  5
2BB
  8
FP-402
 10
78.999994933580624
 20
26.499995936491128
 30
0.0
 11
78.999994933580624
 21
27.499995936491128
 31
0.0
  0
LINE
  5
2BC
  8
FP-402
 10
78.999994933580624
 20
12.49999593649107
 30
0.0
 11
79.999994933580638
 21
12.49999593649107
 31
0.0
  0
LINE
  5
2BD
  8
FP-402
 10
79.999994933580638
 20
12.49999593649107
 30
0.0
 11
79.999994933580638
 21
11.49999593649107
 31
0.0
  0
LINE
  5
2BE
  8
FP-402
 10
79.999994933580638
 20
11.49999593649107
 30
0.0
 11
78.999994933580624
 21
11.49999593649107
 31
0.0
  0
LINE
  5
2BF
  8
FP-402
 10
78.999994933580624
 20
11.49999593649107
 30
0.0
 11
78.999994933580624
 21
12.49999593649107
 31
0.0
  0
CIRCLE
  5
2C0
  8
FP-402
 10
79.499994933580624
 20
21.499995936491072
 30
0.0
 40
0.5
  0
CIRCLE
  5
2C1
  8
FP-402
 10
79.499994933580624
 20
17.499995936491072
 30
0.0
 40
0.5
  0
CIRCLE
  5
2C2
  8
FP-402
 10
79.499994933580624
 20
19.499995936491072
 30
0.0
 40
6.0
  0
POLYLINE
  5
2C3
  8
FP-402
 66
     1
 10
0.0
 20
0.0
 30
0.0
  0
VERTEX
  5
825
  8
FP-402
 10
19.599994933580771
 20
19.59999593649701
 30
0.0
  0
VERTEX
  5
826
  8
FP-402
 10
19.742794933580619
 20
17.967695936499471
 30
0.0
  0
VERTEX
  5
827
  8
FP-402
 10
20.166894933580579
 20
16.384995936500388
 30
0.0
  0
VERTEX
  5
828
  8
FP-402
 10
20.859394933580688
 20
14.899995936499799
 30
0.0
  0
VERTEX
  5
829
  8
FP-402
 10
21.799194933580569
 20
13.557795936500719
 30
0.0
  0
VERTEX
  5
82A
  8
FP-402
 10
22.957794933580541
 20
12.39919593649091
 30
0.0
  0
VERTEX
  5
82B
  8
FP-402
 10
24.299994933580589
 20
11.45939593649808
 30
0.0
  0
VERTEX
  5
82C
  8
FP-402
 10
25.78499493358072
 20
10.76689593649348
 30
0.0
  0
VERTEX
  5
82D
  8
FP-402
 10
27.367694933580651
 20
10.34279593648972
 30
0.0
  0
VERTEX
  5
82E
  8
FP-402
 10
28.999994933580641
 20
10.19999593650283
 30
0.0
  0
VERTEX
  5
82F
  8
FP-402
 10
30.632294933580631
 20
10.34279593648972
 30
0.0
  0
VERTEX
  5
830
  8
FP-402
 10
32.214994933580563
 20
10.76689593649348
 30
0.0
  0
VERTEX
  5
831
  8
FP-402
 10
33.69999493358069
 20
11.45939593649808
 30
0.0
  0
VERTEX
  5
832
  8
FP-402
 10
35.042194933580731
 20
12.39919593649091
 30
0.0
  0
VERTEX
  5
833
  8
FP-402
 10
36.20079493358071
 20
13.557795936500719
 30
0.0
  0
VERTEX
  5
834
  8
FP-402
 10
37.140594933580587
 20
14.899995936499799
 30
0.0
  0
VERTEX
  5
835
  8
FP-402
 10
37.833094933580703
 20
16.384995936500388
 30
0.0
  0
VERTEX
  5
836
  8
FP-402
 10
38.257194933580649
 20
17.967695936499471
 30
0.0
  0
VERTEX
  5
837
  8
FP-402
 10
38.399994933580729
 20
19.59999593649701
 30
0.0
  0
VERTEX
  5
838
  8
FP-402
 10
38.257194933580649
 20
21.232295936494442
 30
0.0
  0
VERTEX
  5
839
  8
FP-402
 10
37.833094933580703
 20
22.81499593649346
 30
0.0
  0
VERTEX
  5
83A
  8
FP-402
 10
37.140594933580587
 20
24.299995936494039
 30
0.0
  0
VERTEX
  5
83B
  8
FP-402
 10
36.20079493358071
 20
25.642195936493181
 30
0.0
  0
VERTEX
  5
83C
  8
FP-402
 10
35.042194933580731
 20
26.80079593650294
 30
0.0
  0
VERTEX
  5
83D
  8
FP-402
 10
33.69999493358069
 20
27.740595936495769
 30
0.0
  0
VERTEX
  5
83E
  8
FP-402
 10
32.214994933580563
 20
28.433095936500418
 30
0.0
  0
VERTEX
  5
83F
  8
FP-402
 10
30.632294933580631
 20
28.857195936489688
 30
0.0
  0
VERTEX
  5
840
  8
FP-402
 10
28.999994933580641
 20
28.999995936491128
 30
0.0
  0
VERTEX
  5
841
  8
FP-402
 10
27.367694933580651
 20
28.857195936489688
 30
0.0
  0
VERTEX
  5
842
  8
FP-402
 10
25.78499493358072
 20
28.433095936500418
 30
0.0
  0
VERTEX
  5
843
  8
FP-402
 10
24.299994933580589
 20
27.740595936495769
 30
0.0
  0
VERTEX
  5
844
  8
FP-402
 10
22.957794933580541
 20
26.80079593650294
 30
0.0
  0
VERTEX
  5
845
  8
FP-402
 10
21.799194933580569
 20
25.642195936493181
 30
0.0
  0
VERTEX
  5
846
  8
FP-402
 10
20.859394933580688
 20
24.299995936494039
 30
0.0
  0
VERTEX
  5
847
  8
FP-402
 10
20.166894933580579
 20
22.81499593649346
 30
0.0
  0
VERTEX
  5
848
  8
FP-402
 10
19.742794933580619
 20
21.232295936494442
 30
0.0
  0
VERTEX
  5
849
  8
FP-402
 10
19.599994933580771
 20
19.59999593649701
 30
0.0
  0
SEQEND
  5
84A
  8
FP-402
  0
LINE
  5
2C4
  8
FP-402
 10
25.241294933580551
 20
18.231895936489991
 30
0.0
 11
21.48249493358071
 21
16.863795936497581
 31
0.0
  0
LINE
  5
2C5
  8
FP-402
 10
23.48449493358066
 20
14.97189593649523
 30
0.0
 11
22.87169493358056
 21
14.457695936490209
 31
0.0
  0
LINE
  5
2C6
  8
FP-402
 10
25.399994933580729
 20
13.36459593649186
 30
0.0
 11
24.999994933580641
 21
12.67179593650201
 31
0.0
  0
LINE
  5
2C7
  8
FP-402
 10
30.25029493358057
 20
12.509395936501109
 30
0.0
 11
30.389194933580711
 21
11.721495936490889
 31
0.0
  0
POLYLINE
  5
2C8
  8
FP-402
 66
     1
 10
0.0
 20
0.0
 30
0.0
  0
VERTEX
  5
84B
  8
FP-402
 10
23.48449493358066
 20
14.97189593649523
 30
0.0
  0
VERTEX
  5
84C
  8
FP-402
 10
24.37189493358073
 20
14.084495936503
 30
0.0
  0
VERTEX
  5
84D
  8
FP-402
 10
25.399994933580729
 20
13.36459593649186
 30
0.0
  0
SEQEND
  5
84E
  8
FP-402
  0
POLYLINE
  5
2C9
  8
FP-402
 66
     1
 10
0.0
 20
0.0
 30
0.0
  0
VERTEX
  5
84F
  8
FP-402
 10
30.250194933580591
 20
12.509395936501109
 30
0.0
  0
VERTEX
  5
850
  8
FP-402
 10
31.4625949335807
 20
12.83419593648858
 30
0.0
  0
VERTEX
  5
851
  8
FP-402
 10
32.599994933580781
 20
13.36459593649186
 30
0.0
  0
SEQEND
  5
852
  8
FP-402
  0
LINE
  5
2CA
  8
FP-402
 10
32.599994933580781
 20
13.36459593649186
 30
0.0
 11
32.999994933580638
 21
12.67179593650201
 31
0.0
  0
LINE
  5
2CB
  8
FP-402
 10
35.765794933580537
 20
17.13739593649802
 30
0.0
 11
36.517494933580572
 21
16.863795936497581
 31
0.0
  0
LINE
  5
2CC
  8
FP-402
 10
36.19999493358069
 20
19.59999593649701
 30
0.0
 11
36.999994933580638
 21
19.59999593649701
 31
0.0
  0
LINE
  5
2CD
  8
FP-402
 10
34.515494933580612
 20
24.228095936498679
 30
0.0
 11
35.128294933580719
 21
24.742295936489199
 31
0.0
  0
LINE
  5
2CE
  8
FP-402
 10
32.599994933580781
 20
25.835395936501978
 30
0.0
 11
32.999994933580638
 21
26.528195936491791
 31
0.0
  0
LINE
  5
2CF
  8
FP-402
 10
25.399994933580729
 20
25.835395936501978
 30
0.0
 11
24.999994933580641
 21
26.528195936491791
 31
0.0
  0
LINE
  5
2D0
  8
FP-402
 10
27.749694933580709
 20
26.690595936492858
 30
0.0
 11
27.610794933580571
 21
27.478495936503009
 31
0.0
  0
LINE
  5
2D1
  8
FP-402
 10
21.799994933580589
 20
19.59999593649701
 30
0.0
 11
20.999994933580641
 21
19.59999593649701
 31
0.0
  0
LINE
  5
2D2
  8
FP-402
 10
22.234194933580739
 20
22.062595936495882
 30
0.0
 11
21.48249493358071
 21
22.336195936496331
 31
0.0
  0
POLYLINE
  5
2D3
  8
FP-402
 66
     1
 10
0.0
 20
0.0
 30
0.0
  0
VERTEX
  5
853
  8
FP-402
 10
35.765794933580537
 20
17.13739593649802
 30
0.0
  0
VERTEX
  5
854
  8
FP-402
 10
36.090594933580633
 20
18.349795936502002
 30
0.0
  0
VERTEX
  5
855
  8
FP-402
 10
36.19999493358069
 20
19.59999593649701
 30
0.0
  0
SEQEND
  5
856
  8
FP-402
  0
POLYLINE
  5
2D4
  8
FP-402
 66
     1
 10
0.0
 20
0.0
 30
0.0
  0
VERTEX
  5
857
  8
FP-402
 10
34.515494933580612
 20
24.228095936498679
 30
0.0
  0
VERTEX
  5
858
  8
FP-402
 10
33.628094933580769
 20
25.115495936490898
 30
0.0
  0
VERTEX
  5
859
  8
FP-402
 10
32.599994933580781
 20
25.835395936501978
 30
0.0
  0
SEQEND
  5
85A
  8
FP-402
  0
POLYLINE
  5
2D5
  8
FP-402
 66
     1
 10
0.0
 20
0.0
 30
0.0
  0
VERTEX
  5
85B
  8
FP-402
 10
27.749794933580691
 20
26.690595936492858
 30
0.0
  0
VERTEX
  5
85C
  8
FP-402
 10
26.537394933580568
 20
26.365795936490709
 30
0.0
  0
VERTEX
  5
85D
  8
FP-402
 10
25.399994933580729
 20
25.835395936501978
 30
0.0
  0
SEQEND
  5
85E
  8
FP-402
  0
POLYLINE
  5
2D6
  8
FP-402
 66
     1
 10
0.0
 20
0.0
 30
0.0
  0
VERTEX
  5
85F
  8
FP-402
 10
22.234194933580739
 20
22.062595936495882
 30
0.0
  0
VERTEX
  5
860
  8
FP-402
 10
21.909394933580639
 20
20.8501959364919
 30
0.0
  0
VERTEX
  5
861
  8
FP-402
 10
21.799994933580589
 20
19.59999593649701
 30
0.0
  0
SEQEND
  5
862
  8
FP-402
  0
POLYLINE
  5
2D7
  8
FP-402
 66
     1
 10
0.0
 20
0.0
 30
0.0
  0
VERTEX
  5
863
  8
FP-402
 10
20.999994933580641
 20
19.59999593649701
 30
0.0
  0
VERTEX
  5
864
  8
FP-402
 10
21.12149493358061
 20
18.21079593649187
 30
0.0
  0
VERTEX
  5
865
  8
FP-402
 10
21.48249493358071
 20
16.863795936497581
 30
0.0
  0
VERTEX
  5
866
  8
FP-402
 10
22.071794933580581
 20
15.59999593649701
 30
0.0
  0
VERTEX
  5
867
  8
FP-402
 10
22.87169493358056
 20
14.457695936490209
 30
0.0
  0
SEQEND
  5
868
  8
FP-402
  0
POLYLINE
  5
2D8
  8
FP-402
 66
     1
 10
0.0
 20
0.0
 30
0.0
  0
VERTEX
  5
869
  8
FP-402
 10
24.999994933580641
 20
12.67179593650201
 30
0.0
  0
VERTEX
  5
86A
  8
FP-402
 10
26.263794933580581
 20
12.08249593649521
 30
0.0
  0
VERTEX
  5
86B
  8
FP-402
 10
27.610794933580571
 20
11.721495936490889
 30
0.0
  0
VERTEX
  5
86C
  8
FP-402
 10
28.999994933580641
 20
11.59999593649701
 30
0.0
  0
VERTEX
  5
86D
  8
FP-402
 10
30.389194933580711
 20
11.721495936490889
 30
0.0
  0
SEQEND
  5
86E
  8
FP-402
  0
POLYLINE
  5
2D9
  8
FP-402
 66
     1
 10
0.0
 20
0.0
 30
0.0
  0
VERTEX
  5
86F
  8
FP-402
 10
32.999994933580638
 20
12.67179593650201
 30
0.0
  0
VERTEX
  5
870
  8
FP-402
 10
34.142294933580622
 20
13.471695936500341
 30
0.0
  0
VERTEX
  5
871
  8
FP-402
 10
35.128294933580719
 20
14.457695936490209
 30
0.0
  0
VERTEX
  5
872
  8
FP-402
 10
35.928194933580698
 20
15.59999593649701
 30
0.0
  0
VERTEX
  5
873
  8
FP-402
 10
36.517494933580572
 20
16.863795936497581
 30
0.0
  0
SEQEND
  5
874
  8
FP-402
  0
POLYLINE
  5
2DA
  8
FP-402
 66
     1
 10
0.0
 20
0.0
 30
0.0
  0
VERTEX
  5
875
  8
FP-402
 10
36.999994933580638
 20
19.59999593649701
 30
0.0
  0
VERTEX
  5
876
  8
FP-402
 10
36.878494933580669
 20
20.989195936502028
 30
0.0
  0
VERTEX
  5
877
  8
FP-402
 10
36.517494933580572
 20
22.336195936496331
 30
0.0
  0
VERTEX
  5
878
  8
FP-402
 10
35.928194933580698
 20
23.599995936496949
 30
0.0
  0
VERTEX
  5
879
  8
FP-402
 10
35.128294933580719
 20
24.742295936489199
 30
0.0
  0
SEQEND
  5
87A
  8
FP-402
  0
POLYLINE
  5
2DB
  8
FP-402
 66
     1
 10
0.0
 20
0.0
 30
0.0
  0
VERTEX
  5
87B
  8
FP-402
 10
32.999994933580638
 20
26.528195936491791
 30
0.0
  0
VERTEX
  5
87C
  8
FP-402
 10
31.736194933580691
 20
27.117495936498699
 30
0.0
  0
VERTEX
  5
87D
  8
FP-402
 10
30.389194933580711
 20
27.478495936503009
 30
0.0
  0
VERTEX
  5
87E
  8
FP-402
 10
28.999994933580641
 20
27.599995936496949
 30
0.0
  0
VERTEX
  5
87F
  8
FP-402
 10
27.610794933580571
 20
27.478495936503009
 30
0.0
  0
SEQEND
  5
880
  8
FP-402
  0
POLYLINE
  5
2DC
  8
FP-402
 66
     1
 10
0.0
 20
0.0
 30
0.0
  0
VERTEX
  5
881
  8
FP-402
 10
24.999994933580641
 20
26.528195936491791
 30
0.0
  0
VERTEX
  5
882
  8
FP-402
 10
23.85769493358066
 20
25.72829593649363
 30
0.0
  0
VERTEX
  5
883
  8
FP-402
 10
22.87169493358056
 20
24.742295936489199
 30
0.0
  0
VERTEX
  5
884
  8
FP-402
 10
22.071794933580581
 20
23.599995936496949
 30
0.0
  0
VERTEX
  5
885
  8
FP-402
 10
21.48249493358071
 20
22.336195936496331
 30
0.0
  0
SEQEND
  5
886
  8
FP-402
  0
ENDBLK
  5
2DD
  8
0
  0
BLOCK
  8
0
  2
A$C0478509A
 70
     0
 10
0.0
 20
0.0
 30
0.0
  3
A$C0478509A
  1

  0
ARC
  5
2E1
  8
FP-402
 10
7.999999148104961
 20
202.4999967082629
 30
0.0
 40
1.5
 50
90.0
 51
270.0
  0
ARC
  5
2E2
  8
FP-402
 10
14.99999914810496
 20
202.4999967082629
 30
0.0
 40
1.5
 50
270.0
 51
90.0
  0
LINE
  5
2E3
  8
FP-402
 10
7.999999148104961
 20
203.99999670826281
 30
0.0
 11
14.99999914810496
 21
203.99999670826281
 31
0.0
  0
LINE
  5
2E4
  8
FP-402
 10
7.999999148104961
 20
200.99999670826239
 30
0.0
 11
14.99999914810496
 21
200.99999670826239
 31
0.0
  0
ARC
  5
2E5
  8
FP-402
 10
7.999999148104961
 20
197.4999967082629
 30
0.0
 40
1.5
 50
90.0
 51
270.0
  0
ARC
  5
2E6
  8
FP-402
 10
14.99999914810496
 20
197.4999967082629
 30
0.0
 40
1.5
 50
270.0
 51
90.0
  0
LINE
  5
2E7
  8
FP-402
 10
7.999999148104961
 20
198.99999670826281
 30
0.0
 11
14.99999914810496
 21
198.99999670826281
 31
0.0
  0
LINE
  5
2E8
  8
FP-402
 10
7.999999148104961
 20
195.9999967082625
 30
0.0
 11
14.99999914810496
 21
195.9999967082625
 31
0.0
  0
ARC
  5
2E9
  8
FP-402
 10
7.999999148104961
 20
192.49999670826239
 30
0.0
 40
1.5
 50
90.0
 51
270.0
  0
ARC
  5
2EA
  8
FP-402
 10
14.99999914810496
 20
192.49999670826239
 30
0.0
 40
1.5
 50
270.0
 51
90.0
  0
LINE
  5
2EB
  8
FP-402
 10
7.999999148104961
 20
193.99999670826281
 30
0.0
 11
14.99999914810496
 21
193.99999670826281
 31
0.0
  0
LINE
  5
2EC
  8
FP-402
 10
7.999999148104961
 20
190.99999670826281
 30
0.0
 11
14.99999914810496
 21
190.99999670826281
 31
0.0
  0
ARC
  5
2ED
  8
FP-402
 10
7.999999148104961
 20
187.49999670826281
 30
0.0
 40
1.5
 50
90.0
 51
270.0
  0
ARC
  5
2EE
  8
FP-402
 10
14.99999914810496
 20
187.49999670826281
 30
0.0
 40
1.5
 50
270.0
 51
90.0
  0
LINE
  5
2EF
  8
FP-402
 10
7.999999148104961
 20
188.9999967082623
 30
0.0
 11
14.99999914810496
 21
188.9999967082623
 31
0.0
  0
LINE
  5
2F0
  8
FP-402
 10
7.999999148104961
 20
185.9999967082627
 30
0.0
 11
14.99999914810496
 21
185.9999967082627
 31
0.0
  0
ARC
  5
2F1
  8
FP-402
 10
7.999999148104961
 20
182.49999670826281
 30
0.0
 40
1.5
 50
90.0
 51
270.0
  0
ARC
  5
2F2
  8
FP-402
 10
14.99999914810496
 20
182.49999670826281
 30
0.0
 40
1.5
 50
270.0
 51
90.0
  0
LINE
  5
2F3
  8
FP-402
 10
7.999999148104961
 20
183.99999670826239
 30
0.0
 11
14.99999914810496
 21
183.99999670826239
 31
0.0
  0
LINE
  5
2F4
  8
FP-402
 10
7.999999148104961
 20
180.99999670826281
 30
0.0
 11
14.99999914810496
 21
180.99999670826281
 31
0.0
  0
ARC
  5
2F5
  8
FP-402
 10
7.999999148104961
 20
177.49999670826281
 30
0.0
 40
1.5
 50
90.0
 51
270.0
  0
ARC
  5
2F6
  8
FP-402
 10
14.99999914810496
 20
177.49999670826281
 30
0.0
 40
1.5
 50
270.0
 51
90.0
  0
LINE
  5
2F7
  8
FP-402
 10
7.999999148104961
 20
178.99999670826281
 30
0.0
 11
14.99999914810496
 21
178.99999670826281
 31
0.0
  0
LINE
  5
2F8
  8
FP-402
 10
7.999999148104961
 20
175.99999670826239
 30
0.0
 11
14.99999914810496
 21
175.99999670826239
 31
0.0
  0
ARC
  5
2F9
  8
FP-402
 10
7.999999148104961
 20
172.4999967082623
 30
0.0
 40
1.5
 50
90.0
 51
270.0
  0
ARC
  5
2FA
  8
FP-402
 10
14.99999914810496
 20
172.4999967082623
 30
0.0
 40
1.5
 50
270.0
 51
90.0
  0
LINE
  5
2FB
  8
FP-402
 10
7.999999148104961
 20
173.99999670826281
 30
0.0
 11
14.99999914810496
 21
173.99999670826281
 31
0.0
  0
LINE
  5
2FC
  8
FP-402
 10
7.999999148104961
 20
170.9999967082625
 30
0.0
 11
14.99999914810496
 21
170.9999967082625
 31
0.0
  0
ARC
  5
2FD
  8
FP-402
 10
7.999999148104961
 20
167.49999670826239
 30
0.0
 40
1.5
 50
90.0
 51
270.0
  0
ARC
  5
2FE
  8
FP-402
 10
14.99999914810496
 20
167.49999670826239
 30
0.0
 40
1.5
 50
270.0
 51
90.0
  0
LINE
  5
2FF
  8
FP-402
 10
7.999999148104961
 20
168.99999670826281
 30
0.0
 11
14.99999914810496
 21
168.99999670826281
 31
0.0
  0
LINE
  5
300
  8
FP-402
 10
7.999999148104961
 20
165.99999670826281
 30
0.0
 11
14.99999914810496
 21
165.99999670826281
 31
0.0
  0
ARC
  5
301
  8
FP-402
 10
7.999999148104961
 20
162.49999670826281
 30
0.0
 40
1.5
 50
90.0
 51
270.0
  0
ARC
  5
302
  8
FP-402
 10
14.99999914810496
 20
162.49999670826281
 30
0.0
 40
1.5
 50
270.0
 51
90.0
  0
LINE
  5
303
  8
FP-402
 10
7.999999148104961
 20
163.9999967082623
 30
0.0
 11
14.99999914810496
 21
163.9999967082623
 31
0.0
  0
LINE
  5
304
  8
FP-402
 10
7.999999148104961
 20
160.9999967082627
 30
0.0
 11
14.99999914810496
 21
160.9999967082627
 31
0.0
  0
ARC
  5
305
  8
FP-402
 10
7.999999148104961
 20
157.49999670826281
 30
0.0
 40
1.5
 50
90.0
 51
270.0
  0
ARC
  5
306
  8
FP-402
 10
14.99999914810496
 20
157.49999670826281
 30
0.0
 40
1.5
 50
270.0
 51
90.0
  0
LINE
  5
307
  8
FP-402
 10
7.999999148104961
 20
158.99999670826239
 30
0.0
 11
14.99999914810496
 21
158.99999670826239
 31
0.0
  0
LINE
  5
308
  8
FP-402
 10
7.999999148104961
 20
155.9999967082629
 30
0.0
 11
14.99999914810496
 21
155.9999967082629
 31
0.0
  0
ARC
  5
309
  8
FP-402
 10
7.999999148104961
 20
152.49999670826281
 30
0.0
 40
1.5
 50
90.0
 51
270.0
  0
ARC
  5
30A
  8
FP-402
 10
14.99999914810496
 20
152.49999670826281
 30
0.0
 40
1.5
 50
270.0
 51
90.0
  0
LINE
  5
30B
  8
FP-402
 10
7.999999148104961
 20
153.99999670826281
 30
0.0
 11
14.99999914810496
 21
153.99999670826281
 31
0.0
  0
LINE
  5
30C
  8
FP-402
 10
7.999999148104961
 20
150.99999670826239
 30
0.0
 11
14.99999914810496
 21
150.99999670826239
 31
0.0
  0
ARC
  5
30D
  8
FP-402
 10
2.499999148104961
 20
390.49999670826247
 30
0.0
 40
2.0
 50
90.0
 51
180.0
  0
LINE
  5
30E
  8
FP-402
 10
35.499999148104962
 20
392.49999670826293
 30
0.0
 11
2.499999148104961
 21
392.49999670826247
 31
0.0
  0
LINE
  5
30F
  8
FP-402
 10
0.499999148104962
 20
390.49999670826247
 30
0.0
 11
0.499999148104962
 21
14.499996708262749
 31
0.0
  0
LINE
  5
310
  8
FP-402
 10
35.499999148104962
 20
12.499996708262749
 30
0.0
 11
2.499999148104961
 21
12.499996708262749
 31
0.0
  0
ARC
  5
311
  8
FP-402
 10
2.499999148104961
 20
14.499996708262749
 30
0.0
 40
2.0
 50
180.0
 51
270.0
  0
LINE
  5
312
  8
FP-402
 10
0.499999148104962
 20
360.99999670826247
 30
0.0
 11
-0.0000008518950381
 21
360.99999670826247
 31
0.0
  0
LINE
  5
313
  8
FP-402
 10
-0.0000008518950381
 20
360.99999670826247
 30
0.0
 11
-0.0000008518950381
 21
43.999996708262749
 31
0.0
  0
LINE
  5
314
  8
FP-402
 10
-0.0000008518950381
 20
43.999996708262749
 30
0.0
 11
0.499999148104962
 21
43.999996708262749
 31
0.0
  0
LINE
  5
315
  8
FP-402
 10
0.499999148104962
 20
43.999996708262749
 30
0.0
 11
0.499999148104962
 21
360.99999670826247
 31
0.0
  0
LINE
  5
316
  8
FP-402
 10
35.499999148104962
 20
17.499996708262529
 30
0.0
 11
35.499999148104962
 21
30.499996708262419
 31
0.0
  0
LINE
  5
317
  8
FP-402
 10
38.999999148104962
 20
18.499996708262412
 30
0.0
 11
38.999999148104962
 21
29.499996708262639
 31
0.0
  0
LINE
  5
318
  8
FP-402
 10
35.499999148104962
 20
17.499996708262529
 30
0.0
 11
38.999999148104962
 21
18.499996708262412
 31
0.0
  0
LINE
  5
319
  8
FP-402
 10
38.999999148104962
 20
29.499996708262639
 30
0.0
 11
35.499999148104962
 21
30.499996708262419
 31
0.0
  0
LINE
  5
31A
  8
FP-402
 10
35.499999148104962
 20
374.49999670826293
 30
0.0
 11
35.499999148104962
 21
387.49999670826293
 31
0.0
  0
LINE
  5
31B
  8
FP-402
 10
38.999999148104962
 20
375.49999670826293
 30
0.0
 11
38.999999148104962
 21
386.49999670826293
 31
0.0
  0
LINE
  5
31C
  8
FP-402
 10
35.499999148104962
 20
374.49999670826293
 30
0.0
 11
38.999999148104962
 21
375.49999670826293
 31
0.0
  0
LINE
  5
31D
  8
FP-402
 10
38.999999148104962
 20
386.49999670826293
 30
0.0
 11
35.499999148104962
 21
387.49999670826293
 31
0.0
  0
ARC
  5
31E
  8
FP-402
 10
7.999999148104961
 20
252.4999967082629
 30
0.0
 40
1.5
 50
90.0
 51
270.0
  0
ARC
  5
31F
  8
FP-402
 10
14.99999914810496
 20
252.4999967082629
 30
0.0
 40
1.5
 50
270.0
 51
90.0
  0
LINE
  5
320
  8
FP-402
 10
7.999999148104961
 20
253.99999670826281
 30
0.0
 11
14.99999914810496
 21
253.99999670826281
 31
0.0
  0
LINE
  5
321
  8
FP-402
 10
7.999999148104961
 20
250.99999670826259
 30
0.0
 11
14.99999914810496
 21
250.99999670826259
 31
0.0
  0
ARC
  5
322
  8
FP-402
 10
7.999999148104961
 20
247.49999670826259
 30
0.0
 40
1.5
 50
90.0
 51
270.0
  0
ARC
  5
323
  8
FP-402
 10
14.99999914810496
 20
247.49999670826259
 30
0.0
 40
1.5
 50
270.0
 51
90.0
  0
LINE
  5
324
  8
FP-402
 10
7.999999148104961
 20
248.9999967082629
 30
0.0
 11
14.99999914810496
 21
248.9999967082629
 31
0.0
  0
LINE
  5
325
  8
FP-402
 10
7.999999148104961
 20
245.9999967082629
 30
0.0
 11
14.99999914810496
 21
245.9999967082629
 31
0.0
  0
ARC
  5
326
  8
FP-402
 10
7.999999148104961
 20
242.4999967082629
 30
0.0
 40
1.5
 50
90.0
 51
270.0
  0
ARC
  5
327
  8
FP-402
 10
14.99999914810496
 20
242.4999967082629
 30
0.0
 40
1.5
 50
270.0
 51
90.0
  0
LINE
  5
328
  8
FP-402
 10
7.999999148104961
 20
243.9999967082627
 30
0.0
 11
14.99999914810496
 21
243.9999967082627
 31
0.0
  0
LINE
  5
329
  8
FP-402
 10
7.999999148104961
 20
240.9999967082629
 30
0.0
 11
14.99999914810496
 21
240.9999967082629
 31
0.0
  0
ARC
  5
32A
  8
FP-402
 10
7.999999148104961
 20
237.4999967082629
 30
0.0
 40
1.5
 50
90.0
 51
270.0
  0
ARC
  5
32B
  8
FP-402
 10
14.99999914810496
 20
237.4999967082629
 30
0.0
 40
1.5
 50
270.0
 51
90.0
  0
LINE
  5
32C
  8
FP-402
 10
7.999999148104961
 20
238.9999967082629
 30
0.0
 11
14.99999914810496
 21
238.9999967082629
 31
0.0
  0
LINE
  5
32D
  8
FP-402
 10
7.999999148104961
 20
235.9999967082627
 30
0.0
 11
14.99999914810496
 21
235.9999967082627
 31
0.0
  0
ARC
  5
32E
  8
FP-402
 10
7.999999148104961
 20
232.49999670826259
 30
0.0
 40
1.5
 50
90.0
 51
270.0
  0
ARC
  5
32F
  8
FP-402
 10
14.99999914810496
 20
232.49999670826259
 30
0.0
 40
1.5
 50
270.0
 51
90.0
  0
LINE
  5
330
  8
FP-402
 10
7.999999148104961
 20
233.99999670826239
 30
0.0
 11
14.99999914810496
 21
233.99999670826239
 31
0.0
  0
LINE
  5
331
  8
FP-402
 10
7.999999148104961
 20
230.9999967082629
 30
0.0
 11
14.99999914810496
 21
230.9999967082629
 31
0.0
  0
ARC
  5
332
  8
FP-402
 10
7.999999148104961
 20
227.4999967082629
 30
0.0
 40
1.5
 50
90.0
 51
270.0
  0
ARC
  5
333
  8
FP-402
 10
14.99999914810496
 20
227.4999967082629
 30
0.0
 40
1.5
 50
270.0
 51
90.0
  0
LINE
  5
334
  8
FP-402
 10
7.999999148104961
 20
228.99999670826281
 30
0.0
 11
14.99999914810496
 21
228.99999670826281
 31
0.0
  0
LINE
  5
335
  8
FP-402
 10
7.999999148104961
 20
225.99999670826259
 30
0.0
 11
14.99999914810496
 21
225.99999670826259
 31
0.0
  0
ARC
  5
336
  8
FP-402
 10
7.999999148104961
 20
222.4999967082629
 30
0.0
 40
1.5
 50
90.0
 51
270.0
  0
ARC
  5
337
  8
FP-402
 10
14.99999914810496
 20
222.4999967082629
 30
0.0
 40
1.5
 50
270.0
 51
90.0
  0
LINE
  5
338
  8
FP-402
 10
7.999999148104961
 20
223.9999967082629
 30
0.0
 11
14.99999914810496
 21
223.9999967082629
 31
0.0
  0
LINE
  5
339
  8
FP-402
 10
7.999999148104961
 20
220.9999967082625
 30
0.0
 11
14.99999914810496
 21
220.9999967082625
 31
0.0
  0
ARC
  5
33A
  8
FP-402
 10
7.999999148104961
 20
217.49999670826239
 30
0.0
 40
1.5
 50
90.0
 51
270.0
  0
ARC
  5
33B
  8
FP-402
 10
14.99999914810496
 20
217.49999670826239
 30
0.0
 40
1.5
 50
270.0
 51
90.0
  0
LINE
  5
33C
  8
FP-402
 10
7.999999148104961
 20
218.9999967082629
 30
0.0
 11
14.99999914810496
 21
218.9999967082629
 31
0.0
  0
LINE
  5
33D
  8
FP-402
 10
7.999999148104961
 20
215.9999967082629
 30
0.0
 11
14.99999914810496
 21
215.9999967082629
 31
0.0
  0
ARC
  5
33E
  8
FP-402
 10
7.999999148104961
 20
212.4999967082629
 30
0.0
 40
1.5
 50
90.0
 51
270.0
  0
ARC
  5
33F
  8
FP-402
 10
14.99999914810496
 20
212.4999967082629
 30
0.0
 40
1.5
 50
270.0
 51
90.0
  0
LINE
  5
340
  8
FP-402
 10
7.999999148104961
 20
213.99999670826239
 30
0.0
 11
14.99999914810496
 21
213.99999670826239
 31
0.0
  0
LINE
  5
341
  8
FP-402
 10
7.999999148104961
 20
210.9999967082627
 30
0.0
 11
14.99999914810496
 21
210.9999967082627
 31
0.0
  0
ARC
  5
342
  8
FP-402
 10
7.999999148104961
 20
207.4999967082629
 30
0.0
 40
1.5
 50
90.0
 51
270.0
  0
ARC
  5
343
  8
FP-402
 10
14.99999914810496
 20
207.4999967082629
 30
0.0
 40
1.5
 50
270.0
 51
90.0
  0
LINE
  5
344
  8
FP-402
 10
7.999999148104961
 20
208.99999670826239
 30
0.0
 11
14.99999914810496
 21
208.99999670826239
 31
0.0
  0
LINE
  5
345
  8
FP-402
 10
7.999999148104961
 20
205.9999967082629
 30
0.0
 11
14.99999914810496
 21
205.9999967082629
 31
0.0
  0
LINE
  5
346
  8
FP-402
 10
35.499999148104962
 20
392.49999670826293
 30
0.0
 11
35.499999148104962
 21
12.499996708262749
 31
0.0
  0
LINE
  5
347
  8
FP-402
 10
11.49999914810496
 20
8.4999967082626426
 30
0.0
 11
11.49999914810496
 21
9.4999967082624153
 31
0.0
  0
LINE
  5
348
  8
FP-402
 10
11.49999914810496
 20
9.4999967082624153
 30
0.0
 11
12.49999914810496
 21
9.4999967082624153
 31
0.0
  0
LINE
  5
349
  8
FP-402
 10
12.49999914810496
 20
9.4999967082624153
 30
0.0
 11
12.49999914810496
 21
8.4999967082626426
 31
0.0
  0
LINE
  5
34A
  8
FP-402
 10
12.49999914810496
 20
8.4999967082626426
 30
0.0
 11
11.49999914810496
 21
8.4999967082626426
 31
0.0
  0
LINE
  5
34B
  8
FP-402
 10
12.49999914810496
 20
12.499996708262749
 30
0.0
 11
26.499999148104958
 21
12.499996708262749
 31
0.0
  0
LINE
  5
34C
  8
FP-402
 10
26.499999148104958
 20
12.499996708262749
 30
0.0
 11
26.499999148104958
 21
5.4999967082624153
 31
0.0
  0
LINE
  5
34D
  8
FP-402
 10
26.499999148104958
 20
5.4999967082624153
 30
0.0
 11
12.49999914810496
 21
5.4999967082624153
 31
0.0
  0
LINE
  5
34E
  8
FP-402
 10
12.49999914810496
 20
5.4999967082624153
 30
0.0
 11
12.49999914810496
 21
12.499996708262749
 31
0.0
  0
POLYLINE
  5
34F
  8
FP-402
 66
     1
 10
0.0
 20
0.0
 30
0.0
  0
VERTEX
  5
887
  8
FP-402
 10
25.499999148104958
 20
0.999996708262529
 30
0.0
  0
VERTEX
  5
888
  8
FP-402
 10
25.5151991480991
 20
0.8263967082630188
 30
0.0
  0
VERTEX
  5
889
  8
FP-402
 10
25.560299148102331
 20
0.6579967082629992
 30
0.0
  0
VERTEX
  5
88A
  8
FP-402
 10
25.633999148095882
 20
0.4999967082626427
 30
0.0
  0
VERTEX
  5
88B
  8
FP-402
 10
25.733999148101699
 20
0.3571967082630181
 30
0.0
  0
VERTEX
  5
88C
  8
FP-402
 10
25.857199148103518
 20
0.233996708263021
 30
0.0
  0
VERTEX
  5
88D
  8
FP-402
 10
25.999999148104958
 20
0.1339967082626572
 30
0.0
  0
VERTEX
  5
88E
  8
FP-402
 10
26.157999148100771
 20
0.0602967082627402
 30
0.0
  0
VERTEX
  5
88F
  8
FP-402
 10
26.326399148095788
 20
0.0151967082628062
 30
0.0
  0
VERTEX
  5
890
  8
FP-402
 10
26.499999148104958
 20
-0.0000032917372437
 30
0.0
  0
VERTEX
  5
891
  8
FP-402
 10
26.673599148099591
 20
0.0151967082628062
 30
0.0
  0
VERTEX
  5
892
  8
FP-402
 10
26.841999148094601
 20
0.0602967082627402
 30
0.0
  0
VERTEX
  5
893
  8
FP-402
 10
26.999999148104958
 20
0.1339967082626572
 30
0.0
  0
VERTEX
  5
894
  8
FP-402
 10
27.142799148106409
 20
0.233996708263021
 30
0.0
  0
VERTEX
  5
895
  8
FP-402
 10
27.26599914809367
 20
0.3571967082630181
 30
0.0
  0
VERTEX
  5
896
  8
FP-402
 10
27.36599914809949
 20
0.4999967082626427
 30
0.0
  0
VERTEX
  5
897
  8
FP-402
 10
27.439699148093041
 20
0.6579967082629992
 30
0.0
  0
VERTEX
  5
898
  8
FP-402
 10
27.484799148096052
 20
0.8263967082630188
 30
0.0
  0
VERTEX
  5
899
  8
FP-402
 10
27.499999148104958
 20
0.999996708262529
 30
0.0
  0
SEQEND
  5
89A
  8
FP-402
  0
POLYLINE
  5
350
  8
FP-402
 66
     1
 10
0.0
 20
0.0
 30
0.0
  0
VERTEX
  5
89B
  8
FP-402
 10
17.999999148104958
 20
0.999996708262529
 30
0.0
  0
VERTEX
  5
89C
  8
FP-402
 10
18.041799148096739
 20
0.8263967082630188
 30
0.0
  0
VERTEX
  5
89D
  8
FP-402
 10
18.16579914810745
 20
0.6579967082629992
 30
0.0
  0
VERTEX
  5
89E
  8
FP-402
 10
18.368499148101819
 20
0.4999967082626427
 30
0.0
  0
VERTEX
  5
89F
  8
FP-402
 10
18.643499148096002
 20
0.3571967082630181
 30
0.0
  0
VERTEX
  5
8A0
  8
FP-402
 10
18.982299148093709
 20
0.233996708263021
 30
0.0
  0
VERTEX
  5
8A1
  8
FP-402
 10
19.374999148104958
 20
0.1339967082626572
 30
0.0
  0
VERTEX
  5
8A2
  8
FP-402
 10
19.809499148093209
 20
0.0602967082627402
 30
0.0
  0
VERTEX
  5
8A3
  8
FP-402
 10
20.272599148101559
 20
0.0151967082628062
 30
0.0
  0
VERTEX
  5
8A4
  8
FP-402
 10
20.749999148104958
 20
-0.0000032917372437
 30
0.0
  0
VERTEX
  5
8A5
  8
FP-402
 10
21.227399148093809
 20
0.0151967082628062
 30
0.0
  0
VERTEX
  5
8A6
  8
FP-402
 10
21.690499148101939
 20
0.0602967082627402
 30
0.0
  0
VERTEX
  5
8A7
  8
FP-402
 10
22.124999148104958
 20
0.1339967082626572
 30
0.0
  0
VERTEX
  5
8A8
  8
FP-402
 10
22.517699148101659
 20
0.233996708263021
 30
0.0
  0
VERTEX
  5
8A9
  8
FP-402
 10
22.85649914809937
 20
0.3571967082630181
 30
0.0
  0
VERTEX
  5
8AA
  8
FP-402
 10
23.13149914809355
 20
0.4999967082626427
 30
0.0
  0
VERTEX
  5
8AB
  8
FP-402
 10
23.334199148102471
 20
0.6579967082629992
 30
0.0
  0
VERTEX
  5
8AC
  8
FP-402
 10
23.458199148098629
 20
0.8263967082630188
 30
0.0
  0
VERTEX
  5
8AD
  8
FP-402
 10
23.499999148104958
 20
0.999996708262529
 30
0.0
  0
SEQEND
  5
8AE
  8
FP-402
  0
POLYLINE
  5
351
  8
FP-402
 66
     1
 10
0.0
 20
0.0
 30
0.0
  0
VERTEX
  5
8AF
  8
FP-402
 10
11.99999914810496
 20
0.999996708262529
 30
0.0
  0
VERTEX
  5
8B0
  8
FP-402
 10
12.026599148102379
 20
0.8263967082630188
 30
0.0
  0
VERTEX
  5
8B1
  8
FP-402
 10
12.105499148095531
 20
0.6579967082629992
 30
0.0
  0
VERTEX
  5
8B2
  8
FP-402
 10
12.23449914809634
 20
0.4999967082626427
 30
0.0
  0
VERTEX
  5
8B3
  8
FP-402
 10
12.409499148099259
 20
0.3571967082630181
 30
0.0
  0
VERTEX
  5
8B4
  8
FP-402
 10
12.62509914809516
 20
0.233996708263021
 30
0.0
  0
VERTEX
  5
8B5
  8
FP-402
 10
12.87499914810496
 20
0.1339967082626572
 30
0.0
  0
VERTEX
  5
8B6
  8
FP-402
 10
13.15149914809763
 20
0.0602967082627402
 30
0.0
  0
VERTEX
  5
8B7
  8
FP-402
 10
13.446199148096181
 20
0.0151967082628062
 30
0.0
  0
VERTEX
  5
8B8
  8
FP-402
 10
13.74999914810496
 20
-0.0000032917372437
 30
0.0
  0
VERTEX
  5
8B9
  8
FP-402
 10
14.05379914809919
 20
0.0151967082628062
 30
0.0
  0
VERTEX
  5
8BA
  8
FP-402
 10
14.348499148097741
 20
0.0602967082627402
 30
0.0
  0
VERTEX
  5
8BB
  8
FP-402
 10
14.62499914810496
 20
0.1339967082626572
 30
0.0
  0
VERTEX
  5
8BC
  8
FP-402
 10
14.87489914810021
 20
0.233996708263021
 30
0.0
  0
VERTEX
  5
8BD
  8
FP-402
 10
15.090499148096111
 20
0.3571967082630181
 30
0.0
  0
VERTEX
  5
8BE
  8
FP-402
 10
15.265499148099019
 20
0.4999967082626427
 30
0.0
  0
VERTEX
  5
8BF
  8
FP-402
 10
15.39449914809984
 20
0.6579967082629992
 30
0.0
  0
VERTEX
  5
8C0
  8
FP-402
 10
15.473399148092991
 20
0.8263967082630188
 30
0.0
  0
VERTEX
  5
8C1
  8
FP-402
 10
15.49999914810496
 20
0.999996708262529
 30
0.0
  0
SEQEND
  5
8C2
  8
FP-402
  0
LINE
  5
352
  8
FP-402
 10
29.499999148104958
 20
10.999996708262749
 30
0.0
 11
9.4999991481049602
 21
10.999996708262749
 31
0.0
  0
LINE
  5
353
  8
FP-402
 10
9.4999991481049602
 20
10.999996708262749
 30
0.0
 11
9.4999991481049602
 21
12.499996708262749
 31
0.0
  0
LINE
  5
354
  8
FP-402
 10
9.4999991481049602
 20
12.499996708262749
 30
0.0
 11
29.499999148104958
 21
12.499996708262749
 31
0.0
  0
LINE
  5
355
  8
FP-402
 10
29.499999148104958
 20
12.499996708262749
 30
0.0
 11
29.499999148104958
 21
10.999996708262749
 31
0.0
  0
LINE
  5
356
  8
FP-402
 10
27.499999148104958
 20
7.9999967082627563
 30
0.0
 11
27.499999148104958
 21
0.999996708262529
 31
0.0
  0
LINE
  5
357
  8
FP-402
 10
26.499999148104958
 20
-0.0000032917372437
 30
0.0
 11
12.49999914810496
 21
-0.0000032917372437
 31
0.0
  0
LINE
  5
358
  8
FP-402
 10
12.49999914810496
 20
-0.0000032917372437
 30
0.0
 11
11.49999914810496
 21
0.999996708262529
 31
0.0
  0
LINE
  5
359
  8
FP-402
 10
27.499999148104958
 20
7.9999967082627563
 30
0.0
 11
27.499999148104958
 21
8.9999967082625272
 31
0.0
  0
LINE
  5
35A
  8
FP-402
 10
9.4999991481049602
 20
10.999996708262749
 30
0.0
 11
11.49999914810496
 21
8.9999967082625272
 31
0.0
  0
LINE
  5
35B
  8
FP-402
 10
27.499999148104958
 20
8.9999967082625272
 30
0.0
 11
29.499999148104958
 21
10.999996708262749
 31
0.0
  0
LINE
  5
35C
  8
FP-402
 10
11.99999914810496
 20
0.999996708262529
 30
0.0
 11
11.49999914810496
 21
0.999996708262529
 31
0.0
  0
LINE
  5
35D
  8
FP-402
 10
11.49999914810496
 20
0.999996708262529
 30
0.0
 11
11.49999914810496
 21
8.4999967082626426
 31
0.0
  0
LINE
  5
35E
  8
FP-402
 10
11.49999914810496
 20
8.4999967082626426
 30
0.0
 11
11.99999914810496
 21
8.4999967082626426
 31
0.0
  0
LINE
  5
35F
  8
FP-402
 10
11.99999914810496
 20
8.4999967082626426
 30
0.0
 11
11.99999914810496
 21
0.999996708262529
 31
0.0
  0
LINE
  5
360
  8
FP-402
 10
17.999999148104958
 20
0.999996708262529
 30
0.0
 11
15.49999914810496
 21
0.999996708262529
 31
0.0
  0
LINE
  5
361
  8
FP-402
 10
15.49999914810496
 20
0.999996708262529
 30
0.0
 11
15.49999914810496
 21
5.4999967082624153
 31
0.0
  0
LINE
  5
362
  8
FP-402
 10
15.49999914810496
 20
5.4999967082624153
 30
0.0
 11
17.999999148104958
 21
5.4999967082624153
 31
0.0
  0
LINE
  5
363
  8
FP-402
 10
17.999999148104958
 20
5.4999967082624153
 30
0.0
 11
17.999999148104958
 21
0.999996708262529
 31
0.0
  0
LINE
  5
364
  8
FP-402
 10
25.499999148104958
 20
0.999996708262529
 30
0.0
 11
23.499999148104958
 21
0.999996708262529
 31
0.0
  0
LINE
  5
365
  8
FP-402
 10
23.499999148104958
 20
0.999996708262529
 30
0.0
 11
23.499999148104958
 21
5.4999967082624153
 31
0.0
  0
LINE
  5
366
  8
FP-402
 10
23.499999148104958
 20
5.4999967082624153
 30
0.0
 11
25.499999148104958
 21
5.4999967082624153
 31
0.0
  0
LINE
  5
367
  8
FP-402
 10
25.499999148104958
 20
5.4999967082624153
 30
0.0
 11
25.499999148104958
 21
0.999996708262529
 31
0.0
  0
LINE
  5
368
  8
FP-402
 10
25.499999148104958
 20
0.999996708262529
 30
0.0
 11
23.499999148104958
 21
0.999996708262529
 31
0.0
  0
LINE
  5
369
  8
FP-402
 10
23.499999148104958
 20
0.999996708262529
 30
0.0
 11
23.499999148104958
 21
5.4999967082624153
 31
0.0
  0
LINE
  5
36A
  8
FP-402
 10
23.499999148104958
 20
5.4999967082624153
 30
0.0
 11
25.499999148104958
 21
5.4999967082624153
 31
0.0
  0
LINE
  5
36B
  8
FP-402
 10
25.499999148104958
 20
5.4999967082624153
 30
0.0
 11
25.499999148104958
 21
0.999996708262529
 31
0.0
  0
ARC
  5
36C
  8
FP-402
 10
26.499999148104958
 20
8.9999967082625272
 30
0.0
 40
1.0
 50
270.0
 51
0.0
  0
ENDBLK
  5
36D
  8
0
  0
BLOCK
  8
0
  2
A$C74EA599D
 70
     0
 10
0.0
 20
0.0
 30
0.0
  3
A$C74EA599D
  1

  0
ARC
  5
371
  8
FP-402
 10
5.499995878127379
 20
55.50000223756502
 30
0.0
 40
5.0
 50
90.0
 51
180.0
  0
ARC
  5
372
  8
FP-402
 10
5.499995878127379
 20
5.5000022375650133
 30
0.0
 40
5.0
 50
180.0
 51
270.0
  0
ARC
  5
373
  8
FP-402
 10
92.499995878127038
 20
5.5000022375650133
 30
0.0
 40
5.0
 50
270.0
 51
0.0
  0
ARC
  5
374
  8
FP-402
 10
92.499995878127038
 20
55.50000223756502
 30
0.0
 40
5.0
 50
0.0
 51
90.0
  0
LINE
  5
375
  8
FP-402
 10
92.499995878127038
 20
60.50000223756502
 30
0.0
 11
5.499995878127379
 21
60.50000223756502
 31
0.0
  0
LINE
  5
376
  8
FP-402
 10
0.4999958781271517
 20
55.50000223756502
 30
0.0
 11
0.4999958781271517
 21
5.5000022375650133
 31
0.0
  0
LINE
  5
377
  8
FP-402
 10
5.499995878127379
 20
0.5000022375650133
 30
0.0
 11
92.499995878127038
 21
0.5000022375650133
 31
0.0
  0
ARC
  5
378
  8
FP-402
 10
5.499995878127379
 20
55.50000223756502
 30
0.0
 40
5.5
 50
90.0
 51
180.0
  0
ARC
  5
379
  8
FP-402
 10
5.499995878127379
 20
5.5000022375650133
 30
0.0
 40
5.5
 50
180.0
 51
270.0
  0
ARC
  5
37A
  8
FP-402
 10
92.499995878127038
 20
5.5000022375650133
 30
0.0
 40
5.5
 50
270.0
 51
0.0
  0
ARC
  5
37B
  8
FP-402
 10
92.499995878127038
 20
55.50000223756502
 30
0.0
 40
5.5
 50
0.0
 51
90.0
  0
LINE
  5
37C
  8
FP-402
 10
92.499995878127038
 20
61.000002237565013
 30
0.0
 11
5.499995878127379
 21
61.000002237565013
 31
0.0
  0
LINE
  5
37D
  8
FP-402
 10
-0.000004121872621
 20
55.50000223756502
 30
0.0
 11
-0.000004121872621
 21
5.5000022375650133
 31
0.0
  0
LINE
  5
37E
  8
FP-402
 10
5.499995878127379
 20
0.0000022375650133
 30
0.0
 11
92.499995878127038
 21
0.0000022375650133
 31
0.0
  0
LINE
  5
37F
  8
FP-402
 10
97.999995878127038
 20
5.5000022375650133
 30
0.0
 11
97.999995878127038
 21
46.503002237576531
 31
0.0
  0
LINE
  5
380
  8
FP-402
 10
97.999995878127038
 20
55.50000223756502
 30
0.0
 11
97.999995878127038
 21
54.500002237565013
 31
0.0
  0
LINE
  5
381
  8
FP-402
 10
97.499995878127365
 20
54.500002237565013
 30
0.0
 11
96.999995878127052
 21
54.500002237565013
 31
0.0
  0
LINE
  5
382
  8
FP-402
 10
96.999995878127052
 20
54.500002237565013
 30
0.0
 11
96.999995878127052
 21
53.500002237565013
 31
0.0
  0
LINE
  5
383
  8
FP-402
 10
96.999995878127052
 20
53.500002237565013
 30
0.0
 11
96.499995878127379
 21
53.500002237565013
 31
0.0
  0
LINE
  5
384
  8
FP-402
 10
96.499995878127379
 20
53.500002237565013
 30
0.0
 11
96.499995878127379
 21
47.500002237565013
 31
0.0
  0
LINE
  5
385
  8
FP-402
 10
96.499995878127379
 20
47.500002237565013
 30
0.0
 11
96.999995878127052
 21
47.500002237565013
 31
0.0
  0
LINE
  5
386
  8
FP-402
 10
96.999995878127052
 20
47.500002237565013
 30
0.0
 11
96.999995878127052
 21
46.500002237565013
 31
0.0
  0
LINE
  5
387
  8
FP-402
 10
96.999995878127052
 20
46.500002237565013
 30
0.0
 11
97.499995878127365
 21
46.500002237565013
 31
0.0
  0
LINE
  5
388
  8
FP-402
 10
97.499995878127365
 20
5.5000022375650133
 30
0.0
 11
97.499995878127365
 21
46.500002237565013
 31
0.0
  0
LINE
  5
389
  8
FP-402
 10
98.499995878127393
 20
54.500002237565013
 30
0.0
 11
97.499995878127365
 21
54.500002237565013
 31
0.0
  0
LINE
  5
38A
  8
FP-402
 10
97.499995878127365
 20
46.500002237565013
 30
0.0
 11
98.499995878127393
 21
46.500002237565013
 31
0.0
  0
LINE
  5
38B
  8
FP-402
 10
97.499995878127365
 20
54.500002237565013
 30
0.0
 11
97.499995878127365
 21
55.50000223756502
 31
0.0
  0
LINE
  5
38C
  8
FP-402
 10
104.49999587812729
 20
53.500002237565013
 30
0.0
 11
104.49999587812729
 21
47.500002237565013
 31
0.0
  0
LINE
  5
38D
  8
FP-402
 10
104.49999587812729
 20
47.500002237565013
 30
0.0
 11
102.499995878127
 21
47.000002237565013
 31
0.0
  0
LINE
  5
38E
  8
FP-402
 10
102.499995878127
 20
47.000002237565013
 30
0.0
 11
102.499995878127
 21
54.000002237565013
 31
0.0
  0
LINE
  5
38F
  8
FP-402
 10
105.49999587812729
 20
53.500002237565013
 30
0.0
 11
105.49999587812729
 21
47.500002237565013
 31
0.0
  0
LINE
  5
390
  8
FP-402
 10
105.49999587812729
 20
47.500002237565013
 30
0.0
 11
107.49999587812729
 21
48.00000223756502
 31
0.0
  0
LINE
  5
391
  8
FP-402
 10
107.49999587812729
 20
48.00000223756502
 30
0.0
 11
107.49999587812729
 21
53.00000223756502
 31
0.0
  0
LINE
  5
392
  8
FP-402
 10
107.49999587812729
 20
53.00000223756502
 30
0.0
 11
105.49999587812729
 21
53.500002237565013
 31
0.0
  0
LINE
  5
393
  8
FP-402
 10
102.499995878127
 20
54.000002237565013
 30
0.0
 11
104.49999587812729
 21
53.500002237565013
 31
0.0
  0
LINE
  5
394
  8
FP-402
 10
108.499995878127
 20
53.00000223756502
 30
0.0
 11
108.499995878127
 21
48.00000223756502
 31
0.0
  0
LINE
  5
395
  8
FP-402
 10
108.499995878127
 20
48.00000223756502
 30
0.0
 11
110.499995878127
 21
48.500002237565013
 31
0.0
  0
LINE
  5
396
  8
FP-402
 10
110.499995878127
 20
48.500002237565013
 30
0.0
 11
110.499995878127
 21
52.500002237565013
 31
0.0
  0
LINE
  5
397
  8
FP-402
 10
110.499995878127
 20
52.500002237565013
 30
0.0
 11
108.499995878127
 21
53.00000223756502
 31
0.0
  0
LINE
  5
398
  8
FP-402
 10
101.499995878127
 20
47.000002237565013
 30
0.0
 11
101.499995878127
 21
54.000002237565013
 31
0.0
  0
LINE
  5
399
  8
FP-402
 10
98.499995878127393
 20
54.500002237565013
 30
0.0
 11
98.499995878127393
 21
46.500002237565013
 31
0.0
  0
LINE
  5
39A
  8
FP-402
 10
98.499995878127393
 20
54.500002237565013
 30
0.0
 11
101.499995878127
 21
54.500002237565013
 31
0.0
  0
LINE
  5
39B
  8
FP-402
 10
101.499995878127
 20
54.500002237565013
 30
0.0
 11
101.499995878127
 21
46.500002237565013
 31
0.0
  0
LINE
  5
39C
  8
FP-402
 10
101.499995878127
 20
46.500002237565013
 30
0.0
 11
98.499995878127393
 21
46.500002237565013
 31
0.0
  0
LINE
  5
39D
  8
FP-402
 10
98.499995878127393
 20
46.500002237565013
 30
0.0
 11
98.499995878127393
 21
54.500002237565013
 31
0.0
  0
LINE
  5
39E
  8
FP-402
 10
111.49999587812739
 20
52.500002237565013
 30
0.0
 11
113.49999587812739
 21
52.500002237565013
 31
0.0
  0
LINE
  5
39F
  8
FP-402
 10
113.49999587812739
 20
52.500002237565013
 30
0.0
 11
113.49999587812739
 21
48.500002237565013
 31
0.0
  0
LINE
  5
3A0
  8
FP-402
 10
113.49999587812739
 20
48.500002237565013
 30
0.0
 11
111.49999587812739
 21
48.500002237565013
 31
0.0
  0
LINE
  5
3A1
  8
FP-402
 10
111.49999587812739
 20
48.500002237565013
 30
0.0
 11
111.49999587812739
 21
52.500002237565013
 31
0.0
  0
LINE
  5
3A2
  8
FP-402
 10
111.49999587812739
 20
52.000002237565013
 30
0.0
 11
110.499995878127
 21
52.000002237565013
 31
0.0
  0
LINE
  5
3A3
  8
FP-402
 10
110.499995878127
 20
51.500002237565013
 30
0.0
 11
111.49999587812739
 21
51.500002237565013
 31
0.0
  0
LINE
  5
3A4
  8
FP-402
 10
111.49999587812739
 20
49.500002237565013
 30
0.0
 11
110.499995878127
 21
49.500002237565013
 31
0.0
  0
LINE
  5
3A5
  8
FP-402
 10
110.499995878127
 20
49.000002237565013
 30
0.0
 11
111.49999587812739
 21
49.000002237565013
 31
0.0
  0
LINE
  5
3A6
  8
FP-402
 10
108.499995878127
 20
52.000002237565013
 30
0.0
 11
107.49999587812729
 21
52.000002237565013
 31
0.0
  0
LINE
  5
3A7
  8
FP-402
 10
107.49999587812729
 20
51.500002237565013
 30
0.0
 11
108.499995878127
 21
51.500002237565013
 31
0.0
  0
LINE
  5
3A8
  8
FP-402
 10
108.499995878127
 20
49.500002237565013
 30
0.0
 11
107.49999587812729
 21
49.500002237565013
 31
0.0
  0
LINE
  5
3A9
  8
FP-402
 10
107.49999587812729
 20
49.000002237565013
 30
0.0
 11
108.499995878127
 21
49.000002237565013
 31
0.0
  0
LINE
  5
3AA
  8
FP-402
 10
105.49999587812729
 20
52.000002237565013
 30
0.0
 11
104.49999587812729
 21
52.000002237565013
 31
0.0
  0
LINE
  5
3AB
  8
FP-402
 10
104.49999587812729
 20
51.500002237565013
 30
0.0
 11
105.49999587812729
 21
51.500002237565013
 31
0.0
  0
LINE
  5
3AC
  8
FP-402
 10
105.49999587812729
 20
49.500002237565013
 30
0.0
 11
104.49999587812729
 21
49.500002237565013
 31
0.0
  0
LINE
  5
3AD
  8
FP-402
 10
104.49999587812729
 20
49.000002237565013
 30
0.0
 11
105.49999587812729
 21
49.000002237565013
 31
0.0
  0
LINE
  5
3AE
  8
FP-402
 10
102.499995878127
 20
52.000002237565013
 30
0.0
 11
101.499995878127
 21
52.000002237565013
 31
0.0
  0
LINE
  5
3AF
  8
FP-402
 10
101.499995878127
 20
51.500002237565013
 30
0.0
 11
102.499995878127
 21
51.500002237565013
 31
0.0
  0
LINE
  5
3B0
  8
FP-402
 10
102.499995878127
 20
49.500002237565013
 30
0.0
 11
101.499995878127
 21
49.500002237565013
 31
0.0
  0
LINE
  5
3B1
  8
FP-402
 10
101.499995878127
 20
49.000002237565013
 30
0.0
 11
102.499995878127
 21
49.000002237565013
 31
0.0
  0
LINE
  5
3B2
  8
FP-402
 10
102.499995878127
 20
53.500002237565013
 30
0.0
 11
101.499995878127
 21
54.000002237565013
 31
0.0
  0
LINE
  5
3B3
  8
FP-402
 10
105.49999587812729
 20
53.00000223756502
 30
0.0
 11
104.49999587812729
 21
53.500002237565013
 31
0.0
  0
LINE
  5
3B4
  8
FP-402
 10
108.499995878127
 20
52.500002237565013
 30
0.0
 11
107.49999587812729
 21
53.00000223756502
 31
0.0
  0
LINE
  5
3B5
  8
FP-402
 10
101.499995878127
 20
47.000002237565013
 30
0.0
 11
102.499995878127
 21
47.500002237565013
 31
0.0
  0
LINE
  5
3B6
  8
FP-402
 10
104.49999587812729
 20
47.500002237565013
 30
0.0
 11
105.49999587812729
 21
48.00000223756502
 31
0.0
  0
LINE
  5
3B7
  8
FP-402
 10
107.49999587812729
 20
48.00000223756502
 30
0.0
 11
108.499995878127
 21
48.500002237565013
 31
0.0
  0
LINE
  5
3B8
  8
FP-402
 10
110.499995878127
 20
52.500002237565013
 30
0.0
 11
111.49999587812739
 21
52.500002237565013
 31
0.0
  0
LINE
  5
3B9
  8
FP-402
 10
110.499995878127
 20
48.500002237565013
 30
0.0
 11
111.49999587812739
 21
48.500002237565013
 31
0.0
  0
LINE
  5
3BA
  8
FP-402
 10
113.49999587812739
 20
52.000002237565013
 30
0.0
 11
123.49999587812739
 21
52.000002237565013
 31
0.0
  0
LINE
  5
3BB
  8
FP-402
 10
113.49999587812739
 20
49.000002237565013
 30
0.0
 11
123.49999587812739
 21
49.000002237565013
 31
0.0
  0
LINE
  5
3BC
  8
FP-402
 10
113.49999587812739
 20
49.000002237565013
 30
0.0
 11
123.49999587812739
 21
49.000002237565013
 31
0.0
  0
LINE
  5
3BD
  8
FP-402
 10
123.49999587812739
 20
52.000002237565013
 30
0.0
 11
113.49999587812739
 21
52.000002237565013
 31
0.0
  0
POLYLINE
  5
3BE
  8
FP-402
 66
     1
 10
0.0
 20
0.0
 30
0.0
  0
VERTEX
  5
8C3
  8
FP-402
 10
123.49999587812739
 20
49.000002237565013
 30
0.0
  0
VERTEX
  5
8C4
  8
FP-402
 10
124.02099587812729
 20
48.954402237567358
 30
0.0
  0
VERTEX
  5
8C5
  8
FP-402
 10
124.52609587812729
 20
48.819102237572913
 30
0.0
  0
VERTEX
  5
8C6
  8
FP-402
 10
124.99999587812739
 20
48.5981022375679
 30
0.0
  0
VERTEX
  5
8C7
  8
FP-402
 10
125.4283958781274
 20
48.298202237569512
 30
0.0
  0
VERTEX
  5
8C8
  8
FP-402
 10
125.7981958781271
 20
47.92840223756923
 30
0.0
  0
VERTEX
  5
8C9
  8
FP-402
 10
126.0980958781271
 20
47.500002237565013
 30
0.0
  0
VERTEX
  5
8CA
  8
FP-402
 10
126.3190958781271
 20
47.026102237567663
 30
0.0
  0
VERTEX
  5
8CB
  8
FP-402
 10
126.4543958781273
 20
46.52100223757293
 30
0.0
  0
VERTEX
  5
8CC
  8
FP-402
 10
126.499995878127
 20
46.000002237565013
 30
0.0
  0
SEQEND
  5
8CD
  8
FP-402
  0
POLYLINE
  5
3BF
  8
FP-402
 66
     1
 10
0.0
 20
0.0
 30
0.0
  0
VERTEX
  5
8CE
  8
FP-402
 10
123.49999587812739
 20
52.000002237565013
 30
0.0
  0
VERTEX
  5
8CF
  8
FP-402
 10
124.54189587812709
 20
51.908902237574459
 30
0.0
  0
VERTEX
  5
8D0
  8
FP-402
 10
125.5520958781273
 20
51.638202237566247
 30
0.0
  0
VERTEX
  5
8D1
  8
FP-402
 10
126.499995878127
 20
51.196202237570667
 30
0.0
  0
VERTEX
  5
8D2
  8
FP-402
 10
127.356795878127
 20
50.596302237569603
 30
0.0
  0
VERTEX
  5
8D3
  8
FP-402
 10
128.09629587812699
 20
49.856802237573667
 30
0.0
  0
VERTEX
  5
8D4
  8
FP-402
 10
128.6961958781273
 20
49.000002237565013
 30
0.0
  0
VERTEX
  5
8D5
  8
FP-402
 10
129.13819587812731
 20
48.052102237565812
 30
0.0
  0
VERTEX
  5
8D6
  8
FP-402
 10
129.4088958781274
 20
47.041902237575982
 30
0.0
  0
VERTEX
  5
8D7
  8
FP-402
 10
129.49999587812729
 20
46.000002237565013
 30
0.0
  0
SEQEND
  5
8D8
  8
FP-402
  0
LINE
  5
3C0
  8
FP-402
 10
132.49999587812729
 20
40.000002237565013
 30
0.0
 11
137.49999587812741
 21
40.000002237565013
 31
0.0
  0
LINE
  5
3C1
  8
FP-402
 10
132.49999587812729
 20
43.000002237565013
 30
0.0
 11
137.49999587812741
 21
43.000002237565013
 31
0.0
  0
POLYLINE
  5
3C2
  8
FP-402
 66
     1
 10
0.0
 20
0.0
 30
0.0
  0
VERTEX
  5
8D9
  8
FP-402
 10
137.87499587812729
 20
42.250002237565013
 30
0.0
  0
VERTEX
  5
8DA
  8
FP-402
 10
137.8692958781273
 20
42.119802237565402
 30
0.0
  0
VERTEX
  5
8DB
  8
FP-402
 10
137.852395878127
 20
41.993502237576422
 30
0.0
  0
VERTEX
  5
8DC
  8
FP-402
 10
137.8247958781273
 20
41.875002237565013
 30
0.0
  0
VERTEX
  5
8DD
  8
FP-402
 10
137.78729587812731
 20
41.767902237571199
 30
0.0
  0
VERTEX
  5
8DE
  8
FP-402
 10
137.741095878127
 20
41.675502237562569
 30
0.0
  0
VERTEX
  5
8DF
  8
FP-402
 10
137.68749587812741
 20
41.600502237565479
 30
0.0
  0
VERTEX
  5
8E0
  8
FP-402
 10
137.62829587812729
 20
41.545202237572759
 30
0.0
  0
VERTEX
  5
8E1
  8
FP-402
 10
137.56509587812741
 20
41.511402237568063
 30
0.0
  0
VERTEX
  5
8E2
  8
FP-402
 10
137.49999587812741
 20
41.500002237565013
 30
0.0
  0
VERTEX
  5
8E3
  8
FP-402
 10
137.43489587812701
 20
41.511402237568063
 30
0.0
  0
VERTEX
  5
8E4
  8
FP-402
 10
137.37169587812701
 20
41.545202237572759
 30
0.0
  0
VERTEX
  5
8E5
  8
FP-402
 10
137.31249587812729
 20
41.600502237565479
 30
0.0
  0
VERTEX
  5
8E6
  8
FP-402
 10
137.258995878127
 20
41.675502237562569
 30
0.0
  0
VERTEX
  5
8E7
  8
FP-402
 10
137.21269587812711
 20
41.767902237571199
 30
0.0
  0
VERTEX
  5
8E8
  8
FP-402
 10
137.175195878127
 20
41.875002237565013
 30
0.0
  0
VERTEX
  5
8E9
  8
FP-402
 10
137.14759587812739
 20
41.993502237576422
 30
0.0
  0
VERTEX
  5
8EA
  8
FP-402
 10
137.13069587812711
 20
42.119802237565402
 30
0.0
  0
VERTEX
  5
8EB
  8
FP-402
 10
137.12499587812741
 20
42.250002237565013
 30
0.0
  0
VERTEX
  5
8EC
  8
FP-402
 10
137.13069587812711
 20
42.380202237564497
 30
0.0
  0
VERTEX
  5
8ED
  8
FP-402
 10
137.14759587812739
 20
42.506502237568043
 30
0.0
  0
VERTEX
  5
8EE
  8
FP-402
 10
137.175195878127
 20
42.625002237565013
 30
0.0
  0
VERTEX
  5
8EF
  8
FP-402
 10
137.21269587812711
 20
42.732102237573478
 30
0.0
  0
VERTEX
  5
8F0
  8
FP-402
 10
137.258995878127
 20
42.824502237567557
 30
0.0
  0
VERTEX
  5
8F1
  8
FP-402
 10
137.31249587812729
 20
42.899502237564548
 30
0.0
  0
VERTEX
  5
8F2
  8
FP-402
 10
137.37169587812701
 20
42.954802237571812
 30
0.0
  0
VERTEX
  5
8F3
  8
FP-402
 10
137.43489587812701
 20
42.988602237576508
 30
0.0
  0
VERTEX
  5
8F4
  8
FP-402
 10
137.49999587812741
 20
43.000002237565013
 30
0.0
  0
VERTEX
  5
8F5
  8
FP-402
 10
137.56509587812741
 20
42.988602237576508
 30
0.0
  0
VERTEX
  5
8F6
  8
FP-402
 10
137.62829587812729
 20
42.954802237571812
 30
0.0
  0
VERTEX
  5
8F7
  8
FP-402
 10
137.68749587812741
 20
42.899502237564548
 30
0.0
  0
VERTEX
  5
8F8
  8
FP-402
 10
137.741095878127
 20
42.824502237567557
 30
0.0
  0
VERTEX
  5
8F9
  8
FP-402
 10
137.78729587812731
 20
42.732102237573478
 30
0.0
  0
VERTEX
  5
8FA
  8
FP-402
 10
137.8247958781273
 20
42.625002237565013
 30
0.0
  0
VERTEX
  5
8FB
  8
FP-402
 10
137.852395878127
 20
42.506502237568043
 30
0.0
  0
VERTEX
  5
8FC
  8
FP-402
 10
137.8692958781273
 20
42.380202237564497
 30
0.0
  0
VERTEX
  5
8FD
  8
FP-402
 10
137.87499587812729
 20
42.250002237565013
 30
0.0
  0
SEQEND
  5
8FE
  8
FP-402
  0
POLYLINE
  5
3C3
  8
FP-402
 66
     1
 10
0.0
 20
0.0
 30
0.0
  0
VERTEX
  5
8FF
  8
FP-402
 10
137.49999587812741
 20
41.500002237565013
 30
0.0
  0
VERTEX
  5
900
  8
FP-402
 10
137.56509587812741
 20
41.488602237576508
 30
0.0
  0
VERTEX
  5
901
  8
FP-402
 10
137.62829587812729
 20
41.454802237571812
 30
0.0
  0
VERTEX
  5
902
  8
FP-402
 10
137.68749587812741
 20
41.399502237564541
 30
0.0
  0
VERTEX
  5
903
  8
FP-402
 10
137.741095878127
 20
41.324502237567572
 30
0.0
  0
VERTEX
  5
904
  8
FP-402
 10
137.78729587812731
 20
41.232102237573478
 30
0.0
  0
VERTEX
  5
905
  8
FP-402
 10
137.8247958781273
 20
41.125002237565013
 30
0.0
  0
VERTEX
  5
906
  8
FP-402
 10
137.852395878127
 20
41.006502237568149
 30
0.0
  0
VERTEX
  5
907
  8
FP-402
 10
137.8692958781273
 20
40.88020223756439
 30
0.0
  0
VERTEX
  5
908
  8
FP-402
 10
137.87499587812729
 20
40.750002237565013
 30
0.0
  0
VERTEX
  5
909
  8
FP-402
 10
137.8692958781273
 20
40.619802237565288
 30
0.0
  0
VERTEX
  5
90A
  8
FP-402
 10
137.852395878127
 20
40.493502237576422
 30
0.0
  0
VERTEX
  5
90B
  8
FP-402
 10
137.8247958781273
 20
40.375002237565013
 30
0.0
  0
VERTEX
  5
90C
  8
FP-402
 10
137.78729587812731
 20
40.267902237571199
 30
0.0
  0
VERTEX
  5
90D
  8
FP-402
 10
137.741095878127
 20
40.175502237562569
 30
0.0
  0
VERTEX
  5
90E
  8
FP-402
 10
137.68749587812741
 20
40.100502237565479
 30
0.0
  0
VERTEX
  5
90F
  8
FP-402
 10
137.62829587812729
 20
40.045202237572767
 30
0.0
  0
VERTEX
  5
910
  8
FP-402
 10
137.56509587812741
 20
40.011402237568063
 30
0.0
  0
VERTEX
  5
911
  8
FP-402
 10
137.49999587812741
 20
40.000002237565013
 30
0.0
  0
SEQEND
  5
912
  8
FP-402
  0
POLYLINE
  5
3C4
  8
FP-402
 66
     1
 10
0.0
 20
0.0
 30
0.0
  0
VERTEX
  5
913
  8
FP-402
 10
132.49999587812729
 20
40.000002237565013
 30
0.0
  0
VERTEX
  5
914
  8
FP-402
 10
131.4580958781273
 20
40.091202237574862
 30
0.0
  0
VERTEX
  5
915
  8
FP-402
 10
130.44789587812701
 20
40.361902237568529
 30
0.0
  0
VERTEX
  5
916
  8
FP-402
 10
129.49999587812729
 20
40.803902237564103
 30
0.0
  0
VERTEX
  5
917
  8
FP-402
 10
128.64329587812699
 20
41.40380223756506
 30
0.0
  0
VERTEX
  5
918
  8
FP-402
 10
127.9037958781273
 20
42.14330223757554
 30
0.0
  0
VERTEX
  5
919
  8
FP-402
 10
127.30389587812741
 20
43.000002237565013
 30
0.0
  0
VERTEX
  5
91A
  8
FP-402
 10
126.8618958781273
 20
43.947902237564108
 30
0.0
  0
VERTEX
  5
91B
  8
FP-402
 10
126.59119587812729
 20
44.958102237568589
 30
0.0
  0
VERTEX
  5
91C
  8
FP-402
 10
126.499995878127
 20
46.000002237565013
 30
0.0
  0
SEQEND
  5
91D
  8
FP-402
  0
POLYLINE
  5
3C5
  8
FP-402
 66
     1
 10
0.0
 20
0.0
 30
0.0
  0
VERTEX
  5
91E
  8
FP-402
 10
132.49999587812729
 20
43.000002237565013
 30
0.0
  0
VERTEX
  5
91F
  8
FP-402
 10
131.9790958781274
 20
43.045602237562662
 30
0.0
  0
VERTEX
  5
920
  8
FP-402
 10
131.47399587812711
 20
43.180902237571551
 30
0.0
  0
VERTEX
  5
921
  8
FP-402
 10
130.99999587812701
 20
43.401902237576678
 30
0.0
  0
VERTEX
  5
922
  8
FP-402
 10
130.57169587812729
 20
43.701902237565037
 30
0.0
  0
VERTEX
  5
923
  8
FP-402
 10
130.2018958781274
 20
44.071702237565432
 30
0.0
  0
VERTEX
  5
924
  8
FP-402
 10
129.90189587812731
 20
44.500002237565013
 30
0.0
  0
VERTEX
  5
925
  8
FP-402
 10
129.6808958781273
 20
44.974002237566992
 30
0.0
  0
VERTEX
  5
926
  8
FP-402
 10
129.5455958781273
 20
45.479102237576392
 30
0.0
  0
VERTEX
  5
927
  8
FP-402
 10
129.49999587812729
 20
46.000002237565013
 30
0.0
  0
SEQEND
  5
928
  8
FP-402
  0
LINE
  5
3C6
  8
FP-402
 10
209.87499587812681
 20
35.50000223756502
 30
0.0
 11
208.87499587812681
 21
35.50000223756502
 31
0.0
  0
LINE
  5
3C7
  8
FP-402
 10
208.87499587812681
 20
35.50000223756502
 30
0.0
 11
208.87499587812681
 21
47.500002237565013
 31
0.0
  0
LINE
  5
3C8
  8
FP-402
 10
208.87499587812681
 20
47.500002237565013
 30
0.0
 11
209.87499587812681
 21
47.500002237565013
 31
0.0
  0
LINE
  5
3C9
  8
FP-402
 10
209.87499587812681
 20
47.500002237565013
 30
0.0
 11
209.87499587812681
 21
35.50000223756502
 31
0.0
  0
LINE
  5
3CA
  8
FP-402
 10
199.87499587812681
 20
32.500002237565013
 30
0.0
 11
199.87499587812681
 21
50.50000223756502
 31
0.0
  0
LINE
  5
3CB
  8
FP-402
 10
174.87499587812681
 20
35.50000223756502
 30
0.0
 11
174.87499587812681
 21
47.500002237565013
 31
0.0
  0
LINE
  5
3CC
  8
FP-402
 10
168.87499587812681
 20
47.500002237565013
 30
0.0
 11
168.87499587812681
 21
35.50000223756502
 31
0.0
  0
ARC
  5
3CD
  8
FP-402
 10
171.87499587812681
 20
35.50000223756502
 30
0.0
 40
3.0
 50
180.0
 51
0.0
  0
ARC
  5
3CE
  8
FP-402
 10
171.87499587812681
 20
47.500002237565013
 30
0.0
 40
3.0
 50
0.0
 51
180.0
  0
LINE
  5
3CF
  8
FP-402
 10
199.87499587812681
 20
32.500002237565013
 30
0.0
 11
198.87499587812681
 21
33.500002237565013
 31
0.0
  0
LINE
  5
3D0
  8
FP-402
 10
198.87499587812681
 20
33.500002237565013
 30
0.0
 11
198.87499587812681
 21
49.500002237565013
 31
0.0
  0
LINE
  5
3D1
  8
FP-402
 10
198.87499587812681
 20
49.500002237565013
 30
0.0
 11
199.87499587812681
 21
50.50000223756502
 31
0.0
  0
LINE
  5
3D2
  8
FP-402
 10
199.87499587812681
 20
32.500002237565013
 30
0.0
 11
208.87499587812681
 21
32.500002237565013
 31
0.0
  0
LINE
  5
3D3
  8
FP-402
 10
208.87499587812681
 20
32.500002237565013
 30
0.0
 11
208.87499587812681
 21
50.50000223756502
 31
0.0
  0
LINE
  5
3D4
  8
FP-402
 10
208.87499587812681
 20
50.50000223756502
 30
0.0
 11
199.87499587812681
 21
50.50000223756502
 31
0.0
  0
ARC
  5
3D5
  8
FP-402
 10
176.87499587812681
 20
35.50000223756502
 30
0.0
 40
1.0
 50
180.0
 51
270.0
  0
ARC
  5
3D6
  8
FP-402
 10
176.87499587812681
 20
47.500002237565013
 30
0.0
 40
1.0
 50
90.0
 51
180.0
  0
LINE
  5
3D7
  8
FP-402
 10
198.87499587812681
 20
49.500002237565013
 30
0.0
 11
176.87499587812681
 21
48.500002237565013
 31
0.0
  0
LINE
  5
3D8
  8
FP-402
 10
175.87499587812681
 20
47.500002237565013
 30
0.0
 11
175.87499587812681
 21
35.50000223756502
 31
0.0
  0
LINE
  5
3D9
  8
FP-402
 10
176.87499587812681
 20
34.500002237565013
 30
0.0
 11
198.87499587812681
 21
33.500002237565013
 31
0.0
  0
CIRCLE
  5
3DA
  8
FP-402
 10
171.87499587812681
 20
35.50000223756502
 30
0.0
 40
2.0
  0
CIRCLE
  5
3DB
  8
FP-402
 10
171.87499587812681
 20
47.500002237565013
 30
0.0
 40
2.0
  0
LINE
  5
3DC
  8
FP-402
 10
173.6070958781267
 20
36.50000223756502
 30
0.0
 11
170.14299587812681
 21
34.500002237565013
 31
0.0
  0
LINE
  5
3DD
  8
FP-402
 10
173.6070958781267
 20
48.500002237565013
 30
0.0
 11
170.14299587812681
 21
46.500002237565013
 31
0.0
  0
ARC
  5
3DE
  8
FP-402
 10
205.87499587812681
 20
41.500002237565013
 30
0.0
 40
1.0
 50
0.0
 51
180.0
  0
LINE
  5
3DF
  8
FP-402
 10
204.87499587812681
 20
41.500002237565013
 30
0.0
 11
204.87499587812681
 21
37.500002237565013
 31
0.0
  0
ARC
  5
3E0
  8
FP-402
 10
205.87499587812681
 20
37.500002237565013
 30
0.0
 40
1.0
 50
180.0
 51
270.0
  0
LINE
  5
3E1
  8
FP-402
 10
206.87499587812681
 20
41.500002237565013
 30
0.0
 11
206.87499587812681
 21
38.500002237565013
 31
0.0
  0
LINE
  5
3E2
  8
FP-402
 10
206.87499587812681
 20
38.500002237565013
 30
0.0
 11
207.87499587812681
 21
38.500002237565013
 31
0.0
  0
LINE
  5
3E3
  8
FP-402
 10
207.87499587812681
 20
36.50000223756502
 30
0.0
 11
205.87499587812681
 21
36.50000223756502
 31
0.0
  0
LINE
  5
3E4
  8
FP-402
 10
208.87499587812681
 20
36.50000223756502
 30
0.0
 11
207.87499587812681
 21
36.50000223756502
 31
0.0
  0
LINE
  5
3E5
  8
FP-402
 10
208.87499587812681
 20
38.500002237565013
 30
0.0
 11
207.87499587812681
 21
38.500002237565013
 31
0.0
  0
LINE
  5
3E6
  8
FP-402
 10
208.87499587812681
 20
33.00000223756502
 30
0.0
 11
199.87499587812681
 21
33.00000223756502
 31
0.0
  0
LINE
  5
3E7
  8
FP-402
 10
199.87499587812681
 20
33.500002237565013
 30
0.0
 11
208.87499587812681
 21
33.500002237565013
 31
0.0
  0
LINE
  5
3E8
  8
FP-402
 10
208.87499587812681
 20
34.500002237565013
 30
0.0
 11
199.87499587812681
 21
34.500002237565013
 31
0.0
  0
LINE
  5
3E9
  8
FP-402
 10
199.87499587812681
 20
35.50000223756502
 30
0.0
 11
208.87499587812681
 21
35.50000223756502
 31
0.0
  0
LINE
  5
3EA
  8
FP-402
 10
204.87499587812681
 20
36.50000223756502
 30
0.0
 11
199.87499587812681
 21
36.50000223756502
 31
0.0
  0
LINE
  5
3EB
  8
FP-402
 10
204.37499587812681
 20
37.500002237565013
 30
0.0
 11
199.87499587812681
 21
37.500002237565013
 31
0.0
  0
LINE
  5
3EC
  8
FP-402
 10
204.37499587812681
 20
38.500002237565013
 30
0.0
 11
199.87499587812681
 21
38.500002237565013
 31
0.0
  0
LINE
  5
3ED
  8
FP-402
 10
204.37499587812681
 20
39.50000223756502
 30
0.0
 11
199.87499587812681
 21
39.50000223756502
 31
0.0
  0
LINE
  5
3EE
  8
FP-402
 10
204.37499587812681
 20
40.500002237565013
 30
0.0
 11
199.87499587812681
 21
40.500002237565013
 31
0.0
  0
LINE
  5
3EF
  8
FP-402
 10
204.37499587812681
 20
41.500002237565013
 30
0.0
 11
199.87499587812681
 21
41.500002237565013
 31
0.0
  0
LINE
  5
3F0
  8
FP-402
 10
204.37499587812681
 20
42.500002237565013
 30
0.0
 11
199.87499587812681
 21
42.500002237565013
 31
0.0
  0
LINE
  5
3F1
  8
FP-402
 10
208.87499587812681
 20
39.50000223756502
 30
0.0
 11
207.37499587812681
 21
39.50000223756502
 31
0.0
  0
LINE
  5
3F2
  8
FP-402
 10
207.37499587812681
 20
40.500002237565013
 30
0.0
 11
208.87499587812681
 21
40.500002237565013
 31
0.0
  0
LINE
  5
3F3
  8
FP-402
 10
207.37499587812681
 20
41.500002237565013
 30
0.0
 11
208.87499587812681
 21
41.500002237565013
 31
0.0
  0
LINE
  5
3F4
  8
FP-402
 10
207.37499587812681
 20
42.500002237565013
 30
0.0
 11
208.87499587812681
 21
42.500002237565013
 31
0.0
  0
LINE
  5
3F5
  8
FP-402
 10
208.87499587812681
 20
43.500002237565013
 30
0.0
 11
199.87499587812681
 21
43.500002237565013
 31
0.0
  0
LINE
  5
3F6
  8
FP-402
 10
208.87499587812681
 20
44.500002237565013
 30
0.0
 11
199.87499587812681
 21
44.500002237565013
 31
0.0
  0
LINE
  5
3F7
  8
FP-402
 10
208.87499587812681
 20
45.500002237565013
 30
0.0
 11
199.87499587812681
 21
45.500002237565013
 31
0.0
  0
LINE
  5
3F8
  8
FP-402
 10
208.87499587812681
 20
46.500002237565013
 30
0.0
 11
199.87499587812681
 21
46.500002237565013
 31
0.0
  0
LINE
  5
3F9
  8
FP-402
 10
208.87499587812681
 20
47.500002237565013
 30
0.0
 11
199.87499587812681
 21
47.500002237565013
 31
0.0
  0
LINE
  5
3FA
  8
FP-402
 10
208.87499587812681
 20
48.500002237565013
 30
0.0
 11
199.87499587812681
 21
48.500002237565013
 31
0.0
  0
LINE
  5
3FB
  8
FP-402
 10
208.87499587812681
 20
49.500002237565013
 30
0.0
 11
199.87499587812681
 21
49.500002237565013
 31
0.0
  0
LINE
  5
3FC
  8
FP-402
 10
208.87499587812681
 20
50.000002237565013
 30
0.0
 11
199.87499587812681
 21
50.000002237565013
 31
0.0
  0
LINE
  5
3FD
  8
FP-402
 10
175.87499587812681
 20
35.50000223756502
 30
0.0
 11
174.87499587812681
 21
35.50000223756502
 31
0.0
  0
LINE
  5
3FE
  8
FP-402
 10
175.87499587812681
 20
47.500002237565013
 30
0.0
 11
174.87499587812681
 21
47.500002237565013
 31
0.0
  0
POLYLINE
  5
3FF
  8
FP-402
 66
     1
 10
0.0
 20
0.0
 30
0.0
  0
VERTEX
  5
929
  8
FP-402
 10
142.37499587812741
 20
43.000002237565013
 30
0.0
  0
VERTEX
  5
92A
  8
FP-402
 10
142.30989587812701
 20
42.988602237576508
 30
0.0
  0
VERTEX
  5
92B
  8
FP-402
 10
142.2466958781271
 20
42.954802237571812
 30
0.0
  0
VERTEX
  5
92C
  8
FP-402
 10
142.18749587812729
 20
42.899502237564548
 30
0.0
  0
VERTEX
  5
92D
  8
FP-402
 10
142.1338958781273
 20
42.824602237572087
 30
0.0
  0
VERTEX
  5
92E
  8
FP-402
 10
142.08769587812711
 20
42.732102237573478
 30
0.0
  0
VERTEX
  5
92F
  8
FP-402
 10
142.050195878127
 20
42.625002237565013
 30
0.0
  0
VERTEX
  5
930
  8
FP-402
 10
142.02259587812739
 20
42.506502237568043
 30
0.0
  0
VERTEX
  5
931
  8
FP-402
 10
142.00569587812711
 20
42.380302237569019
 30
0.0
  0
VERTEX
  5
932
  8
FP-402
 10
141.99999587812729
 20
42.250002237565013
 30
0.0
  0
VERTEX
  5
933
  8
FP-402
 10
142.00569587812711
 20
42.119802237565402
 30
0.0
  0
VERTEX
  5
934
  8
FP-402
 10
142.02259587812739
 20
41.993502237576422
 30
0.0
  0
VERTEX
  5
935
  8
FP-402
 10
142.050195878127
 20
41.875002237565013
 30
0.0
  0
VERTEX
  5
936
  8
FP-402
 10
142.08769587812711
 20
41.767902237571199
 30
0.0
  0
VERTEX
  5
937
  8
FP-402
 10
142.1338958781273
 20
41.675502237562569
 30
0.0
  0
VERTEX
  5
938
  8
FP-402
 10
142.18749587812729
 20
41.600502237565479
 30
0.0
  0
VERTEX
  5
939
  8
FP-402
 10
142.2466958781271
 20
41.545302237562957
 30
0.0
  0
VERTEX
  5
93A
  8
FP-402
 10
142.30989587812701
 20
41.511402237568063
 30
0.0
  0
VERTEX
  5
93B
  8
FP-402
 10
142.37499587812741
 20
41.500002237565013
 30
0.0
  0
SEQEND
  5
93C
  8
FP-402
  0
POLYLINE
  5
400
  8
FP-402
 66
     1
 10
0.0
 20
0.0
 30
0.0
  0
VERTEX
  5
93D
  8
FP-402
 10
141.99999587812729
 20
40.750002237565013
 30
0.0
  0
VERTEX
  5
93E
  8
FP-402
 10
142.00569587812711
 20
40.619802237565288
 30
0.0
  0
VERTEX
  5
93F
  8
FP-402
 10
142.02259587812739
 20
40.493502237576422
 30
0.0
  0
VERTEX
  5
940
  8
FP-402
 10
142.050195878127
 20
40.375002237565013
 30
0.0
  0
VERTEX
  5
941
  8
FP-402
 10
142.08769587812711
 20
40.267902237571199
 30
0.0
  0
VERTEX
  5
942
  8
FP-402
 10
142.1338958781273
 20
40.175502237562569
 30
0.0
  0
VERTEX
  5
943
  8
FP-402
 10
142.18749587812729
 20
40.100502237565479
 30
0.0
  0
VERTEX
  5
944
  8
FP-402
 10
142.2466958781271
 20
40.045302237562957
 30
0.0
  0
VERTEX
  5
945
  8
FP-402
 10
142.30989587812701
 20
40.011402237568063
 30
0.0
  0
VERTEX
  5
946
  8
FP-402
 10
142.37499587812741
 20
40.000002237565013
 30
0.0
  0
VERTEX
  5
947
  8
FP-402
 10
142.44009587812741
 20
40.011402237568063
 30
0.0
  0
VERTEX
  5
948
  8
FP-402
 10
142.503195878127
 20
40.045302237562957
 30
0.0
  0
VERTEX
  5
949
  8
FP-402
 10
142.56249587812729
 20
40.100502237565479
 30
0.0
  0
VERTEX
  5
94A
  8
FP-402
 10
142.61599587812731
 20
40.175502237562569
 30
0.0
  0
VERTEX
  5
94B
  8
FP-402
 10
142.66229587812731
 20
40.267902237571199
 30
0.0
  0
VERTEX
  5
94C
  8
FP-402
 10
142.69969587812699
 20
40.375002237565013
 30
0.0
  0
VERTEX
  5
94D
  8
FP-402
 10
142.727395878127
 20
40.493502237576422
 30
0.0
  0
VERTEX
  5
94E
  8
FP-402
 10
142.7442958781273
 20
40.619802237565288
 30
0.0
  0
VERTEX
  5
94F
  8
FP-402
 10
142.74999587812741
 20
40.750002237565013
 30
0.0
  0
VERTEX
  5
950
  8
FP-402
 10
142.7442958781273
 20
40.880302237569254
 30
0.0
  0
VERTEX
  5
951
  8
FP-402
 10
142.727395878127
 20
41.006502237568149
 30
0.0
  0
VERTEX
  5
952
  8
FP-402
 10
142.69969587812699
 20
41.125002237565013
 30
0.0
  0
VERTEX
  5
953
  8
FP-402
 10
142.66229587812731
 20
41.232102237573478
 30
0.0
  0
VERTEX
  5
954
  8
FP-402
 10
142.61599587812731
 20
41.324602237572087
 30
0.0
  0
VERTEX
  5
955
  8
FP-402
 10
142.56249587812729
 20
41.399502237564541
 30
0.0
  0
VERTEX
  5
956
  8
FP-402
 10
142.503195878127
 20
41.454802237571812
 30
0.0
  0
VERTEX
  5
957
  8
FP-402
 10
142.44009587812741
 20
41.488602237576508
 30
0.0
  0
VERTEX
  5
958
  8
FP-402
 10
142.37499587812741
 20
41.500002237565013
 30
0.0
  0
VERTEX
  5
959
  8
FP-402
 10
142.30989587812701
 20
41.488602237576508
 30
0.0
  0
VERTEX
  5
95A
  8
FP-402
 10
142.2466958781271
 20
41.454802237571812
 30
0.0
  0
VERTEX
  5
95B
  8
FP-402
 10
142.18749587812729
 20
41.399502237564541
 30
0.0
  0
VERTEX
  5
95C
  8
FP-402
 10
142.1338958781273
 20
41.324602237572087
 30
0.0
  0
VERTEX
  5
95D
  8
FP-402
 10
142.08769587812711
 20
41.232102237573478
 30
0.0
  0
VERTEX
  5
95E
  8
FP-402
 10
142.050195878127
 20
41.125002237565013
 30
0.0
  0
VERTEX
  5
95F
  8
FP-402
 10
142.02259587812739
 20
41.006502237568149
 30
0.0
  0
VERTEX
  5
960
  8
FP-402
 10
142.00569587812711
 20
40.880302237569254
 30
0.0
  0
VERTEX
  5
961
  8
FP-402
 10
141.99999587812729
 20
40.750002237565013
 30
0.0
  0
SEQEND
  5
962
  8
FP-402
  0
LINE
  5
401
  8
FP-402
 10
152.3749958781267
 20
40.000002237565013
 30
0.0
 11
142.37499587812741
 21
40.000002237565013
 31
0.0
  0
LINE
  5
402
  8
FP-402
 10
152.3749958781267
 20
43.000002237565013
 30
0.0
 11
142.37499587812741
 21
43.000002237565013
 31
0.0
  0
LINE
  5
403
  8
FP-402
 10
151.8749958781267
 20
43.000002237565013
 30
0.0
 11
168.87499587812681
 21
43.000002237565013
 31
0.0
  0
LINE
  5
404
  8
FP-402
 10
150.3749958781267
 20
40.000002237565013
 30
0.0
 11
168.87499587812681
 21
40.000002237565013
 31
0.0
  0
ENDBLK
  5
405
  8
0
  0
BLOCK
  8
0
  2
A$C6D9D0D35
 70
     0
 10
0.0
 20
0.0
 30
0.0
  3
A$C6D9D0D35
  1

  0
ARC
  5
409
  8
FP-402
 10
5.499995878127379
 20
22.000002512567111
 30
0.0
 40
5.0
 50
180.0
 51
270.0
  0
ARC
  5
40A
  8
FP-402
 10
5.499995878127379
 20
43.500002512567107
 30
0.0
 40
5.0
 50
90.0
 51
180.0
  0
LINE
  5
40B
  8
FP-402
 10
92.499995878127038
 20
48.500002512567107
 30
0.0
 11
5.499995878127379
 21
48.500002512567107
 31
0.0
  0
LINE
  5
40C
  8
FP-402
 10
5.499995878127379
 20
17.00000251256699
 30
0.0
 11
92.499995878127038
 21
17.00000251256699
 31
0.0
  0
LINE
  5
40D
  8
FP-402
 10
-0.000004121872621
 20
32.500002512567107
 30
0.0
 11
97.999995878127038
 21
32.500002512567107
 31
0.0
  0
LINE
  5
40E
  8
FP-402
 10
97.999995878127038
 20
32.500002512567107
 30
0.0
 11
97.999995878127038
 21
29.500002512567001
 31
0.0
  0
LINE
  5
40F
  8
FP-402
 10
97.999995878127038
 20
29.500002512567001
 30
0.0
 11
-0.000004121872621
 21
29.500002512567001
 31
0.0
  0
LINE
  5
410
  8
FP-402
 10
-0.000004121872621
 20
29.500002512567001
 30
0.0
 11
-0.000004121872621
 21
32.500002512567107
 31
0.0
  0
LINE
  5
411
  8
FP-402
 10
-0.000004121872621
 20
29.000002512567111
 30
0.0
 11
97.999995878127038
 21
29.000002512567111
 31
0.0
  0
LINE
  5
412
  8
FP-402
 10
97.999995878127038
 20
29.000002512567111
 30
0.0
 11
97.999995878127038
 21
26.000002512567111
 31
0.0
  0
LINE
  5
413
  8
FP-402
 10
97.999995878127038
 20
26.000002512567111
 30
0.0
 11
-0.000004121872621
 21
26.000002512567111
 31
0.0
  0
LINE
  5
414
  8
FP-402
 10
-0.000004121872621
 20
26.000002512567111
 30
0.0
 11
-0.000004121872621
 21
29.000002512567111
 31
0.0
  0
ARC
  5
415
  8
FP-402
 10
92.499995878127038
 20
22.000002512567111
 30
0.0
 40
5.0
 50
270.0
 51
0.0
  0
ARC
  5
416
  8
FP-402
 10
92.499995878127038
 20
43.500002512567107
 30
0.0
 40
5.0
 50
0.0
 51
90.0
  0
LINE
  5
417
  8
FP-402
 10
97.499995878127365
 20
22.000002512567111
 30
0.0
 11
97.499995878127365
 21
26.000002512567111
 31
0.0
  0
LINE
  5
418
  8
FP-402
 10
97.499995878127365
 20
29.000002512567111
 30
0.0
 11
97.499995878127365
 21
29.500002512567001
 31
0.0
  0
LINE
  5
419
  8
FP-402
 10
97.499995878127365
 20
32.500002512567107
 30
0.0
 11
97.499995878127365
 21
43.500002512567107
 31
0.0
  0
LINE
  5
41A
  8
FP-402
 10
0.4999958781271517
 20
43.500002512567107
 30
0.0
 11
0.4999958781271517
 21
32.500002512567107
 31
0.0
  0
LINE
  5
41B
  8
FP-402
 10
0.4999958781271517
 20
29.500002512567001
 30
0.0
 11
0.4999958781271517
 21
29.000002512567111
 31
0.0
  0
LINE
  5
41C
  8
FP-402
 10
0.4999958781271517
 20
26.000002512567111
 30
0.0
 11
0.4999958781271517
 21
22.000002512567111
 31
0.0
  0
LINE
  5
41D
  8
FP-402
 10
21.999995878127152
 20
1.000002512567107
 30
0.0
 11
22.999995878127152
 21
0.0000025125671073
 31
0.0
  0
LINE
  5
41E
  8
FP-402
 10
22.999995878127152
 20
0.0000025125671073
 30
0.0
 11
26.999995878127379
 21
0.0000025125671073
 31
0.0
  0
LINE
  5
41F
  8
FP-402
 10
26.999995878127379
 20
0.0000025125671073
 30
0.0
 11
27.999995878127379
 21
1.000002512567107
 31
0.0
  0
LINE
  5
420
  8
FP-402
 10
22.999995878127152
 20
1.000002512567107
 30
0.0
 11
26.999995878127379
 21
1.000002512567107
 31
0.0
  0
LINE
  5
421
  8
FP-402
 10
27.999995878127379
 20
1.000002512567107
 30
0.0
 11
27.999995878127379
 21
17.00000251256699
 31
0.0
  0
LINE
  5
422
  8
FP-402
 10
21.999995878127152
 20
17.00000251256699
 30
0.0
 11
21.999995878127152
 21
1.000002512567107
 31
0.0
  0
CIRCLE
  5
423
  8
FP-402
 10
24.999995878127379
 20
5.0000025125671073
 30
0.0
 40
1.5
  0
LINE
  5
424
  8
FP-402
 10
103.999995878127
 20
32.500002512567107
 30
0.0
 11
103.999995878127
 21
26.500002512567111
 31
0.0
  0
LINE
  5
425
  8
FP-402
 10
103.999995878127
 20
26.500002512567111
 30
0.0
 11
101.99999587812739
 21
26.000002512567111
 31
0.0
  0
LINE
  5
426
  8
FP-402
 10
101.99999587812739
 20
26.000002512567111
 30
0.0
 11
101.99999587812739
 21
33.000002512567107
 31
0.0
  0
LINE
  5
427
  8
FP-402
 10
104.999995878127
 20
32.500002512567107
 30
0.0
 11
104.999995878127
 21
26.500002512567111
 31
0.0
  0
LINE
  5
428
  8
FP-402
 10
104.999995878127
 20
26.500002512567111
 30
0.0
 11
106.99999587812739
 21
27.000002512567111
 31
0.0
  0
LINE
  5
429
  8
FP-402
 10
106.99999587812739
 20
27.000002512567111
 30
0.0
 11
106.99999587812739
 21
32.000002512567107
 31
0.0
  0
LINE
  5
42A
  8
FP-402
 10
106.99999587812739
 20
32.000002512567107
 30
0.0
 11
104.999995878127
 21
32.500002512567107
 31
0.0
  0
LINE
  5
42B
  8
FP-402
 10
101.99999587812739
 20
33.000002512567107
 30
0.0
 11
103.999995878127
 21
32.500002512567107
 31
0.0
  0
LINE
  5
42C
  8
FP-402
 10
107.99999587812739
 20
32.000002512567107
 30
0.0
 11
107.99999587812739
 21
27.000002512567111
 31
0.0
  0
LINE
  5
42D
  8
FP-402
 10
107.99999587812739
 20
27.000002512567111
 30
0.0
 11
109.99999587812739
 21
27.500002512567111
 31
0.0
  0
LINE
  5
42E
  8
FP-402
 10
109.99999587812739
 20
27.500002512567111
 30
0.0
 11
109.99999587812739
 21
31.500002512567111
 31
0.0
  0
LINE
  5
42F
  8
FP-402
 10
109.99999587812739
 20
31.500002512567111
 30
0.0
 11
107.99999587812739
 21
32.000002512567107
 31
0.0
  0
LINE
  5
430
  8
FP-402
 10
100.99999587812739
 20
26.000002512567111
 30
0.0
 11
100.99999587812739
 21
33.000002512567107
 31
0.0
  0
LINE
  5
431
  8
FP-402
 10
97.999995878127038
 20
33.500002512567107
 30
0.0
 11
97.999995878127038
 21
25.500002512567111
 31
0.0
  0
LINE
  5
432
  8
FP-402
 10
97.999995878127038
 20
33.500002512567107
 30
0.0
 11
100.99999587812739
 21
33.500002512567107
 31
0.0
  0
LINE
  5
433
  8
FP-402
 10
100.99999587812739
 20
33.500002512567107
 30
0.0
 11
100.99999587812739
 21
25.500002512567111
 31
0.0
  0
LINE
  5
434
  8
FP-402
 10
100.99999587812739
 20
25.500002512567111
 30
0.0
 11
97.999995878127038
 21
25.500002512567111
 31
0.0
  0
LINE
  5
435
  8
FP-402
 10
97.999995878127038
 20
25.500002512567111
 30
0.0
 11
97.999995878127038
 21
33.500002512567107
 31
0.0
  0
LINE
  5
436
  8
FP-402
 10
110.99999587812739
 20
31.500002512567111
 30
0.0
 11
112.999995878127
 21
31.500002512567111
 31
0.0
  0
LINE
  5
437
  8
FP-402
 10
112.999995878127
 20
31.500002512567111
 30
0.0
 11
112.999995878127
 21
27.500002512567111
 31
0.0
  0
LINE
  5
438
  8
FP-402
 10
112.999995878127
 20
27.500002512567111
 30
0.0
 11
110.99999587812739
 21
27.500002512567111
 31
0.0
  0
LINE
  5
439
  8
FP-402
 10
110.99999587812739
 20
27.500002512567111
 30
0.0
 11
110.99999587812739
 21
31.500002512567111
 31
0.0
  0
LINE
  5
43A
  8
FP-402
 10
110.99999587812739
 20
31.000002512567111
 30
0.0
 11
109.99999587812739
 21
31.000002512567111
 31
0.0
  0
LINE
  5
43B
  8
FP-402
 10
109.99999587812739
 20
30.500002512567111
 30
0.0
 11
110.99999587812739
 21
30.500002512567111
 31
0.0
  0
LINE
  5
43C
  8
FP-402
 10
110.99999587812739
 20
28.500002512567111
 30
0.0
 11
109.99999587812739
 21
28.500002512567111
 31
0.0
  0
LINE
  5
43D
  8
FP-402
 10
109.99999587812739
 20
28.000002512567111
 30
0.0
 11
110.99999587812739
 21
28.000002512567111
 31
0.0
  0
LINE
  5
43E
  8
FP-402
 10
107.99999587812739
 20
31.000002512567111
 30
0.0
 11
106.99999587812739
 21
31.000002512567111
 31
0.0
  0
LINE
  5
43F
  8
FP-402
 10
106.99999587812739
 20
30.500002512567111
 30
0.0
 11
107.99999587812739
 21
30.500002512567111
 31
0.0
  0
LINE
  5
440
  8
FP-402
 10
107.99999587812739
 20
28.500002512567111
 30
0.0
 11
106.99999587812739
 21
28.500002512567111
 31
0.0
  0
LINE
  5
441
  8
FP-402
 10
106.99999587812739
 20
28.000002512567111
 30
0.0
 11
107.99999587812739
 21
28.000002512567111
 31
0.0
  0
LINE
  5
442
  8
FP-402
 10
104.999995878127
 20
31.000002512567111
 30
0.0
 11
103.999995878127
 21
31.000002512567111
 31
0.0
  0
LINE
  5
443
  8
FP-402
 10
103.999995878127
 20
30.500002512567111
 30
0.0
 11
104.999995878127
 21
30.500002512567111
 31
0.0
  0
LINE
  5
444
  8
FP-402
 10
104.999995878127
 20
28.500002512567111
 30
0.0
 11
103.999995878127
 21
28.500002512567111
 31
0.0
  0
LINE
  5
445
  8
FP-402
 10
103.999995878127
 20
28.000002512567111
 30
0.0
 11
104.999995878127
 21
28.000002512567111
 31
0.0
  0
LINE
  5
446
  8
FP-402
 10
101.99999587812739
 20
31.000002512567111
 30
0.0
 11
100.99999587812739
 21
31.000002512567111
 31
0.0
  0
LINE
  5
447
  8
FP-402
 10
100.99999587812739
 20
30.500002512567111
 30
0.0
 11
101.99999587812739
 21
30.500002512567111
 31
0.0
  0
LINE
  5
448
  8
FP-402
 10
101.99999587812739
 20
28.500002512567111
 30
0.0
 11
100.99999587812739
 21
28.500002512567111
 31
0.0
  0
LINE
  5
449
  8
FP-402
 10
100.99999587812739
 20
28.000002512567111
 30
0.0
 11
101.99999587812739
 21
28.000002512567111
 31
0.0
  0
LINE
  5
44A
  8
FP-402
 10
101.99999587812739
 20
32.500002512567107
 30
0.0
 11
100.99999587812739
 21
33.000002512567107
 31
0.0
  0
LINE
  5
44B
  8
FP-402
 10
104.999995878127
 20
32.000002512567107
 30
0.0
 11
103.999995878127
 21
32.500002512567107
 31
0.0
  0
LINE
  5
44C
  8
FP-402
 10
107.99999587812739
 20
31.500002512567111
 30
0.0
 11
106.99999587812739
 21
32.000002512567107
 31
0.0
  0
LINE
  5
44D
  8
FP-402
 10
100.99999587812739
 20
26.000002512567111
 30
0.0
 11
101.99999587812739
 21
26.500002512567111
 31
0.0
  0
LINE
  5
44E
  8
FP-402
 10
103.999995878127
 20
26.500002512567111
 30
0.0
 11
104.999995878127
 21
27.000002512567111
 31
0.0
  0
LINE
  5
44F
  8
FP-402
 10
106.99999587812739
 20
27.000002512567111
 30
0.0
 11
107.99999587812739
 21
27.500002512567111
 31
0.0
  0
LINE
  5
450
  8
FP-402
 10
109.99999587812739
 20
31.500002512567111
 30
0.0
 11
110.99999587812739
 21
31.500002512567111
 31
0.0
  0
LINE
  5
451
  8
FP-402
 10
109.99999587812739
 20
27.500002512567111
 30
0.0
 11
110.99999587812739
 21
27.500002512567111
 31
0.0
  0
LINE
  5
452
  8
FP-402
 10
97.999995878127038
 20
25.500002512567111
 30
0.0
 11
97.499995878127365
 21
25.500002512567111
 31
0.0
  0
LINE
  5
453
  8
FP-402
 10
97.499995878127365
 20
33.500002512567107
 30
0.0
 11
97.999995878127038
 21
33.500002512567107
 31
0.0
  0
POLYLINE
  5
454
  8
FP-402
 66
     1
 10
0.0
 20
0.0
 30
0.0
  0
VERTEX
  5
963
  8
FP-402
 10
122.999995878127
 20
28.000002512567111
 30
0.0
  0
VERTEX
  5
964
  8
FP-402
 10
123.06509587812739
 20
28.011402512570161
 30
0.0
  0
VERTEX
  5
965
  8
FP-402
 10
123.1282958781273
 20
28.04520251257475
 30
0.0
  0
VERTEX
  5
966
  8
FP-402
 10
123.187495878127
 20
28.10050251256758
 30
0.0
  0
VERTEX
  5
967
  8
FP-402
 10
123.241095878127
 20
28.175402512574468
 30
0.0
  0
VERTEX
  5
968
  8
FP-402
 10
123.2872958781273
 20
28.267902512573301
 30
0.0
  0
VERTEX
  5
969
  8
FP-402
 10
123.3247958781273
 20
28.375002512567111
 30
0.0
  0
VERTEX
  5
96A
  8
FP-402
 10
123.352395878127
 20
28.49350251257852
 30
0.0
  0
VERTEX
  5
96B
  8
FP-402
 10
123.3692958781273
 20
28.619702512577081
 30
0.0
  0
VERTEX
  5
96C
  8
FP-402
 10
123.374995878127
 20
28.750002512567111
 30
0.0
  0
VERTEX
  5
96D
  8
FP-402
 10
123.3692958781273
 20
28.880202512566711
 30
0.0
  0
VERTEX
  5
96E
  8
FP-402
 10
123.352395878127
 20
29.00650251257025
 30
0.0
  0
VERTEX
  5
96F
  8
FP-402
 10
123.3247958781273
 20
29.125002512567111
 30
0.0
  0
VERTEX
  5
970
  8
FP-402
 10
123.2872958781273
 20
29.232102512575239
 30
0.0
  0
VERTEX
  5
971
  8
FP-402
 10
123.241095878127
 20
29.324502512569548
 30
0.0
  0
VERTEX
  5
972
  8
FP-402
 10
123.187495878127
 20
29.399502512566531
 30
0.0
  0
VERTEX
  5
973
  8
FP-402
 10
123.1282958781273
 20
29.45470251256916
 30
0.0
  0
VERTEX
  5
974
  8
FP-402
 10
123.06509587812739
 20
29.488602512578609
 30
0.0
  0
VERTEX
  5
975
  8
FP-402
 10
122.999995878127
 20
29.500002512567001
 30
0.0
  0
SEQEND
  5
976
  8
FP-402
  0
POLYLINE
  5
455
  8
FP-402
 66
     1
 10
0.0
 20
0.0
 30
0.0
  0
VERTEX
  5
977
  8
FP-402
 10
123.374995878127
 20
30.250002512567111
 30
0.0
  0
VERTEX
  5
978
  8
FP-402
 10
123.3692958781273
 20
30.380202512566711
 30
0.0
  0
VERTEX
  5
979
  8
FP-402
 10
123.352395878127
 20
30.50650251257025
 30
0.0
  0
VERTEX
  5
97A
  8
FP-402
 10
123.3247958781273
 20
30.625002512567111
 30
0.0
  0
VERTEX
  5
97B
  8
FP-402
 10
123.2872958781273
 20
30.73210251257558
 30
0.0
  0
VERTEX
  5
97C
  8
FP-402
 10
123.241095878127
 20
30.824502512569548
 30
0.0
  0
VERTEX
  5
97D
  8
FP-402
 10
123.187495878127
 20
30.899502512566531
 30
0.0
  0
VERTEX
  5
97E
  8
FP-402
 10
123.1282958781273
 20
30.954702512568929
 30
0.0
  0
VERTEX
  5
97F
  8
FP-402
 10
123.06509587812739
 20
30.988602512578609
 30
0.0
  0
VERTEX
  5
980
  8
FP-402
 10
122.999995878127
 20
31.000002512567111
 30
0.0
  0
VERTEX
  5
981
  8
FP-402
 10
122.93489587812699
 20
30.988602512578609
 30
0.0
  0
VERTEX
  5
982
  8
FP-402
 10
122.8717958781274
 20
30.954702512568929
 30
0.0
  0
VERTEX
  5
983
  8
FP-402
 10
122.812495878127
 20
30.899502512566531
 30
0.0
  0
VERTEX
  5
984
  8
FP-402
 10
122.75899587812739
 20
30.824502512569548
 30
0.0
  0
VERTEX
  5
985
  8
FP-402
 10
122.71269587812731
 20
30.73210251257558
 30
0.0
  0
VERTEX
  5
986
  8
FP-402
 10
122.6752958781273
 20
30.625002512567111
 30
0.0
  0
VERTEX
  5
987
  8
FP-402
 10
122.6475958781274
 20
30.50650251257025
 30
0.0
  0
VERTEX
  5
988
  8
FP-402
 10
122.6306958781271
 20
30.380202512566711
 30
0.0
  0
VERTEX
  5
989
  8
FP-402
 10
122.62499587812739
 20
30.250002512567111
 30
0.0
  0
VERTEX
  5
98A
  8
FP-402
 10
122.6306958781271
 20
30.119702512577192
 30
0.0
  0
VERTEX
  5
98B
  8
FP-402
 10
122.6475958781274
 20
29.993502512578509
 30
0.0
  0
VERTEX
  5
98C
  8
FP-402
 10
122.6752958781273
 20
29.875002512567111
 30
0.0
  0
VERTEX
  5
98D
  8
FP-402
 10
122.71269587812731
 20
29.767902512573301
 30
0.0
  0
VERTEX
  5
98E
  8
FP-402
 10
122.75899587812739
 20
29.675402512574131
 30
0.0
  0
VERTEX
  5
98F
  8
FP-402
 10
122.812495878127
 20
29.60050251256758
 30
0.0
  0
VERTEX
  5
990
  8
FP-402
 10
122.8717958781274
 20
29.545202512574861
 30
0.0
  0
VERTEX
  5
991
  8
FP-402
 10
122.93489587812699
 20
29.511402512570161
 30
0.0
  0
VERTEX
  5
992
  8
FP-402
 10
122.999995878127
 20
29.500002512567001
 30
0.0
  0
VERTEX
  5
993
  8
FP-402
 10
123.06509587812739
 20
29.511402512570161
 30
0.0
  0
VERTEX
  5
994
  8
FP-402
 10
123.1282958781273
 20
29.545202512574861
 30
0.0
  0
VERTEX
  5
995
  8
FP-402
 10
123.187495878127
 20
29.60050251256758
 30
0.0
  0
VERTEX
  5
996
  8
FP-402
 10
123.241095878127
 20
29.675402512574131
 30
0.0
  0
VERTEX
  5
997
  8
FP-402
 10
123.2872958781273
 20
29.767902512573301
 30
0.0
  0
VERTEX
  5
998
  8
FP-402
 10
123.3247958781273
 20
29.875002512567111
 30
0.0
  0
VERTEX
  5
999
  8
FP-402
 10
123.352395878127
 20
29.993502512578509
 30
0.0
  0
VERTEX
  5
99A
  8
FP-402
 10
123.3692958781273
 20
30.119702512577192
 30
0.0
  0
VERTEX
  5
99B
  8
FP-402
 10
123.374995878127
 20
30.250002512567111
 30
0.0
  0
SEQEND
  5
99C
  8
FP-402
  0
LINE
  5
456
  8
FP-402
 10
112.999995878127
 20
31.000002512567111
 30
0.0
 11
122.999995878127
 21
31.000002512567111
 31
0.0
  0
LINE
  5
457
  8
FP-402
 10
112.999995878127
 20
28.000002512567111
 30
0.0
 11
122.999995878127
 21
28.000002512567111
 31
0.0
  0
ENDBLK
  5
458
  8
0
  0
BLOCK
  8
0
  2
*D6
 70
     1
 10
0.0
 20
0.0
 30
0.0
  3
*D6
  1

  0
LINE
  5
64D
  8
0
 62
     0
 10
1020.038594771315
 20
1514.7142682004519
 30
0.0
 11
937.90646344809375
 21
1514.7142682004519
 31
0.0
  0
LINE
  5
64E
  8
0
 62
     0
 10
1020.038594771315
 20
1217.7142682004519
 30
0.0
 11
937.90646344809375
 21
1217.7142682004519
 31
0.0
  0
LINE
  5
64F
  8
0
 62
     0
 10
939.15646344809386
 20
1512.2142682004519
 30
0.0
 11
939.15646344809375
 21
1220.2142682004519
 31
0.0
  0
SOLID
  5
650
  8
0
 62
     0
 10
938.73979678142734
 20
1512.2142682004519
 30
0.0
 11
939.57313011476037
 21
1512.2142682004519
 31
0.0
 12
939.15646344809386
 22
1514.7142682004519
 32
0.0
 13
939.15646344809386
 23
1514.7142682004519
 33
0.0
  0
SOLID
  5
651
  8
0
 62
     0
 10
938.73979678142712
 20
1220.2142682004519
 30
0.0
 11
939.57313011476037
 21
1220.2142682004519
 31
0.0
 12
939.15646344809375
 22
1217.7142682004519
 32
0.0
 13
939.15646344809375
 23
1217.7142682004519
 33
0.0
  0
INSERT
  5
652
  8
0
  2
*U21
 10
0.0
 20
0.0
 30
0.0
  0
POINT
  5
653
  8
DEFPOINTS
 62
     0
 10
1020.663594771316
 20
1514.7142682004519
 30
0.0
  0
POINT
  5
654
  8
DEFPOINTS
 62
     0
 10
1020.663594771316
 20
1217.7142682004519
 30
0.0
  0
POINT
  5
655
  8
DEFPOINTS
 62
     0
 10
939.15646344809375
 20
1217.7142682004519
 30
0.0
  0
ENDBLK
  5
5A5
  8
0
  0
BLOCK
  8
0
  2
*D7
 70
     1
 10
0.0
 20
0.0
 30
0.0
  3
*D7
  1

  0
LINE
  5
644
  8
0
 62
     0
 10
1020.038594771315
 20
1514.7142682004519
 30
0.0
 11
937.90646344809375
 21
1514.7142682004519
 31
0.0
  0
LINE
  5
645
  8
0
 62
     0
 10
990.03859477131573
 20
1556.2142682004519
 30
0.0
 11
937.90646344809375
 21
1556.2142682004519
 31
0.0
  0
LINE
  5
646
  8
0
 62
     0
 10
939.15646344809386
 20
1517.2142682004519
 30
0.0
 11
939.15646344809386
 21
1553.7142682004519
 31
0.0
  0
SOLID
  5
647
  8
0
 62
     0
 10
938.73979678142734
 20
1517.2142682004519
 30
0.0
 11
939.57313011476037
 21
1517.2142682004519
 31
0.0
 12
939.15646344809386
 22
1514.7142682004519
 32
0.0
 13
939.15646344809386
 23
1514.7142682004519
 33
0.0
  0
SOLID
  5
648
  8
0
 62
     0
 10
938.73979678142734
 20
1553.7142682004519
 30
0.0
 11
939.57313011476037
 21
1553.7142682004519
 31
0.0
 12
939.15646344809386
 22
1556.2142682004519
 32
0.0
 13
939.15646344809386
 23
1556.2142682004519
 33
0.0
  0
INSERT
  5
649
  8
0
  2
*U20
 10
0.0
 20
0.0
 30
0.0
  0
POINT
  5
64A
  8
DEFPOINTS
 62
     0
 10
1020.663594771316
 20
1514.7142682004519
 30
0.0
  0
POINT
  5
64B
  8
DEFPOINTS
 62
     0
 10
990.66359477131573
 20
1556.2142682004519
 30
0.0
  0
POINT
  5
64C
  8
DEFPOINTS
 62
     0
 10
939.15646344809386
 20
1556.2142682004519
 30
0.0
  0
ENDBLK
  5
5BD
  8
0
  0
BLOCK
  8
0
  2
*D8
 70
     1
 10
0.0
 20
0.0
 30
0.0
  3
*D8
  1

  0
LINE
  5
668
  8
0
 62
     0
 10
988.66359477131573
 20
1554.8392682004519
 30
0.0
 11
988.66359477131573
 21
1590.9868903692191
 31
0.0
  0
LINE
  5
669
  8
0
 62
     0
 10
1018.663594771315
 20
1513.3392682004519
 30
0.0
 11
1018.663594771315
 21
1590.9868903692191
 31
0.0
  0
LINE
  5
66A
  8
0
 62
     0
 10
991.16359477131584
 20
1589.7368903692179
 30
0.0
 11
1016.163594771316
 21
1589.7368903692179
 31
0.0
  0
SOLID
  5
66B
  8
0
 62
     0
 10
991.16359477131584
 20
1590.1535570358849
 30
0.0
 11
991.16359477131584
 21
1589.3202237025521
 31
0.0
 12
988.66359477131573
 22
1589.7368903692179
 32
0.0
 13
988.66359477131573
 23
1589.7368903692179
 33
0.0
  0
SOLID
  5
66C
  8
0
 62
     0
 10
1016.163594771316
 20
1590.1535570358849
 30
0.0
 11
1016.163594771316
 21
1589.3202237025521
 31
0.0
 12
1018.663594771315
 22
1589.7368903692179
 32
0.0
 13
1018.663594771315
 23
1589.7368903692179
 33
0.0
  0
INSERT
  5
66D
  8
0
  2
*U24
 10
0.0
 20
0.0
 30
0.0
  0
POINT
  5
66E
  8
DEFPOINTS
 62
     0
 10
988.66359477131573
 20
1554.2142682004519
 30
0.0
  0
POINT
  5
66F
  8
DEFPOINTS
 62
     0
 10
1018.663594771315
 20
1512.7142682004519
 30
0.0
  0
POINT
  5
670
  8
DEFPOINTS
 62
     0
 10
1018.663594771315
 20
1589.7368903692179
 30
0.0
  0
ENDBLK
  5
5D5
  8
0
  0
BLOCK
  8
0
  2
*D9
 70
     1
 10
0.0
 20
0.0
 30
0.0
  3
*D9
  1

  0
LINE
  5
65F
  8
0
 62
     0
 10
1018.663594771315
 20
1513.3392682004519
 30
0.0
 11
1018.663594771315
 21
1590.9868903692191
 31
0.0
  0
LINE
  5
660
  8
0
 62
     0
 10
1228.663594771316
 20
1513.3392682004519
 30
0.0
 11
1228.663594771316
 21
1590.9868903692191
 31
0.0
  0
LINE
  5
661
  8
0
 62
     0
 10
1021.163594771316
 20
1589.7368903692179
 30
0.0
 11
1226.163594771316
 21
1589.7368903692179
 31
0.0
  0
SOLID
  5
662
  8
0
 62
     0
 10
1021.163594771316
 20
1590.1535570358849
 30
0.0
 11
1021.163594771316
 21
1589.3202237025521
 31
0.0
 12
1018.663594771315
 22
1589.7368903692179
 32
0.0
 13
1018.663594771315
 23
1589.7368903692179
 33
0.0
  0
SOLID
  5
663
  8
0
 62
     0
 10
1226.163594771316
 20
1590.1535570358849
 30
0.0
 11
1226.163594771316
 21
1589.3202237025521
 31
0.0
 12
1228.663594771316
 22
1589.7368903692179
 32
0.0
 13
1228.663594771316
 23
1589.7368903692179
 33
0.0
  0
INSERT
  5
664
  8
0
  2
*U23
 10
0.0
 20
0.0
 30
0.0
  0
POINT
  5
665
  8
DEFPOINTS
 62
     0
 10
1018.663594771315
 20
1512.7142682004519
 30
0.0
  0
POINT
  5
666
  8
DEFPOINTS
 62
     0
 10
1228.663594771316
 20
1512.7142682004519
 30
0.0
  0
POINT
  5
667
  8
DEFPOINTS
 62
     0
 10
1228.663594771316
 20
1589.7368903692179
 30
0.0
  0
ENDBLK
  5
5ED
  8
0
  0
BLOCK
  8
0
  2
*D10
 70
     1
 10
0.0
 20
0.0
 30
0.0
  3
*D10
  1

  0
LINE
  5
656
  8
0
 62
     0
 10
988.66359477131573
 20
1554.8392682004519
 30
0.0
 11
988.66359477131573
 21
1628.421391782713
 31
0.0
  0
LINE
  5
657
  8
0
 62
     0
 10
1268.663594771316
 20
1554.8392682004519
 30
0.0
 11
1268.663594771316
 21
1628.421391782713
 31
0.0
  0
LINE
  5
658
  8
0
 62
     0
 10
991.16359477131584
 20
1627.171391782713
 30
0.0
 11
1266.163594771316
 21
1627.171391782713
 31
0.0
  0
SOLID
  5
659
  8
0
 62
     0
 10
991.16359477131584
 20
1627.5880584493791
 30
0.0
 11
991.16359477131584
 21
1626.7547251160461
 31
0.0
 12
988.66359477131573
 22
1627.171391782713
 32
0.0
 13
988.66359477131573
 23
1627.171391782713
 33
0.0
  0
SOLID
  5
65A
  8
0
 62
     0
 10
1266.163594771316
 20
1627.5880584493791
 30
0.0
 11
1266.163594771316
 21
1626.7547251160461
 31
0.0
 12
1268.663594771316
 22
1627.171391782713
 32
0.0
 13
1268.663594771316
 23
1627.171391782713
 33
0.0
  0
INSERT
  5
65B
  8
0
  2
*U22
 10
0.0
 20
0.0
 30
0.0
  0
POINT
  5
65C
  8
DEFPOINTS
 62
     0
 10
988.66359477131573
 20
1554.2142682004519
 30
0.0
  0
POINT
  5
65D
  8
DEFPOINTS
 62
     0
 10
1268.663594771316
 20
1554.2142682004519
 30
0.0
  0
POINT
  5
65E
  8
DEFPOINTS
 62
     0
 10
1268.663594771316
 20
1627.171391782713
 30
0.0
  0
ENDBLK
  5
60E
  8
0
  0
BLOCK
  8
0
  2
*D11
 70
     1
 10
0.0
 20
0.0
 30
0.0
  3
*D11
  1

  0
LINE
  5
63B
  8
0
 62
     0
 10
990.03859477131573
 20
1556.2142682004519
 30
0.0
 11
886.68541465288126
 21
1556.2142682004519
 31
0.0
  0
LINE
  5
63C
  8
0
 62
     0
 10
990.03859477131573
 20
1176.2142682004519
 30
0.0
 11
886.68541465288115
 21
1176.2142682004519
 31
0.0
  0
LINE
  5
63D
  8
0
 62
     0
 10
887.93541465288126
 20
1553.7142682004519
 30
0.0
 11
887.93541465288126
 21
1178.7142682004519
 31
0.0
  0
SOLID
  5
63E
  8
0
 62
     0
 10
887.51874798621463
 20
1553.7142682004519
 30
0.0
 11
888.35208131954789
 21
1553.7142682004519
 31
0.0
 12
887.93541465288126
 22
1556.2142682004519
 32
0.0
 13
887.93541465288126
 23
1556.2142682004519
 33
0.0
  0
SOLID
  5
63F
  8
0
 62
     0
 10
887.51874798621463
 20
1178.7142682004519
 30
0.0
 11
888.35208131954789
 21
1178.7142682004519
 31
0.0
 12
887.93541465288126
 22
1176.2142682004519
 32
0.0
 13
887.93541465288126
 23
1176.2142682004519
 33
0.0
  0
INSERT
  5
640
  8
0
  2
*U19
 10
0.0
 20
0.0
 30
0.0
  0
POINT
  5
641
  8
DEFPOINTS
 62
     0
 10
990.66359477131573
 20
1556.2142682004519
 30
0.0
  0
POINT
  5
642
  8
DEFPOINTS
 62
     0
 10
990.66359477131573
 20
1176.2142682004519
 30
0.0
  0
POINT
  5
643
  8
DEFPOINTS
 62
     0
 10
887.93541465288126
 20
1176.2142682004519
 30
0.0
  0
ENDBLK
  5
626
  8
0
  0
BLOCK
  8
0
  2
*D12
 70
     1
 10
0.0
 20
0.0
 30
0.0
  3
*D12
  1

  0
LINE
  5
744
  8
0
 62
     0
 10
990.03859477131573
 20
1098.7142682004519
 30
0.0
 11
886.68541465288115
 21
1098.7142682004519
 31
0.0
  0
LINE
  5
745
  8
0
 62
     0
 10
988.03859477131584
 20
1063.7142682004519
 30
0.0
 11
886.68541465288115
 21
1063.7142682004519
 31
0.0
  0
LINE
  5
746
  8
0
 62
     0
 10
887.93541465288126
 20
1096.2142682004519
 30
0.0
 11
887.93541465288126
 21
1066.2142682004519
 31
0.0
  0
SOLID
  5
747
  8
0
 62
     0
 10
887.51874798621463
 20
1096.2142682004519
 30
0.0
 11
888.35208131954789
 21
1096.2142682004519
 31
0.0
 12
887.93541465288126
 22
1098.7142682004519
 32
0.0
 13
887.93541465288126
 23
1098.7142682004519
 33
0.0
  0
SOLID
  5
748
  8
0
 62
     0
 10
887.51874798621463
 20
1066.2142682004519
 30
0.0
 11
888.35208131954789
 21
1066.2142682004519
 31
0.0
 12
887.93541465288126
 22
1063.7142682004519
 32
0.0
 13
887.93541465288126
 23
1063.7142682004519
 33
0.0
  0
INSERT
  5
749
  8
0
  2
*U31
 10
0.0
 20
0.0
 30
0.0
  0
POINT
  5
74A
  8
DEFPOINTS
 62
     0
 10
990.66359477131573
 20
1098.7142682004519
 30
0.0
  0
POINT
  5
74B
  8
DEFPOINTS
 62
     0
 10
988.66359477131573
 20
1063.7142682004519
 30
0.0
  0
POINT
  5
74C
  8
DEFPOINTS
 62
     0
 10
887.93541465288126
 20
1063.7142682004519
 30
0.0
  0
ENDBLK
  5
674
  8
0
  0
BLOCK
  8
0
  2
*D13
 70
     1
 10
0.0
 20
0.0
 30
0.0
  3
*D13
  1

  0
LINE
  5
739
  8
0
 62
     0
 10
988.03859477131584
 20
1063.7142682004519
 30
0.0
 11
886.68541465288115
 21
1063.7142682004519
 31
0.0
  0
LINE
  5
73A
  8
0
 62
     0
 10
994.03859477131562
 20
1060.2142682004519
 30
0.0
 11
886.68541465288115
 21
1060.2142682004519
 31
0.0
  0
LINE
  5
73B
  8
0
 62
     0
 10
887.93541465288126
 20
1066.2142682004519
 30
0.0
 11
887.93541465288126
 21
1068.7142682004519
 31
0.0
  0
LINE
  5
73C
  8
0
 62
     0
 10
887.93541465288126
 20
1057.7142682004519
 30
0.0
 11
887.93541465288126
 21
1038.9642682004519
 31
0.0
  0
LINE
  5
73D
  8
0
 62
     0
 10
887.93541465288126
 20
1063.7142682004519
 30
0.0
 11
887.93541465288126
 21
1060.2142682004519
 31
0.0
  0
SOLID
  5
73E
  8
0
 62
     0
 10
887.51874798621463
 20
1066.2142682004519
 30
0.0
 11
888.35208131954789
 21
1066.2142682004519
 31
0.0
 12
887.93541465288126
 22
1063.7142682004519
 32
0.0
 13
887.93541465288126
 23
1063.7142682004519
 33
0.0
  0
SOLID
  5
73F
  8
0
 62
     0
 10
887.51874798621463
 20
1057.7142682004519
 30
0.0
 11
888.35208131954789
 21
1057.7142682004519
 31
0.0
 12
887.93541465288126
 22
1060.2142682004519
 32
0.0
 13
887.93541465288126
 23
1060.2142682004519
 33
0.0
  0
INSERT
  5
740
  8
0
  2
*U30
 10
0.0
 20
0.0
 30
0.0
  0
POINT
  5
741
  8
DEFPOINTS
 62
     0
 10
988.66359477131573
 20
1063.7142682004519
 30
0.0
  0
POINT
  5
742
  8
DEFPOINTS
 62
     0
 10
994.66359477131584
 20
1060.2142682004519
 30
0.0
  0
POINT
  5
743
  8
DEFPOINTS
 62
     0
 10
887.93541465288126
 20
1060.2142682004519
 30
0.0
  0
ENDBLK
  5
69D
  8
0
  0
BLOCK
  8
0
  2
*D14
 70
     1
 10
0.0
 20
0.0
 30
0.0
  3
*D14
  1

  0
LINE
  5
727
  8
0
 62
     0
 10
1588.24223369131
 20
1540.3167166524161
 30
0.0
 11
1556.041520570323
 21
1540.3167166524161
 31
0.0
  0
LINE
  5
728
  8
0
 62
     0
 10
1588.24223369131
 20
1480.3167166524161
 30
0.0
 11
1556.0415205703221
 21
1480.3167166524161
 31
0.0
  0
LINE
  5
729
  8
0
 62
     0
 10
1557.291520570323
 20
1537.8167166524161
 30
0.0
 11
1557.2915205703221
 21
1482.8167166524161
 31
0.0
  0
SOLID
  5
72A
  8
0
 62
     0
 10
1556.874853903656
 20
1537.8167166524161
 30
0.0
 11
1557.708187236989
 21
1537.8167166524161
 31
0.0
 12
1557.291520570323
 22
1540.3167166524161
 32
0.0
 13
1557.291520570323
 23
1540.3167166524161
 33
0.0
  0
SOLID
  5
72B
  8
0
 62
     0
 10
1556.874853903656
 20
1482.8167166524161
 30
0.0
 11
1557.708187236989
 21
1482.8167166524161
 31
0.0
 12
1557.2915205703221
 22
1480.3167166524161
 32
0.0
 13
1557.2915205703221
 23
1480.3167166524161
 33
0.0
  0
INSERT
  5
72C
  8
0
  2
*U28
 10
0.0
 20
0.0
 30
0.0
  0
POINT
  5
72D
  8
DEFPOINTS
 62
     0
 10
1588.86723369131
 20
1540.3167166524161
 30
0.0
  0
POINT
  5
72E
  8
DEFPOINTS
 62
     0
 10
1588.86723369131
 20
1480.3167166524161
 30
0.0
  0
POINT
  5
72F
  8
DEFPOINTS
 62
     0
 10
1557.2915205703221
 20
1480.3167166524161
 30
0.0
  0
ENDBLK
  5
6CF
  8
0
  0
BLOCK
  8
0
  2
*D15
 70
     1
 10
0.0
 20
0.0
 30
0.0
  3
*D15
  1

  0
LINE
  5
730
  8
0
 62
     0
 10
1583.86723369131
 20
1535.9417166524161
 30
0.0
 11
1583.86723369131
 21
1562.807882698505
 31
0.0
  0
LINE
  5
731
  8
0
 62
     0
 10
1680.86723369131
 20
1535.9417166524161
 30
0.0
 11
1680.86723369131
 21
1562.807882698505
 31
0.0
  0
LINE
  5
732
  8
0
 62
     0
 10
1586.36723369131
 20
1561.557882698505
 30
0.0
 11
1678.36723369131
 21
1561.557882698505
 31
0.0
  0
SOLID
  5
733
  8
0
 62
     0
 10
1586.36723369131
 20
1561.9745493651719
 30
0.0
 11
1586.36723369131
 21
1561.141216031838
 31
0.0
 12
1583.86723369131
 22
1561.557882698505
 32
0.0
 13
1583.86723369131
 23
1561.557882698505
 33
0.0
  0
SOLID
  5
734
  8
0
 62
     0
 10
1678.36723369131
 20
1561.9745493651719
 30
0.0
 11
1678.36723369131
 21
1561.141216031838
 31
0.0
 12
1680.86723369131
 22
1561.557882698505
 32
0.0
 13
1680.86723369131
 23
1561.557882698505
 33
0.0
  0
INSERT
  5
735
  8
0
  2
*U29
 10
0.0
 20
0.0
 30
0.0
  0
POINT
  5
736
  8
DEFPOINTS
 62
     0
 10
1583.86723369131
 20
1535.3167166524161
 30
0.0
  0
POINT
  5
737
  8
DEFPOINTS
 62
     0
 10
1680.86723369131
 20
1535.3167166524161
 30
0.0
  0
POINT
  5
738
  8
DEFPOINTS
 62
     0
 10
1680.86723369131
 20
1561.557882698505
 30
0.0
  0
ENDBLK
  5
6E7
  8
0
  0
BLOCK
  8
0
  2
*D16
 70
     1
 10
0.0
 20
0.0
 30
0.0
  3
*D16
  1

  0
LINE
  5
71E
  8
0
 62
     0
 10
1588.24223369131
 20
1435.9356006338519
 30
0.0
 11
1556.0415205703221
 21
1435.9356006338519
 31
0.0
  0
LINE
  5
71F
  8
0
 62
     0
 10
1588.24223369131
 20
1404.4356006338519
 30
0.0
 11
1556.0415205703221
 21
1404.4356006338519
 31
0.0
  0
LINE
  5
720
  8
0
 62
     0
 10
1557.2915205703221
 20
1433.4356006338519
 30
0.0
 11
1557.2915205703221
 21
1406.9356006338519
 31
0.0
  0
SOLID
  5
721
  8
0
 62
     0
 10
1556.8748539036551
 20
1433.4356006338519
 30
0.0
 11
1557.708187236989
 21
1433.4356006338519
 31
0.0
 12
1557.2915205703221
 22
1435.9356006338519
 32
0.0
 13
1557.2915205703221
 23
1435.9356006338519
 33
0.0
  0
SOLID
  5
722
  8
0
 62
     0
 10
1556.8748539036551
 20
1406.9356006338519
 30
0.0
 11
1557.708187236989
 21
1406.9356006338519
 31
0.0
 12
1557.2915205703221
 22
1404.4356006338519
 32
0.0
 13
1557.2915205703221
 23
1404.4356006338519
 33
0.0
  0
INSERT
  5
723
  8
0
  2
*U27
 10
0.0
 20
0.0
 30
0.0
  0
POINT
  5
724
  8
DEFPOINTS
 62
     0
 10
1588.86723369131
 20
1435.9356006338519
 30
0.0
  0
POINT
  5
725
  8
DEFPOINTS
 62
     0
 10
1588.86723369131
 20
1404.4356006338519
 30
0.0
  0
POINT
  5
726
  8
DEFPOINTS
 62
     0
 10
1557.2915205703221
 20
1404.4356006338519
 30
0.0
  0
ENDBLK
  5
6FF
  8
0
  0
BLOCK
  8
0
  2
*U17
 70
     1
 10
0.0
 20
0.0
 30
0.0
  3
*U17
  1

  0
TEXT
  5
99E
  8
0___3
 10
1534.438628527354
 20
1597.7272316543449
 30
0.0
 40
7.5
  1
AC adapter
  0
TEXT
  5
99F
  8
0___3
 10
1534.438628527354
 20
1585.2272316543449
 30
0.0
 40
7.5
  1
Type:KSW1220-2374
  0
ENDBLK
  5
9A1
  8
0
  0
BLOCK
  8
0
  2
*U18
 70
     1
 10
0.0
 20
0.0
 30
0.0
  3
*U18
  1

  0
TEXT
  5
9A3
  8
0
 10
1702.8860901529561
 20
1551.4085582219291
 30
0.0
 40
7.5
  1
Cable-length 2000
  0
ENDBLK
  5
9A5
  8
0
  0
BLOCK
  8
0
  2
*U19
 70
     1
 10
0.0
 20
0.0
 30
0.0
  3
*U19
  1

  0
TEXT
  5
9A7
  8
0
 62
     0
 10
887.31041465288115
 20
1356.8392682004519
 30
0.0
 40
7.5
  1
380
 50
90.0
  0
ENDBLK
  5
9A9
  8
0
  0
BLOCK
  8
0
  2
*U20
 70
     1
 10
0.0
 20
0.0
 30
0.0
  3
*U20
  1

  0
TEXT
  5
9AB
  8
0
 62
     0
 10
937.28146344809375
 20
1524.8392682004519
 30
0.0
 40
7.5
  1
41,5
 50
90.0
  0
ENDBLK
  5
9AD
  8
0
  0
BLOCK
  8
0
  2
*U21
 70
     1
 10
0.0
 20
0.0
 30
0.0
  3
*U21
  1

  0
TEXT
  5
9AF
  8
0
 62
     0
 10
938.53146344809363
 20
1356.2142682004519
 30
0.0
 40
7.5
  1
297
 50
90.0
  0
ENDBLK
  5
9B1
  8
0
  0
BLOCK
  8
0
  2
*U22
 70
     1
 10
0.0
 20
0.0
 30
0.0
  3
*U22
  1

  0
TEXT
  5
9B3
  8
0
 62
     0
 10
1119.288594771316
 20
1627.796391782713
 30
0.0
 40
7.5
  1
280
  0
ENDBLK
  5
9B5
  8
0
  0
BLOCK
  8
0
  2
*U23
 70
     1
 10
0.0
 20
0.0
 30
0.0
  3
*U23
  1

  0
TEXT
  5
9B7
  8
0
 62
     0
 10
1115.538594771315
 20
1590.3618903692179
 30
0.0
 40
7.5
  1
210
  0
ENDBLK
  5
9B9
  8
0
  0
BLOCK
  8
0
  2
*U24
 70
     1
 10
0.0
 20
0.0
 30
0.0
  3
*U24
  1

  0
TEXT
  5
9BB
  8
0
 62
     0
 10
998.03859477131573
 20
1590.3618903692179
 30
0.0
 40
7.5
  1
30
  0
ENDBLK
  5
9BD
  8
0
  0
BLOCK
  8
0
  2
*U25
 70
     1
 10
0.0
 20
0.0
 30
0.0
  3
*U25
  1

  0
TEXT
  5
9BF
  8
0
 10
957.8788028272395
 20
1315.8865246263199
 30
0.0
 40
7.5
  1
Light-Emitting surface
 50
90.0
 41
0.8
  0
ENDBLK
  5
9C1
  8
0
  0
BLOCK
  8
0
  2
*U26
 70
     1
 10
0.0
 20
0.0
 30
0.0
  3
*U26
  1

  0
TEXT
  5
9C3
  8
0
 10
1073.108780212018
 20
1576.4411330347959
 30
0.0
 40
7.5
  1
Light-Emitting surface
 41
0.8
  0
ENDBLK
  5
9C5
  8
0
  0
BLOCK
  8
0
  2
*U27
 70
     1
 10
0.0
 20
0.0
 30
0.0
  3
*U27
  1

  0
TEXT
  5
9C7
  8
0
 62
     0
 10
1555.4165205703221
 20
1409.5606006338519
 30
0.0
 40
7.5
  1
31,5
 50
90.0
  0
ENDBLK
  5
9C9
  8
0
  0
BLOCK
  8
0
  2
*U28
 70
     1
 10
0.0
 20
0.0
 30
0.0
  3
*U28
  1

  0
TEXT
  5
9CB
  8
0
 62
     0
 10
1556.6665205703221
 20
1504.6917166524161
 30
0.0
 40
7.5
  1
60
 50
90.0
  0
ENDBLK
  5
9CD
  8
0
  0
BLOCK
  8
0
  2
*U29
 70
     1
 10
0.0
 20
0.0
 30
0.0
  3
*U29
  1

  0
TEXT
  5
9CF
  8
0
 62
     0
 10
1626.11723369131
 20
1562.182882698505
 30
0.0
 40
7.5
  1
97
  0
ENDBLK
  5
9D1
  8
0
  0
BLOCK
  8
0
  2
*U30
 70
     1
 10
0.0
 20
0.0
 30
0.0
  3
*U30
  1

  0
TEXT
  5
9D3
  8
0
 62
     0
 10
887.31041465288115
 20
1039.5892682004519
 30
0.0
 40
7.5
  1
(4)
 50
90.0
  0
ENDBLK
  5
9D5
  8
0
  0
BLOCK
  8
0
  2
*U31
 70
     1
 10
0.0
 20
0.0
 30
0.0
  3
*U31
  1

  0
TEXT
  5
9D7
  8
0
 62
     0
 10
887.31041465288115
 20
1074.9642682004519
 30
0.0
 40
7.5
  1
35
 50
90.0
  0
ENDBLK
  5
9D9
  8
0
  0
ENDSEC
  0
SECTION
  2
ENTITIES
  0
LINE
  5
4D7
  8
0
 10
1491.9764302049809
 20
1397.133458099803
 30
0.0
 11
1541.9764302049809
 21
1347.1334580998041
 31
0.0
  0
LINE
  5
4D8
  8
0
 10
1541.9764302049809
 20
1347.1334580998041
 30
0.0
 11
1827.233164280058
 21
1347.1334580998041
 31
0.0
  0
LINE
  5
4D9
  8
0
 10
1491.9764302049809
 20
1623.984571170796
 30
0.0
 11
1491.9764302049809
 21
1397.133458099803
 31
0.0
  0
INSERT
  5
502
  8
FP-402
  2
A$C35614DF8
 10
988.66359983773498
 20
1163.714271492189
 30
0.0
  0
INSERT
  5
503
  8
FP-402
  2
A$C30B5737C
 10
988.66359983773498
 20
1060.214272263961
 30
0.0
  0
INSERT
  5
504
  8
FP-402
  2
A$C0478509A
 10
1382.1804126711961
 20
1163.714271492189
 30
0.0
  0
INSERT
  5
505
  8
FP-402
  2
A$C74EA599D
 10
1583.367237813183
 20
1479.816714414851
 30
0.0
  0
INSERT
  5
506
  8
FP-402
  2
A$C6D9D0D35
 10
1583.367237813183
 20
1387.435598121285
 30
0.0
  0
INSERT
  5
507
  8
0
  2
*U17
 10
0.0
 20
0.0
 30
0.0
  0
INSERT
  5
51B
  8
0
  2
*U18
 10
0.0
 20
0.0
 30
0.0
  0
DIMENSION
  5
5A2
  8
0
  2
*D6
 10
939.15646344809375
 20
1217.7142682004519
 30
0.0
 11
934.78146344809363
 21
1366.2142682004519
 31
0.0
 70
     0
 13
1020.663594771316
 23
1514.7142682004519
 33
0.0
 14
1020.663594771316
 24
1217.7142682004519
 34
0.0
 50
90.0
1001
ACAD
1000
DSTYLE
1002
{
1070
   140
1040
7.5
1002
}
  0
DIMENSION
  5
5BA
  8
0
  2
*D7
 10
939.15646344809386
 20
1556.2142682004519
 30
0.0
 11
934.15646344809375
 21
1535.4642682004519
 31
0.0
 70
     0
 13
1020.663594771316
 23
1514.7142682004519
 33
0.0
 14
990.66359477131573
 24
1556.2142682004519
 34
0.0
 50
90.0
1001
ACAD
1000
DSTYLE
1002
{
1070
   140
1040
7.5
1002
}
  0
DIMENSION
  5
5D2
  8
0
  2
*D8
 10
1018.663594771315
 20
1589.7368903692179
 30
0.0
 11
1003.663594771316
 21
1594.1118903692191
 31
0.0
 70
     0
 13
988.66359477131573
 23
1554.2142682004519
 33
0.0
 14
1018.663594771315
 24
1512.7142682004519
 34
0.0
1001
ACAD
1000
DSTYLE
1002
{
1070
   140
1040
7.5
1002
}
  0
DIMENSION
  5
5EA
  8
0
  2
*D9
 10
1228.663594771316
 20
1589.7368903692179
 30
0.0
 11
1123.663594771316
 21
1594.1118903692191
 31
0.0
 70
     0
 13
1018.663594771315
 23
1512.7142682004519
 33
0.0
 14
1228.663594771316
 24
1512.7142682004519
 34
0.0
1001
ACAD
1000
DSTYLE
1002
{
1070
   140
1040
7.5
1002
}
  0
DIMENSION
  5
60B
  8
0
  2
*D10
 10
1268.663594771316
 20
1627.171391782713
 30
0.0
 11
1128.663594771316
 21
1631.546391782713
 31
0.0
 70
     0
 13
988.66359477131573
 23
1554.2142682004519
 33
0.0
 14
1268.663594771316
 24
1554.2142682004519
 34
0.0
1001
ACAD
1000
DSTYLE
1002
{
1070
   140
1040
7.5
1002
}
  0
DIMENSION
  5
623
  8
0
  2
*D11
 10
887.93541465288126
 20
1176.2142682004519
 30
0.0
 11
883.56041465288115
 21
1366.2142682004519
 31
0.0
 70
     0
 13
990.66359477131573
 23
1556.2142682004519
 33
0.0
 14
990.66359477131573
 24
1176.2142682004519
 34
0.0
 50
90.0
1001
ACAD
1000
DSTYLE
1002
{
1070
   140
1040
7.5
1002
}
  0
DIMENSION
  5
671
  8
0
  2
*D12
 10
887.93541465288126
 20
1063.7142682004519
 30
0.0
 11
883.56041465288115
 21
1081.2142682004519
 31
0.0
 70
     0
 13
990.66359477131573
 23
1098.7142682004519
 33
0.0
 14
988.66359477131573
 24
1063.7142682004519
 34
0.0
 50
90.0
1001
ACAD
1000
DSTYLE
1002
{
1070
   140
1040
7.5
1002
}
  0
DIMENSION
  5
69A
  8
0
  2
*D13
 10
887.93541465288126
 20
1060.2142682004519
 30
0.0
 11
883.56041465288115
 21
1047.0892682004519
 31
0.0
 70
     0
  1
(4)
 13
988.66359477131573
 23
1063.7142682004519
 33
0.0
 14
994.66359477131584
 24
1060.2142682004519
 34
0.0
 50
90.0
1001
ACAD
1000
DSTYLE
1002
{
1070
   140
1040
7.5
1002
}
  0
INSERT
  5
6CA
  8
0
  2
*U25
 10
0.0
 20
0.0
 30
0.0
  0
INSERT
  5
6CB
  8
0
  2
*U26
 10
0.0
 20
0.0
 30
0.0
  0
DIMENSION
  5
6CC
  8
0
  2
*D14
 10
1557.2915205703221
 20
1480.3167166524161
 30
0.0
 11
1552.9165205703221
 21
1510.3167166524161
 31
0.0
 70
     0
 13
1588.86723369131
 23
1540.3167166524161
 33
0.0
 14
1588.86723369131
 24
1480.3167166524161
 34
0.0
 50
90.0
1001
ACAD
1000
DSTYLE
1002
{
1070
   140
1040
7.5
1002
}
  0
DIMENSION
  5
6E4
  8
0
  2
*D15
 10
1680.86723369131
 20
1561.557882698505
 30
0.0
 11
1632.36723369131
 21
1565.932882698505
 31
0.0
 70
     0
 13
1583.86723369131
 23
1535.3167166524161
 33
0.0
 14
1680.86723369131
 24
1535.3167166524161
 34
0.0
1001
ACAD
1000
DSTYLE
1002
{
1070
   140
1040
7.5
1002
}
  0
DIMENSION
  5
6FC
  8
0
  2
*D16
 10
1557.2915205703221
 20
1404.4356006338519
 30
0.0
 11
1552.2915205703221
 21
1420.1856006338519
 31
0.0
 70
     0
 13
1588.86723369131
 23
1435.9356006338519
 33
0.0
 14
1588.86723369131
 24
1404.4356006338519
 34
0.0
 50
90.0
1001
ACAD
1000
DSTYLE
1002
{
1070
   140
1040
7.5
1002
}
  0
ENDSEC
  0
EOF
