  0
SECTION
  2
HEADER
  9
$ACADVER
  1
AC1009
  9
$INSBASE
 10
0.0
 20
0.0
 30
0.0
  9
$EXTMIN
 10
970.72584941215246
 20
657.48791704418124
 30
-0.0000000000000058
  9
$EXTMAX
 10
1998.223207736964
 20
1107.4112148874549
 30
0.0000000000000104
  9
$LIMMIN
 10
0.0
 20
0.0
  9
$LIMMAX
 10
420.0
 20
297.0
  9
$ORTHOMODE
 70
     1
  9
$REGENMODE
 70
     1
  9
$FILLMODE
 70
     1
  9
$QTEXTMODE
 70
     0
  9
$MIRRTEXT
 70
     0
  9
$DRAGMODE
 70
     2
  9
$LTSCALE
 40
1.0
  9
$OSMODE
 70
   695
  9
$ATTMODE
 70
     1
  9
$TEXTSIZE
 40
2.5
  9
$TRACEWID
 40
1.0
  9
$TEXTSTYLE
  7
STANDARD
  9
$CLAYER
  8
LSTS
  9
$CELTYPE
  6
BYLAYER
  9
$CECOLOR
 62
   256
  9
$DIMSCALE
 40
1.0
  9
$DIMASZ
 40
2.5
  9
$DIMEXO
 40
0.625
  9
$DIMDLI
 40
3.75
  9
$DIMRND
 40
0.0
  9
$DIMDLE
 40
0.0
  9
$DIMEXE
 40
1.25
  9
$DIMTP
 40
0.0
  9
$DIMTM
 40
0.0
  9
$DIMTXT
 40
2.5
  9
$DIMCEN
 40
2.5
  9
$DIMTSZ
 40
0.0
  9
$DIMTOL
 70
     0
  9
$DIMLIM
 70
     0
  9
$DIMTIH
 70
     0
  9
$DIMTOH
 70
     0
  9
$DIMSE1
 70
     0
  9
$DIMSE2
 70
     0
  9
$DIMTAD
 70
     1
  9
$DIMZIN
 70
     8
  9
$DIMBLK
  1

  9
$DIMASO
 70
     1
  9
$DIMSHO
 70
     1
  9
$DIMPOST
  1

  9
$DIMAPOST
  1

  9
$DIMALT
 70
     0
  9
$DIMALTD
 70
     3
  9
$DIMALTF
 40
0.03937007874016
  9
$DIMLFAC
 40
1.0
  9
$DIMTOFL
 70
     1
  9
$DIMTVP
 40
0.0
  9
$DIMTIX
 70
     0
  9
$DIMSOXD
 70
     0
  9
$DIMSAH
 70
     0
  9
$DIMBLK1
  1

  9
$DIMBLK2
  1

  9
$DIMSTYLE
  2
ISO-25
  9
$DIMCLRD
 70
     0
  9
$DIMCLRE
 70
     0
  9
$DIMCLRT
 70
     0
  9
$DIMTFAC
 40
1.0
  9
$DIMGAP
 40
0.625
  9
$LUNITS
 70
     2
  9
$LUPREC
 70
     4
  9
$SKETCHINC
 40
1.0
  9
$FILLETRAD
 40
0.0
  9
$AUNITS
 70
     0
  9
$AUPREC
 70
     0
  9
$MENU
  1
.
  9
$ELEVATION
 40
0.0
  9
$PELEVATION
 40
0.0
  9
$THICKNESS
 40
0.0
  9
$LIMCHECK
 70
     0
  9
$BLIPMODE
 70
     0
  9
$CHAMFERA
 40
0.0
  9
$CHAMFERB
 40
0.0
  9
$SKPOLY
 70
     0
  9
$TDCREATE
 40
2456563.8461930328
  9
$TDUPDATE
 40
2456564.6344064581
  9
$TDINDWG
 40
0.0464076852
  9
$TDUSRTIMER
 40
0.0464075
  9
$USRTIMER
 70
     1
  9
$ANGBASE
 50
0.0
  9
$ANGDIR
 70
     0
  9
$PDMODE
 70
     0
  9
$PDSIZE
 40
0.0
  9
$PLINEWID
 40
0.0
  9
$COORDS
 70
     1
  9
$SPLFRAME
 70
     0
  9
$SPLINETYPE
 70
     6
  9
$SPLINESEGS
 70
     8
  9
$ATTDIA
 70
     0
  9
$ATTREQ
 70
     1
  9
$HANDLING
 70
     1
  9
$HANDSEED
  5
7FC
  9
$SURFTAB1
 70
     6
  9
$SURFTAB2
 70
     6
  9
$SURFTYPE
 70
     6
  9
$SURFU
 70
     6
  9
$SURFV
 70
     6
  9
$UCSNAME
  2

  9
$UCSORG
 10
0.0
 20
0.0
 30
0.0
  9
$UCSXDIR
 10
1.0
 20
0.0
 30
0.0
  9
$UCSYDIR
 10
0.0
 20
1.0
 30
0.0
  9
$PUCSNAME
  2

  9
$PUCSORG
 10
0.0
 20
0.0
 30
0.0
  9
$PUCSXDIR
 10
1.0
 20
0.0
 30
0.0
  9
$PUCSYDIR
 10
0.0
 20
1.0
 30
0.0
  9
$USERI1
 70
     0
  9
$USERI2
 70
     0
  9
$USERI3
 70
     0
  9
$USERI4
 70
     0
  9
$USERI5
 70
     0
  9
$USERR1
 40
0.0
  9
$USERR2
 40
0.0
  9
$USERR3
 40
0.0
  9
$USERR4
 40
0.0
  9
$USERR5
 40
0.0
  9
$WORLDVIEW
 70
     1
  9
$SHADEDGE
 70
     3
  9
$SHADEDIF
 70
    70
  9
$TILEMODE
 70
     1
  9
$MAXACTVP
 70
    64
  9
$PLIMCHECK
 70
     0
  9
$PEXTMIN
 10
0.0
 20
0.0
 30
0.0
  9
$PEXTMAX
 10
0.0
 20
0.0
 30
0.0
  9
$PLIMMIN
 10
0.0
 20
0.0
  9
$PLIMMAX
 10
12.0
 20
9.0
  9
$UNITMODE
 70
     0
  9
$VISRETAIN
 70
     1
  9
$PLINEGEN
 70
     0
  9
$PSLTSCALE
 70
     1
  0
ENDSEC
  0
SECTION
  2
TABLES
  0
TABLE
  2
VPORT
 70
     1
  0
VPORT
  2
*ACTIVE
 70
     0
 10
0.0
 20
0.0
 11
1.0
 21
1.0
 12
1484.474528574558
 22
882.44956596581835
 13
0.0
 23
0.0
 14
10.0
 24
10.0
 15
10.0
 25
10.0
 16
0.0
 26
0.0
 36
1.0
 17
0.0
 27
0.0
 37
0.0
 40
643.17835908941242
 41
1.6058906030855531
 42
50.0
 43
0.0
 44
0.0
 50
0.0
 51
0.0
 71
     0
 72
  1000
 73
     1
 74
     3
 75
     0
 76
     0
 77
     0
 78
     0
  0
ENDTAB
  0
TABLE
  2
LTYPE
 70
     3
  0
LTYPE
  2
CONTINUOUS
 70
     0
  3
Solid line
 72
    65
 73
     0
 40
0.0
  0
LTYPE
  2
C6CONTINUOUS
 70
     0
  3
----------------
 72
    65
 73
     0
 40
0.0
  0
LTYPE
  2
C6DOT
 70
     0
  3
- - - - - - - - 
 72
    65
 73
     2
 40
16.0
 49
8.0
 49
-8.0
  0
ENDTAB
  0
TABLE
  2
LAYER
 70
     3
  0
LAYER
  2
0
 70
     0
 62
     7
  6
CONTINUOUS
  0
LAYER
  2
LSTS
 70
     0
 62
     7
  6
CONTINUOUS
  0
LAYER
  2
DEFPOINTS
 70
     0
 62
     7
  6
CONTINUOUS
  0
ENDTAB
  0
TABLE
  2
STYLE
 70
     1
  0
STYLE
  2
STANDARD
 70
     0
 40
0.0
 41
1.0
 50
0.0
 71
     0
 42
2.5
  3
txt
  4
extfont2.shx
  0
ENDTAB
  0
TABLE
  2
VIEW
 70
     0
  0
ENDTAB
  0
TABLE
  2
UCS
 70
     0
  0
ENDTAB
  0
TABLE
  2
APPID
 70
    11
  0
APPID
  2
ACAD
 70
     0
  0
APPID
  2
ACAD_PSEXT
 70
     0
  0
APPID
  2
ACADANNOPO
 70
     0
  0
APPID
  2
ACADANNOTATIVE
 70
     0
  0
APPID
  2
ACAD_DSTYLE_DIMJAG
 70
     0
  0
APPID
  2
ACAD_DSTYLE_DIMTALN
 70
     0
  0
APPID
  2
ACAD_MLEADERVER
 70
     0
  0
APPID
  2
ACAECLAYERSTANDARD
 70
     0
  0
APPID
  2
ACAD_DSTYLE_DIMBREAK
 70
     0
  0
APPID
  2
ACAD_DSTYLE_DIMTEXT_FILL
 70
     0
  0
APPID
  2
ACAD_EXEMPT_FROM_CAD_STANDARDS
 70
     0
  0
ENDTAB
  0
TABLE
  2
DIMSTYLE
 70
     1
  0
DIMSTYLE
  2
ISO-25
 70
     0
  3

  4

  5

  6

  7

 40
1.0
 41
2.5
 42
0.625
 43
3.75
 44
1.25
 45
0.0
 46
0.0
 47
0.0
 48
0.0
140
2.5
141
2.5
142
0.0
143
0.03937007874016
144
1.0
145
0.0
146
1.0
147
0.625
 71
     0
 72
     0
 73
     0
 74
     0
 75
     0
 76
     0
 77
     1
 78
     8
170
     0
171
     3
172
     1
173
     0
174
     0
175
     0
176
     0
177
     0
178
     0
  0
ENDTAB
  0
ENDSEC
  0
SECTION
  2
BLOCKS
  0
BLOCK
  8
0
  2
$MODEL_SPACE
 70
     0
 10
0.0
 20
0.0
 30
0.0
  3
$MODEL_SPACE
  1

  0
ENDBLK
  5
21
  8
0
  0
BLOCK
 67
     1
  8
0
  2
$PAPER_SPACE
 70
     0
 10
0.0
 20
0.0
 30
0.0
  3
$PAPER_SPACE
  1

  0
ENDBLK
  5
D5
 67
     1
  8
0
  0
BLOCK
  8
0
  2
A$C0753081A
 70
     0
 10
0.0
 20
0.0
 30
0.0
  3
A$C0753081A
  1

  0
LINE
  5
312
  8
LSTS
  6
C6CONTINUOUS
 10
25.00000065427821
 20
64.300001643135602
 30
0.0
 11
25.00000065427821
 21
3.3000016431356012
 31
0.0
  0
ARC
  5
313
  8
LSTS
  6
C6CONTINUOUS
 10
26.00000065427821
 20
64.300001643135602
 30
0.0
 40
1.0
 50
90.0
 51
180.0
  0
ARC
  5
314
  8
LSTS
  6
C6CONTINUOUS
 10
26.00000065427821
 20
3.3000016431356012
 30
0.0
 40
1.0
 50
180.0
 51
270.0
  0
POLYLINE
  5
315
  8
LSTS
  6
C6CONTINUOUS
 66
     1
 10
0.0
 20
0.0
 30
0.0
  0
VERTEX
  5
6CF
  8
LSTS
  6
C6CONTINUOUS
 10
701.00000065427821
 20
67.300001643135602
 30
0.0
  0
VERTEX
  5
6D0
  8
LSTS
  6
C6CONTINUOUS
 10
701.00000065427821
 20
68.300001643135602
 30
0.0
  0
VERTEX
  5
6D1
  8
LSTS
  6
C6CONTINUOUS
 10
693.00000065427821
 20
68.300001643135602
 30
0.0
  0
VERTEX
  5
6D2
  8
LSTS
  6
C6CONTINUOUS
 10
693.00000065427821
 20
67.300001643135602
 30
0.0
  0
SEQEND
  5
6D3
  8
LSTS
  6
C6CONTINUOUS
  0
POLYLINE
  5
316
  8
LSTS
  6
C6CONTINUOUS
 66
     1
 10
0.0
 20
0.0
 30
0.0
  0
VERTEX
  5
6D4
  8
LSTS
  6
C6CONTINUOUS
 10
700.00000065427776
 20
68.300001643135602
 30
0.0
  0
VERTEX
  5
6D5
  8
LSTS
  6
C6CONTINUOUS
 10
700.00000065427776
 20
69.300001643135602
 30
0.0
  0
VERTEX
  5
6D6
  8
LSTS
  6
C6CONTINUOUS
 10
694.0000006542781
 20
69.300001643135602
 30
0.0
  0
VERTEX
  5
6D7
  8
LSTS
  6
C6CONTINUOUS
 10
694.0000006542781
 20
68.300001643135602
 30
0.0
  0
SEQEND
  5
6D8
  8
LSTS
  6
C6CONTINUOUS
  0
ARC
  5
317
  8
LSTS
  6
C6CONTINUOUS
 10
697.00000065427821
 20
69.300001643135602
 30
0.0
 40
3.0
 50
17.985562289741281
 51
161.00686718029871
  0
LINE
  5
318
  8
LSTS
  6
C6CONTINUOUS
 10
705.00000065427821
 20
64.300001643135602
 30
0.0
 11
705.00000065427821
 21
3.3000016431356012
 31
0.0
  0
ARC
  5
319
  8
LSTS
  6
C6CONTINUOUS
 10
704.00000065427776
 20
64.300001643135602
 30
0.0
 40
1.0
 50
0.0
 51
90.0
  0
LINE
  5
31A
  8
LSTS
  6
C6CONTINUOUS
 10
704.00000065427776
 20
2.3000016431356012
 30
0.0
 11
26.00000065427821
 21
2.3000016431356012
 31
0.0
  0
ARC
  5
31B
  8
LSTS
  6
C6CONTINUOUS
 10
704.00000065427776
 20
3.3000016431356012
 30
0.0
 40
1.0
 50
270.0
 51
0.0
  0
POLYLINE
  5
31C
  8
LSTS
  6
C6CONTINUOUS
 66
     1
 10
0.0
 20
0.0
 30
0.0
  0
VERTEX
  5
6D9
  8
LSTS
  6
C6CONTINUOUS
 10
29.00000065427821
 20
67.300001643135602
 30
0.0
  0
VERTEX
  5
6DA
  8
LSTS
  6
C6CONTINUOUS
 10
29.00000065427821
 20
68.300001643135602
 30
0.0
  0
VERTEX
  5
6DB
  8
LSTS
  6
C6CONTINUOUS
 10
37.00000065427821
 20
68.300001643135602
 30
0.0
  0
VERTEX
  5
6DC
  8
LSTS
  6
C6CONTINUOUS
 10
37.00000065427821
 20
67.300001643135602
 30
0.0
  0
SEQEND
  5
6DD
  8
LSTS
  6
C6CONTINUOUS
  0
POLYLINE
  5
31D
  8
LSTS
  6
C6CONTINUOUS
 66
     1
 10
0.0
 20
0.0
 30
0.0
  0
VERTEX
  5
6DE
  8
LSTS
  6
C6CONTINUOUS
 10
30.00000065427821
 20
68.300001643135602
 30
0.0
  0
VERTEX
  5
6DF
  8
LSTS
  6
C6CONTINUOUS
 10
30.00000065427821
 20
69.300001643135602
 30
0.0
  0
VERTEX
  5
6E0
  8
LSTS
  6
C6CONTINUOUS
 10
36.00000065427821
 20
69.300001643135602
 30
0.0
  0
VERTEX
  5
6E1
  8
LSTS
  6
C6CONTINUOUS
 10
36.00000065427821
 20
68.300001643135602
 30
0.0
  0
SEQEND
  5
6E2
  8
LSTS
  6
C6CONTINUOUS
  0
ARC
  5
31E
  8
LSTS
  6
C6CONTINUOUS
 10
33.00000065427821
 20
69.300001643135602
 30
0.0
 40
3.0
 50
18.993132819701241
 51
162.0144377102587
  0
POLYLINE
  5
31F
  8
LSTS
  6
C6CONTINUOUS
 66
     1
 10
0.0
 20
0.0
 30
0.0
  0
VERTEX
  5
6E3
  8
LSTS
  6
C6CONTINUOUS
 10
705.00000065427821
 20
36.300001643135602
 30
0.0
  0
VERTEX
  5
6E4
  8
LSTS
  6
C6CONTINUOUS
 10
707.00000065427776
 20
36.300001643135602
 30
0.0
  0
VERTEX
  5
6E5
  8
LSTS
  6
C6CONTINUOUS
 10
707.00000065427776
 20
4.3000016431356007
 30
0.0
  0
VERTEX
  5
6E6
  8
LSTS
  6
C6CONTINUOUS
 10
705.00000065427821
 20
4.3000016431356007
 30
0.0
  0
SEQEND
  5
6E7
  8
LSTS
  6
C6CONTINUOUS
  0
POLYLINE
  5
320
  8
LSTS
  6
C6CONTINUOUS
 66
     1
 10
0.0
 20
0.0
 30
0.0
  0
VERTEX
  5
6E8
  8
LSTS
  6
C6CONTINUOUS
 10
707.00000065427776
 20
56.300001643135602
 30
0.0
  0
VERTEX
  5
6E9
  8
LSTS
  6
C6CONTINUOUS
 10
715.00000065427776
 20
56.300001643135602
 30
0.0
  0
VERTEX
  5
6EA
  8
LSTS
  6
C6CONTINUOUS
 10
715.00000065427776
 20
42.300001643135602
 30
0.0
  0
VERTEX
  5
6EB
  8
LSTS
  6
C6CONTINUOUS
 10
707.00000065427776
 20
42.300001643135602
 30
0.0
  0
SEQEND
  5
6EC
  8
LSTS
  6
C6CONTINUOUS
  0
POLYLINE
  5
321
  8
LSTS
  6
C6CONTINUOUS
 66
     1
 10
0.0
 20
0.0
 30
0.0
  0
VERTEX
  5
6ED
  8
LSTS
  6
C6CONTINUOUS
 10
705.00000065427821
 20
60.300001643135602
 30
0.0
  0
VERTEX
  5
6EE
  8
LSTS
  6
C6CONTINUOUS
 10
707.00000065427776
 20
60.300001643135602
 30
0.0
  0
VERTEX
  5
6EF
  8
LSTS
  6
C6CONTINUOUS
 10
707.00000065427776
 20
38.300001643135602
 30
0.0
  0
VERTEX
  5
6F0
  8
LSTS
  6
C6CONTINUOUS
 10
705.00000065427821
 20
38.300001643135602
 30
0.0
  0
SEQEND
  5
6F1
  8
LSTS
  6
C6CONTINUOUS
  0
POLYLINE
  5
322
  8
LSTS
  6
C6CONTINUOUS
 66
     1
 10
0.0
 20
0.0
 30
0.0
  0
VERTEX
  5
6F2
  8
LSTS
  6
C6CONTINUOUS
 10
707.00000065427776
 20
33.300001643135602
 30
0.0
  0
VERTEX
  5
6F3
  8
LSTS
  6
C6CONTINUOUS
 10
712.00000065427776
 20
33.300001643135602
 30
0.0
  0
VERTEX
  5
6F4
  8
LSTS
  6
C6CONTINUOUS
 10
713.00000065427821
 20
32.300001643135602
 30
0.0
  0
VERTEX
  5
6F5
  8
LSTS
  6
C6CONTINUOUS
 10
713.00000065427821
 20
8.3000016431356016
 30
0.0
  0
VERTEX
  5
6F6
  8
LSTS
  6
C6CONTINUOUS
 10
712.00000065427776
 20
7.3000016431356007
 30
0.0
  0
VERTEX
  5
6F7
  8
LSTS
  6
C6CONTINUOUS
 10
707.00000065427776
 20
7.3000016431356007
 30
0.0
  0
SEQEND
  5
6F8
  8
LSTS
  6
C6CONTINUOUS
  0
LINE
  5
323
  8
LSTS
  6
C6CONTINUOUS
 10
5.0000006542782103
 20
2.3000016431356012
 30
0.0
 11
5.0000006542782103
 21
0.3000016431356016
 31
0.0
  0
POLYLINE
  5
324
  8
LSTS
  6
C6CONTINUOUS
 66
     1
 10
0.0
 20
0.0
 30
0.0
  0
VERTEX
  5
6F9
  8
LSTS
  6
C6CONTINUOUS
 10
26.00000065427821
 20
2.3000016431356012
 30
0.0
  0
VERTEX
  5
6FA
  8
LSTS
  6
C6CONTINUOUS
 10
0.0000006542782103
 20
2.3000016431356012
 30
0.0
  0
VERTEX
  5
6FB
  8
LSTS
  6
C6CONTINUOUS
 10
0.0000006542782103
 20
0.0000016431355334
 30
0.0
  0
VERTEX
  5
6FC
  8
LSTS
  6
C6CONTINUOUS
 10
50.00000065427821
 20
0.0000016431355334
 30
0.0
  0
VERTEX
  5
6FD
  8
LSTS
  6
C6CONTINUOUS
 10
50.00000065427821
 20
2.3000016431356012
 30
0.0
  0
SEQEND
  5
6FE
  8
LSTS
  6
C6CONTINUOUS
  0
LINE
  5
325
  8
LSTS
  6
C6CONTINUOUS
 10
725.00000065427776
 20
2.3000016431356012
 30
0.0
 11
725.00000065427776
 21
0.0000016431355334
 31
0.0
  0
POLYLINE
  5
326
  8
LSTS
  6
C6CONTINUOUS
 66
     1
 10
0.0
 20
0.0
 30
0.0
  0
VERTEX
  5
6FF
  8
LSTS
  6
C6CONTINUOUS
 10
704.00000065427776
 20
2.3000016431356012
 30
0.0
  0
VERTEX
  5
700
  8
LSTS
  6
C6CONTINUOUS
 10
730.00000065427821
 20
2.3000016431356012
 30
0.0
  0
VERTEX
  5
701
  8
LSTS
  6
C6CONTINUOUS
 10
730.00000065427821
 20
0.0000016431355334
 30
0.0
  0
VERTEX
  5
702
  8
LSTS
  6
C6CONTINUOUS
 10
680.00000065427821
 20
0.0000016431355334
 30
0.0
  0
VERTEX
  5
703
  8
LSTS
  6
C6CONTINUOUS
 10
680.00000065427821
 20
2.3000016431356012
 30
0.0
  0
SEQEND
  5
704
  8
LSTS
  6
C6CONTINUOUS
  0
LINE
  5
327
  8
LSTS
  6
C6CONTINUOUS
 10
25.00000065427821
 20
67.300001643135602
 30
0.0
 11
25.00000065427821
 21
65.300001643135602
 31
0.0
  0
LINE
  5
328
  8
LSTS
  6
C6CONTINUOUS
 10
27.00000065427821
 20
67.300001643135602
 30
0.0
 11
27.00000065427821
 21
65.300001643135602
 31
0.0
  0
LINE
  5
329
  8
LSTS
  6
C6CONTINUOUS
 10
25.00000065427821
 20
67.300001643135602
 30
0.0
 11
705.00000065427821
 21
67.300001643135602
 31
0.0
  0
LINE
  5
32A
  8
LSTS
  6
C6CONTINUOUS
 10
705.00000065427821
 20
65.300001643135602
 30
0.0
 11
25.00000065427821
 21
65.300001643135602
 31
0.0
  0
LINE
  5
32B
  8
LSTS
  6
C6CONTINUOUS
 10
703.00000065427776
 20
67.300001643135602
 30
0.0
 11
703.00000065427776
 21
65.300001643135602
 31
0.0
  0
LINE
  5
32C
  8
LSTS
  6
C6CONTINUOUS
 10
705.00000065427821
 20
67.300001643135602
 30
0.0
 11
705.00000065427821
 21
65.300001643135602
 31
0.0
  0
ENDBLK
  5
32E
  8
0
  0
BLOCK
  8
0
  2
A$C3EC50EC6
 70
     0
 10
0.0
 20
0.0
 30
0.0
  3
A$C3EC50EC6
  1

  0
CIRCLE
  5
368
  8
LSTS
  6
C6CONTINUOUS
 10
39.999999211730483
 20
20.300001392980221
 30
0.0
 40
13.0
  0
ARC
  5
369
  8
LSTS
  6
C6CONTINUOUS
 10
39.999999211730483
 20
20.300001392980221
 30
0.0
 40
12.0
 50
274.99802844856771
 51
0.0
  0
ARC
  5
36A
  8
LSTS
  6
C6CONTINUOUS
 10
39.999999211730483
 20
20.300001392980221
 30
0.0
 40
12.0
 50
0.0
 51
266.0008700808649
  0
POLYLINE
  5
36B
  8
LSTS
  6
C6CONTINUOUS
 66
     1
 10
0.0
 20
0.0
 30
0.0
  0
VERTEX
  5
73C
  8
LSTS
  6
C6CONTINUOUS
 10
38.999999211730483
 20
8.3000013929802208
 30
0.0
  0
VERTEX
  5
73D
  8
LSTS
  6
C6CONTINUOUS
 10
38.999999211730483
 20
9.3000013929802208
 30
0.0
  0
VERTEX
  5
73E
  8
LSTS
  6
C6CONTINUOUS
 10
40.999999211730483
 20
9.3000013929802208
 30
0.0
  0
VERTEX
  5
73F
  8
LSTS
  6
C6CONTINUOUS
 10
40.999999211730483
 20
8.3000013929802208
 30
0.0
  0
SEQEND
  5
740
  8
LSTS
  6
C6CONTINUOUS
  0
CIRCLE
  5
36C
  8
LSTS
  6
C6CONTINUOUS
 10
27.99999921173049
 20
32.300001392980221
 30
0.0
 40
3.0
  0
LINE
  5
36D
  8
LSTS
  6
C6CONTINUOUS
 10
26.999999211730479
 20
32.300001392980221
 30
0.0
 11
28.999999211730479
 21
32.300001392980221
 31
0.0
  0
LINE
  5
36E
  8
LSTS
  6
C6CONTINUOUS
 10
27.99999921173049
 20
33.300001392980221
 30
0.0
 11
27.99999921173049
 21
31.300001392980221
 31
0.0
  0
CIRCLE
  5
36F
  8
LSTS
  6
C6CONTINUOUS
 10
51.999999211730483
 20
32.300001392980221
 30
0.0
 40
3.0
  0
LINE
  5
370
  8
LSTS
  6
C6CONTINUOUS
 10
50.999999211730483
 20
32.300001392980221
 30
0.0
 11
52.999999211730483
 21
32.300001392980221
 31
0.0
  0
LINE
  5
371
  8
LSTS
  6
C6CONTINUOUS
 10
51.999999211730483
 20
33.300001392980221
 30
0.0
 11
51.999999211730483
 21
31.300001392980221
 31
0.0
  0
CIRCLE
  5
372
  8
LSTS
  6
C6CONTINUOUS
 10
27.99999921173049
 20
8.3000013929802208
 30
0.0
 40
3.0
  0
LINE
  5
373
  8
LSTS
  6
C6CONTINUOUS
 10
26.999999211730479
 20
8.3000013929802208
 30
0.0
 11
28.999999211730479
 21
8.3000013929802208
 31
0.0
  0
LINE
  5
374
  8
LSTS
  6
C6CONTINUOUS
 10
27.99999921173049
 20
9.3000013929802208
 30
0.0
 11
27.99999921173049
 21
7.3000013929802199
 31
0.0
  0
CIRCLE
  5
375
  8
LSTS
  6
C6CONTINUOUS
 10
51.999999211730483
 20
8.3000013929802208
 30
0.0
 40
3.0
  0
LINE
  5
376
  8
LSTS
  6
C6CONTINUOUS
 10
50.999999211730483
 20
8.3000013929802208
 30
0.0
 11
52.999999211730483
 21
8.3000013929802208
 31
0.0
  0
LINE
  5
377
  8
LSTS
  6
C6CONTINUOUS
 10
51.999999211730483
 20
9.3000013929802208
 30
0.0
 11
51.999999211730483
 21
7.3000013929802199
 31
0.0
  0
LINE
  5
378
  8
LSTS
  6
C6CONTINUOUS
 10
25.999999211730479
 20
36.300001392980221
 30
0.0
 11
53.999999211730483
 21
36.300001392980221
 31
0.0
  0
LINE
  5
379
  8
LSTS
  6
C6CONTINUOUS
 10
23.999999211730479
 20
6.3000013929802199
 30
0.0
 11
23.999999211730479
 21
34.300001392980221
 31
0.0
  0
LINE
  5
37A
  8
LSTS
  6
C6CONTINUOUS
 10
55.999999211730483
 20
34.300001392980221
 30
0.0
 11
55.999999211730483
 21
6.3000013929802199
 31
0.0
  0
LINE
  5
37B
  8
LSTS
  6
C6CONTINUOUS
 10
53.999999211730483
 20
4.3000013929802199
 30
0.0
 11
25.999999211730479
 21
4.3000013929802199
 31
0.0
  0
LINE
  5
37C
  8
LSTS
  6
C6CONTINUOUS
 10
23.999999211730479
 20
6.3000013929802199
 30
0.0
 11
25.999999211730479
 21
4.3000013929802199
 31
0.0
  0
LINE
  5
37D
  8
LSTS
  6
C6CONTINUOUS
 10
53.999999211730483
 20
4.3000013929802199
 30
0.0
 11
55.999999211730483
 21
6.3000013929802199
 31
0.0
  0
LINE
  5
37E
  8
LSTS
  6
C6CONTINUOUS
 10
23.999999211730479
 20
34.300001392980221
 30
0.0
 11
25.999999211730479
 21
36.300001392980221
 31
0.0
  0
LINE
  5
37F
  8
LSTS
  6
C6CONTINUOUS
 10
53.999999211730483
 20
36.300001392980221
 30
0.0
 11
55.999999211730483
 21
34.300001392980221
 31
0.0
  0
CIRCLE
  5
380
  8
LSTS
  6
C6CONTINUOUS
 10
39.999999211730483
 20
49.300001392980221
 30
0.0
 40
7.0
  0
ARC
  5
381
  8
LSTS
  6
C6CONTINUOUS
 10
39.999999211730483
 20
49.300001392980221
 30
0.0
 40
6.0
 50
280.00138338267033
 51
0.0
  0
ARC
  5
382
  8
LSTS
  6
C6CONTINUOUS
 10
39.999999211730483
 20
49.300001392980221
 30
0.0
 40
6.0
 50
0.0
 51
261.00498617846409
  0
POLYLINE
  5
383
  8
LSTS
  6
C6CONTINUOUS
 66
     1
 10
0.0
 20
0.0
 30
0.0
  0
VERTEX
  5
741
  8
LSTS
  6
C6CONTINUOUS
 10
38.999999211730483
 20
43.300001392980221
 30
0.0
  0
VERTEX
  5
742
  8
LSTS
  6
C6CONTINUOUS
 10
38.999999211730483
 20
44.300001392980221
 30
0.0
  0
VERTEX
  5
743
  8
LSTS
  6
C6CONTINUOUS
 10
40.999999211730483
 20
44.300001392980221
 30
0.0
  0
VERTEX
  5
744
  8
LSTS
  6
C6CONTINUOUS
 10
40.999999211730483
 20
43.300001392980221
 30
0.0
  0
SEQEND
  5
745
  8
LSTS
  6
C6CONTINUOUS
  0
CIRCLE
  5
384
  8
LSTS
  6
C6CONTINUOUS
 10
47.999999211730483
 20
57.300001392980221
 30
0.0
 40
2.0
  0
LINE
  5
385
  8
LSTS
  6
C6CONTINUOUS
 10
46.999999211730483
 20
57.300001392980221
 30
0.0
 11
48.999999211730483
 21
57.300001392980221
 31
0.0
  0
LINE
  5
386
  8
LSTS
  6
C6CONTINUOUS
 10
47.999999211730483
 20
58.300001392980221
 30
0.0
 11
47.999999211730483
 21
56.300001392980221
 31
0.0
  0
CIRCLE
  5
387
  8
LSTS
  6
C6CONTINUOUS
 10
31.999999211730479
 20
57.300001392980221
 30
0.0
 40
2.0
  0
LINE
  5
388
  8
LSTS
  6
C6CONTINUOUS
 10
30.999999211730479
 20
57.300001392980221
 30
0.0
 11
32.99999921173049
 21
57.300001392980221
 31
0.0
  0
LINE
  5
389
  8
LSTS
  6
C6CONTINUOUS
 10
31.999999211730479
 20
58.300001392980221
 30
0.0
 11
31.999999211730479
 21
56.300001392980221
 31
0.0
  0
CIRCLE
  5
38A
  8
LSTS
  6
C6CONTINUOUS
 10
47.999999211730483
 20
41.300001392980207
 30
0.0
 40
2.0
  0
LINE
  5
38B
  8
LSTS
  6
C6CONTINUOUS
 10
46.999999211730483
 20
41.300001392980207
 30
0.0
 11
48.999999211730483
 21
41.300001392980207
 31
0.0
  0
LINE
  5
38C
  8
LSTS
  6
C6CONTINUOUS
 10
47.999999211730483
 20
42.300001392980221
 30
0.0
 11
47.999999211730483
 21
40.300001392980221
 31
0.0
  0
CIRCLE
  5
38D
  8
LSTS
  6
C6CONTINUOUS
 10
31.999999211730479
 20
41.300001392980207
 30
0.0
 40
2.0
  0
LINE
  5
38E
  8
LSTS
  6
C6CONTINUOUS
 10
30.999999211730479
 20
41.300001392980207
 30
0.0
 11
32.99999921173049
 21
41.300001392980207
 31
0.0
  0
LINE
  5
38F
  8
LSTS
  6
C6CONTINUOUS
 10
31.999999211730479
 20
42.300001392980221
 30
0.0
 11
31.999999211730479
 21
40.300001392980221
 31
0.0
  0
LINE
  5
390
  8
LSTS
  6
C6CONTINUOUS
 10
30.999999211730479
 20
60.300001392980221
 30
0.0
 11
48.999999211730483
 21
60.300001392980221
 31
0.0
  0
LINE
  5
391
  8
LSTS
  6
C6CONTINUOUS
 10
48.999999211730483
 20
38.300001392980221
 30
0.0
 11
30.999999211730479
 21
38.300001392980221
 31
0.0
  0
LINE
  5
392
  8
LSTS
  6
C6CONTINUOUS
 10
28.999999211730479
 20
40.300001392980221
 30
0.0
 11
28.999999211730479
 21
58.300001392980221
 31
0.0
  0
LINE
  5
393
  8
LSTS
  6
C6CONTINUOUS
 10
50.999999211730483
 20
58.300001392980221
 30
0.0
 11
50.999999211730483
 21
40.300001392980221
 31
0.0
  0
LINE
  5
394
  8
LSTS
  6
C6CONTINUOUS
 10
28.999999211730479
 20
58.300001392980221
 30
0.0
 11
30.999999211730479
 21
60.300001392980221
 31
0.0
  0
LINE
  5
395
  8
LSTS
  6
C6CONTINUOUS
 10
48.999999211730483
 20
60.300001392980221
 30
0.0
 11
50.999999211730483
 21
58.300001392980221
 31
0.0
  0
LINE
  5
396
  8
LSTS
  6
C6CONTINUOUS
 10
28.999999211730479
 20
40.300001392980221
 30
0.0
 11
30.999999211730479
 21
38.300001392980221
 31
0.0
  0
LINE
  5
397
  8
LSTS
  6
C6CONTINUOUS
 10
48.999999211730483
 20
38.300001392980221
 30
0.0
 11
50.999999211730483
 21
40.300001392980221
 31
0.0
  0
CIRCLE
  5
398
  8
LSTS
  6
C6CONTINUOUS
 10
39.999999211730483
 20
53.300001392980221
 30
0.0
 40
1.0
  0
CIRCLE
  5
399
  8
LSTS
  6
C6CONTINUOUS
 10
36.999999211730483
 20
50.300001392980221
 30
0.0
 40
1.0
  0
CIRCLE
  5
39A
  8
LSTS
  6
C6CONTINUOUS
 10
42.999999211730483
 20
50.300001392980221
 30
0.0
 40
1.0
  0
CIRCLE
  5
39B
  8
LSTS
  6
C6CONTINUOUS
 10
37.99999921173049
 20
46.300001392980207
 30
0.0
 40
1.0
  0
CIRCLE
  5
39C
  8
LSTS
  6
C6CONTINUOUS
 10
41.999999211730483
 20
46.300001392980207
 30
0.0
 40
1.0
  0
CIRCLE
  5
39D
  8
LSTS
  6
C6CONTINUOUS
 10
46.999999211730483
 20
22.300001392980221
 30
0.0
 40
2.0
  0
CIRCLE
  5
39E
  8
LSTS
  6
C6CONTINUOUS
 10
39.999999211730483
 20
27.300001392980221
 30
0.0
 40
2.0
  0
CIRCLE
  5
39F
  8
LSTS
  6
C6CONTINUOUS
 10
35.999999211730483
 20
14.300001392980221
 30
0.0
 40
2.0
  0
CIRCLE
  5
3A0
  8
LSTS
  6
C6CONTINUOUS
 10
32.99999921173049
 20
22.300001392980221
 30
0.0
 40
2.0
  0
CIRCLE
  5
3A1
  8
LSTS
  6
C6CONTINUOUS
 10
43.999999211730483
 20
14.300001392980221
 30
0.0
 40
2.0
  0
POLYLINE
  5
3A2
  8
LSTS
  6
C6CONTINUOUS
 66
     1
 10
0.0
 20
0.0
 30
0.0
  0
VERTEX
  5
746
  8
LSTS
  6
C6CONTINUOUS
 10
35.999999211730483
 20
67.300001392980221
 30
0.0
  0
VERTEX
  5
747
  8
LSTS
  6
C6CONTINUOUS
 10
35.999999211730483
 20
68.300001392980221
 30
0.0
  0
VERTEX
  5
748
  8
LSTS
  6
C6CONTINUOUS
 10
43.999999211730483
 20
68.300001392980221
 30
0.0
  0
VERTEX
  5
749
  8
LSTS
  6
C6CONTINUOUS
 10
43.999999211730483
 20
67.300001392980221
 30
0.0
  0
SEQEND
  5
74A
  8
LSTS
  6
C6CONTINUOUS
  0
POLYLINE
  5
3A3
  8
LSTS
  6
C6CONTINUOUS
 66
     1
 10
0.0
 20
0.0
 30
0.0
  0
VERTEX
  5
74B
  8
LSTS
  6
C6CONTINUOUS
 10
36.999999211730483
 20
68.300001392980221
 30
0.0
  0
VERTEX
  5
74C
  8
LSTS
  6
C6CONTINUOUS
 10
36.999999211730483
 20
69.300001392980221
 30
0.0
  0
VERTEX
  5
74D
  8
LSTS
  6
C6CONTINUOUS
 10
42.999999211730483
 20
69.300001392980221
 30
0.0
  0
VERTEX
  5
74E
  8
LSTS
  6
C6CONTINUOUS
 10
42.999999211730483
 20
68.300001392980221
 30
0.0
  0
SEQEND
  5
74F
  8
LSTS
  6
C6CONTINUOUS
  0
ARC
  5
3A4
  8
LSTS
  6
C6CONTINUOUS
 10
39.999999211730483
 20
69.300001392980221
 30
0.0
 40
3.0
 50
18.993132819701241
 51
162.0144377102587
  0
LINE
  5
3A5
  8
LSTS
  6
C6CONTINUOUS
 10
-0.0000007882695172
 20
3.3000013929802199
 30
0.0
 11
-0.0000007882695172
 21
64.300001392980221
 31
0.0
  0
ARC
  5
3A6
  8
LSTS
  6
C6CONTINUOUS
 10
0.9999992117304827
 20
64.300001392980221
 30
0.0
 40
1.0
 50
90.0
 51
180.0
  0
LINE
  5
3A7
  8
LSTS
  6
C6CONTINUOUS
 10
2.9999992117304819
 20
67.300001392980221
 30
0.0
 11
2.9999992117304819
 21
65.300001392980221
 31
0.0
  0
LINE
  5
3A8
  8
LSTS
  6
C6CONTINUOUS
 10
79.999999211730483
 20
64.300001392980221
 30
0.0
 11
79.999999211730483
 21
3.3000013929802199
 31
0.0
  0
ARC
  5
3A9
  8
LSTS
  6
C6CONTINUOUS
 10
78.999999211730483
 20
64.300001392980221
 30
0.0
 40
1.0
 50
0.0
 51
90.0
  0
POLYLINE
  5
3AA
  8
LSTS
  6
C6CONTINUOUS
 66
     1
 10
0.0
 20
0.0
 30
0.0
  0
VERTEX
  5
750
  8
LSTS
  6
C6CONTINUOUS
 10
0.9999992117304827
 20
65.300001392980221
 30
0.0
  0
VERTEX
  5
751
  8
LSTS
  6
C6CONTINUOUS
 10
0.9999992117304827
 20
67.300001392980221
 30
0.0
  0
VERTEX
  5
752
  8
LSTS
  6
C6CONTINUOUS
 10
78.999999211730483
 20
67.300001392980221
 30
0.0
  0
VERTEX
  5
753
  8
LSTS
  6
C6CONTINUOUS
 10
78.999999211730483
 20
65.300001392980221
 30
0.0
  0
SEQEND
  5
754
  8
LSTS
  6
C6CONTINUOUS
  0
LINE
  5
3AB
  8
LSTS
  6
C6CONTINUOUS
 10
76.999999211730483
 20
67.300001392980221
 30
0.0
 11
76.999999211730483
 21
65.300001392980221
 31
0.0
  0
LINE
  5
3AC
  8
LSTS
  6
C6CONTINUOUS
 10
0.9999992117304827
 20
65.300001392980221
 30
0.0
 11
78.999999211730483
 21
65.300001392980221
 31
0.0
  0
LINE
  5
3AD
  8
LSTS
  6
C6CONTINUOUS
 10
4.9999992117304819
 20
2.3000013929802199
 30
0.0
 11
4.9999992117304819
 21
0.0000013929801526
 31
0.0
  0
ARC
  5
3AE
  8
LSTS
  6
C6CONTINUOUS
 10
0.9999992117304827
 20
3.3000013929802199
 30
0.0
 40
1.0
 50
180.0
 51
270.0
  0
ARC
  5
3AF
  8
LSTS
  6
C6CONTINUOUS
 10
78.999999211730483
 20
3.3000013929802199
 30
0.0
 40
1.0
 50
270.0
 51
0.0
  0
LINE
  5
3B0
  8
LSTS
  6
C6CONTINUOUS
 10
78.999999211730483
 20
2.3000013929802199
 30
0.0
 11
0.9999992117304827
 21
2.3000013929802199
 31
0.0
  0
POLYLINE
  5
3B1
  8
LSTS
  6
C6CONTINUOUS
 66
     1
 10
0.0
 20
0.0
 30
0.0
  0
VERTEX
  5
755
  8
LSTS
  6
C6CONTINUOUS
 10
0.9999992117304827
 20
2.3000013929802199
 30
0.0
  0
VERTEX
  5
756
  8
LSTS
  6
C6CONTINUOUS
 10
-0.0000007882695172
 20
2.3000013929802199
 30
0.0
  0
VERTEX
  5
757
  8
LSTS
  6
C6CONTINUOUS
 10
-0.0000007882695172
 20
0.0000013929801526
 30
0.0
  0
VERTEX
  5
758
  8
LSTS
  6
C6CONTINUOUS
 10
79.999999211730483
 20
0.0000013929801526
 30
0.0
  0
VERTEX
  5
759
  8
LSTS
  6
C6CONTINUOUS
 10
79.999999211730483
 20
2.3000013929802199
 30
0.0
  0
VERTEX
  5
75A
  8
LSTS
  6
C6CONTINUOUS
 10
78.999999211730483
 20
2.3000013929802199
 30
0.0
  0
SEQEND
  5
75B
  8
LSTS
  6
C6CONTINUOUS
  0
LINE
  5
3B2
  8
LSTS
  6
C6CONTINUOUS
 10
74.999999211730483
 20
2.3000013929802199
 30
0.0
 11
74.999999211730483
 21
0.0000013929801526
 31
0.0
  0
ENDBLK
  5
3B4
  8
0
  0
BLOCK
  8
0
  2
*D4
 70
     1
 10
0.0
 20
0.0
 30
0.0
  3
*D4
  1

  0
LINE
  5
644
  8
0
 62
     0
 10
1184.087236869108
 20
987.44170204063676
 30
0.0
 11
1016.001886926358
 21
987.44170204063676
 31
0.0
  0
LINE
  5
645
  8
0
 62
     0
 10
1184.087236869108
 20
947.44170204063676
 30
0.0
 11
1016.001886926358
 21
947.44170204063676
 31
0.0
  0
LINE
  5
646
  8
0
 62
     0
 10
1017.251886926358
 20
984.94170204063676
 30
0.0
 11
1017.251886926358
 21
949.94170204063676
 31
0.0
  0
SOLID
  5
647
  8
0
 62
     0
 10
1016.8352202596921
 20
984.94170204063676
 30
0.0
 11
1017.668553593025
 21
984.94170204063676
 31
0.0
 12
1017.251886926358
 22
987.44170204063676
 32
0.0
 13
1017.251886926358
 23
987.44170204063676
 33
0.0
  0
SOLID
  5
648
  8
0
 62
     0
 10
1016.8352202596921
 20
949.94170204063676
 30
0.0
 11
1017.668553593025
 21
949.94170204063676
 31
0.0
 12
1017.251886926358
 22
947.44170204063676
 32
0.0
 13
1017.251886926358
 23
947.44170204063676
 33
0.0
  0
INSERT
  5
649
  8
LSTS
  2
*U20
 10
0.0
 20
0.0
 30
0.0
  0
POINT
  5
64A
  8
DEFPOINTS
 62
     0
 10
1184.712236869108
 20
987.44170204063676
 30
0.0
  0
POINT
  5
64B
  8
DEFPOINTS
 62
     0
 10
1184.712236869108
 20
947.44170204063676
 30
0.0
  0
POINT
  5
64C
  8
DEFPOINTS
 62
     0
 10
1017.251886926358
 20
947.44170204063676
 30
0.0
  0
ENDBLK
  5
3BD
  8
0
  0
BLOCK
  8
0
  2
*D5
 70
     1
 10
0.0
 20
0.0
 30
0.0
  3
*D5
  1

  0
LINE
  5
63B
  8
0
 62
     0
 10
1064.087236869108
 20
1007.441702040637
 30
0.0
 11
982.73738435938685
 21
1007.441702040637
 31
0.0
  0
LINE
  5
63C
  8
0
 62
     0
 10
1064.087236869108
 20
927.44170204063676
 30
0.0
 11
982.73738435938685
 21
927.44170204063676
 31
0.0
  0
LINE
  5
63D
  8
0
 62
     0
 10
983.98738435938685
 20
1004.941702040637
 30
0.0
 11
983.98738435938685
 21
929.94170204063676
 31
0.0
  0
SOLID
  5
63E
  8
0
 62
     0
 10
983.57071769272022
 20
1004.941702040637
 30
0.0
 11
984.40405102605348
 21
1004.941702040637
 31
0.0
 12
983.98738435938685
 22
1007.441702040637
 32
0.0
 13
983.98738435938685
 23
1007.441702040637
 33
0.0
  0
SOLID
  5
63F
  8
0
 62
     0
 10
983.57071769272022
 20
929.94170204063676
 30
0.0
 11
984.40405102605348
 21
929.94170204063676
 31
0.0
 12
983.98738435938685
 22
927.44170204063676
 32
0.0
 13
983.98738435938685
 23
927.44170204063676
 33
0.0
  0
INSERT
  5
640
  8
LSTS
  2
*U19
 10
0.0
 20
0.0
 30
0.0
  0
POINT
  5
641
  8
DEFPOINTS
 62
     0
 10
1064.712236869108
 20
1007.441702040637
 30
0.0
  0
POINT
  5
642
  8
DEFPOINTS
 62
     0
 10
1064.712236869108
 20
927.44170204063676
 30
0.0
  0
POINT
  5
643
  8
DEFPOINTS
 62
     0
 10
983.98738435938685
 20
927.44170204063676
 30
0.0
  0
ENDBLK
  5
3D5
  8
0
  0
BLOCK
  8
0
  2
*D6
 70
     1
 10
0.0
 20
0.0
 30
0.0
  3
*D6
  1

  0
LINE
  5
656
  8
0
 62
     0
 10
1784.837236869108
 20
992.44170204063676
 30
0.0
 11
1836.924273818554
 21
992.44170204063664
 31
0.0
  0
LINE
  5
657
  8
0
 62
     0
 10
1784.837236869108
 20
942.44170204063676
 30
0.0
 11
1836.924273818554
 21
942.44170204063664
 31
0.0
  0
LINE
  5
658
  8
0
 62
     0
 10
1835.674273818554
 20
989.94170204063664
 30
0.0
 11
1835.674273818554
 21
944.94170204063664
 31
0.0
  0
SOLID
  5
659
  8
0
 62
     0
 10
1835.257607151887
 20
989.94170204063664
 30
0.0
 11
1836.09094048522
 21
989.94170204063664
 31
0.0
 12
1835.674273818554
 22
992.44170204063664
 32
0.0
 13
1835.674273818554
 23
992.44170204063664
 33
0.0
  0
SOLID
  5
65A
  8
0
 62
     0
 10
1835.257607151887
 20
944.94170204063664
 30
0.0
 11
1836.09094048522
 21
944.94170204063664
 31
0.0
 12
1835.674273818554
 22
942.44170204063664
 32
0.0
 13
1835.674273818554
 23
942.44170204063664
 33
0.0
  0
INSERT
  5
65B
  8
LSTS
  2
*U21
 10
0.0
 20
0.0
 30
0.0
  0
POINT
  5
65C
  8
DEFPOINTS
 62
     0
 10
1784.212236869108
 20
992.44170204063676
 30
0.0
  0
POINT
  5
65D
  8
DEFPOINTS
 62
     0
 10
1784.212236869108
 20
942.44170204063676
 30
0.0
  0
POINT
  5
65E
  8
DEFPOINTS
 62
     0
 10
1835.674273818554
 20
942.44170204063664
 30
0.0
  0
ENDBLK
  5
3ED
  8
0
  0
BLOCK
  8
0
  2
*D7
 70
     1
 10
0.0
 20
0.0
 30
0.0
  3
*D7
  1

  0
LINE
  5
632
  8
0
 62
     0
 10
1184.712236869108
 20
988.06670204063676
 30
0.0
 11
1184.712236869108
 21
1041.70509114882
 31
0.0
  0
LINE
  5
633
  8
0
 62
     0
 10
1664.712236869108
 20
988.06670204063676
 30
0.0
 11
1664.712236869108
 21
1041.70509114882
 31
0.0
  0
LINE
  5
634
  8
0
 62
     0
 10
1187.212236869108
 20
1040.45509114882
 30
0.0
 11
1662.2122368691089
 21
1040.45509114882
 31
0.0
  0
SOLID
  5
635
  8
0
 62
     0
 10
1187.212236869108
 20
1040.8717578154869
 30
0.0
 11
1187.212236869108
 21
1040.038424482153
 31
0.0
 12
1184.712236869108
 22
1040.45509114882
 32
0.0
 13
1184.712236869108
 23
1040.45509114882
 33
0.0
  0
SOLID
  5
636
  8
0
 62
     0
 10
1662.2122368691089
 20
1040.8717578154869
 30
0.0
 11
1662.2122368691089
 21
1040.038424482153
 31
0.0
 12
1664.712236869108
 22
1040.45509114882
 32
0.0
 13
1664.712236869108
 23
1040.45509114882
 33
0.0
  0
INSERT
  5
637
  8
LSTS
  2
*U18
 10
0.0
 20
0.0
 30
0.0
  0
POINT
  5
638
  8
DEFPOINTS
 62
     0
 10
1184.712236869108
 20
987.44170204063676
 30
0.0
  0
POINT
  5
639
  8
DEFPOINTS
 62
     0
 10
1664.712236869108
 20
987.44170204063676
 30
0.0
  0
POINT
  5
63A
  8
DEFPOINTS
 62
     0
 10
1664.712236869108
 20
1040.45509114882
 30
0.0
  0
ENDBLK
  5
405
  8
0
  0
BLOCK
  8
0
  2
*D8
 70
     1
 10
0.0
 20
0.0
 30
0.0
  3
*D8
  1

  0
LINE
  5
629
  8
0
 62
     0
 10
1084.712236869108
 20
1007.066702040637
 30
0.0
 11
1084.712236869108
 21
1066.0351542618
 31
0.0
  0
LINE
  5
62A
  8
0
 62
     0
 10
1764.712236869108
 20
1005.066702040636
 30
0.0
 11
1764.712236869108
 21
1066.0351542618
 31
0.0
  0
LINE
  5
62B
  8
0
 62
     0
 10
1087.212236869108
 20
1064.7851542618
 30
0.0
 11
1762.2122368691089
 21
1064.7851542618
 31
0.0
  0
SOLID
  5
62C
  8
0
 62
     0
 10
1087.212236869108
 20
1065.201820928467
 30
0.0
 11
1087.212236869108
 21
1064.368487595133
 31
0.0
 12
1084.712236869108
 22
1064.7851542618
 32
0.0
 13
1084.712236869108
 23
1064.7851542618
 33
0.0
  0
SOLID
  5
62D
  8
0
 62
     0
 10
1762.2122368691089
 20
1065.201820928467
 30
0.0
 11
1762.2122368691089
 21
1064.368487595133
 31
0.0
 12
1764.712236869108
 22
1064.7851542618
 32
0.0
 13
1764.712236869108
 23
1064.7851542618
 33
0.0
  0
INSERT
  5
62E
  8
LSTS
  2
*U17
 10
0.0
 20
0.0
 30
0.0
  0
POINT
  5
62F
  8
DEFPOINTS
 62
     0
 10
1084.712236869108
 20
1006.441702040636
 30
0.0
  0
POINT
  5
630
  8
DEFPOINTS
 62
     0
 10
1764.712236869108
 20
1004.441702040637
 30
0.0
  0
POINT
  5
631
  8
DEFPOINTS
 62
     0
 10
1764.712236869108
 20
1064.7851542618
 30
0.0
  0
ENDBLK
  5
41D
  8
0
  0
BLOCK
  8
0
  2
*D9
 70
     1
 10
0.0
 20
0.0
 30
0.0
  3
*D9
  1

  0
LINE
  5
620
  8
0
 62
     0
 10
1059.712236869108
 20
1003.066702040636
 30
0.0
 11
1059.712236869108
 21
1095.5225692104091
 31
0.0
  0
LINE
  5
621
  8
0
 62
     0
 10
1789.712236869108
 20
1003.066702040636
 30
0.0
 11
1789.712236869108
 21
1095.5225692104091
 31
0.0
  0
LINE
  5
622
  8
0
 62
     0
 10
1062.212236869108
 20
1094.2725692104091
 30
0.0
 11
1787.2122368691089
 21
1094.2725692104091
 31
0.0
  0
SOLID
  5
623
  8
0
 62
     0
 10
1062.212236869108
 20
1094.689235877076
 30
0.0
 11
1062.212236869108
 21
1093.855902543743
 31
0.0
 12
1059.712236869108
 22
1094.2725692104091
 32
0.0
 13
1059.712236869108
 23
1094.2725692104091
 33
0.0
  0
SOLID
  5
624
  8
0
 62
     0
 10
1787.2122368691089
 20
1094.689235877076
 30
0.0
 11
1787.2122368691089
 21
1093.855902543743
 31
0.0
 12
1789.712236869108
 22
1094.2725692104091
 32
0.0
 13
1789.712236869108
 23
1094.2725692104091
 33
0.0
  0
INSERT
  5
625
  8
LSTS
  2
*U16
 10
0.0
 20
0.0
 30
0.0
  0
POINT
  5
626
  8
DEFPOINTS
 62
     0
 10
1059.712236869108
 20
1002.441702040637
 30
0.0
  0
POINT
  5
627
  8
DEFPOINTS
 62
     0
 10
1789.712236869108
 20
1002.441702040637
 30
0.0
  0
POINT
  5
628
  8
DEFPOINTS
 62
     0
 10
1789.712236869108
 20
1094.2725692104091
 30
0.0
  0
ENDBLK
  5
450
  8
0
  0
BLOCK
  8
0
  2
*D10
 70
     1
 10
0.0
 20
0.0
 30
0.0
  3
*D10
  1

  0
LINE
  5
673
  8
0
 62
     0
 10
1069.712236869108
 20
937.31670204063676
 30
0.0
 11
1069.712236869108
 21
889.42087316591119
 31
0.0
  0
LINE
  5
674
  8
0
 62
     0
 10
1779.712236869108
 20
937.31670204063676
 30
0.0
 11
1779.712236869108
 21
889.42087316591119
 31
0.0
  0
LINE
  5
675
  8
0
 62
     0
 10
1072.212236869108
 20
890.6708731659113
 30
0.0
 11
1777.212236869108
 21
890.6708731659113
 31
0.0
  0
SOLID
  5
676
  8
0
 62
     0
 10
1072.212236869108
 20
891.08753983257805
 30
0.0
 11
1072.212236869108
 21
890.25420649924467
 31
0.0
 12
1069.712236869108
 22
890.6708731659113
 32
0.0
 13
1069.712236869108
 23
890.6708731659113
 33
0.0
  0
SOLID
  5
677
  8
0
 62
     0
 10
1777.212236869108
 20
891.08753983257805
 30
0.0
 11
1777.212236869108
 21
890.25420649924467
 31
0.0
 12
1779.712236869108
 22
890.6708731659113
 32
0.0
 13
1779.712236869108
 23
890.6708731659113
 33
0.0
  0
INSERT
  5
678
  8
LSTS
  2
*U22
 10
0.0
 20
0.0
 30
0.0
  0
POINT
  5
679
  8
DEFPOINTS
 62
     0
 10
1069.712236869108
 20
937.94170204063676
 30
0.0
  0
POINT
  5
67A
  8
DEFPOINTS
 62
     0
 10
1779.712236869108
 20
937.94170204063676
 30
0.0
  0
POINT
  5
67B
  8
DEFPOINTS
 62
     0
 10
1779.712236869108
 20
890.6708731659113
 30
0.0
  0
ENDBLK
  5
468
  8
0
  0
BLOCK
  8
0
  2
*D11
 70
     1
 10
0.0
 20
0.0
 30
0.0
  3
*D11
  1

  0
LINE
  5
67C
  8
0
 62
     0
 10
1084.087236869108
 20
758.18258071016533
 30
0.0
 11
1029.0101442180819
 21
758.18258071016533
 31
0.0
  0
LINE
  5
67D
  8
0
 62
     0
 10
1059.087236869108
 20
693.18258071016521
 30
0.0
 11
1029.0101442180819
 21
693.18258071016521
 31
0.0
  0
LINE
  5
67E
  8
0
 62
     0
 10
1030.2601442180819
 20
755.68258071016521
 30
0.0
 11
1030.2601442180819
 21
695.68258071016533
 31
0.0
  0
SOLID
  5
67F
  8
0
 62
     0
 10
1029.8434775514149
 20
755.68258071016521
 30
0.0
 11
1030.6768108847491
 21
755.68258071016521
 31
0.0
 12
1030.2601442180819
 22
758.18258071016533
 32
0.0
 13
1030.2601442180819
 23
758.18258071016533
 33
0.0
  0
SOLID
  5
680
  8
0
 62
     0
 10
1029.8434775514149
 20
695.68258071016533
 30
0.0
 11
1030.6768108847491
 21
695.68258071016533
 31
0.0
 12
1030.2601442180819
 22
693.18258071016521
 32
0.0
 13
1030.2601442180819
 23
693.18258071016521
 33
0.0
  0
INSERT
  5
681
  8
LSTS
  2
*U23
 10
0.0
 20
0.0
 30
0.0
  0
POINT
  5
682
  8
DEFPOINTS
 62
     0
 10
1084.712236869108
 20
758.18258071016533
 30
0.0
  0
POINT
  5
683
  8
DEFPOINTS
 62
     0
 10
1059.712236869108
 20
693.18258071016521
 30
0.0
  0
POINT
  5
684
  8
DEFPOINTS
 62
     0
 10
1030.2601442180819
 20
693.18258071016521
 30
0.0
  0
ENDBLK
  5
4A4
  8
0
  0
BLOCK
  8
0
  2
*D12
 70
     1
 10
0.0
 20
0.0
 30
0.0
  3
*D12
  1

  0
LINE
  5
685
  8
0
 62
     0
 10
1059.087236869108
 20
693.18258071016521
 30
0.0
 11
1029.0101442180819
 21
693.18258071016521
 31
0.0
  0
LINE
  5
686
  8
0
 62
     0
 10
1059.087236869108
 20
690.88258071016514
 30
0.0
 11
1029.0101442180819
 21
690.88258071016514
 31
0.0
  0
LINE
  5
687
  8
0
 62
     0
 10
1030.2601442180819
 20
695.68258071016533
 30
0.0
 11
1030.2601442180819
 21
698.18258071016533
 31
0.0
  0
LINE
  5
688
  8
0
 62
     0
 10
1030.2601442180819
 20
688.38258071016514
 30
0.0
 11
1030.2601442180819
 21
657.54924737683189
 31
0.0
  0
LINE
  5
689
  8
0
 62
     0
 10
1030.2601442180819
 20
693.18258071016521
 30
0.0
 11
1030.2601442180819
 21
690.88258071016514
 31
0.0
  0
SOLID
  5
68A
  8
0
 62
     0
 10
1029.8434775514149
 20
695.68258071016533
 30
0.0
 11
1030.6768108847491
 21
695.68258071016533
 31
0.0
 12
1030.2601442180819
 22
693.18258071016521
 32
0.0
 13
1030.2601442180819
 23
693.18258071016521
 33
0.0
  0
SOLID
  5
68B
  8
0
 62
     0
 10
1029.8434775514149
 20
688.38258071016514
 30
0.0
 11
1030.6768108847491
 21
688.38258071016514
 31
0.0
 12
1030.2601442180819
 22
690.88258071016514
 32
0.0
 13
1030.2601442180819
 23
690.88258071016514
 33
0.0
  0
INSERT
  5
68C
  8
LSTS
  2
*U24
 10
0.0
 20
0.0
 30
0.0
  0
POINT
  5
68D
  8
DEFPOINTS
 62
     0
 10
1059.712236869108
 20
693.18258071016521
 30
0.0
  0
POINT
  5
68E
  8
DEFPOINTS
 62
     0
 10
1059.712236869108
 20
690.88258071016514
 30
0.0
  0
POINT
  5
68F
  8
DEFPOINTS
 62
     0
 10
1030.2601442180819
 20
690.88258071016514
 30
0.0
  0
ENDBLK
  5
4BC
  8
0
  0
BLOCK
  8
0
  2
A$C2D8C2D46
 70
     0
 10
0.0
 20
0.0
 30
0.0
  3
A$C2D8C2D46
  1

  0
CIRCLE
  5
5D3
  8
LSTS
  6
C6CONTINUOUS
 10
33.000000032692931
 20
40.000000812868393
 30
0.0
 40
4.0
  0
CIRCLE
  5
5D4
  8
LSTS
  6
C6CONTINUOUS
 10
33.000000032692931
 20
40.000000812868393
 30
0.0
 40
3.0
  0
LINE
  5
5D5
  8
LSTS
  6
C6CONTINUOUS
 10
33.000000032692931
 20
41.000000812868393
 30
0.0
 11
33.000000032692931
 21
39.000000812868393
 31
0.0
  0
LINE
  5
5D6
  8
LSTS
  6
C6CONTINUOUS
 10
32.000000032692931
 20
40.000000812868393
 30
0.0
 11
34.000000032692931
 21
40.000000812868393
 31
0.0
  0
CIRCLE
  5
5D7
  8
LSTS
  6
C6CONTINUOUS
 10
697.00000003269292
 20
40.000000812868393
 30
0.0
 40
4.0
  0
CIRCLE
  5
5D8
  8
LSTS
  6
C6CONTINUOUS
 10
697.00000003269292
 20
40.000000812868393
 30
0.0
 40
3.0
  0
LINE
  5
5D9
  8
LSTS
  6
C6CONTINUOUS
 10
697.00000003269292
 20
41.000000812868393
 30
0.0
 11
697.00000003269292
 21
39.000000812868393
 31
0.0
  0
LINE
  5
5DA
  8
LSTS
  6
C6CONTINUOUS
 10
698.00000003269292
 20
40.000000812868393
 30
0.0
 11
696.00000003269292
 21
40.000000812868393
 31
0.0
  0
POLYLINE
  5
5DB
  8
LSTS
  6
C6CONTINUOUS
 66
     1
 10
0.0
 20
0.0
 30
0.0
  0
VERTEX
  5
7A1
  8
LSTS
  6
C6CONTINUOUS
 10
705.00000003269292
 20
56.0000008128684
 30
0.0
  0
VERTEX
  5
7A2
  8
LSTS
  6
C6CONTINUOUS
 10
707.0000000326927
 20
56.0000008128684
 30
0.0
  0
VERTEX
  5
7A3
  8
LSTS
  6
C6CONTINUOUS
 10
707.0000000326927
 20
52.000000812868393
 30
0.0
  0
SEQEND
  5
7A4
  8
LSTS
  6
C6CONTINUOUS
  0
POLYLINE
  5
5DC
  8
LSTS
  6
C6CONTINUOUS
 66
     1
 10
0.0
 20
0.0
 30
0.0
  0
VERTEX
  5
7A5
  8
LSTS
  6
C6CONTINUOUS
 10
707.0000000326927
 20
28.000000812868389
 30
0.0
  0
VERTEX
  5
7A6
  8
LSTS
  6
C6CONTINUOUS
 10
707.0000000326927
 20
24.000000812868389
 30
0.0
  0
VERTEX
  5
7A7
  8
LSTS
  6
C6CONTINUOUS
 10
705.00000003269292
 20
24.000000812868389
 30
0.0
  0
SEQEND
  5
7A8
  8
LSTS
  6
C6CONTINUOUS
  0
POLYLINE
  5
5DD
  8
LSTS
  6
C6CONTINUOUS
 66
     1
 10
0.0
 20
0.0
 30
0.0
  0
VERTEX
  5
7A9
  8
LSTS
  6
C6CONTINUOUS
 10
705.00000003269292
 20
51.0000008128684
 30
0.0
  0
VERTEX
  5
7AA
  8
LSTS
  6
C6CONTINUOUS
 10
707.0000000326927
 20
51.0000008128684
 30
0.0
  0
VERTEX
  5
7AB
  8
LSTS
  6
C6CONTINUOUS
 10
707.0000000326927
 20
29.000000812868389
 30
0.0
  0
VERTEX
  5
7AC
  8
LSTS
  6
C6CONTINUOUS
 10
705.00000003269292
 20
29.000000812868389
 30
0.0
  0
SEQEND
  5
7AD
  8
LSTS
  6
C6CONTINUOUS
  0
LINE
  5
5DE
  8
LSTS
  6
C6CONTINUOUS
 10
704.00000003269258
 20
0.000000812868393
 30
0.0
 11
26.0000000326927
 21
0.000000812868393
 31
0.0
  0
ARC
  5
5DF
  8
LSTS
  6
C6CONTINUOUS
 10
704.00000003269258
 20
1.000000812868393
 30
0.0
 40
1.0
 50
270.0
 51
0.0
  0
LINE
  5
5E0
  8
LSTS
  6
C6CONTINUOUS
 10
26.0000000326927
 20
80.000000812868393
 30
0.0
 11
704.00000003269258
 21
80.000000812868393
 31
0.0
  0
ARC
  5
5E1
  8
LSTS
  6
C6CONTINUOUS
 10
704.00000003269258
 20
79.000000812868393
 30
0.0
 40
1.0
 50
0.0
 51
90.0
  0
LINE
  5
5E2
  8
LSTS
  6
C6CONTINUOUS
 10
705.00000003269292
 20
79.000000812868393
 30
0.0
 11
705.00000003269292
 21
1.000000812868393
 31
0.0
  0
POLYLINE
  5
5E3
  8
LSTS
  6
C6CONTINUOUS
 66
     1
 10
0.0
 20
0.0
 30
0.0
  0
VERTEX
  5
7AE
  8
LSTS
  6
C6CONTINUOUS
 10
25.0000000326927
 20
80.000000812868393
 30
0.0
  0
VERTEX
  5
7AF
  8
LSTS
  6
C6CONTINUOUS
 10
5.0000000326926957
 20
80.000000812868393
 30
0.0
  0
VERTEX
  5
7B0
  8
LSTS
  6
C6CONTINUOUS
 10
0.0000000326926965
 20
75.000000812868393
 30
0.0
  0
VERTEX
  5
7B1
  8
LSTS
  6
C6CONTINUOUS
 10
0.0000000326926965
 20
5.000000812868393
 30
0.0
  0
VERTEX
  5
7B2
  8
LSTS
  6
C6CONTINUOUS
 10
5.0000000326926957
 20
0.000000812868393
 30
0.0
  0
VERTEX
  5
7B3
  8
LSTS
  6
C6CONTINUOUS
 10
25.0000000326927
 20
0.000000812868393
 30
0.0
  0
SEQEND
  5
7B4
  8
LSTS
  6
C6CONTINUOUS
  0
LINE
  5
5E4
  8
LSTS
  6
C6CONTINUOUS
 10
25.0000000326927
 20
79.000000812868393
 30
0.0
 11
25.0000000326927
 21
1.000000812868393
 31
0.0
  0
ARC
  5
5E5
  8
LSTS
  6
C6CONTINUOUS
 10
26.0000000326927
 20
79.000000812868393
 30
0.0
 40
1.0
 50
90.0
 51
180.0
  0
ARC
  5
5E6
  8
LSTS
  6
C6CONTINUOUS
 10
26.0000000326927
 20
1.000000812868393
 30
0.0
 40
1.0
 50
180.0
 51
270.0
  0
CIRCLE
  5
5E7
  8
LSTS
  6
C6CONTINUOUS
 10
10.000000032692689
 20
65.000000812868393
 30
0.0
 40
3.0
  0
CIRCLE
  5
5E8
  8
LSTS
  6
C6CONTINUOUS
 10
10.000000032692689
 20
15.000000812868389
 30
0.0
 40
3.0
  0
CIRCLE
  5
5E9
  8
LSTS
  6
C6DOT
 10
40.000000032692917
 20
65.000000812868393
 30
0.0
 40
2.0
  0
CIRCLE
  5
5EA
  8
LSTS
  6
C6DOT
 10
40.000000032692917
 20
15.000000812868389
 30
0.0
 40
2.0
  0
CIRCLE
  5
5EB
  8
LSTS
  6
C6DOT
 10
690.0000000326927
 20
15.000000812868389
 30
0.0
 40
2.0
  0
CIRCLE
  5
5EC
  8
LSTS
  6
C6DOT
 10
690.0000000326927
 20
65.000000812868393
 30
0.0
 40
2.0
  0
POLYLINE
  5
5ED
  8
LSTS
  6
C6CONTINUOUS
 66
     1
 10
0.0
 20
0.0
 30
0.0
  0
VERTEX
  5
7B5
  8
LSTS
  6
C6CONTINUOUS
 10
708.0000000326927
 20
53.000000812868393
 30
0.0
  0
VERTEX
  5
7B6
  8
LSTS
  6
C6CONTINUOUS
 10
712.0000000326927
 20
53.000000812868393
 30
0.0
  0
VERTEX
  5
7B7
  8
LSTS
  6
C6CONTINUOUS
 10
713.00000003269292
 20
52.000000812868393
 30
0.0
  0
VERTEX
  5
7B8
  8
LSTS
  6
C6CONTINUOUS
 10
713.00000003269292
 20
48.000000812868393
 30
0.0
  0
SEQEND
  5
7B9
  8
LSTS
  6
C6CONTINUOUS
  0
POLYLINE
  5
5EE
  8
LSTS
  6
C6CONTINUOUS
 66
     1
 10
0.0
 20
0.0
 30
0.0
  0
VERTEX
  5
7BA
  8
LSTS
  6
C6CONTINUOUS
 10
713.00000003269292
 20
32.0000008128684
 30
0.0
  0
VERTEX
  5
7BB
  8
LSTS
  6
C6CONTINUOUS
 10
713.00000003269292
 20
28.000000812868389
 30
0.0
  0
VERTEX
  5
7BC
  8
LSTS
  6
C6CONTINUOUS
 10
712.0000000326927
 20
27.0000008128684
 30
0.0
  0
VERTEX
  5
7BD
  8
LSTS
  6
C6CONTINUOUS
 10
708.0000000326927
 20
27.0000008128684
 30
0.0
  0
SEQEND
  5
7BE
  8
LSTS
  6
C6CONTINUOUS
  0
POLYLINE
  5
5EF
  8
LSTS
  6
C6CONTINUOUS
 66
     1
 10
0.0
 20
0.0
 30
0.0
  0
VERTEX
  5
7BF
  8
LSTS
  6
C6CONTINUOUS
 10
707.0000000326927
 20
47.000000812868393
 30
0.0
  0
VERTEX
  5
7C0
  8
LSTS
  6
C6CONTINUOUS
 10
715.0000000326927
 20
47.000000812868393
 30
0.0
  0
VERTEX
  5
7C1
  8
LSTS
  6
C6CONTINUOUS
 10
715.0000000326927
 20
33.000000812868393
 30
0.0
  0
VERTEX
  5
7C2
  8
LSTS
  6
C6CONTINUOUS
 10
707.0000000326927
 20
33.000000812868393
 30
0.0
  0
SEQEND
  5
7C3
  8
LSTS
  6
C6CONTINUOUS
  0
POLYLINE
  5
5F0
  8
LSTS
  6
C6CONTINUOUS
 66
     1
 10
0.0
 20
0.0
 30
0.0
  0
VERTEX
  5
7C4
  8
LSTS
  6
C6CONTINUOUS
 10
705.00000003269292
 20
80.000000812868393
 30
0.0
  0
VERTEX
  5
7C5
  8
LSTS
  6
C6CONTINUOUS
 10
725.00000003269258
 20
80.000000812868393
 30
0.0
  0
VERTEX
  5
7C6
  8
LSTS
  6
C6CONTINUOUS
 10
730.00000003269292
 20
75.000000812868393
 30
0.0
  0
VERTEX
  5
7C7
  8
LSTS
  6
C6CONTINUOUS
 10
730.00000003269292
 20
5.000000812868393
 30
0.0
  0
VERTEX
  5
7C8
  8
LSTS
  6
C6CONTINUOUS
 10
725.00000003269258
 20
0.000000812868393
 30
0.0
  0
VERTEX
  5
7C9
  8
LSTS
  6
C6CONTINUOUS
 10
705.00000003269292
 20
0.000000812868393
 30
0.0
  0
SEQEND
  5
7CA
  8
LSTS
  6
C6CONTINUOUS
  0
CIRCLE
  5
5F1
  8
LSTS
  6
C6CONTINUOUS
 10
720.0000000326927
 20
15.000000812868389
 30
0.0
 40
3.0
  0
CIRCLE
  5
5F2
  8
LSTS
  6
C6CONTINUOUS
 10
720.0000000326927
 20
65.000000812868393
 30
0.0
 40
3.0
  0
POLYLINE
  5
5F3
  8
LSTS
  6
C6CONTINUOUS
 66
     1
 10
0.0
 20
0.0
 30
0.0
  0
VERTEX
  5
7CB
  8
LSTS
  6
C6CONTINUOUS
 10
705.00000003269292
 20
77.000000812868393
 30
0.0
  0
VERTEX
  5
7CC
  8
LSTS
  6
C6CONTINUOUS
 10
703.0000000326927
 20
79.000000812868393
 30
0.0
  0
VERTEX
  5
7CD
  8
LSTS
  6
C6CONTINUOUS
 10
25.0000000326927
 20
79.000000812868393
 30
0.0
  0
SEQEND
  5
7CE
  8
LSTS
  6
C6CONTINUOUS
  0
LINE
  5
5F4
  8
LSTS
  6
C6CONTINUOUS
 10
705.00000003269292
 20
46.000000812868393
 30
0.0
 11
701.00000003269292
 21
42.000000812868393
 31
0.0
  0
LINE
  5
5F5
  8
LSTS
  6
C6CONTINUOUS
 10
705.00000003269292
 20
34.000000812868393
 30
0.0
 11
701.00000003269292
 21
38.000000812868393
 31
0.0
  0
POLYLINE
  5
5F6
  8
LSTS
  6
C6CONTINUOUS
 66
     1
 10
0.0
 20
0.0
 30
0.0
  0
VERTEX
  5
7CF
  8
LSTS
  6
C6CONTINUOUS
 10
705.00000003269292
 20
3.000000812868393
 30
0.0
  0
VERTEX
  5
7D0
  8
LSTS
  6
C6CONTINUOUS
 10
703.0000000326927
 20
1.000000812868393
 30
0.0
  0
VERTEX
  5
7D1
  8
LSTS
  6
C6CONTINUOUS
 10
25.0000000326927
 20
1.000000812868393
 30
0.0
  0
SEQEND
  5
7D2
  8
LSTS
  6
C6CONTINUOUS
  0
LINE
  5
5F7
  8
LSTS
  6
C6CONTINUOUS
 10
37.000000032692931
 20
38.000000812868393
 30
0.0
 11
43.000000032692697
 21
38.000000812868393
 31
0.0
  0
LINE
  5
5F8
  8
LSTS
  6
C6CONTINUOUS
 10
37.000000032692931
 20
42.000000812868393
 30
0.0
 11
43.000000032692697
 21
42.000000812868393
 31
0.0
  0
ARC
  5
5F9
  8
LSTS
  6
C6CONTINUOUS
 10
43.000000032692697
 20
40.000000812868393
 30
0.0
 40
2.0
 50
270.0
 51
0.0
  0
ARC
  5
5FA
  8
LSTS
  6
C6CONTINUOUS
 10
43.000000032692697
 20
40.000000812868393
 30
0.0
 40
2.0
 50
0.0
 51
90.0
  0
LINE
  5
5FB
  8
LSTS
  6
C6CONTINUOUS
 10
25.0000000326927
 20
34.000000812868393
 30
0.0
 11
29.0000000326927
 21
38.000000812868393
 31
0.0
  0
LINE
  5
5FC
  8
LSTS
  6
C6CONTINUOUS
 10
25.0000000326927
 20
46.000000812868393
 30
0.0
 11
29.0000000326927
 21
42.000000812868393
 31
0.0
  0
POLYLINE
  5
5FD
  8
LSTS
 66
     1
 10
0.0
 20
0.0
 30
0.0
 70
     1
  0
VERTEX
  5
7D3
  8
LSTS
 10
125.0000000326927
 20
60.000000812868393
 30
0.0
  0
VERTEX
  5
7D4
  8
LSTS
 10
605.00000003269292
 20
60.000000812868393
 30
0.0
  0
VERTEX
  5
7D5
  8
LSTS
 10
605.00000003269292
 20
20.000000812868389
 30
0.0
  0
VERTEX
  5
7D6
  8
LSTS
 10
125.0000000326927
 20
20.000000812868389
 30
0.0
  0
SEQEND
  5
7D7
  8
LSTS
  0
LINE
  5
5FE
  8
LSTS
 10
5.500000032692923
 20
65.000000812868393
 30
0.0
 11
14.50000003269292
 21
65.000000812868393
 31
0.0
  0
LINE
  5
5FF
  8
LSTS
 10
10.00000003269292
 20
69.500000812868393
 30
0.0
 11
10.00000003269292
 21
60.500000812868393
 31
0.0
  0
LINE
  5
600
  8
LSTS
 10
5.5000000326926957
 20
15.000000812868389
 30
0.0
 11
14.500000032692689
 21
15.000000812868389
 31
0.0
  0
LINE
  5
601
  8
LSTS
 10
10.000000032692689
 20
19.500000812868389
 30
0.0
 11
10.000000032692689
 21
10.500000812868389
 31
0.0
  0
LINE
  5
602
  8
LSTS
 10
715.5000000326927
 20
65.000000812868393
 30
0.0
 11
724.5000000326927
 21
65.000000812868393
 31
0.0
  0
LINE
  5
603
  8
LSTS
 10
720.0000000326927
 20
69.500000812868393
 30
0.0
 11
720.0000000326927
 21
60.500000812868393
 31
0.0
  0
LINE
  5
604
  8
LSTS
 10
715.5000000326927
 20
15.000000812868389
 30
0.0
 11
724.5000000326927
 21
15.000000812868389
 31
0.0
  0
LINE
  5
605
  8
LSTS
 10
720.0000000326927
 20
19.500000812868389
 30
0.0
 11
720.0000000326927
 21
10.500000812868389
 31
0.0
  0
ENDBLK
  5
609
  8
0
  0
BLOCK
  8
0
  2
*U15
 70
     1
 10
0.0
 20
0.0
 30
0.0
  3
*U15
  1

  0
TEXT
  5
75D
  8
0
 10
1816.909232677285
 20
1042.8071942421959
 30
0.0
 40
12.5
  1
4-\U+220510
  0
LINE
  5
75E
  8
0
  6
BYBLOCK
 10
1806.909232677285
 20
1040.3071942421959
 30
0.0
 11
1814.909232677285
 21
1040.3071942421959
 31
0.0
  0
POLYLINE
  5
75F
  8
0
  6
BYBLOCK
 66
     1
 10
0.0
 20
0.0
 30
0.0
  0
VERTEX
  5
760
  8
0
  6
BYBLOCK
 10
1781.6883125863051
 20
995.91950662972806
 30
0.0
  0
VERTEX
  5
761
  8
0
  6
BYBLOCK
 10
1806.909232677285
 20
1040.3071942421959
 30
0.0
  0
SEQEND
  5
762
  8
0
  6
BYBLOCK
  0
SOLID
  5
763
  8
0
 10
1782.267946684487
 20
995.59016067686196
 30
0.0
 11
1779.712236869108
 21
992.44170204063676
 31
0.0
 12
1781.1086784881229
 22
996.24885258259428
 32
0.0
 13
1781.1086784881229
 23
996.24885258259428
 33
0.0
  0
POLYLINE
  5
764
  8
0
  6
BYBLOCK
 66
     1
 10
0.0
 20
0.0
 30
0.0
  0
VERTEX
  5
765
  8
0
  6
BYBLOCK
 10
1814.909232677285
 20
1040.3071942421959
 30
0.0
  0
VERTEX
  5
766
  8
0
  6
BYBLOCK
 10
1868.992566010618
 20
1040.3071942421959
 30
0.0
  0
SEQEND
  5
767
  8
0
  6
BYBLOCK
  0
ENDBLK
  5
769
  8
0
  0
BLOCK
  8
0
  2
*U16
 70
     1
 10
0.0
 20
0.0
 30
0.0
  3
*U16
  1

  0
TEXT
  5
7D9
  8
0
 62
     0
 10
1416.378903535775
 20
1094.8975692104091
 30
0.0
 40
12.5
  1
L1
  0
ENDBLK
  5
7DB
  8
0
  0
BLOCK
  8
0
  2
*U17
 70
     1
 10
0.0
 20
0.0
 30
0.0
  3
*U17
  1

  0
TEXT
  5
7DD
  8
0
 62
     0
 10
1414.295570202441
 20
1065.4101542618
 30
0.0
 40
12.5
  1
L3
  0
ENDBLK
  5
7DF
  8
0
  0
BLOCK
  8
0
  2
*U18
 70
     1
 10
0.0
 20
0.0
 30
0.0
  3
*U18
  1

  0
TEXT
  5
7E1
  8
0
 62
     0
 10
1414.295570202441
 20
1041.08009114882
 30
0.0
 40
12.5
  1
L4
  0
ENDBLK
  5
7E3
  8
0
  0
BLOCK
  8
0
  2
*U19
 70
     1
 10
0.0
 20
0.0
 30
0.0
  3
*U19
  1

  0
TEXT
  5
7E5
  8
0
 62
     0
 10
983.36238435938674
 20
958.06670204063676
 30
0.0
 40
12.5
  1
80
 50
90.0
  0
ENDBLK
  5
7E7
  8
0
  0
BLOCK
  8
0
  2
*U20
 70
     1
 10
0.0
 20
0.0
 30
0.0
  3
*U20
  1

  0
TEXT
  5
7E9
  8
0
 62
     0
 10
1016.626886926358
 20
958.06670204063676
 30
0.0
 40
12.5
  1
40
 50
90.0
  0
ENDBLK
  5
7EB
  8
0
  0
BLOCK
  8
0
  2
*U21
 70
     1
 10
0.0
 20
0.0
 30
0.0
  3
*U21
  1

  0
TEXT
  5
7ED
  8
0
 62
     0
 10
1835.049273818554
 20
958.06670204063687
 30
0.0
 40
12.5
  1
50
 50
90.0
  0
ENDBLK
  5
7EF
  8
0
  0
BLOCK
  8
0
  2
*U22
 70
     1
 10
0.0
 20
0.0
 30
0.0
  3
*U22
  1

  0
TEXT
  5
7F1
  8
0
 62
     0
 10
1414.295570202441
 20
891.2958731659113
 30
0.0
 40
12.5
  1
L2
  0
ENDBLK
  5
7F3
  8
0
  0
BLOCK
  8
0
  2
*U23
 70
     1
 10
0.0
 20
0.0
 30
0.0
  3
*U23
  1

  0
TEXT
  5
7F5
  8
0
 62
     0
 10
1029.6351442180819
 20
715.2659140434987
 30
0.0
 40
12.5
  1
65
 50
90.0
  0
ENDBLK
  5
7F7
  8
0
  0
BLOCK
  8
0
  2
*U24
 70
     1
 10
0.0
 20
0.0
 30
0.0
  3
*U24
  1

  0
TEXT
  5
7F9
  8
0
 62
     0
 10
1027.5518108847491
 20
658.17424737683211
 30
0.0
 40
12.5
  1
2,3
 50
90.0
  0
ENDBLK
  5
7FB
  8
0
  0
ENDSEC
  0
SECTION
  2
ENTITIES
  0
INSERT
  5
32F
  8
LSTS
  2
A$C0753081A
 10
1059.71223621483
 20
690.88257906702972
 30
0.0
  0
INSERT
  5
3B5
  8
LSTS
  2
A$C3EC50EC6
 10
1918.071237423555
 20
690.8825793171851
 30
0.0
  0
DIMENSION
  5
3B9
  8
0
  2
*D4
 10
1017.251886926358
 20
947.44170204063676
 30
0.0
 11
1010.376886926358
 21
967.44170204063676
 31
0.0
 70
     0
 13
1184.712236869108
 23
987.44170204063676
 33
0.0
 14
1184.712236869108
 24
947.44170204063676
 34
0.0
 50
90.0
1001
ACAD
1000
DSTYLE
1002
{
1070
   140
1040
12.5
1002
}
  0
DIMENSION
  5
3D2
  8
0
  2
*D5
 10
983.98738435938685
 20
927.44170204063676
 30
0.0
 11
977.11238435938674
 21
967.44170204063676
 31
0.0
 70
     0
 13
1064.712236869108
 23
1007.441702040637
 33
0.0
 14
1064.712236869108
 24
927.44170204063676
 34
0.0
 50
90.0
1001
ACAD
1000
DSTYLE
1002
{
1070
   140
1040
12.5
1002
}
  0
DIMENSION
  5
3EA
  8
0
  2
*D6
 10
1835.674273818554
 20
942.44170204063664
 30
0.0
 11
1828.799273818553
 21
967.44170204063687
 31
0.0
 70
     0
 13
1784.212236869108
 23
992.44170204063676
 33
0.0
 14
1784.212236869108
 24
942.44170204063676
 34
0.0
 50
90.0
1001
ACAD
1000
DSTYLE
1002
{
1070
   140
1040
12.5
1002
}
  0
DIMENSION
  5
402
  8
0
  2
*D7
 10
1664.712236869108
 20
1040.45509114882
 30
0.0
 11
1424.712236869108
 21
1040.45509114882
 31
0.0
 70
   128
  1
L4
 13
1184.712236869108
 23
987.44170204063676
 33
0.0
 14
1664.712236869108
 24
987.44170204063676
 34
0.0
1001
ACAD
1000
DSTYLE
1002
{
1070
   140
1040
12.5
1002
}
  0
DIMENSION
  5
41A
  8
0
  2
*D8
 10
1764.712236869108
 20
1064.7851542618
 30
0.0
 11
1424.712236869108
 21
1064.7851542618
 31
0.0
 70
   128
  1
L3
 13
1084.712236869108
 23
1006.441702040636
 33
0.0
 14
1764.712236869108
 24
1004.441702040637
 34
0.0
1001
ACAD
1000
DSTYLE
1002
{
1070
   140
1040
12.5
1002
}
  0
DIMENSION
  5
44D
  8
0
  2
*D9
 10
1789.712236869108
 20
1094.2725692104091
 30
0.0
 11
1424.712236869108
 21
1101.1475692104091
 31
0.0
 70
     0
  1
L1
 13
1059.712236869108
 23
1002.441702040637
 33
0.0
 14
1789.712236869108
 24
1002.441702040637
 34
0.0
1001
ACAD
1000
DSTYLE
1002
{
1070
   140
1040
12.5
1002
}
  0
DIMENSION
  5
465
  8
0
  2
*D10
 10
1779.712236869108
 20
890.6708731659113
 30
0.0
 11
1424.712236869108
 21
897.5458731659113
 31
0.0
 70
     0
  1
L2
 13
1069.712236869108
 23
937.94170204063676
 33
0.0
 14
1779.712236869108
 24
937.94170204063676
 34
0.0
1001
ACAD
1000
DSTYLE
1002
{
1070
   140
1040
12.5
1002
}
  0
DIMENSION
  5
4A1
  8
0
  2
*D11
 10
1030.2601442180819
 20
693.18258071016521
 30
0.0
 11
1023.385144218082
 21
725.68258071016544
 31
0.0
 70
     0
 13
1084.712236869108
 23
758.18258071016533
 33
0.0
 14
1059.712236869108
 24
693.18258071016521
 34
0.0
 50
90.0
1001
ACAD
1000
DSTYLE
1002
{
1070
   140
1040
12.5
1002
}
  0
DIMENSION
  5
4B9
  8
0
  2
*D12
 10
1030.2601442180819
 20
690.88258071016514
 30
0.0
 11
1022.343477551415
 21
671.71591404349874
 31
0.0
 70
     0
 13
1059.712236869108
 23
693.18258071016521
 33
0.0
 14
1059.712236869108
 24
690.88258071016514
 34
0.0
 50
90.0
1001
ACAD
1000
DSTYLE
1002
{
1070
   140
1040
12.5
1002
}
  0
INSERT
  5
510
  8
LSTS
  2
*U15
 10
0.0
 20
0.0
 30
0.0
1001
ACAD_MLEADERVER
1070
     2
  0
INSERT
  5
60A
  8
LSTS
  2
A$C2D8C2D46
 10
1059.087236836416
 20
927.44170122776836
 30
0.0
  0
ENDSEC
  0
EOF
