  0
SECTION
  2
HEADER
  9
$ACADVER
  1
AC1009
  9
$INSBASE
 10
0.0
 20
0.0
 30
0.0
  9
$EXTMIN
 10
1330.7777363508719
 20
623.60811513538499
 30
-0.0000000349181948
  9
$EXTMAX
 10
1473.052816540396
 20
693.97090641381556
 30
0.0000000814935746
  9
$LIMMIN
 10
0.0
 20
0.0
  9
$LIMMAX
 10
420.0
 20
297.0
  9
$ORTHOMODE
 70
     1
  9
$REGENMODE
 70
     1
  9
$FILLMODE
 70
     1
  9
$QTEXTMODE
 70
     0
  9
$MIRRTEXT
 70
     0
  9
$DRAGMODE
 70
     2
  9
$LTSCALE
 40
1.0
  9
$OSMODE
 70
   695
  9
$ATTMODE
 70
     1
  9
$TEXTSIZE
 40
2.5
  9
$TRACEWID
 40
1.0
  9
$TEXTSTYLE
  7
STANDARD
  9
$CLAYER
  8
LSC-SN1
  9
$CELTYPE
  6
BYLAYER
  9
$CECOLOR
 62
   256
  9
$DIMSCALE
 40
1.0
  9
$DIMASZ
 40
2.5
  9
$DIMEXO
 40
0.625
  9
$DIMDLI
 40
3.75
  9
$DIMRND
 40
0.0
  9
$DIMDLE
 40
0.0
  9
$DIMEXE
 40
1.25
  9
$DIMTP
 40
0.0
  9
$DIMTM
 40
0.0
  9
$DIMTXT
 40
2.5
  9
$DIMCEN
 40
2.5
  9
$DIMTSZ
 40
0.0
  9
$DIMTOL
 70
     0
  9
$DIMLIM
 70
     0
  9
$DIMTIH
 70
     0
  9
$DIMTOH
 70
     0
  9
$DIMSE1
 70
     0
  9
$DIMSE2
 70
     0
  9
$DIMTAD
 70
     1
  9
$DIMZIN
 70
     8
  9
$DIMBLK
  1

  9
$DIMASO
 70
     1
  9
$DIMSHO
 70
     1
  9
$DIMPOST
  1

  9
$DIMAPOST
  1

  9
$DIMALT
 70
     0
  9
$DIMALTD
 70
     3
  9
$DIMALTF
 40
0.03937007874016
  9
$DIMLFAC
 40
1.0
  9
$DIMTOFL
 70
     1
  9
$DIMTVP
 40
0.0
  9
$DIMTIX
 70
     0
  9
$DIMSOXD
 70
     0
  9
$DIMSAH
 70
     0
  9
$DIMBLK1
  1

  9
$DIMBLK2
  1

  9
$DIMSTYLE
  2
ISO-25
  9
$DIMCLRD
 70
     0
  9
$DIMCLRE
 70
     0
  9
$DIMCLRT
 70
     0
  9
$DIMTFAC
 40
1.0
  9
$DIMGAP
 40
0.625
  9
$LUNITS
 70
     2
  9
$LUPREC
 70
     4
  9
$SKETCHINC
 40
1.0
  9
$FILLETRAD
 40
0.0
  9
$AUNITS
 70
     0
  9
$AUPREC
 70
     0
  9
$MENU
  1
.
  9
$ELEVATION
 40
0.0
  9
$PELEVATION
 40
0.0
  9
$THICKNESS
 40
0.0
  9
$LIMCHECK
 70
     0
  9
$BLIPMODE
 70
     0
  9
$CHAMFERA
 40
0.0
  9
$CHAMFERB
 40
0.0
  9
$SKPOLY
 70
     0
  9
$TDCREATE
 40
2456564.6452667359
  9
$TDUPDATE
 40
2456564.6516069788
  9
$TDINDWG
 40
0.0063469329
  9
$TDUSRTIMER
 40
0.0063467593
  9
$USRTIMER
 70
     1
  9
$ANGBASE
 50
0.0
  9
$ANGDIR
 70
     0
  9
$PDMODE
 70
     0
  9
$PDSIZE
 40
0.0
  9
$PLINEWID
 40
0.0
  9
$COORDS
 70
     1
  9
$SPLFRAME
 70
     0
  9
$SPLINETYPE
 70
     6
  9
$SPLINESEGS
 70
     8
  9
$ATTDIA
 70
     0
  9
$ATTREQ
 70
     1
  9
$HANDLING
 70
     1
  9
$HANDSEED
  5
487
  9
$SURFTAB1
 70
     6
  9
$SURFTAB2
 70
     6
  9
$SURFTYPE
 70
     6
  9
$SURFU
 70
     6
  9
$SURFV
 70
     6
  9
$UCSNAME
  2

  9
$UCSORG
 10
0.0
 20
0.0
 30
0.0
  9
$UCSXDIR
 10
1.0
 20
0.0
 30
0.0
  9
$UCSYDIR
 10
0.0
 20
1.0
 30
0.0
  9
$PUCSNAME
  2

  9
$PUCSORG
 10
0.0
 20
0.0
 30
0.0
  9
$PUCSXDIR
 10
1.0
 20
0.0
 30
0.0
  9
$PUCSYDIR
 10
0.0
 20
1.0
 30
0.0
  9
$USERI1
 70
     0
  9
$USERI2
 70
     0
  9
$USERI3
 70
     0
  9
$USERI4
 70
     0
  9
$USERI5
 70
     0
  9
$USERR1
 40
0.0
  9
$USERR2
 40
0.0
  9
$USERR3
 40
0.0
  9
$USERR4
 40
0.0
  9
$USERR5
 40
0.0
  9
$WORLDVIEW
 70
     1
  9
$SHADEDGE
 70
     3
  9
$SHADEDIF
 70
    70
  9
$TILEMODE
 70
     1
  9
$MAXACTVP
 70
    64
  9
$PLIMCHECK
 70
     0
  9
$PEXTMIN
 10
0.0
 20
0.0
 30
0.0
  9
$PEXTMAX
 10
0.0
 20
0.0
 30
0.0
  9
$PLIMMIN
 10
0.0
 20
0.0
  9
$PLIMMAX
 10
12.0
 20
9.0
  9
$UNITMODE
 70
     0
  9
$VISRETAIN
 70
     1
  9
$PLINEGEN
 70
     0
  9
$PSLTSCALE
 70
     1
  0
ENDSEC
  0
SECTION
  2
TABLES
  0
TABLE
  2
VPORT
 70
     1
  0
VPORT
  2
*ACTIVE
 70
     0
 10
0.0
 20
0.0
 11
1.0
 21
1.0
 12
1401.9152764456339
 22
658.78951077460033
 13
0.0
 23
0.0
 14
10.0
 24
10.0
 15
10.0
 25
10.0
 16
0.0
 26
0.0
 36
1.0
 17
0.0
 27
0.0
 37
0.0
 40
89.059355602435218
 41
1.6058906030855531
 42
50.0
 43
0.0
 44
0.0
 50
0.0
 51
0.0
 71
     0
 72
  1000
 73
     1
 74
     3
 75
     0
 76
     0
 77
     0
 78
     0
  0
ENDTAB
  0
TABLE
  2
LTYPE
 70
     1
  0
LTYPE
  2
CONTINUOUS
 70
     0
  3
Solid line
 72
    65
 73
     0
 40
0.0
  0
ENDTAB
  0
TABLE
  2
LAYER
 70
     3
  0
LAYER
  2
0
 70
     0
 62
     7
  6
CONTINUOUS
  0
LAYER
  2
LSC-SN1
 70
     0
 62
     7
  6
CONTINUOUS
  0
LAYER
  2
DEFPOINTS
 70
     0
 62
     7
  6
CONTINUOUS
  0
ENDTAB
  0
TABLE
  2
STYLE
 70
     2
  0
STYLE
  2
STANDARD
 70
     0
 40
0.0
 41
1.0
 50
0.0
 71
     0
 42
2.5
  3
txt
  4
extfont2.shx
  0
ENDTAB
  0
TABLE
  2
VIEW
 70
     0
  0
ENDTAB
  0
TABLE
  2
UCS
 70
     0
  0
ENDTAB
  0
TABLE
  2
APPID
 70
    11
  0
APPID
  2
ACAD
 70
     0
  0
APPID
  2
ACAD_PSEXT
 70
     0
  0
APPID
  2
ACADANNOPO
 70
     0
  0
APPID
  2
ACADANNOTATIVE
 70
     0
  0
APPID
  2
ACAD_DSTYLE_DIMJAG
 70
     0
  0
APPID
  2
ACAD_DSTYLE_DIMTALN
 70
     0
  0
APPID
  2
ACAD_MLEADERVER
 70
     0
  0
APPID
  2
ACAD_DSTYLE_DIMBREAK
 70
     0
  0
APPID
  2
ACAD_DSTYLE_DIMTEXT_FILL
 70
     0
  0
APPID
  2
ACAECLAYERSTANDARD
 70
     0
  0
APPID
  2
ACAD_EXEMPT_FROM_CAD_STANDARDS
 70
     0
  0
ENDTAB
  0
TABLE
  2
DIMSTYLE
 70
     7
  0
DIMSTYLE
  2
ISO-25
 70
     0
  3

  4

  5

  6

  7

 40
1.0
 41
2.5
 42
0.625
 43
3.75
 44
1.25
 45
0.0
 46
0.0
 47
0.0
 48
0.0
140
2.5
141
2.5
142
0.0
143
0.03937007874016
144
1.0
145
0.0
146
1.0
147
0.625
 71
     0
 72
     0
 73
     0
 74
     0
 75
     0
 76
     0
 77
     1
 78
     8
170
     0
171
     3
172
     1
173
     0
174
     0
175
     0
176
     0
177
     0
178
     0
  0
ENDTAB
  0
ENDSEC
  0
SECTION
  2
BLOCKS
  0
BLOCK
  8
0
  2
$MODEL_SPACE
 70
     0
 10
0.0
 20
0.0
 30
0.0
  3
$MODEL_SPACE
  1

  0
ENDBLK
  5
21
  8
0
  0
BLOCK
 67
     1
  8
0
  2
$PAPER_SPACE
 70
     0
 10
0.0
 20
0.0
 30
0.0
  3
$PAPER_SPACE
  1

  0
ENDBLK
  5
D5
 67
     1
  8
0
  0
BLOCK
  8
0
  2
*D2
 70
     1
 10
0.0
 20
0.0
 30
0.0
  3
*D2
  1

  0
LINE
  5
3F8
  8
0
 62
     0
 10
1359.803536219943
 20
671.8367123481446
 30
0.0
 11
1348.3575591260151
 21
671.8367123481446
 31
0.0
  0
LINE
  5
3F9
  8
0
 62
     0
 10
1359.80353665863
 20
656.83671234814449
 30
0.0
 11
1348.3575591260151
 21
656.83671234814449
 31
0.0
  0
LINE
  5
3FA
  8
0
 62
     0
 10
1349.607559126016
 20
669.33671234814449
 30
0.0
 11
1349.607559126016
 21
659.3367123481446
 31
0.0
  0
SOLID
  5
3FB
  8
0
 62
     0
 10
1349.190892459349
 20
669.33671234814449
 30
0.0
 11
1350.024225792682
 21
669.33671234814449
 31
0.0
 12
1349.607559126016
 22
671.8367123481446
 32
0.0
 13
1349.607559126016
 23
671.8367123481446
 33
0.0
  0
SOLID
  5
3FC
  8
0
 62
     0
 10
1349.190892459349
 20
659.3367123481446
 30
0.0
 11
1350.024225792682
 21
659.3367123481446
 31
0.0
 12
1349.607559126016
 22
656.83671234814449
 32
0.0
 13
1349.607559126016
 23
656.83671234814449
 33
0.0
  0
INSERT
  5
3FD
  8
LSC-SN1
  2
*U21
 10
0.0
 20
0.0
 30
0.0
  0
POINT
  5
3FE
  8
DEFPOINTS
 62
     0
 10
1360.428536219943
 20
671.8367123481446
 30
0.0
  0
POINT
  5
3FF
  8
DEFPOINTS
 62
     0
 10
1360.4285366586289
 20
656.83671234814449
 30
0.0
  0
POINT
  5
400
  8
DEFPOINTS
 62
     0
 10
1349.607559126016
 20
656.83671234814449
 30
0.0
  0
ENDBLK
  5
27E
  8
0
  0
BLOCK
  8
0
  2
*D3
 70
     1
 10
0.0
 20
0.0
 30
0.0
  3
*D3
  1

  0
LINE
  5
401
  8
0
 62
     0
 10
1359.80353665863
 20
656.83671234814449
 30
0.0
 11
1348.3575591260151
 21
656.83671234814449
 31
0.0
  0
LINE
  5
402
  8
0
 62
     0
 10
1359.80353665863
 20
641.8367123481446
 30
0.0
 11
1348.3575591260151
 21
641.8367123481446
 31
0.0
  0
LINE
  5
403
  8
0
 62
     0
 10
1349.607559126016
 20
654.3367123481446
 30
0.0
 11
1349.607559126016
 21
644.33671234814449
 31
0.0
  0
SOLID
  5
404
  8
0
 62
     0
 10
1349.190892459349
 20
654.3367123481446
 30
0.0
 11
1350.024225792682
 21
654.3367123481446
 31
0.0
 12
1349.607559126016
 22
656.83671234814449
 32
0.0
 13
1349.607559126016
 23
656.83671234814449
 33
0.0
  0
SOLID
  5
405
  8
0
 62
     0
 10
1349.190892459349
 20
644.33671234814449
 30
0.0
 11
1350.024225792682
 21
644.33671234814449
 31
0.0
 12
1349.607559126016
 22
641.8367123481446
 32
0.0
 13
1349.607559126016
 23
641.8367123481446
 33
0.0
  0
INSERT
  5
406
  8
LSC-SN1
  2
*U22
 10
0.0
 20
0.0
 30
0.0
  0
POINT
  5
407
  8
DEFPOINTS
 62
     0
 10
1360.4285366586289
 20
656.83671234814449
 30
0.0
  0
POINT
  5
408
  8
DEFPOINTS
 62
     0
 10
1360.4285366586289
 20
641.8367123481446
 30
0.0
  0
POINT
  5
409
  8
DEFPOINTS
 62
     0
 10
1349.607559126016
 20
641.8367123481446
 30
0.0
  0
ENDBLK
  5
296
  8
0
  0
BLOCK
  8
0
  2
*D4
 70
     1
 10
0.0
 20
0.0
 30
0.0
  3
*D4
  1

  0
LINE
  5
3DB
  8
0
 62
     0
 10
1359.80353665863
 20
676.83671234814449
 30
0.0
 11
1341.240454437595
 21
676.83671234814449
 31
0.0
  0
LINE
  5
3DC
  8
0
 62
     0
 10
1359.80353665863
 20
636.8367123481446
 30
0.0
 11
1341.240454437595
 21
636.8367123481446
 31
0.0
  0
LINE
  5
3DD
  8
0
 62
     0
 10
1342.490454437595
 20
674.3367123481446
 30
0.0
 11
1342.490454437595
 21
639.33671234814449
 31
0.0
  0
SOLID
  5
3DE
  8
0
 62
     0
 10
1342.073787770928
 20
674.3367123481446
 30
0.0
 11
1342.9071211042619
 21
674.3367123481446
 31
0.0
 12
1342.490454437595
 22
676.83671234814449
 32
0.0
 13
1342.490454437595
 23
676.83671234814449
 33
0.0
  0
SOLID
  5
3DF
  8
0
 62
     0
 10
1342.073787770928
 20
639.33671234814449
 30
0.0
 11
1342.9071211042619
 21
639.33671234814449
 31
0.0
 12
1342.490454437595
 22
636.8367123481446
 32
0.0
 13
1342.490454437595
 23
636.8367123481446
 33
0.0
  0
INSERT
  5
3E0
  8
LSC-SN1
  2
*U18
 10
0.0
 20
0.0
 30
0.0
  0
POINT
  5
3E1
  8
DEFPOINTS
 62
     0
 10
1360.4285366586289
 20
676.83671234814449
 30
0.0
  0
POINT
  5
3E2
  8
DEFPOINTS
 62
     0
 10
1360.4285366586289
 20
636.8367123481446
 30
0.0
  0
POINT
  5
3E3
  8
DEFPOINTS
 62
     0
 10
1342.490454437595
 20
636.8367123481446
 30
0.0
  0
ENDBLK
  5
2AE
  8
0
  0
BLOCK
  8
0
  2
*D5
 70
     1
 10
0.0
 20
0.0
 30
0.0
  3
*D5
  1

  0
LINE
  5
3E4
  8
0
 62
     0
 10
1360.4285366586289
 20
677.4617123481446
 30
0.0
 11
1360.4285366586289
 21
684.8418056647148
 31
0.0
  0
LINE
  5
3E5
  8
0
 62
     0
 10
1365.4285366586289
 20
677.4617123481446
 30
0.0
 11
1365.4285366586289
 21
684.8418056647148
 31
0.0
  0
LINE
  5
3E6
  8
0
 62
     0
 10
1357.92853665863
 20
683.59180566471491
 30
0.0
 11
1355.4285366586289
 21
683.59180566471491
 31
0.0
  0
LINE
  5
3E7
  8
0
 62
     0
 10
1367.9285366586289
 20
683.59180566471491
 30
0.0
 11
1370.4285366586289
 21
683.59180566471491
 31
0.0
  0
LINE
  5
3E8
  8
0
 62
     0
 10
1360.4285366586289
 20
683.59180566471491
 30
0.0
 11
1365.4285366586289
 21
683.59180566471491
 31
0.0
  0
SOLID
  5
3E9
  8
0
 62
     0
 10
1357.92853665863
 20
684.00847233138154
 30
0.0
 11
1357.92853665863
 21
683.17513899804828
 31
0.0
 12
1360.4285366586289
 22
683.59180566471491
 32
0.0
 13
1360.4285366586289
 23
683.59180566471491
 33
0.0
  0
SOLID
  5
3EA
  8
0
 62
     0
 10
1367.9285366586289
 20
684.00847233138154
 30
0.0
 11
1367.9285366586289
 21
683.17513899804828
 31
0.0
 12
1365.4285366586289
 22
683.59180566471491
 32
0.0
 13
1365.4285366586289
 23
683.59180566471491
 33
0.0
  0
INSERT
  5
3EB
  8
LSC-SN1
  2
*U19
 10
0.0
 20
0.0
 30
0.0
  0
POINT
  5
3EC
  8
DEFPOINTS
 62
     0
 10
1360.4285366586289
 20
676.83671234814449
 30
0.0
  0
POINT
  5
3ED
  8
DEFPOINTS
 62
     0
 10
1365.4285366586289
 20
676.83671234814449
 30
0.0
  0
POINT
  5
3EE
  8
DEFPOINTS
 62
     0
 10
1365.4285366586289
 20
683.59180566471491
 30
0.0
  0
ENDBLK
  5
2C6
  8
0
  0
BLOCK
  8
0
  2
*D6
 70
     1
 10
0.0
 20
0.0
 30
0.0
  3
*D6
  1

  0
LINE
  5
3EF
  8
0
 62
     0
 10
1360.4285366586289
 20
677.4617123481446
 30
0.0
 11
1360.4285366586289
 21
691.65042458423375
 31
0.0
  0
LINE
  5
3F0
  8
0
 62
     0
 10
1390.4285366586289
 20
677.4617123481446
 30
0.0
 11
1390.4285366586289
 21
691.65042458423375
 31
0.0
  0
LINE
  5
3F1
  8
0
 62
     0
 10
1362.9285366586289
 20
690.40042458423375
 30
0.0
 11
1387.92853665863
 21
690.40042458423375
 31
0.0
  0
SOLID
  5
3F2
  8
0
 62
     0
 10
1362.9285366586289
 20
690.81709125090026
 30
0.0
 11
1362.9285366586289
 21
689.98375791756712
 31
0.0
 12
1360.4285366586289
 22
690.40042458423375
 32
0.0
 13
1360.4285366586289
 23
690.40042458423375
 33
0.0
  0
SOLID
  5
3F3
  8
0
 62
     0
 10
1387.92853665863
 20
690.81709125090026
 30
0.0
 11
1387.92853665863
 21
689.98375791756712
 31
0.0
 12
1390.4285366586289
 22
690.40042458423375
 32
0.0
 13
1390.4285366586289
 23
690.40042458423375
 33
0.0
  0
INSERT
  5
3F4
  8
LSC-SN1
  2
*U20
 10
0.0
 20
0.0
 30
0.0
  0
POINT
  5
3F5
  8
DEFPOINTS
 62
     0
 10
1360.4285366586289
 20
676.83671234814449
 30
0.0
  0
POINT
  5
3F6
  8
DEFPOINTS
 62
     0
 10
1390.4285366586289
 20
676.83671234814449
 30
0.0
  0
POINT
  5
3F7
  8
DEFPOINTS
 62
     0
 10
1390.4285366586289
 20
690.40042458423375
 30
0.0
  0
ENDBLK
  5
2E2
  8
0
  0
BLOCK
  8
0
  2
*D7
 70
     1
 10
0.0
 20
0.0
 30
0.0
  3
*D7
  1

  0
LINE
  5
39D
  8
0
 62
     0
 10
1403.4285366586289
 20
667.2117123481446
 30
0.0
 11
1403.4285366586289
 21
646.77254061635244
 31
0.0
  0
LINE
  5
39E
  8
0
 62
     0
 10
1406.4285366586289
 20
652.2117123481446
 30
0.0
 11
1406.4285366586289
 21
646.77254061635244
 31
0.0
  0
LINE
  5
39F
  8
0
 62
     0
 10
1400.9285366586289
 20
648.02254061635244
 30
0.0
 11
1398.4285366586289
 21
648.02254061635244
 31
0.0
  0
LINE
  5
3A0
  8
0
 62
     0
 10
1408.9285366586289
 20
648.02254061635244
 30
0.0
 11
1411.4285366586289
 21
648.02254061635244
 31
0.0
  0
LINE
  5
3A1
  8
0
 62
     0
 10
1403.4285366586289
 20
648.02254061635244
 30
0.0
 11
1406.4285366586289
 21
648.02254061635244
 31
0.0
  0
SOLID
  5
3A2
  8
0
 62
     0
 10
1400.9285366586289
 20
648.43920728301896
 30
0.0
 11
1400.9285366586289
 21
647.60587394968582
 31
0.0
 12
1403.4285366586289
 22
648.02254061635244
 32
0.0
 13
1403.4285366586289
 23
648.02254061635244
 33
0.0
  0
SOLID
  5
3A3
  8
0
 62
     0
 10
1408.9285366586289
 20
648.43920728301896
 30
0.0
 11
1408.9285366586289
 21
647.60587394968582
 31
0.0
 12
1406.4285366586289
 22
648.02254061635244
 32
0.0
 13
1406.4285366586289
 23
648.02254061635244
 33
0.0
  0
INSERT
  5
3A4
  8
LSC-SN1
  2
*U16
 10
0.0
 20
0.0
 30
0.0
  0
POINT
  5
3A5
  8
DEFPOINTS
 62
     0
 10
1403.4285366586289
 20
667.8367123481446
 30
0.0
  0
POINT
  5
3A6
  8
DEFPOINTS
 62
     0
 10
1406.4285366586289
 20
652.83671234814449
 30
0.0
  0
POINT
  5
3A7
  8
DEFPOINTS
 62
     0
 10
1406.4285366586289
 20
648.02254061635244
 30
0.0
  0
ENDBLK
  5
2FA
  8
0
  0
BLOCK
  8
0
  2
*D8
 70
     1
 10
0.0
 20
0.0
 30
0.0
  3
*D8
  1

  0
LINE
  5
394
  8
0
 62
     0
 10
1403.4285366586289
 20
675.4617123481446
 30
0.0
 11
1403.4285366586289
 21
691.65042458423375
 31
0.0
  0
LINE
  5
395
  8
0
 62
     0
 10
1420.9285366586289
 20
675.4617123481446
 30
0.0
 11
1420.9285366586289
 21
691.65042458423375
 31
0.0
  0
LINE
  5
396
  8
0
 62
     0
 10
1405.92853665863
 20
690.40042458423375
 30
0.0
 11
1418.42853665863
 21
690.40042458423375
 31
0.0
  0
SOLID
  5
397
  8
0
 62
     0
 10
1405.92853665863
 20
690.81709125090026
 30
0.0
 11
1405.92853665863
 21
689.98375791756712
 31
0.0
 12
1403.4285366586289
 22
690.40042458423375
 32
0.0
 13
1403.4285366586289
 23
690.40042458423375
 33
0.0
  0
SOLID
  5
398
  8
0
 62
     0
 10
1418.42853665863
 20
690.81709125090026
 30
0.0
 11
1418.42853665863
 21
689.98375791756712
 31
0.0
 12
1420.9285366586289
 22
690.40042458423375
 32
0.0
 13
1420.9285366586289
 23
690.40042458423375
 33
0.0
  0
INSERT
  5
399
  8
LSC-SN1
  2
*U15
 10
0.0
 20
0.0
 30
0.0
  0
POINT
  5
39A
  8
DEFPOINTS
 62
     0
 10
1403.4285366586289
 20
674.8367123481446
 30
0.0
  0
POINT
  5
39B
  8
DEFPOINTS
 62
     0
 10
1420.9285366586289
 20
674.8367123481446
 30
0.0
  0
POINT
  5
39C
  8
DEFPOINTS
 62
     0
 10
1420.9285366586289
 20
690.40042458423375
 30
0.0
  0
ENDBLK
  5
316
  8
0
  0
BLOCK
  8
0
  2
*D9
 70
     1
 10
0.0
 20
0.0
 30
0.0
  3
*D9
  1

  0
LINE
  5
3A8
  8
0
 62
     0
 10
1403.4285366586289
 20
675.4617123481446
 30
0.0
 11
1403.4285366586289
 21
684.806068466189
 31
0.0
  0
LINE
  5
3A9
  8
0
 62
     0
 10
1413.4285366586289
 20
677.4617123481446
 30
0.0
 11
1413.4285366586289
 21
684.806068466189
 31
0.0
  0
LINE
  5
3AA
  8
0
 62
     0
 10
1405.92853665863
 20
683.55606846618912
 30
0.0
 11
1410.9285366586289
 21
683.55606846618912
 31
0.0
  0
SOLID
  5
3AB
  8
0
 62
     0
 10
1405.92853665863
 20
683.97273513285575
 30
0.0
 11
1405.92853665863
 21
683.13940179952249
 31
0.0
 12
1403.4285366586289
 22
683.55606846618912
 32
0.0
 13
1403.4285366586289
 23
683.55606846618912
 33
0.0
  0
SOLID
  5
3AC
  8
0
 62
     0
 10
1410.9285366586289
 20
683.97273513285575
 30
0.0
 11
1410.9285366586289
 21
683.13940179952249
 31
0.0
 12
1413.4285366586289
 22
683.55606846618912
 32
0.0
 13
1413.4285366586289
 23
683.55606846618912
 33
0.0
  0
INSERT
  5
3AD
  8
LSC-SN1
  2
*U17
 10
0.0
 20
0.0
 30
0.0
  0
POINT
  5
3AE
  8
DEFPOINTS
 62
     0
 10
1403.4285366586289
 20
674.8367123481446
 30
0.0
  0
POINT
  5
3AF
  8
DEFPOINTS
 62
     0
 10
1413.4285366586289
 20
676.83671234814449
 30
0.0
  0
POINT
  5
3B0
  8
DEFPOINTS
 62
     0
 10
1413.4285366586289
 20
683.55606846618912
 30
0.0
  0
ENDBLK
  5
33F
  8
0
  0
BLOCK
  8
0
  2
A$C037B3809
 70
     0
 10
0.0
 20
0.0
 30
0.0
  3
A$C037B3809
  1

  0
LINE
  5
35E
  8
LSC-SN1
 10
12.99999994172458
 20
39.999999962903871
 30
0.0
 11
12.99999994172458
 21
-0.0000000370961288
 31
0.0
  0
LINE
  5
35F
  8
LSC-SN1
 10
12.99999994172458
 20
-0.0000000370961288
 30
0.0
 11
11.49999994172458
 21
-0.0000000370961288
 31
0.0
  0
LINE
  5
360
  8
LSC-SN1
 10
11.49999994172458
 20
-0.0000000370961288
 30
0.0
 11
11.49999994172458
 21
39.999999962903871
 31
0.0
  0
LINE
  5
361
  8
LSC-SN1
 10
11.49999994172458
 20
39.999999962903871
 30
0.0
 11
12.99999994172458
 21
39.999999962903871
 31
0.0
  0
LINE
  5
362
  8
LSC-SN1
 10
11.49999994172458
 20
8.4999999629038712
 30
0.0
 11
11.49999994172458
 21
1.4999999629038709
 31
0.0
  0
LINE
  5
363
  8
LSC-SN1
 10
11.49999994172458
 20
1.4999999629038709
 30
0.0
 11
1.4999999417245811
 21
1.4999999629038709
 31
0.0
  0
LINE
  5
364
  8
LSC-SN1
 10
1.4999999417245811
 20
1.4999999629038709
 30
0.0
 11
1.4999999417245811
 21
8.4999999629038712
 31
0.0
  0
LINE
  5
365
  8
LSC-SN1
 10
1.4999999417245811
 20
8.4999999629038712
 30
0.0
 11
11.49999994172458
 21
8.4999999629038712
 31
0.0
  0
LINE
  5
366
  8
LSC-SN1
 10
11.49999994172458
 20
37.999999962903871
 30
0.0
 11
11.49999994172458
 21
30.999999962903871
 31
0.0
  0
LINE
  5
367
  8
LSC-SN1
 10
11.49999994172458
 20
30.999999962903871
 30
0.0
 11
1.4999999417245811
 21
30.999999962903871
 31
0.0
  0
LINE
  5
368
  8
LSC-SN1
 10
1.4999999417245811
 20
30.999999962903871
 30
0.0
 11
1.4999999417245811
 21
37.999999962903871
 31
0.0
  0
LINE
  5
369
  8
LSC-SN1
 10
1.4999999417245811
 20
37.999999962903871
 30
0.0
 11
11.49999994172458
 21
37.999999962903871
 31
0.0
  0
LINE
  5
36A
  8
LSC-SN1
 10
15.49999994172458
 20
37.999999962903871
 30
0.0
 11
15.49999994172458
 21
30.999999962903871
 31
0.0
  0
LINE
  5
36B
  8
LSC-SN1
 10
15.49999994172458
 20
30.999999962903871
 30
0.0
 11
12.99999994172458
 21
30.999999962903871
 31
0.0
  0
LINE
  5
36C
  8
LSC-SN1
 10
12.99999994172458
 20
30.999999962903871
 30
0.0
 11
12.99999994172458
 21
37.999999962903871
 31
0.0
  0
LINE
  5
36D
  8
LSC-SN1
 10
12.99999994172458
 20
37.999999962903871
 30
0.0
 11
15.49999994172458
 21
37.999999962903871
 31
0.0
  0
LINE
  5
36E
  8
LSC-SN1
 10
15.49999994172458
 20
8.4999999629038712
 30
0.0
 11
15.49999994172458
 21
1.4999999629038709
 31
0.0
  0
LINE
  5
36F
  8
LSC-SN1
 10
15.49999994172458
 20
1.4999999629038709
 30
0.0
 11
12.99999994172458
 21
1.4999999629038709
 31
0.0
  0
LINE
  5
370
  8
LSC-SN1
 10
12.99999994172458
 20
1.4999999629038709
 30
0.0
 11
12.99999994172458
 21
8.4999999629038712
 31
0.0
  0
LINE
  5
371
  8
LSC-SN1
 10
12.99999994172458
 20
8.4999999629038712
 30
0.0
 11
15.49999994172458
 21
8.4999999629038712
 31
0.0
  0
LINE
  5
372
  8
LSC-SN1
 10
12.99999994172458
 20
13.499999962903869
 30
0.0
 11
12.99999994172458
 21
1.4999999629038709
 31
0.0
  0
LINE
  5
373
  8
LSC-SN1
 10
5.9999999417245808
 20
23.999999962903871
 30
0.0
 11
5.9999999417245808
 21
15.999999962903869
 31
0.0
  0
LINE
  5
374
  8
LSC-SN1
 10
5.9999999417245808
 20
15.999999962903869
 30
0.0
 11
4.4999999417245808
 21
15.999999962903869
 31
0.0
  0
LINE
  5
375
  8
LSC-SN1
 10
4.4999999417245808
 20
15.999999962903869
 30
0.0
 11
4.4999999417245808
 21
23.999999962903871
 31
0.0
  0
LINE
  5
376
  8
LSC-SN1
 10
4.4999999417245808
 20
23.999999962903871
 30
0.0
 11
5.9999999417245808
 21
23.999999962903871
 31
0.0
  0
LINE
  5
377
  8
LSC-SN1
 10
10.49999994172458
 20
23.999999962903871
 30
0.0
 11
10.49999994172458
 21
15.999999962903869
 31
0.0
  0
LINE
  5
378
  8
LSC-SN1
 10
10.49999994172458
 20
15.999999962903869
 30
0.0
 11
5.9999999417245808
 21
15.999999962903869
 31
0.0
  0
LINE
  5
379
  8
LSC-SN1
 10
5.9999999417245808
 20
15.999999962903869
 30
0.0
 11
5.9999999417245808
 21
23.999999962903871
 31
0.0
  0
LINE
  5
37A
  8
LSC-SN1
 10
5.9999999417245808
 20
23.999999962903871
 30
0.0
 11
10.49999994172458
 21
23.999999962903871
 31
0.0
  0
LINE
  5
37B
  8
LSC-SN1
 10
11.49999994172458
 20
22.999999962903871
 30
0.0
 11
11.49999994172458
 21
21.999999962903871
 31
0.0
  0
LINE
  5
37C
  8
LSC-SN1
 10
11.49999994172458
 20
21.999999962903871
 30
0.0
 11
10.49999994172458
 21
21.999999962903871
 31
0.0
  0
LINE
  5
37D
  8
LSC-SN1
 10
10.49999994172458
 20
22.999999962903871
 30
0.0
 11
11.49999994172458
 21
22.999999962903871
 31
0.0
  0
LINE
  5
37E
  8
LSC-SN1
 10
11.49999994172458
 20
17.999999962903871
 30
0.0
 11
11.49999994172458
 21
16.999999962903871
 31
0.0
  0
LINE
  5
37F
  8
LSC-SN1
 10
11.49999994172458
 20
16.999999962903871
 30
0.0
 11
10.49999994172458
 21
16.999999962903871
 31
0.0
  0
LINE
  5
380
  8
LSC-SN1
 10
10.49999994172458
 20
17.999999962903871
 30
0.0
 11
11.49999994172458
 21
17.999999962903871
 31
0.0
  0
LINE
  5
381
  8
LSC-SN1
 10
16.999999941724582
 20
34.499999962903871
 30
0.0
 11
-0.0000000582754183
 21
34.499999962903871
 31
0.0
  0
LINE
  5
382
  8
LSC-SN1
 10
16.999999941724582
 20
4.9999999629038712
 30
0.0
 11
-0.0000000582754183
 21
4.9999999629038712
 31
0.0
  0
LINE
  5
383
  8
LSC-SN1
 10
16.999999941724582
 20
34.999999962903871
 30
0.0
 11
16.999999941724582
 21
37.999999962903871
 31
0.0
  0
LINE
  5
384
  8
LSC-SN1
 10
16.999999941724582
 20
34.999999962903871
 30
0.0
 11
17.499999941724582
 21
34.999999962903871
 31
0.0
  0
LINE
  5
385
  8
LSC-SN1
 10
17.499999941724582
 20
34.999999962903871
 30
0.0
 11
17.999999941724582
 21
35.499999962903871
 31
0.0
  0
LINE
  5
386
  8
LSC-SN1
 10
17.999999941724582
 20
37.999999962903871
 30
0.0
 11
17.999999941724582
 21
35.499999962903871
 31
0.0
  0
LINE
  5
387
  8
LSC-SN1
 10
17.999999941724582
 20
37.999999962903871
 30
0.0
 11
18.999999941724582
 21
37.999999962903871
 31
0.0
  0
LINE
  5
388
  8
LSC-SN1
 10
15.69999994172462
 20
37.999999962903871
 30
0.0
 11
16.999999941724582
 21
37.999999962903871
 31
0.0
  0
LINE
  5
389
  8
LSC-SN1
 10
18.999999941724582
 20
30.999999962903871
 30
0.0
 11
18.999999941724582
 21
37.999999962903871
 31
0.0
  0
LINE
  5
38A
  8
LSC-SN1
 10
17.999999941724582
 20
30.999999962903871
 30
0.0
 11
14.99999994172458
 21
25.999999962903871
 31
0.0
  0
LINE
  5
38B
  8
LSC-SN1
 10
18.999999941724582
 20
30.999999962903871
 30
0.0
 11
17.999999941724582
 21
30.999999962903871
 31
0.0
  0
LINE
  5
38C
  8
LSC-SN1
 10
12.99999994172458
 20
25.999999962903871
 30
0.0
 11
14.99999994172458
 21
25.999999962903871
 31
0.0
  0
LINE
  5
38D
  8
LSC-SN1
 10
15.49999994172458
 20
32.499999962903871
 30
0.0
 11
1.4999999417245811
 21
32.499999962903871
 31
0.0
  0
LINE
  5
38E
  8
LSC-SN1
 10
15.49999994172458
 20
36.499999962903871
 30
0.0
 11
1.4999999417245811
 21
36.499999962903871
 31
0.0
  0
LINE
  5
38F
  8
LSC-SN1
 10
15.49999994172458
 20
2.9999999629038712
 30
0.0
 11
1.4999999417245811
 21
2.9999999629038712
 31
0.0
  0
LINE
  5
390
  8
LSC-SN1
 10
15.49999994172458
 20
6.9999999629038712
 30
0.0
 11
1.4999999417245811
 21
6.9999999629038712
 31
0.0
  0
ENDBLK
  5
392
  8
0
  0
BLOCK
  8
0
  2
A$C3140701C
 70
     0
 10
0.0
 20
0.0
 30
0.0
  3
A$C3140701C
  1

  0
CIRCLE
  5
3B2
  8
LSC-SN1
 10
4.99999998950193
 20
34.999999962903871
 30
0.0
 40
1.5
  0
CIRCLE
  5
3B3
  8
LSC-SN1
 10
4.99999998950193
 20
34.999999962903871
 30
0.0
 40
3.0
  0
CIRCLE
  5
3B4
  8
LSC-SN1
 10
4.99999998950193
 20
34.999999962903871
 30
0.0
 40
3.5
  0
LINE
  5
3B5
  8
LSC-SN1
 10
9.99999998950193
 20
34.999999962903871
 30
0.0
 11
-0.00000001049807
 21
34.999999962903871
 31
0.0
  0
LINE
  5
3B6
  8
LSC-SN1
 10
-0.00000001049807
 20
19.999999962903871
 30
0.0
 11
9.99999998950193
 21
19.999999962903871
 31
0.0
  0
CIRCLE
  5
3B7
  8
LSC-SN1
 10
4.99999998950193
 20
4.9999999629038712
 30
0.0
 40
3.5
  0
CIRCLE
  5
3B8
  8
LSC-SN1
 10
4.99999998950193
 20
4.9999999629038712
 30
0.0
 40
1.5
  0
CIRCLE
  5
3B9
  8
LSC-SN1
 10
4.99999998950193
 20
4.9999999629038712
 30
0.0
 40
3.0
  0
LINE
  5
3BA
  8
LSC-SN1
 10
9.99999998950193
 20
4.9999999629038712
 30
0.0
 11
-0.00000001049807
 21
4.9999999629038712
 31
0.0
  0
LINE
  5
3BB
  8
LSC-SN1
 10
4.99999998950193
 20
-0.0000000370961288
 30
0.0
 11
4.99999998950193
 21
12.509899962908429
 31
0.0
  0
LINE
  5
3BC
  8
LSC-SN1
 10
4.99999998950193
 20
12.999999962903869
 30
0.0
 11
4.99999998950193
 21
27.508599962904899
 31
0.0
  0
LINE
  5
3BD
  8
LSC-SN1
 10
4.99999998950193
 20
27.999999962903871
 30
0.0
 11
4.99999998950193
 21
39.999999962903871
 31
0.0
  0
LINE
  5
3BE
  8
LSC-SN1
 10
7.99999998950193
 20
22.645751273968472
 30
0.0
 11
7.99999998950193
 21
17.354248651839271
 31
0.0
  0
LINE
  5
3BF
  8
LSC-SN1
 10
1.99999998950193
 20
22.645751273968472
 30
0.0
 11
1.99999998950193
 21
17.354248651839271
 31
0.0
  0
ARC
  5
3C0
  8
LSC-SN1
 10
4.99999998950193
 20
19.999999962903871
 30
0.0
 40
4.0
 50
41.409622109269741
 51
138.5903778907302
  0
ARC
  5
3C1
  8
LSC-SN1
 10
4.99999998950193
 20
19.999999962903871
 30
0.0
 40
4.0
 50
221.40962210926969
 51
318.59037789073022
  0
CIRCLE
  5
3C2
  8
LSC-SN1
 10
4.99999998950193
 20
21.699999962915509
 30
0.0
 40
0.2
  0
CIRCLE
  5
3C3
  8
LSC-SN1
 10
4.99999998950193
 20
18.299999962906782
 30
0.0
 40
0.2
  0
LINE
  5
3C4
  8
LSC-SN1
 10
3.7999999895018841
 20
21.399999962912599
 30
0.0
 11
3.7999999895018841
 21
18.599999962909688
 31
0.0
  0
LINE
  5
3C5
  8
LSC-SN1
 10
3.7999999895018841
 20
18.599999962909688
 30
0.0
 11
6.1999999895019746
 21
18.599999962909688
 31
0.0
  0
LINE
  5
3C6
  8
LSC-SN1
 10
6.1999999895019746
 20
18.599999962909688
 30
0.0
 11
6.1999999895019746
 21
21.399999962912599
 31
0.0
  0
LINE
  5
3C7
  8
LSC-SN1
 10
6.1999999895019746
 20
21.399999962912599
 30
0.0
 11
3.7999999895018841
 21
21.399999962912599
 31
0.0
  0
LINE
  5
3C8
  8
LSC-SN1
 10
-0.00000001049807
 20
39.999999962903871
 30
0.0
 11
-0.00000001049807
 21
-0.0000000370961288
 31
0.0
  0
LINE
  5
3C9
  8
LSC-SN1
 10
-0.00000001049807
 20
-0.0000000370961288
 30
0.0
 11
29.99999998950193
 21
-0.0000000370961288
 31
0.0
  0
LINE
  5
3CA
  8
LSC-SN1
 10
29.99999998950193
 20
-0.0000000370961288
 30
0.0
 11
29.99999998950193
 21
39.999999962903871
 31
0.0
  0
LINE
  5
3CB
  8
LSC-SN1
 10
29.99999998950193
 20
39.999999962903871
 30
0.0
 11
-0.00000001049807
 21
39.999999962903871
 31
0.0
  0
LINE
  5
3CC
  8
LSC-SN1
 10
29.99999998950193
 20
39.999999962903871
 30
0.0
 11
29.99999998950193
 21
-0.0000000370961288
 31
0.0
  0
LINE
  5
3CD
  8
LSC-SN1
 10
29.99999998950193
 20
-0.0000000370961288
 30
0.0
 11
-0.00000001049807
 21
-0.0000000370961288
 31
0.0
  0
LINE
  5
3CE
  8
LSC-SN1
 10
-0.00000001049807
 20
-0.0000000370961288
 30
0.0
 11
-0.00000001049807
 21
39.999999962903871
 31
0.0
  0
LINE
  5
3CF
  8
LSC-SN1
 10
-0.00000001049807
 20
39.999999962903871
 30
0.0
 11
29.99999998950193
 21
39.999999962903871
 31
0.0
  0
LINE
  5
3D0
  8
LSC-SN1
 10
11.99999998950193
 20
38.499999962903871
 30
0.0
 11
11.99999998950193
 21
26.499999962903871
 31
0.0
  0
LINE
  5
3D1
  8
LSC-SN1
 10
12.99999998950193
 20
31.499999962903871
 30
0.0
 11
12.99999998950193
 21
26.499999962903871
 31
0.0
  0
LINE
  5
3D2
  8
LSC-SN1
 10
11.99999998950193
 20
26.499999962903871
 30
0.0
 11
12.99999998950193
 21
26.499999962903871
 31
0.0
  0
LINE
  5
3D3
  8
LSC-SN1
 10
26.99999998950193
 20
31.499999962903871
 30
0.0
 11
11.99999998950193
 21
31.499999962903871
 31
0.0
  0
LINE
  5
3D4
  8
LSC-SN1
 10
25.99999998950193
 20
31.499999962903871
 30
0.0
 11
25.99999998950193
 21
26.499999962903871
 31
0.0
  0
LINE
  5
3D5
  8
LSC-SN1
 10
26.99999998950193
 20
26.499999962903871
 30
0.0
 11
25.99999998950193
 21
26.499999962903871
 31
0.0
  0
LINE
  5
3D6
  8
LSC-SN1
 10
26.99999998950193
 20
26.499999962903871
 30
0.0
 11
26.99999998950193
 21
38.499999962903871
 31
0.0
  0
LINE
  5
3D7
  8
LSC-SN1
 10
26.99999998950193
 20
38.499999962903871
 30
0.0
 11
11.99999998950193
 21
38.499999962903871
 31
0.0
  0
ENDBLK
  5
3D9
  8
0
  0
BLOCK
  8
0
  2
*U12
 70
     1
 10
0.0
 20
0.0
 30
0.0
  3
*U12
  1

  0
TEXT
  5
43E
  8
0
 10
1438.323014929741
 20
649.41172971305934
 30
0.0
 40
4.0
  1
Connector
  0
LINE
  5
43F
  8
0
  6
BYBLOCK
 10
1428.323014929741
 20
648.61172971305939
 30
0.0
 11
1436.323014929741
 21
648.61172971305939
 31
0.0
  0
POLYLINE
  5
440
  8
0
  6
BYBLOCK
 66
     1
 10
0.0
 20
0.0
 30
0.0
  0
VERTEX
  5
441
  8
0
  6
BYBLOCK
 10
1420.4652133503309
 20
661.89404651285349
 30
0.0
  0
VERTEX
  5
442
  8
0
  6
BYBLOCK
 10
1428.323014929741
 20
648.61172971305939
 30
0.0
  0
SEQEND
  5
443
  8
0
  6
BYBLOCK
  0
SOLID
  5
444
  8
0
 10
1419.8914357111159
 20
661.55460039756986
 30
0.0
 11
1418.42853665863
 21
665.33671234814449
 31
0.0
 12
1421.0389909895459
 22
662.23349262813701
 32
0.0
 13
1421.0389909895459
 23
662.23349262813701
 33
0.0
  0
POLYLINE
  5
445
  8
0
  6
BYBLOCK
 66
     1
 10
0.0
 20
0.0
 30
0.0
  0
VERTEX
  5
446
  8
0
  6
BYBLOCK
 10
1436.323014929741
 20
648.61172971305939
 30
0.0
  0
VERTEX
  5
447
  8
0
  6
BYBLOCK
 10
1472.989681596408
 20
648.61172971305939
 30
0.0
  0
SEQEND
  5
448
  8
0
  6
BYBLOCK
  0
ENDBLK
  5
44A
  8
0
  0
BLOCK
  8
0
  2
*U13
 70
     1
 10
0.0
 20
0.0
 30
0.0
  3
*U13
  1

  0
TEXT
  5
44C
  8
0
 10
1330.8575940658579
 20
624.86923527146075
 30
0.0
 40
4.0
  1
\U+22053.2
  0
LINE
  5
44D
  8
0
  6
BYBLOCK
 10
1352.8575940658579
 20
624.06923527146091
 30
0.0
 11
1344.8575940658579
 21
624.06923527146091
 31
0.0
  0
POLYLINE
  5
44E
  8
0
  6
BYBLOCK
 66
     1
 10
0.0
 20
0.0
 30
0.0
  0
VERTEX
  5
44F
  8
0
  6
BYBLOCK
 10
1360.9930196974519
 20
635.79260175816319
 30
0.0
  0
VERTEX
  5
450
  8
0
  6
BYBLOCK
 10
1352.8575940658579
 20
624.06923527146091
 30
0.0
  0
SEQEND
  5
451
  8
0
  6
BYBLOCK
  0
SOLID
  5
452
  8
0
 10
1360.4453127750421
 20
636.17268276477739
 30
0.0
 11
1363.2735057371369
 21
639.07884329262174
 31
0.0
 12
1361.5407266198611
 22
635.41252075154887
 32
0.0
 13
1361.5407266198611
 23
635.41252075154887
 33
0.0
  0
POLYLINE
  5
453
  8
0
  6
BYBLOCK
 66
     1
 10
0.0
 20
0.0
 30
0.0
  0
VERTEX
  5
454
  8
0
  6
BYBLOCK
 10
1330.8575940658579
 20
624.06923527146091
 30
0.0
  0
VERTEX
  5
455
  8
0
  6
BYBLOCK
 10
1344.8575940658579
 20
624.06923527146091
 30
0.0
  0
SEQEND
  5
456
  8
0
  6
BYBLOCK
  0
ENDBLK
  5
458
  8
0
  0
BLOCK
  8
0
  2
*U14
 70
     1
 10
0.0
 20
0.0
 30
0.0
  3
*U14
  1

  0
TEXT
  5
45A
  8
0
 10
1389.8178995564961
 20
624.41291986054796
 30
0.0
 40
4.0
  1
Sencer
  0
LINE
  5
45B
  8
0
  6
BYBLOCK
 10
1379.8178995564961
 20
623.61291986054812
 30
0.0
 11
1387.8178995564961
 21
623.61291986054812
 31
0.0
  0
POLYLINE
  5
45C
  8
0
  6
BYBLOCK
 66
     1
 10
0.0
 20
0.0
 30
0.0
  0
VERTEX
  5
45D
  8
0
  6
BYBLOCK
 10
1369.824708332043
 20
650.44253407922713
 30
0.0
  0
VERTEX
  5
45E
  8
0
  6
BYBLOCK
 10
1379.8178995564961
 20
623.61291986054812
 30
0.0
  0
SEQEND
  5
45F
  8
0
  6
BYBLOCK
  0
SOLID
  5
460
  8
0
 10
1369.199970505734
 20
650.20983880032497
 30
0.0
 11
1368.4285366586289
 21
654.19096103708011
 31
0.0
 12
1370.4494461583511
 22
650.67522935812929
 32
0.0
 13
1370.4494461583511
 23
650.67522935812929
 33
0.0
  0
POLYLINE
  5
461
  8
0
  6
BYBLOCK
 66
     1
 10
0.0
 20
0.0
 30
0.0
  0
VERTEX
  5
462
  8
0
  6
BYBLOCK
 10
1387.8178995564961
 20
623.61291986054812
 30
0.0
  0
VERTEX
  5
463
  8
0
  6
BYBLOCK
 10
1412.484566223163
 20
623.61291986054812
 30
0.0
  0
SEQEND
  5
464
  8
0
  6
BYBLOCK
  0
ENDBLK
  5
466
  8
0
  0
BLOCK
  8
0
  2
*U15
 70
     1
 10
0.0
 20
0.0
 30
0.0
  3
*U15
  1

  0
TEXT
  5
468
  8
0
 62
     0
 10
1408.6368699919631
 20
691.44209125090049
 30
0.0
 40
2.5
  1
17,5
  0
ENDBLK
  5
46A
  8
0
  0
BLOCK
  8
0
  2
*U16
 70
     1
 10
0.0
 20
0.0
 30
0.0
  3
*U16
  1

  0
TEXT
  5
46C
  8
0
 62
     0
 10
1404.0952033252961
 20
648.64754061635244
 30
0.0
 40
2.5
  1
3
  0
ENDBLK
  5
46E
  8
0
  0
BLOCK
  8
0
  2
*U17
 70
     1
 10
0.0
 20
0.0
 30
0.0
  3
*U17
  1

  0
TEXT
  5
470
  8
0
 62
     0
 10
1406.9702033252961
 20
684.18106846618912
 30
0.0
 40
2.5
  1
10
  0
ENDBLK
  5
472
  8
0
  0
BLOCK
  8
0
  2
*U18
 70
     1
 10
0.0
 20
0.0
 30
0.0
  3
*U18
  1

  0
TEXT
  5
474
  8
0
 62
     0
 10
1341.8654544375941
 20
654.96171234814483
 30
0.0
 40
2.5
  1
40
 50
90.0
  0
ENDBLK
  5
476
  8
0
  0
BLOCK
  8
0
  2
*U19
 70
     1
 10
0.0
 20
0.0
 30
0.0
  3
*U19
  1

  0
TEXT
  5
478
  8
0
 62
     0
 10
1362.0952033252961
 20
684.21680566471491
 30
0.0
 40
2.5
  1
5
  0
ENDBLK
  5
47A
  8
0
  0
BLOCK
  8
0
  2
*U20
 70
     1
 10
0.0
 20
0.0
 30
0.0
  3
*U20
  1

  0
TEXT
  5
47C
  8
0
 62
     0
 10
1373.55353665863
 20
691.02542458423375
 30
0.0
 40
2.5
  1
30
  0
ENDBLK
  5
47E
  8
0
  0
BLOCK
  8
0
  2
*U21
 70
     1
 10
0.0
 20
0.0
 30
0.0
  3
*U21
  1

  0
TEXT
  5
480
  8
0
 62
     0
 10
1348.9825591260151
 20
662.6700456814782
 30
0.0
 40
2.5
  1
15
 50
90.0
  0
ENDBLK
  5
482
  8
0
  0
BLOCK
  8
0
  2
*U22
 70
     1
 10
0.0
 20
0.0
 30
0.0
  3
*U22
  1

  0
TEXT
  5
484
  8
0
 62
     0
 10
1348.9825591260151
 20
647.6700456814782
 30
0.0
 40
2.5
  1
15
 50
90.0
  0
ENDBLK
  5
486
  8
0
  0
ENDSEC
  0
SECTION
  2
ENTITIES
  0
DIMENSION
  5
27A
  8
0
  2
*D2
 10
1349.607559126016
 20
656.83671234814449
 30
0.0
 11
1347.7325591260151
 21
664.33671234814483
 31
0.0
 70
     0
 13
1360.428536219943
 23
671.8367123481446
 33
0.0
 14
1360.4285366586289
 24
656.83671234814449
 34
0.0
 50
90.0
  0
DIMENSION
  5
293
  8
0
  2
*D3
 10
1349.607559126016
 20
641.8367123481446
 30
0.0
 11
1347.7325591260151
 21
649.33671234814483
 31
0.0
 70
     0
 13
1360.4285366586289
 23
656.83671234814449
 33
0.0
 14
1360.4285366586289
 24
641.8367123481446
 34
0.0
 50
90.0
  0
DIMENSION
  5
2AB
  8
0
  2
*D4
 10
1342.490454437595
 20
636.8367123481446
 30
0.0
 11
1340.6154544375941
 21
656.83671234814483
 31
0.0
 70
     0
 13
1360.4285366586289
 23
676.83671234814449
 33
0.0
 14
1360.4285366586289
 24
636.8367123481446
 34
0.0
 50
90.0
  0
DIMENSION
  5
2C3
  8
0
  2
*D5
 10
1365.4285366586289
 20
683.59180566471491
 30
0.0
 11
1362.9285366586289
 21
685.46680566471491
 31
0.0
 70
     0
 13
1360.4285366586289
 23
676.83671234814449
 33
0.0
 14
1365.4285366586289
 24
676.83671234814449
 34
0.0
  0
DIMENSION
  5
2DF
  8
0
  2
*D6
 10
1390.4285366586289
 20
690.40042458423375
 30
0.0
 11
1375.42853665863
 21
692.27542458423375
 31
0.0
 70
     0
 13
1360.4285366586289
 23
676.83671234814449
 33
0.0
 14
1390.4285366586289
 24
676.83671234814449
 34
0.0
  0
DIMENSION
  5
2F7
  8
0
  2
*D7
 10
1406.4285366586289
 20
648.02254061635244
 30
0.0
 11
1404.9285366586289
 21
649.89754061635244
 31
0.0
 70
     0
 13
1403.4285366586289
 23
667.8367123481446
 33
0.0
 14
1406.4285366586289
 24
652.83671234814449
 34
0.0
  0
DIMENSION
  5
313
  8
0
  2
*D8
 10
1420.9285366586289
 20
690.40042458423375
 30
0.0
 11
1412.1785366586289
 21
692.48375791756712
 31
0.0
 70
     0
 13
1403.4285366586289
 23
674.8367123481446
 33
0.0
 14
1420.9285366586289
 24
674.8367123481446
 34
0.0
  0
DIMENSION
  5
33C
  8
0
  2
*D9
 10
1413.4285366586289
 20
683.55606846618912
 30
0.0
 11
1408.42853665863
 21
685.43106846618912
 31
0.0
 70
     0
 13
1403.4285366586289
 23
674.8367123481446
 33
0.0
 14
1413.4285366586289
 24
676.83671234814449
 34
0.0
  0
INSERT
  5
354
  8
LSC-SN1
  2
*U12
 10
0.0
 20
0.0
 30
0.0
1001
ACAD_MLEADERVER
1070
     2
  0
INSERT
  5
357
  8
LSC-SN1
  2
*U13
 10
0.0
 20
0.0
 30
0.0
1001
ACAD_MLEADERVER
1070
     2
  0
INSERT
  5
35A
  8
LSC-SN1
  2
*U14
 10
0.0
 20
0.0
 30
0.0
1001
ACAD_MLEADERVER
1070
     2
  0
INSERT
  5
393
  8
LSC-SN1
  2
A$C037B3809
 10
1401.928536716905
 20
636.83671238524073
 30
0.0
  0
INSERT
  5
3DA
  8
LSC-SN1
  2
A$C3140701C
 10
1360.428536669127
 20
636.83671238524073
 30
0.0
  0
ENDSEC
  0
EOF
