  0
SECTION
  2
HEADER
  9
$ACADVER
  1
AC1009
  9
$INSBASE
 10
0.0
 20
0.0
 30
0.0
  9
$EXTMIN
 10
336.86042874518222
 20
1810.4017748904309
 30
-0.0000000000112498
  9
$EXTMAX
 10
1514.820165478297
 20
3041.4545526027532
 30
0.0000000000002956
  9
$LIMMIN
 10
0.0
 20
0.0
  9
$LIMMAX
 10
420.0
 20
297.0
  9
$ORTHOMODE
 70
     1
  9
$REGENMODE
 70
     1
  9
$FILLMODE
 70
     1
  9
$QTEXTMODE
 70
     0
  9
$MIRRTEXT
 70
     0
  9
$DRAGMODE
 70
     2
  9
$LTSCALE
 40
1.0
  9
$OSMODE
 70
   695
  9
$ATTMODE
 70
     1
  9
$TEXTSIZE
 40
2.5
  9
$TRACEWID
 40
1.0
  9
$TEXTSTYLE
  7
STANDARD
  9
$CLAYER
  8
FP-602
  9
$CELTYPE
  6
BYLAYER
  9
$CECOLOR
 62
   256
  9
$DIMSCALE
 40
1.0
  9
$DIMASZ
 40
2.5
  9
$DIMEXO
 40
0.625
  9
$DIMDLI
 40
3.75
  9
$DIMRND
 40
0.0
  9
$DIMDLE
 40
0.0
  9
$DIMEXE
 40
1.25
  9
$DIMTP
 40
0.0
  9
$DIMTM
 40
0.0
  9
$DIMTXT
 40
2.5
  9
$DIMCEN
 40
2.5
  9
$DIMTSZ
 40
0.0
  9
$DIMTOL
 70
     0
  9
$DIMLIM
 70
     0
  9
$DIMTIH
 70
     0
  9
$DIMTOH
 70
     0
  9
$DIMSE1
 70
     0
  9
$DIMSE2
 70
     0
  9
$DIMTAD
 70
     1
  9
$DIMZIN
 70
     8
  9
$DIMBLK
  1

  9
$DIMASO
 70
     1
  9
$DIMSHO
 70
     1
  9
$DIMPOST
  1

  9
$DIMAPOST
  1

  9
$DIMALT
 70
     0
  9
$DIMALTD
 70
     3
  9
$DIMALTF
 40
0.03937007874016
  9
$DIMLFAC
 40
1.0
  9
$DIMTOFL
 70
     1
  9
$DIMTVP
 40
0.0
  9
$DIMTIX
 70
     0
  9
$DIMSOXD
 70
     0
  9
$DIMSAH
 70
     0
  9
$DIMBLK1
  1

  9
$DIMBLK2
  1

  9
$DIMSTYLE
  2
ISO-25
  9
$DIMCLRD
 70
     0
  9
$DIMCLRE
 70
     0
  9
$DIMCLRT
 70
     0
  9
$DIMTFAC
 40
1.0
  9
$DIMGAP
 40
0.625
  9
$LUNITS
 70
     2
  9
$LUPREC
 70
     4
  9
$SKETCHINC
 40
1.0
  9
$FILLETRAD
 40
0.0
  9
$AUNITS
 70
     0
  9
$AUPREC
 70
     0
  9
$MENU
  1
.
  9
$ELEVATION
 40
0.0
  9
$PELEVATION
 40
0.0
  9
$THICKNESS
 40
0.0
  9
$LIMCHECK
 70
     0
  9
$BLIPMODE
 70
     0
  9
$CHAMFERA
 40
0.0
  9
$CHAMFERB
 40
0.0
  9
$SKPOLY
 70
     0
  9
$TDCREATE
 40
2456564.5887612039
  9
$TDUPDATE
 40
2456564.6301032519
  9
$TDINDWG
 40
0.0267879977
  9
$TDUSRTIMER
 40
0.0267878241
  9
$USRTIMER
 70
     1
  9
$ANGBASE
 50
0.0
  9
$ANGDIR
 70
     0
  9
$PDMODE
 70
     0
  9
$PDSIZE
 40
0.0
  9
$PLINEWID
 40
0.0
  9
$COORDS
 70
     1
  9
$SPLFRAME
 70
     0
  9
$SPLINETYPE
 70
     6
  9
$SPLINESEGS
 70
     8
  9
$ATTDIA
 70
     0
  9
$ATTREQ
 70
     1
  9
$HANDLING
 70
     1
  9
$HANDSEED
  5
1A82
  9
$SURFTAB1
 70
     6
  9
$SURFTAB2
 70
     6
  9
$SURFTYPE
 70
     6
  9
$SURFU
 70
     6
  9
$SURFV
 70
     6
  9
$UCSNAME
  2

  9
$UCSORG
 10
0.0
 20
0.0
 30
0.0
  9
$UCSXDIR
 10
1.0
 20
0.0
 30
0.0
  9
$UCSYDIR
 10
0.0
 20
1.0
 30
0.0
  9
$PUCSNAME
  2

  9
$PUCSORG
 10
0.0
 20
0.0
 30
0.0
  9
$PUCSXDIR
 10
1.0
 20
0.0
 30
0.0
  9
$PUCSYDIR
 10
0.0
 20
1.0
 30
0.0
  9
$USERI1
 70
     0
  9
$USERI2
 70
     0
  9
$USERI3
 70
     0
  9
$USERI4
 70
     0
  9
$USERI5
 70
     0
  9
$USERR1
 40
0.0
  9
$USERR2
 40
0.0
  9
$USERR3
 40
0.0
  9
$USERR4
 40
0.0
  9
$USERR5
 40
0.0
  9
$WORLDVIEW
 70
     1
  9
$SHADEDGE
 70
     3
  9
$SHADEDIF
 70
    70
  9
$TILEMODE
 70
     1
  9
$MAXACTVP
 70
    64
  9
$PLIMCHECK
 70
     0
  9
$PEXTMIN
 10
0.0
 20
0.0
 30
0.0
  9
$PEXTMAX
 10
0.0
 20
0.0
 30
0.0
  9
$PLIMMIN
 10
0.0
 20
0.0
  9
$PLIMMAX
 10
12.0
 20
9.0
  9
$UNITMODE
 70
     0
  9
$VISRETAIN
 70
     1
  9
$PLINEGEN
 70
     0
  9
$PSLTSCALE
 70
     1
  0
ENDSEC
  0
SECTION
  2
TABLES
  0
TABLE
  2
VPORT
 70
     1
  0
VPORT
  2
*ACTIVE
 70
     0
 10
0.0
 20
0.0
 11
1.0
 21
1.0
 12
925.84029711173957
 22
2425.928163746592
 13
0.0
 23
0.0
 14
10.0
 24
10.0
 15
10.0
 25
10.0
 16
0.0
 26
0.0
 36
1.0
 17
0.0
 27
0.0
 37
0.0
 40
1241.3977590376351
 41
1.6058906030855531
 42
50.0
 43
0.0
 44
0.0
 50
0.0
 51
0.0
 71
     0
 72
  1000
 73
     1
 74
     3
 75
     0
 76
     0
 77
     0
 78
     0
  0
ENDTAB
  0
TABLE
  2
LTYPE
 70
     2
  0
LTYPE
  2
CONTINUOUS
 70
     0
  3
Solid line
 72
    65
 73
     0
 40
0.0
  0
LTYPE
  2
HIDDEN
 70
     0
  3
Hidden __ __ __ __ __ __ __ __ __ __ __ __ __ _
 72
    65
 73
     2
 40
0.375
 49
0.25
 49
-0.125
  0
ENDTAB
  0
TABLE
  2
LAYER
 70
     3
  0
LAYER
  2
0
 70
     0
 62
     7
  6
CONTINUOUS
  0
LAYER
  2
FP-602
 70
     0
 62
     7
  6
CONTINUOUS
  0
LAYER
  2
DEFPOINTS
 70
     0
 62
     7
  6
CONTINUOUS
  0
ENDTAB
  0
TABLE
  2
STYLE
 70
     3
  0
STYLE
  2
STANDARD
 70
     0
 40
0.0
 41
1.0
 50
0.0
 71
     0
 42
2.5
  3
txt
  4
extfont2.shx
  0
ENDTAB
  0
TABLE
  2
VIEW
 70
     0
  0
ENDTAB
  0
TABLE
  2
UCS
 70
     0
  0
ENDTAB
  0
TABLE
  2
APPID
 70
    12
  0
APPID
  2
ACAD
 70
     0
  0
APPID
  2
ACAD_PSEXT
 70
     0
  0
APPID
  2
ACADANNOPO
 70
     0
  0
APPID
  2
ACADANNOTATIVE
 70
     0
  0
APPID
  2
ACAD_DSTYLE_DIMJAG
 70
     0
  0
APPID
  2
ACAD_DSTYLE_DIMTALN
 70
     0
  0
APPID
  2
ACAD_MLEADERVER
 70
     0
  0
APPID
  2
ACAD_DSTYLE_DIMBREAK
 70
     0
  0
APPID
  2
ACAD_DSTYLE_DIMTEXT_FILL
 70
     0
  0
APPID
  2
ACADANNOTATIVEDECOMPOSITION
 70
     0
  0
APPID
  2
ACAECLAYERSTANDARD
 70
     0
  0
APPID
  2
ACAD_EXEMPT_FROM_CAD_STANDARDS
 70
     0
  0
ENDTAB
  0
TABLE
  2
DIMSTYLE
 70
     8
  0
DIMSTYLE
  2
ISO-25
 70
     0
  3

  4

  5

  6

  7

 40
1.0
 41
2.5
 42
0.625
 43
3.75
 44
1.25
 45
0.0
 46
0.0
 47
0.0
 48
0.0
140
2.5
141
2.5
142
0.0
143
0.03937007874016
144
1.0
145
0.0
146
1.0
147
0.625
 71
     0
 72
     0
 73
     0
 74
     0
 75
     0
 76
     0
 77
     1
 78
     8
170
     0
171
     3
172
     1
173
     0
174
     0
175
     0
176
     0
177
     0
178
     0
  0
ENDTAB
  0
ENDSEC
  0
SECTION
  2
BLOCKS
  0
BLOCK
  8
0
  2
$MODEL_SPACE
 70
     0
 10
0.0
 20
0.0
 30
0.0
  3
$MODEL_SPACE
  1

  0
ENDBLK
  5
21
  8
0
  0
BLOCK
 67
     1
  8
0
  2
$PAPER_SPACE
 70
     0
 10
0.0
 20
0.0
 30
0.0
  3
$PAPER_SPACE
  1

  0
ENDBLK
  5
D5
 67
     1
  8
0
  0
BLOCK
  8
0
  2
*D5
 70
     1
 10
0.0
 20
0.0
 30
0.0
  3
*D5
  1

  0
LINE
  5
CF6
  8
0
 62
     0
 10
621.47089470832861
 20
2798.6924031261851
 30
0.0
 11
621.47089470832861
 21
2964.6482767307471
 31
0.0
  0
LINE
  5
CF7
  8
0
 62
     0
 10
1041.4708947083291
 20
2795.692403126186
 30
0.0
 11
1041.4708947083291
 21
2964.6482767307471
 31
0.0
  0
LINE
  5
CF8
  8
0
 62
     0
 10
623.97089470832861
 20
2963.3982767307471
 30
0.0
 11
1038.9708947083291
 21
2963.3982767307471
 31
0.0
  0
SOLID
  5
CF9
  8
0
 62
     0
 10
623.97089470832861
 20
2963.814943397414
 30
0.0
 11
623.97089470832861
 21
2962.981610064081
 31
0.0
 12
621.47089470832861
 22
2963.3982767307471
 32
0.0
 13
621.47089470832861
 23
2963.3982767307471
 33
0.0
  0
SOLID
  5
CFA
  8
0
 62
     0
 10
1038.9708947083291
 20
2963.814943397414
 30
0.0
 11
1038.9708947083291
 21
2962.981610064081
 31
0.0
 12
1041.4708947083291
 22
2963.3982767307471
 32
0.0
 13
1041.4708947083291
 23
2963.3982767307471
 33
0.0
  0
INSERT
  5
CFB
  8
FP-602
  2
*U18
 10
0.0
 20
0.0
 30
0.0
  0
POINT
  5
CFC
  8
DEFPOINTS
 62
     0
 10
621.47089470832861
 20
2798.0674031261851
 30
0.0
  0
POINT
  5
CFD
  8
DEFPOINTS
 62
     0
 10
1041.4708947083291
 20
2795.0674031261851
 30
0.0
  0
POINT
  5
CFE
  8
DEFPOINTS
 62
     0
 10
1041.4708947083291
 20
2963.3982767307471
 30
0.0
  0
ENDBLK
  5
B12
  8
0
  0
BLOCK
  8
0
  2
*D6
 70
     1
 10
0.0
 20
0.0
 30
0.0
  3
*D6
  1

  0
LINE
  5
CED
  8
0
 62
     0
 10
621.47089470832861
 20
2795.692403126186
 30
0.0
 11
621.47089470832861
 21
2964.6482767307471
 31
0.0
  0
LINE
  5
CEE
  8
0
 62
     0
 10
527.4708947083285
 20
2878.6727031261962
 30
0.0
 11
527.4708947083285
 21
2964.6482767307471
 31
0.0
  0
LINE
  5
CEF
  8
0
 62
     0
 10
618.97089470832861
 20
2963.3982767307471
 30
0.0
 11
529.97089470832861
 21
2963.3982767307471
 31
0.0
  0
SOLID
  5
CF0
  8
0
 62
     0
 10
618.97089470832861
 20
2963.814943397414
 30
0.0
 11
618.97089470832861
 21
2962.981610064081
 31
0.0
 12
621.47089470832861
 22
2963.3982767307471
 32
0.0
 13
621.47089470832861
 23
2963.3982767307471
 33
0.0
  0
SOLID
  5
CF1
  8
0
 62
     0
 10
529.97089470832861
 20
2963.814943397414
 30
0.0
 11
529.97089470832861
 21
2962.981610064081
 31
0.0
 12
527.4708947083285
 22
2963.3982767307471
 32
0.0
 13
527.4708947083285
 23
2963.3982767307471
 33
0.0
  0
INSERT
  5
CF2
  8
FP-602
  2
*U17
 10
0.0
 20
0.0
 30
0.0
  0
POINT
  5
CF3
  8
DEFPOINTS
 62
     0
 10
621.47089470832861
 20
2795.0674031261851
 30
0.0
  0
POINT
  5
CF4
  8
DEFPOINTS
 62
     0
 10
527.4708947083285
 20
2878.0477031261962
 30
0.0
  0
POINT
  5
CF5
  8
DEFPOINTS
 62
     0
 10
527.4708947083285
 20
2963.3982767307471
 30
0.0
  0
ENDBLK
  5
B2A
  8
0
  0
BLOCK
  8
0
  2
*D7
 70
     1
 10
0.0
 20
0.0
 30
0.0
  3
*D7
  1

  0
LINE
  5
D11
  8
0
 62
     0
 10
620.84589470832861
 20
2795.0674031261851
 30
0.0
 11
430.37683142473549
 21
2795.0674031261851
 31
0.0
  0
LINE
  5
D12
  8
0
 62
     0
 10
620.84589470832861
 20
2201.067403126186
 30
0.0
 11
430.37683142473543
 21
2201.067403126186
 31
0.0
  0
LINE
  5
D13
  8
0
 62
     0
 10
431.62683142473549
 20
2792.5674031261851
 30
0.0
 11
431.62683142473543
 21
2203.567403126186
 31
0.0
  0
SOLID
  5
D14
  8
0
 62
     0
 10
431.2101647580688
 20
2792.5674031261851
 30
0.0
 11
432.04349809140223
 21
2792.5674031261851
 31
0.0
 12
431.62683142473549
 22
2795.0674031261851
 32
0.0
 13
431.62683142473549
 23
2795.0674031261851
 33
0.0
  0
SOLID
  5
D15
  8
0
 62
     0
 10
431.21016475806869
 20
2203.567403126186
 30
0.0
 11
432.04349809140211
 21
2203.567403126186
 31
0.0
 12
431.62683142473543
 22
2201.067403126186
 32
0.0
 13
431.62683142473543
 23
2201.067403126186
 33
0.0
  0
INSERT
  5
D16
  8
FP-602
  2
*U19
 10
0.0
 20
0.0
 30
0.0
  0
POINT
  5
D17
  8
DEFPOINTS
 62
     0
 10
621.47089470832861
 20
2795.0674031261851
 30
0.0
  0
POINT
  5
D18
  8
DEFPOINTS
 62
     0
 10
621.47089470832861
 20
2201.067403126186
 30
0.0
  0
POINT
  5
D19
  8
DEFPOINTS
 62
     0
 10
431.62683142473543
 20
2201.067403126186
 30
0.0
  0
ENDBLK
  5
B42
  8
0
  0
BLOCK
  8
0
  2
*D8
 70
     1
 10
0.0
 20
0.0
 30
0.0
  3
*D8
  1

  0
LINE
  5
13E6
  8
0
 62
     0
 10
620.84589470832861
 20
2795.0674031261851
 30
0.0
 11
430.37683142473549
 21
2795.0674031261851
 31
0.0
  0
LINE
  5
13E7
  8
0
 62
     0
 10
531.84589470832861
 20
2879.567403126186
 30
0.0
 11
430.37683142473549
 21
2879.567403126186
 31
0.0
  0
LINE
  5
13E8
  8
0
 62
     0
 10
431.62683142473549
 20
2797.567403126186
 30
0.0
 11
431.62683142473549
 21
2877.067403126186
 31
0.0
  0
SOLID
  5
13E9
  8
0
 62
     0
 10
431.2101647580688
 20
2797.567403126186
 30
0.0
 11
432.04349809140223
 21
2797.567403126186
 31
0.0
 12
431.62683142473549
 22
2795.0674031261851
 32
0.0
 13
431.62683142473549
 23
2795.0674031261851
 33
0.0
  0
SOLID
  5
13EA
  8
0
 62
     0
 10
431.2101647580688
 20
2877.067403126186
 30
0.0
 11
432.04349809140223
 21
2877.067403126186
 31
0.0
 12
431.62683142473549
 22
2879.567403126186
 32
0.0
 13
431.62683142473549
 23
2879.567403126186
 33
0.0
  0
INSERT
  5
13EB
  8
FP-602
  2
*U22
 10
0.0
 20
0.0
 30
0.0
  0
POINT
  5
13EC
  8
DEFPOINTS
 62
     0
 10
621.47089470832861
 20
2795.0674031261851
 30
0.0
  0
POINT
  5
13ED
  8
DEFPOINTS
 62
     0
 10
532.47089470832861
 20
2879.567403126186
 30
0.0
  0
POINT
  5
13EE
  8
DEFPOINTS
 62
     0
 10
431.62683142473549
 20
2879.567403126186
 30
0.0
  0
ENDBLK
  5
C72
  8
0
  0
BLOCK
  8
0
  2
*D9
 70
     1
 10
0.0
 20
0.0
 30
0.0
  3
*D9
  1

  0
LINE
  5
13F8
  8
0
 62
     0
 10
531.84589470832861
 20
2879.567403126186
 30
0.0
 11
359.65171809658671
 21
2879.567403126186
 31
0.0
  0
LINE
  5
13F9
  8
0
 62
     0
 10
531.84589470832861
 20
2116.5477031261962
 30
0.0
 11
359.65171809658648
 21
2116.5477031261962
 31
0.0
  0
LINE
  5
13FA
  8
0
 62
     0
 10
360.90171809658671
 20
2877.067403126186
 30
0.0
 11
360.90171809658648
 21
2119.0477031261962
 31
0.0
  0
SOLID
  5
13FB
  8
0
 62
     0
 10
360.48505142992002
 20
2877.067403126186
 30
0.0
 11
361.31838476325339
 21
2877.067403126186
 31
0.0
 12
360.90171809658671
 22
2879.567403126186
 32
0.0
 13
360.90171809658671
 23
2879.567403126186
 33
0.0
  0
SOLID
  5
13FC
  8
0
 62
     0
 10
360.48505142991991
 20
2119.0477031261962
 30
0.0
 11
361.31838476325322
 21
2119.0477031261962
 31
0.0
 12
360.90171809658648
 22
2116.5477031261962
 32
0.0
 13
360.90171809658648
 23
2116.5477031261962
 33
0.0
  0
INSERT
  5
13FD
  8
FP-602
  2
*U24
 10
0.0
 20
0.0
 30
0.0
  0
POINT
  5
13FE
  8
DEFPOINTS
 62
     0
 10
532.47089470832861
 20
2879.567403126186
 30
0.0
  0
POINT
  5
13FF
  8
DEFPOINTS
 62
     0
 10
532.47089470832861
 20
2116.5477031261962
 30
0.0
  0
POINT
  5
1400
  8
DEFPOINTS
 62
     0
 10
360.90171809658648
 20
2116.5477031261962
 30
0.0
  0
ENDBLK
  5
C8A
  8
0
  0
BLOCK
  8
0
  2
*D10
 70
     1
 10
0.0
 20
0.0
 30
0.0
  3
*D10
  1

  0
LINE
  5
13EF
  8
0
 62
     0
 10
527.4708947083285
 20
2878.6727031261962
 30
0.0
 11
527.4708947083285
 21
3029.5331288185948
 31
0.0
  0
LINE
  5
13F0
  8
0
 62
     0
 10
1119.4708947083279
 20
2878.6727031261962
 30
0.0
 11
1119.4708947083279
 21
3029.5331288185948
 31
0.0
  0
LINE
  5
13F1
  8
0
 62
     0
 10
529.97089470832861
 20
3028.2831288185948
 30
0.0
 11
1116.9708947083279
 21
3028.2831288185948
 31
0.0
  0
SOLID
  5
13F2
  8
0
 62
     0
 10
529.97089470832861
 20
3028.6997954852609
 30
0.0
 11
529.97089470832861
 21
3027.8664621519279
 31
0.0
 12
527.4708947083285
 22
3028.2831288185948
 32
0.0
 13
527.4708947083285
 23
3028.2831288185948
 33
0.0
  0
SOLID
  5
13F3
  8
0
 62
     0
 10
1116.9708947083279
 20
3028.6997954852609
 30
0.0
 11
1116.9708947083279
 21
3027.8664621519279
 31
0.0
 12
1119.4708947083279
 22
3028.2831288185948
 32
0.0
 13
1119.4708947083279
 23
3028.2831288185948
 33
0.0
  0
INSERT
  5
13F4
  8
FP-602
  2
*U23
 10
0.0
 20
0.0
 30
0.0
  0
POINT
  5
13F5
  8
DEFPOINTS
 62
     0
 10
527.4708947083285
 20
2878.0477031261962
 30
0.0
  0
POINT
  5
13F6
  8
DEFPOINTS
 62
     0
 10
1119.4708947083279
 20
2878.0477031261962
 30
0.0
  0
POINT
  5
13F7
  8
DEFPOINTS
 62
     0
 10
1119.4708947083279
 20
3028.2831288185948
 30
0.0
  0
ENDBLK
  5
CAB
  8
0
  0
BLOCK
  8
0
  2
*D11
 70
     1
 10
0.0
 20
0.0
 30
0.0
  3
*D11
  1

  0
LINE
  5
EA1
  8
0
 62
     0
 10
544.34589470832873
 20
1853.3441236453821
 30
0.0
 11
359.65171809658648
 21
1853.3441236453821
 31
0.0
  0
LINE
  5
EA2
  8
0
 62
     0
 10
564.34589470832873
 20
1843.3638236453719
 30
0.0
 11
359.65171809658648
 21
1843.3638236453719
 31
0.0
  0
LINE
  5
EA3
  8
0
 62
     0
 10
360.90171809658648
 20
1850.844123645383
 30
0.0
 11
360.90171809658648
 21
1845.8638236453719
 31
0.0
  0
LINE
  5
EA4
  8
0
 62
     0
 10
360.90171809658648
 20
1843.3638236453719
 30
0.0
 11
360.90171809658648
 21
1810.4471569787049
 31
0.0
  0
SOLID
  5
EA5
  8
0
 62
     0
 10
360.48505142991991
 20
1850.844123645383
 30
0.0
 11
361.31838476325322
 21
1850.844123645383
 31
0.0
 12
360.90171809658648
 22
1853.3441236453821
 32
0.0
 13
360.90171809658648
 23
1853.3441236453821
 33
0.0
  0
SOLID
  5
EA6
  8
0
 62
     0
 10
360.48505142991991
 20
1845.8638236453719
 30
0.0
 11
361.31838476325322
 21
1845.8638236453719
 31
0.0
 12
360.90171809658648
 22
1843.3638236453719
 32
0.0
 13
360.90171809658648
 23
1843.3638236453719
 33
0.0
  0
INSERT
  5
EA7
  8
FP-602
  2
*U20
 10
0.0
 20
0.0
 30
0.0
  0
POINT
  5
EA8
  8
DEFPOINTS
 62
     0
 10
544.97089470832873
 20
1853.3441236453821
 30
0.0
  0
POINT
  5
EA9
  8
DEFPOINTS
 62
     0
 10
564.97089470832873
 20
1843.3638236453719
 30
0.0
  0
POINT
  5
EAA
  8
DEFPOINTS
 62
     0
 10
360.90171809658648
 20
1843.3638236453719
 30
0.0
  0
ENDBLK
  5
D40
  8
0
  0
BLOCK
  8
0
  2
*D12
 70
     1
 10
0.0
 20
0.0
 30
0.0
  3
*D12
  1

  0
LINE
  5
131F
  8
0
 62
     0
 10
526.84589470832873
 20
1918.3441236453821
 30
0.0
 11
359.65171809658648
 21
1918.344123645383
 31
0.0
  0
LINE
  5
1320
  8
0
 62
     0
 10
544.34589470832873
 20
1853.3441236453821
 30
0.0
 11
359.65171809658648
 21
1853.3441236453821
 31
0.0
  0
LINE
  5
1321
  8
0
 62
     0
 10
360.90171809658648
 20
1915.8441236453821
 30
0.0
 11
360.90171809658648
 21
1855.844123645383
 31
0.0
  0
SOLID
  5
1322
  8
0
 62
     0
 10
360.48505142991991
 20
1915.8441236453821
 30
0.0
 11
361.31838476325322
 21
1915.8441236453821
 31
0.0
 12
360.90171809658648
 22
1918.344123645383
 32
0.0
 13
360.90171809658648
 23
1918.344123645383
 33
0.0
  0
SOLID
  5
1323
  8
0
 62
     0
 10
360.48505142991991
 20
1855.844123645383
 30
0.0
 11
361.31838476325322
 21
1855.844123645383
 31
0.0
 12
360.90171809658648
 22
1853.3441236453821
 32
0.0
 13
360.90171809658648
 23
1853.3441236453821
 33
0.0
  0
INSERT
  5
1324
  8
FP-602
  2
*U21
 10
0.0
 20
0.0
 30
0.0
  0
POINT
  5
1325
  8
DEFPOINTS
 62
     0
 10
527.47089470832873
 20
1918.3441236453821
 30
0.0
  0
POINT
  5
1326
  8
DEFPOINTS
 62
     0
 10
544.97089470832873
 20
1853.3441236453821
 30
0.0
  0
POINT
  5
1327
  8
DEFPOINTS
 62
     0
 10
360.90171809658648
 20
1853.3441236453821
 30
0.0
  0
ENDBLK
  5
EAE
  8
0
  0
BLOCK
  8
0
  2
A$C2AB63598
 70
     0
 10
0.0
 20
0.0
 30
0.0
  3
A$C2AB63598
  1

  0
LINE
  5
FDF
  8
FP-602
 10
5.4802968223857533
 20
550.80000006592491
 30
0.0
 11
5.4802968223857533
 21
572.80000006592491
 31
0.0
  0
LINE
  5
FE0
  8
FP-602
 10
5.4802968223857533
 20
572.80000006592491
 30
0.0
 11
6.4802968223866619
 21
572.80000006592491
 31
0.0
  0
LINE
  5
FE1
  8
FP-602
 10
6.4802968223866619
 20
572.80000006592491
 30
0.0
 11
6.4802968223866619
 21
550.80000006592491
 31
0.0
  0
LINE
  5
FE2
  8
FP-602
 10
6.4802968223866619
 20
550.80000006592491
 30
0.0
 11
5.4802968223857533
 21
550.80000006592491
 31
0.0
  0
LINE
  5
FE3
  8
FP-602
 10
8.1802968223855714
 20
569.80000006592491
 30
0.0
 11
9.1802968223855714
 21
569.80000006592491
 31
0.0
  0
LINE
  5
FE4
  8
FP-602
 10
8.1802968223855714
 20
553.80000006592479
 30
0.0
 11
9.1802968223855714
 21
553.80000006592479
 31
0.0
  0
LINE
  5
FE5
  8
FP-602
 10
10.480296822386659
 20
556.30000006592491
 30
0.0
 11
10.480296822386659
 21
567.30000006592491
 31
0.0
  0
LINE
  5
FE6
  8
FP-602
 10
10.480296822386659
 20
567.30000006592491
 30
0.0
 11
11.480296822386659
 21
567.30000006592491
 31
0.0
  0
LINE
  5
FE7
  8
FP-602
 10
11.480296822386659
 20
567.30000006592491
 30
0.0
 11
11.480296822386659
 21
556.30000006592491
 31
0.0
  0
LINE
  5
FE8
  8
FP-602
 10
11.480296822386659
 20
556.30000006592491
 30
0.0
 11
10.480296822386659
 21
556.30000006592491
 31
0.0
  0
ARC
  5
FE9
  8
FP-602
 10
8.2302968223857533
 20
572.05000006592491
 30
0.0
 40
0.75
 50
0.0
 51
180.0
  0
LINE
  5
FEA
  8
FP-602
 10
7.4802968223857533
 20
572.05000006592491
 30
0.0
 11
7.9802968223866619
 21
569.80000006592491
 31
0.0
  0
LINE
  5
FEB
  8
FP-602
 10
9.4802968223866628
 20
569.80000006592491
 30
0.0
 11
8.9802968223866628
 21
572.05000006592491
 31
0.0
  0
ARC
  5
FEC
  8
FP-602
 10
8.2302968223857533
 20
551.55000006592479
 30
0.0
 40
0.75
 50
180.0
 51
0.0
  0
LINE
  5
FED
  8
FP-602
 10
7.4802968223857533
 20
551.55000006592479
 30
0.0
 11
7.9802968223866619
 21
553.80000006592479
 31
0.0
  0
LINE
  5
FEE
  8
FP-602
 10
8.9802968223866628
 20
551.55000006592479
 30
0.0
 11
9.4802968223866628
 21
553.80000006592479
 31
0.0
  0
LINE
  5
FEF
  8
FP-602
 10
10.480296822386659
 20
556.30000006592491
 30
0.0
 11
10.480296822386659
 21
567.30000006592491
 31
0.0
  0
LINE
  5
FF0
  8
FP-602
 10
10.480296822386659
 20
567.30000006592491
 30
0.0
 11
11.480296822386659
 21
567.30000006592491
 31
0.0
  0
LINE
  5
FF1
  8
FP-602
 10
11.480296822386659
 20
567.30000006592491
 30
0.0
 11
11.480296822386659
 21
556.30000006592491
 31
0.0
  0
LINE
  5
FF2
  8
FP-602
 10
11.480296822386659
 20
556.30000006592491
 30
0.0
 11
10.480296822386659
 21
556.30000006592491
 31
0.0
  0
LINE
  5
FF3
  8
FP-602
 10
7.9802968223866619
 20
553.80000006592479
 30
0.0
 11
7.9802968223866619
 21
556.30000006592491
 31
0.0
  0
LINE
  5
FF4
  8
FP-602
 10
9.4802968223866628
 20
553.80000006592479
 30
0.0
 11
9.4802968223866628
 21
556.30000006592491
 31
0.0
  0
LINE
  5
FF5
  8
FP-602
 10
9.4802968223866628
 20
569.80000006592491
 30
0.0
 11
9.4802968223866628
 21
569.0000000659229
 31
0.0
  0
LINE
  5
FF6
  8
FP-602
 10
9.4802968223866628
 20
569.0000000659229
 30
0.0
 11
9.4802968223866628
 21
567.30000006592491
 31
0.0
  0
LINE
  5
FF7
  8
FP-602
 10
9.4802968223866628
 20
556.30000006592491
 30
0.0
 11
9.4802968223866628
 21
567.30000006592491
 31
0.0
  0
LINE
  5
FF8
  8
FP-602
 10
9.4802968223866628
 20
567.30000006592491
 30
0.0
 11
10.480296822386659
 21
567.30000006592491
 31
0.0
  0
LINE
  5
FF9
  8
FP-602
 10
10.480296822386659
 20
567.30000006592491
 30
0.0
 11
10.480296822386659
 21
556.30000006592491
 31
0.0
  0
LINE
  5
FFA
  8
FP-602
 10
10.480296822386659
 20
556.30000006592491
 30
0.0
 11
9.4802968223866628
 21
556.30000006592491
 31
0.0
  0
LINE
  5
FFB
  8
FP-602
 10
7.9802968223866619
 20
556.30000006592491
 30
0.0
 11
7.9802968223866619
 21
567.40000006593073
 31
0.0
  0
LINE
  5
FFC
  8
FP-602
 10
9.4802968223866628
 20
567.30000006592491
 30
0.0
 11
9.4802968223866628
 21
569.0000000659229
 31
0.0
  0
LINE
  5
FFD
  8
FP-602
 10
9.4802968223866628
 20
569.0000000659229
 30
0.0
 11
9.7802968223863882
 21
569.0000000659229
 31
0.0
  0
LINE
  5
FFE
  8
FP-602
 10
9.7802968223863882
 20
569.0000000659229
 30
0.0
 11
9.7802968223863882
 21
567.30000006592491
 31
0.0
  0
LINE
  5
FFF
  8
FP-602
 10
9.7802968223863882
 20
567.30000006592491
 30
0.0
 11
9.4802968223866628
 21
567.30000006592491
 31
0.0
  0
LINE
  5
1000
  8
FP-602
 10
7.9802968223866619
 20
569.80000006592491
 30
0.0
 11
7.9802968223866619
 21
568.9938000659339
 31
0.0
  0
LINE
  5
1001
  8
FP-602
 10
7.9802968223866619
 20
553.80000006592479
 30
0.0
 11
7.9802968223866619
 21
556.30000006592491
 31
0.0
  0
LINE
  5
1002
  8
FP-602
 10
9.4802968223866628
 20
555.00000006592199
 30
0.0
 11
9.4802968223866628
 21
556.30000006592491
 31
0.0
  0
LINE
  5
1003
  8
FP-602
 10
9.4802968223866628
 20
556.30000006592491
 30
0.0
 11
9.7802968223863882
 21
556.30000006592491
 31
0.0
  0
LINE
  5
1004
  8
FP-602
 10
9.7802968223863882
 20
556.30000006592491
 30
0.0
 11
9.7802968223863882
 21
555.00000006592199
 31
0.0
  0
LINE
  5
1005
  8
FP-602
 10
9.7802968223863882
 20
555.00000006592199
 30
0.0
 11
9.4802968223866628
 21
555.00000006592199
 31
0.0
  0
LINE
  5
1006
  8
FP-602
 10
7.9802968223866619
 20
567.30000006592491
 30
0.0
 11
6.4802968223866619
 21
567.30000006592491
 31
0.0
  0
LINE
  5
1007
  8
FP-602
 10
7.9802968223866619
 20
556.30000006592491
 30
0.0
 11
6.4802968223866619
 21
556.30000006592491
 31
0.0
  0
LINE
  5
1008
  8
FP-602
 10
7.9802968223866619
 20
569.0000000659229
 30
0.0
 11
7.3802968223853886
 21
569.0000000659229
 31
0.0
  0
LINE
  5
1009
  8
FP-602
 10
7.3802968223853886
 20
567.50000006592279
 30
0.0
 11
7.3802968223853886
 21
568.80000006592491
 31
0.0
  0
LINE
  5
100A
  8
FP-602
 10
7.9802968223866619
 20
567.30000006592491
 30
0.0
 11
7.9802968223866619
 21
569.10000006592782
 31
0.0
  0
LINE
  5
100B
  8
FP-602
 10
7.3802968223853886
 20
569.0000000659229
 30
0.0
 11
6.4802968223866619
 21
569.0000000659229
 31
0.0
  0
LINE
  5
100C
  8
FP-602
 10
7.4802968223857533
 20
572.00000006592188
 30
0.0
 11
6.4802968223866619
 21
569.0000000659229
 31
0.0
  0
LINE
  5
100D
  8
FP-602
 10
6.4802968223866619
 20
555.00000006592199
 30
0.0
 11
6.4802968223866619
 21
556.30000006592491
 31
0.0
  0
LINE
  5
100E
  8
FP-602
 10
6.4802968223866619
 20
556.30000006592491
 30
0.0
 11
7.9802968223866619
 21
556.30000006592491
 31
0.0
  0
LINE
  5
100F
  8
FP-602
 10
7.9802968223866619
 20
556.30000006592491
 30
0.0
 11
7.9802968223866619
 21
555.00000006592199
 31
0.0
  0
LINE
  5
1010
  8
FP-602
 10
7.9802968223866619
 20
555.00000006592199
 30
0.0
 11
6.4802968223866619
 21
555.00000006592199
 31
0.0
  0
LINE
  5
1011
  8
FP-602
 10
7.4802968223857533
 20
551.50000006592279
 30
0.0
 11
6.4802968223866619
 21
555.00000006592199
 31
0.0
  0
LINE
  5
1012
  8
FP-602
 10
7.3802968223853886
 20
555.20000006593364
 30
0.0
 11
7.3802968223853886
 21
556.1000000659277
 31
0.0
  0
LINE
  5
1013
  8
FP-602
 10
9.7802968223863882
 20
567.30000006592491
 30
0.0
 11
9.7802968223863882
 21
569.0000000659229
 31
0.0
  0
LINE
  5
1014
  8
FP-602
 10
9.7802968223863882
 20
569.0000000659229
 30
0.0
 11
10.480296822386659
 21
569.0000000659229
 31
0.0
  0
LINE
  5
1015
  8
FP-602
 10
10.480296822386659
 20
569.0000000659229
 30
0.0
 11
10.480296822386659
 21
567.30000006592491
 31
0.0
  0
LINE
  5
1016
  8
FP-602
 10
10.480296822386659
 20
567.30000006592491
 30
0.0
 11
9.7802968223863882
 21
567.30000006592491
 31
0.0
  0
LINE
  5
1017
  8
FP-602
 10
9.7802968223863882
 20
555.00000006592199
 30
0.0
 11
9.7802968223863882
 21
556.30000006592491
 31
0.0
  0
LINE
  5
1018
  8
FP-602
 10
9.7802968223863882
 20
556.30000006592491
 30
0.0
 11
10.480296822386659
 21
556.30000006592491
 31
0.0
  0
LINE
  5
1019
  8
FP-602
 10
10.480296822386659
 20
556.30000006592491
 30
0.0
 11
10.480296822386659
 21
555.00000006592199
 31
0.0
  0
LINE
  5
101A
  8
FP-602
 10
10.480296822386659
 20
555.00000006592199
 30
0.0
 11
9.7802968223863882
 21
555.00000006592199
 31
0.0
  0
LINE
  5
101B
  8
FP-602
 10
24.399996822386129
 20
565.5000000659229
 30
0.0
 11
27.399996822385219
 21
565.5000000659229
 31
0.0
  0
LINE
  5
101C
  8
FP-602
 10
27.399996822385219
 20
565.5000000659229
 30
0.0
 11
27.399996822385219
 21
557.5000000659229
 31
0.0
  0
LINE
  5
101D
  8
FP-602
 10
27.399996822385219
 20
557.5000000659229
 30
0.0
 11
24.399996822386129
 21
557.5000000659229
 31
0.0
  0
LINE
  5
101E
  8
FP-602
 10
24.399996822386129
 20
557.5000000659229
 30
0.0
 11
24.399996822386129
 21
565.5000000659229
 31
0.0
  0
LINE
  5
101F
  8
FP-602
 10
24.399996822386129
 20
568.50000006592188
 30
0.0
 11
27.399996822385219
 21
568.50000006592188
 31
0.0
  0
LINE
  5
1020
  8
FP-602
 10
27.399996822385219
 20
568.50000006592188
 30
0.0
 11
27.399996822385219
 21
566.00000006592199
 31
0.0
  0
LINE
  5
1021
  8
FP-602
 10
27.399996822385219
 20
566.00000006592199
 30
0.0
 11
24.399996822386129
 21
566.00000006592199
 31
0.0
  0
LINE
  5
1022
  8
FP-602
 10
24.399996822386129
 20
566.00000006592199
 30
0.0
 11
24.399996822386129
 21
568.50000006592188
 31
0.0
  0
LINE
  5
1023
  8
FP-602
 10
24.399996822386129
 20
557.00000006592188
 30
0.0
 11
27.399996822385219
 21
557.00000006592188
 31
0.0
  0
LINE
  5
1024
  8
FP-602
 10
27.399996822385219
 20
557.00000006592188
 30
0.0
 11
27.399996822385219
 21
554.50000006592199
 31
0.0
  0
LINE
  5
1025
  8
FP-602
 10
27.399996822385219
 20
554.50000006592199
 30
0.0
 11
24.399996822386129
 21
554.50000006592199
 31
0.0
  0
LINE
  5
1026
  8
FP-602
 10
24.399996822386129
 20
554.50000006592199
 30
0.0
 11
24.399996822386129
 21
557.00000006592188
 31
0.0
  0
LINE
  5
1027
  8
FP-602
 10
18.399996822386129
 20
555.00000006592199
 30
0.0
 11
18.399996822386129
 21
568.00000006592188
 31
0.0
  0
LINE
  5
1028
  8
FP-602
 10
18.399996822386129
 20
555.00000006592199
 30
0.0
 11
31.399996822385219
 21
553.0000000659229
 31
0.0
  0
LINE
  5
1029
  8
FP-602
 10
31.399996822385219
 20
553.0000000659229
 30
0.0
 11
31.399996822385219
 21
554.50000006592199
 31
0.0
  0
LINE
  5
102A
  8
FP-602
 10
18.399996822386129
 20
568.00000006592188
 30
0.0
 11
31.399996822385219
 21
570.50000006592199
 31
0.0
  0
LINE
  5
102B
  8
FP-602
 10
31.399996822385219
 20
570.50000006592199
 30
0.0
 11
31.399996822385219
 21
568.50000006592188
 31
0.0
  0
LINE
  5
102C
  8
FP-602
 10
32.899996822386129
 20
570.80000006592479
 30
0.0
 11
32.899996822386129
 21
568.50000006592188
 31
0.0
  0
ARC
  5
102D
  8
FP-602
 10
31.399996822385219
 20
552.70000006593364
 30
0.0
 40
1.5
 50
277.99999998517609
 51
0.0
  0
LINE
  5
102E
  8
FP-602
 10
32.899996822386129
 20
552.80000006592491
 30
0.0
 11
32.899996822386129
 21
554.50000006592199
 31
0.0
  0
LINE
  5
102F
  8
FP-602
 10
18.899996822385219
 20
566.79430006593066
 30
0.0
 11
18.899996822385219
 21
555.79430006593066
 31
0.0
  0
LINE
  5
1030
  8
FP-602
 10
10.399996822386131
 20
571.79430006593066
 30
0.0
 11
18.899996822385219
 21
571.79430006593066
 31
0.0
  0
ARC
  5
1031
  8
FP-602
 10
69.899996822386129
 20
561.29430006593066
 30
0.0
 40
60.5
 50
170.00000001983781
 51
189.99999998016219
  0
LINE
  5
1032
  8
FP-602
 10
18.899996822385219
 20
550.79430006593066
 30
0.0
 11
10.399996822386131
 21
550.79430006593066
 31
0.0
  0
ARC
  5
1033
  8
FP-602
 10
18.899996822385219
 20
570.29430006593066
 30
0.0
 40
1.5
 50
7.89999998325841
 51
90.0
  0
LINE
  5
1034
  8
FP-602
 10
18.359396822386771
 20
566.79430006593066
 30
0.0
 11
18.899996822385219
 21
566.79430006593066
 31
0.0
  0
LINE
  5
1035
  8
FP-602
 10
18.899996822385219
 20
555.79430006593066
 30
0.0
 11
18.359396822386771
 21
555.79430006593066
 31
0.0
  0
ARC
  5
1036
  8
FP-602
 10
18.899996822385219
 20
552.29430006593066
 30
0.0
 40
1.5
 50
270.0
 51
0.0
  0
ARC
  5
1037
  8
FP-602
 10
18.899996822385219
 20
552.29430006593066
 30
0.0
 40
1.5
 50
0.0
 51
25.200000032912168
  0
ARC
  5
1038
  8
FP-602
 10
31.399996822385219
 20
570.80000006592479
 30
0.0
 40
1.5
 50
0.0
 51
82.000000014823854
  0
LINE
  5
1039
  8
FP-602
 10
18.199996822385401
 20
569.70000006593364
 30
0.0
 11
31.599996822386402
 21
572.30000006592491
 31
0.0
  0
ARC
  5
103A
  8
FP-602
 10
18.399996822386129
 20
568.20000006593364
 30
0.0
 40
1.5
 50
97.999999985176146
 51
180.0
  0
ARC
  5
103B
  8
FP-602
 10
18.399996822386129
 20
554.80000006592491
 30
0.0
 40
1.5
 50
180.0
 51
262.0000000148238
  0
LINE
  5
103C
  8
FP-602
 10
18.199996822385401
 20
553.30000006592491
 30
0.0
 11
31.599996822386402
 21
551.20000006593364
 31
0.0
  0
LINE
  5
103D
  8
FP-602
 10
16.899996822385219
 20
568.20000006593364
 30
0.0
 11
16.899996822385219
 21
554.80000006592491
 31
0.0
  0
ARC
  5
103E
  8
FP-602
 10
27.249496822385481
 20
561.50000006592199
 30
0.0
 40
25.144500000000001
 50
343.8000000104592
 51
0.0
  0
ARC
  5
103F
  8
FP-602
 10
27.249496822385481
 20
561.50000006592199
 30
0.0
 40
25.144500000000001
 50
0.0
 51
16.199999989540789
  0
LINE
  5
1040
  8
FP-602
 10
27.399996822385219
 20
568.50000006592188
 30
0.0
 11
27.399996822385219
 21
554.50000006592199
 31
0.0
  0
LINE
  5
1041
  8
FP-602
 10
27.399996822385219
 20
554.50000006592199
 30
0.0
 11
51.399996822385219
 21
554.50000006592199
 31
0.0
  0
LINE
  5
1042
  8
FP-602
 10
51.399996822385219
 20
568.50000006592188
 30
0.0
 11
27.399996822385219
 21
568.50000006592188
 31
0.0
  0
LINE
  5
1043
  8
FP-602
 10
49.399996822385212
 20
567.50000006592279
 30
0.0
 11
49.399996822385212
 21
555.50000006592188
 31
0.0
  0
CIRCLE
  5
1044
  8
FP-602
 10
14.399996822385219
 20
554.80000006592491
 30
0.0
 40
2.799999999999998
  0
LINE
  5
1045
  8
FP-602
 10
12.5999968223864
 20
554.50000006592199
 30
0.0
 11
12.5999968223864
 21
555.10000006592782
 31
0.0
  0
LINE
  5
1046
  8
FP-602
 10
14.0999968223864
 20
556.60000006592782
 30
0.0
 11
14.699996822385399
 21
556.60000006592782
 31
0.0
  0
LINE
  5
1047
  8
FP-602
 10
16.199996822385401
 20
554.50000006592199
 30
0.0
 11
16.199996822385401
 21
555.10000006592782
 31
0.0
  0
LINE
  5
1048
  8
FP-602
 10
14.0999968223864
 20
553.0000000659229
 30
0.0
 11
14.699996822385399
 21
553.0000000659229
 31
0.0
  0
LINE
  5
1049
  8
FP-602
 10
16.199996822385401
 20
554.50000006592199
 30
0.0
 11
15.5999968223864
 21
554.50000006592199
 31
0.0
  0
LINE
  5
104A
  8
FP-602
 10
14.699996822385399
 20
553.0000000659229
 30
0.0
 11
14.699996822385399
 21
553.60000006592782
 31
0.0
  0
LINE
  5
104B
  8
FP-602
 10
14.0999968223864
 20
553.0000000659229
 30
0.0
 11
14.0999968223864
 21
553.60000006592782
 31
0.0
  0
LINE
  5
104C
  8
FP-602
 10
12.5999968223864
 20
555.10000006592782
 30
0.0
 11
13.199996822385399
 21
555.10000006592782
 31
0.0
  0
LINE
  5
104D
  8
FP-602
 10
14.699996822385399
 20
556.60000006592782
 30
0.0
 11
14.699996822385399
 21
556.00000006592188
 31
0.0
  0
LINE
  5
104E
  8
FP-602
 10
16.199996822385401
 20
554.50000006592199
 30
0.0
 11
15.5999968223864
 21
554.50000006592199
 31
0.0
  0
LINE
  5
104F
  8
FP-602
 10
16.199996822385401
 20
555.10000006592782
 30
0.0
 11
15.5999968223864
 21
555.10000006592782
 31
0.0
  0
LINE
  5
1050
  8
FP-602
 10
14.0999968223864
 20
556.60000006592782
 30
0.0
 11
14.0999968223864
 21
556.00000006592188
 31
0.0
  0
LINE
  5
1051
  8
FP-602
 10
12.5999968223864
 20
554.50000006592199
 30
0.0
 11
13.199996822385399
 21
554.50000006592199
 31
0.0
  0
ARC
  5
1052
  8
FP-602
 10
15.49999682238558
 20
555.90000006593073
 30
0.0
 40
0.8
 50
172.00000001490491
 51
277.99999998517609
  0
ARC
  5
1053
  8
FP-602
 10
13.29999682238576
 20
555.90000006593073
 30
0.0
 40
0.8
 50
262.0000000148238
 51
0.0
  0
ARC
  5
1054
  8
FP-602
 10
13.29999682238576
 20
555.90000006593073
 30
0.0
 40
0.8
 50
0.0
 51
7.9999999850951182
  0
ARC
  5
1055
  8
FP-602
 10
13.29999682238576
 20
553.70000006593364
 30
0.0
 40
0.8
 50
352.00000001490491
 51
0.0
  0
ARC
  5
1056
  8
FP-602
 10
13.29999682238576
 20
553.70000006593364
 30
0.0
 40
0.8
 50
0.0
 51
97.999999985176146
  0
ARC
  5
1057
  8
FP-602
 10
15.49999682238558
 20
553.70000006593364
 30
0.0
 40
0.8
 50
82.000000014823854
 51
187.99999998509509
  0
CIRCLE
  5
1058
  8
FP-602
 10
14.399996822385219
 20
568.30000006592491
 30
0.0
 40
2.799999999999998
  0
LINE
  5
1059
  8
FP-602
 10
12.5999968223864
 20
568.00000006592188
 30
0.0
 11
12.5999968223864
 21
568.6000000659277
 31
0.0
  0
LINE
  5
105A
  8
FP-602
 10
14.0999968223864
 20
570.10000006592782
 30
0.0
 11
14.699996822385399
 21
570.10000006592782
 31
0.0
  0
LINE
  5
105B
  8
FP-602
 10
16.199996822385401
 20
568.00000006592188
 30
0.0
 11
16.199996822385401
 21
568.6000000659277
 31
0.0
  0
LINE
  5
105C
  8
FP-602
 10
14.0999968223864
 20
566.50000006592199
 30
0.0
 11
14.699996822385399
 21
566.50000006592199
 31
0.0
  0
LINE
  5
105D
  8
FP-602
 10
16.199996822385401
 20
568.00000006592188
 30
0.0
 11
15.5999968223864
 21
568.00000006592188
 31
0.0
  0
LINE
  5
105E
  8
FP-602
 10
14.699996822385399
 20
566.50000006592199
 30
0.0
 11
14.699996822385399
 21
567.10000006592782
 31
0.0
  0
LINE
  5
105F
  8
FP-602
 10
14.0999968223864
 20
566.50000006592199
 30
0.0
 11
14.0999968223864
 21
567.10000006592782
 31
0.0
  0
LINE
  5
1060
  8
FP-602
 10
12.5999968223864
 20
568.6000000659277
 30
0.0
 11
13.199996822385399
 21
568.6000000659277
 31
0.0
  0
LINE
  5
1061
  8
FP-602
 10
14.699996822385399
 20
570.10000006592782
 30
0.0
 11
14.699996822385399
 21
569.50000006592188
 31
0.0
  0
LINE
  5
1062
  8
FP-602
 10
16.199996822385401
 20
568.00000006592188
 30
0.0
 11
15.5999968223864
 21
568.00000006592188
 31
0.0
  0
LINE
  5
1063
  8
FP-602
 10
16.199996822385401
 20
568.6000000659277
 30
0.0
 11
15.5999968223864
 21
568.6000000659277
 31
0.0
  0
LINE
  5
1064
  8
FP-602
 10
14.0999968223864
 20
570.10000006592782
 30
0.0
 11
14.0999968223864
 21
569.50000006592188
 31
0.0
  0
LINE
  5
1065
  8
FP-602
 10
12.5999968223864
 20
568.00000006592188
 30
0.0
 11
13.199996822385399
 21
568.00000006592188
 31
0.0
  0
ARC
  5
1066
  8
FP-602
 10
15.49999682238558
 20
569.40000006593073
 30
0.0
 40
0.8
 50
172.00000001490491
 51
277.99999998517609
  0
ARC
  5
1067
  8
FP-602
 10
13.29999682238576
 20
569.40000006593073
 30
0.0
 40
0.8
 50
262.0000000148238
 51
0.0
  0
ARC
  5
1068
  8
FP-602
 10
13.29999682238576
 20
569.40000006593073
 30
0.0
 40
0.8
 50
0.0
 51
7.9999999850951182
  0
ARC
  5
1069
  8
FP-602
 10
13.29999682238576
 20
567.20000006593364
 30
0.0
 40
0.8
 50
352.00000001490491
 51
0.0
  0
ARC
  5
106A
  8
FP-602
 10
13.29999682238576
 20
567.20000006593364
 30
0.0
 40
0.8
 50
0.0
 51
97.999999985176146
  0
ARC
  5
106B
  8
FP-602
 10
15.49999682238558
 20
567.20000006593364
 30
0.0
 40
0.8
 50
82.000000014823854
 51
187.99999998509509
  0
LINE
  5
106C
  8
FP-602
 10
24.399996822386129
 20
205.20000006593409
 30
0.0
 11
27.399996822385219
 21
205.20000006593409
 31
0.0
  0
LINE
  5
106D
  8
FP-602
 10
27.399996822385219
 20
205.20000006593409
 30
0.0
 11
27.399996822385219
 21
197.20000006593409
 31
0.0
  0
LINE
  5
106E
  8
FP-602
 10
27.399996822385219
 20
197.20000006593409
 30
0.0
 11
24.399996822386129
 21
197.20000006593409
 31
0.0
  0
LINE
  5
106F
  8
FP-602
 10
24.399996822386129
 20
197.20000006593409
 30
0.0
 11
24.399996822386129
 21
205.20000006593409
 31
0.0
  0
LINE
  5
1070
  8
FP-602
 10
24.399996822386129
 20
208.20000006593409
 30
0.0
 11
27.399996822385219
 21
208.20000006593409
 31
0.0
  0
LINE
  5
1071
  8
FP-602
 10
27.399996822385219
 20
208.20000006593409
 30
0.0
 11
27.399996822385219
 21
205.70000006593409
 31
0.0
  0
LINE
  5
1072
  8
FP-602
 10
27.399996822385219
 20
205.70000006593409
 30
0.0
 11
24.399996822386129
 21
205.70000006593409
 31
0.0
  0
LINE
  5
1073
  8
FP-602
 10
24.399996822386129
 20
205.70000006593409
 30
0.0
 11
24.399996822386129
 21
208.20000006593409
 31
0.0
  0
LINE
  5
1074
  8
FP-602
 10
24.399996822386129
 20
196.70000006593409
 30
0.0
 11
27.399996822385219
 21
196.70000006593409
 31
0.0
  0
LINE
  5
1075
  8
FP-602
 10
27.399996822385219
 20
196.70000006593409
 30
0.0
 11
27.399996822385219
 21
194.20000006593409
 31
0.0
  0
LINE
  5
1076
  8
FP-602
 10
27.399996822385219
 20
194.20000006593409
 30
0.0
 11
24.399996822386129
 21
194.20000006593409
 31
0.0
  0
LINE
  5
1077
  8
FP-602
 10
24.399996822386129
 20
194.20000006593409
 30
0.0
 11
24.399996822386129
 21
196.70000006593409
 31
0.0
  0
LINE
  5
1078
  8
FP-602
 10
18.399996822386129
 20
194.70000006593409
 30
0.0
 11
18.399996822386129
 21
207.70000006593409
 31
0.0
  0
LINE
  5
1079
  8
FP-602
 10
18.399996822386129
 20
194.70000006593409
 30
0.0
 11
31.399996822385219
 21
192.70000006593401
 31
0.0
  0
LINE
  5
107A
  8
FP-602
 10
31.399996822385219
 20
192.70000006593401
 30
0.0
 11
31.399996822385219
 21
194.20000006593409
 31
0.0
  0
LINE
  5
107B
  8
FP-602
 10
18.399996822386129
 20
207.70000006593409
 30
0.0
 11
31.399996822385219
 21
210.20000006593409
 31
0.0
  0
LINE
  5
107C
  8
FP-602
 10
31.399996822385219
 20
210.20000006593409
 30
0.0
 11
31.399996822385219
 21
208.20000006593409
 31
0.0
  0
LINE
  5
107D
  8
FP-602
 10
32.899996822386129
 20
210.50000006592251
 30
0.0
 11
32.899996822386129
 21
208.20000006593409
 31
0.0
  0
ARC
  5
107E
  8
FP-602
 10
31.399996822385219
 20
192.40000006593121
 30
0.0
 40
1.5
 50
277.99999998517609
 51
0.0
  0
LINE
  5
107F
  8
FP-602
 10
32.899996822386129
 20
192.50000006592239
 30
0.0
 11
32.899996822386129
 21
194.20000006593409
 31
0.0
  0
LINE
  5
1080
  8
FP-602
 10
18.899996822385219
 20
206.4943000659282
 30
0.0
 11
18.899996822385219
 21
195.4943000659282
 31
0.0
  0
LINE
  5
1081
  8
FP-602
 10
10.399996822386131
 20
211.4943000659282
 30
0.0
 11
18.899996822385219
 21
211.4943000659282
 31
0.0
  0
ARC
  5
1082
  8
FP-602
 10
69.899996822386129
 20
200.9943000659282
 30
0.0
 40
60.5
 50
170.00000001983781
 51
189.99999998016219
  0
LINE
  5
1083
  8
FP-602
 10
18.899996822385219
 20
190.4943000659282
 30
0.0
 11
10.399996822386131
 21
190.4943000659282
 31
0.0
  0
ARC
  5
1084
  8
FP-602
 10
18.899996822385219
 20
209.9943000659282
 30
0.0
 40
1.5
 50
7.89999998325841
 51
90.0
  0
LINE
  5
1085
  8
FP-602
 10
18.359396822386771
 20
206.4943000659282
 30
0.0
 11
18.899996822385219
 21
206.4943000659282
 31
0.0
  0
LINE
  5
1086
  8
FP-602
 10
18.899996822385219
 20
195.4943000659282
 30
0.0
 11
18.359396822386771
 21
195.4943000659282
 31
0.0
  0
ARC
  5
1087
  8
FP-602
 10
18.899996822385219
 20
191.9943000659282
 30
0.0
 40
1.5
 50
270.0
 51
0.0
  0
ARC
  5
1088
  8
FP-602
 10
18.899996822385219
 20
191.9943000659282
 30
0.0
 40
1.5
 50
0.0
 51
25.200000032912168
  0
ARC
  5
1089
  8
FP-602
 10
31.399996822385219
 20
210.50000006592251
 30
0.0
 40
1.5
 50
0.0
 51
82.000000014823854
  0
LINE
  5
108A
  8
FP-602
 10
18.199996822385401
 20
209.40000006593121
 30
0.0
 11
31.599996822386402
 21
212.00000006592239
 31
0.0
  0
ARC
  5
108B
  8
FP-602
 10
18.399996822386129
 20
207.90000006593121
 30
0.0
 40
1.5
 50
97.999999985176146
 51
180.0
  0
ARC
  5
108C
  8
FP-602
 10
18.399996822386129
 20
194.50000006592239
 30
0.0
 40
1.5
 50
180.0
 51
262.0000000148238
  0
LINE
  5
108D
  8
FP-602
 10
18.199996822385401
 20
193.00000006592239
 30
0.0
 11
31.599996822386402
 21
190.9000000659311
 31
0.0
  0
LINE
  5
108E
  8
FP-602
 10
16.899996822385219
 20
207.90000006593121
 30
0.0
 11
16.899996822385219
 21
194.50000006592239
 31
0.0
  0
ARC
  5
108F
  8
FP-602
 10
27.249496822385481
 20
201.20000006593409
 30
0.0
 40
25.144500000000001
 50
343.8000000104592
 51
0.0
  0
ARC
  5
1090
  8
FP-602
 10
27.249496822385481
 20
201.20000006593409
 30
0.0
 40
25.144500000000001
 50
0.0
 51
16.199999989540789
  0
LINE
  5
1091
  8
FP-602
 10
27.399996822385219
 20
208.20000006593409
 30
0.0
 11
27.399996822385219
 21
194.20000006593409
 31
0.0
  0
LINE
  5
1092
  8
FP-602
 10
27.399996822385219
 20
194.20000006593409
 30
0.0
 11
51.399996822385219
 21
194.20000006593409
 31
0.0
  0
LINE
  5
1093
  8
FP-602
 10
51.399996822385219
 20
208.20000006593409
 30
0.0
 11
27.399996822385219
 21
208.20000006593409
 31
0.0
  0
LINE
  5
1094
  8
FP-602
 10
49.399996822385212
 20
207.20000006593409
 30
0.0
 11
49.399996822385212
 21
195.20000006593409
 31
0.0
  0
CIRCLE
  5
1095
  8
FP-602
 10
14.399996822385219
 20
194.50000006592239
 30
0.0
 40
2.799999999999998
  0
LINE
  5
1096
  8
FP-602
 10
12.5999968223864
 20
194.20000006593409
 30
0.0
 11
12.5999968223864
 21
194.80000006592539
 31
0.0
  0
LINE
  5
1097
  8
FP-602
 10
14.0999968223864
 20
196.3000000659253
 30
0.0
 11
14.699996822385399
 21
196.3000000659253
 31
0.0
  0
LINE
  5
1098
  8
FP-602
 10
16.199996822385401
 20
194.20000006593409
 30
0.0
 11
16.199996822385401
 21
194.80000006592539
 31
0.0
  0
LINE
  5
1099
  8
FP-602
 10
14.0999968223864
 20
192.70000006593401
 30
0.0
 11
14.699996822385399
 21
192.70000006593401
 31
0.0
  0
LINE
  5
109A
  8
FP-602
 10
16.199996822385401
 20
194.20000006593409
 30
0.0
 11
15.5999968223864
 21
194.20000006593409
 31
0.0
  0
LINE
  5
109B
  8
FP-602
 10
14.699996822385399
 20
192.70000006593401
 30
0.0
 11
14.699996822385399
 21
193.3000000659253
 31
0.0
  0
LINE
  5
109C
  8
FP-602
 10
14.0999968223864
 20
192.70000006593401
 30
0.0
 11
14.0999968223864
 21
193.3000000659253
 31
0.0
  0
LINE
  5
109D
  8
FP-602
 10
12.5999968223864
 20
194.80000006592539
 30
0.0
 11
13.199996822385399
 21
194.80000006592539
 31
0.0
  0
LINE
  5
109E
  8
FP-602
 10
14.699996822385399
 20
196.3000000659253
 30
0.0
 11
14.699996822385399
 21
195.70000006593409
 31
0.0
  0
LINE
  5
109F
  8
FP-602
 10
16.199996822385401
 20
194.20000006593409
 30
0.0
 11
15.5999968223864
 21
194.20000006593409
 31
0.0
  0
LINE
  5
10A0
  8
FP-602
 10
16.199996822385401
 20
194.80000006592539
 30
0.0
 11
15.5999968223864
 21
194.80000006592539
 31
0.0
  0
LINE
  5
10A1
  8
FP-602
 10
14.0999968223864
 20
196.3000000659253
 30
0.0
 11
14.0999968223864
 21
195.70000006593409
 31
0.0
  0
LINE
  5
10A2
  8
FP-602
 10
12.5999968223864
 20
194.20000006593409
 30
0.0
 11
13.199996822385399
 21
194.20000006593409
 31
0.0
  0
ARC
  5
10A3
  8
FP-602
 10
15.49999682238558
 20
195.60000006592821
 30
0.0
 40
0.8
 50
172.00000001490491
 51
277.99999998517609
  0
ARC
  5
10A4
  8
FP-602
 10
13.29999682238576
 20
195.60000006592821
 30
0.0
 40
0.8
 50
262.0000000148238
 51
0.0
  0
ARC
  5
10A5
  8
FP-602
 10
13.29999682238576
 20
195.60000006592821
 30
0.0
 40
0.8
 50
0.0
 51
7.9999999850951182
  0
ARC
  5
10A6
  8
FP-602
 10
13.29999682238576
 20
193.40000006593121
 30
0.0
 40
0.8
 50
352.00000001490491
 51
0.0
  0
ARC
  5
10A7
  8
FP-602
 10
13.29999682238576
 20
193.40000006593121
 30
0.0
 40
0.8
 50
0.0
 51
97.999999985176146
  0
ARC
  5
10A8
  8
FP-602
 10
15.49999682238558
 20
193.40000006593121
 30
0.0
 40
0.8
 50
82.000000014823854
 51
187.99999998509509
  0
CIRCLE
  5
10A9
  8
FP-602
 10
14.399996822385219
 20
208.00000006592251
 30
0.0
 40
2.799999999999998
  0
LINE
  5
10AA
  8
FP-602
 10
12.5999968223864
 20
207.70000006593409
 30
0.0
 11
12.5999968223864
 21
208.30000006592539
 31
0.0
  0
LINE
  5
10AB
  8
FP-602
 10
14.0999968223864
 20
209.80000006592539
 30
0.0
 11
14.699996822385399
 21
209.80000006592539
 31
0.0
  0
LINE
  5
10AC
  8
FP-602
 10
16.199996822385401
 20
207.70000006593409
 30
0.0
 11
16.199996822385401
 21
208.30000006592539
 31
0.0
  0
LINE
  5
10AD
  8
FP-602
 10
14.0999968223864
 20
206.20000006593409
 30
0.0
 11
14.699996822385399
 21
206.20000006593409
 31
0.0
  0
LINE
  5
10AE
  8
FP-602
 10
16.199996822385401
 20
207.70000006593409
 30
0.0
 11
15.5999968223864
 21
207.70000006593409
 31
0.0
  0
LINE
  5
10AF
  8
FP-602
 10
14.699996822385399
 20
206.20000006593409
 30
0.0
 11
14.699996822385399
 21
206.80000006592539
 31
0.0
  0
LINE
  5
10B0
  8
FP-602
 10
14.0999968223864
 20
206.20000006593409
 30
0.0
 11
14.0999968223864
 21
206.80000006592539
 31
0.0
  0
LINE
  5
10B1
  8
FP-602
 10
12.5999968223864
 20
208.30000006592539
 30
0.0
 11
13.199996822385399
 21
208.30000006592539
 31
0.0
  0
LINE
  5
10B2
  8
FP-602
 10
14.699996822385399
 20
209.80000006592539
 30
0.0
 11
14.699996822385399
 21
209.20000006593409
 31
0.0
  0
LINE
  5
10B3
  8
FP-602
 10
16.199996822385401
 20
207.70000006593409
 30
0.0
 11
15.5999968223864
 21
207.70000006593409
 31
0.0
  0
LINE
  5
10B4
  8
FP-602
 10
16.199996822385401
 20
208.30000006592539
 30
0.0
 11
15.5999968223864
 21
208.30000006592539
 31
0.0
  0
LINE
  5
10B5
  8
FP-602
 10
14.0999968223864
 20
209.80000006592539
 30
0.0
 11
14.0999968223864
 21
209.20000006593409
 31
0.0
  0
LINE
  5
10B6
  8
FP-602
 10
12.5999968223864
 20
207.70000006593409
 30
0.0
 11
13.199996822385399
 21
207.70000006593409
 31
0.0
  0
ARC
  5
10B7
  8
FP-602
 10
15.49999682238558
 20
209.1000000659283
 30
0.0
 40
0.8
 50
172.00000001490491
 51
277.99999998517609
  0
ARC
  5
10B8
  8
FP-602
 10
13.29999682238576
 20
209.1000000659283
 30
0.0
 40
0.8
 50
262.0000000148238
 51
0.0
  0
ARC
  5
10B9
  8
FP-602
 10
13.29999682238576
 20
209.1000000659283
 30
0.0
 40
0.8
 50
0.0
 51
7.9999999850951182
  0
ARC
  5
10BA
  8
FP-602
 10
13.29999682238576
 20
206.90000006593121
 30
0.0
 40
0.8
 50
352.00000001490491
 51
0.0
  0
ARC
  5
10BB
  8
FP-602
 10
13.29999682238576
 20
206.90000006593121
 30
0.0
 40
0.8
 50
0.0
 51
97.999999985176146
  0
ARC
  5
10BC
  8
FP-602
 10
15.49999682238558
 20
206.90000006593121
 30
0.0
 40
0.8
 50
82.000000014823854
 51
187.99999998509509
  0
LINE
  5
10BD
  8
FP-602
 10
0.3999968223861288
 20
1.5000000659224491
 30
0.0
 11
20.399996822386129
 21
1.5000000659224491
 31
0.0
  0
LINE
  5
10BE
  8
FP-602
 10
20.396996822385521
 20
2.5000000659224488
 30
0.0
 11
65.399996822386129
 21
2.5000000659224488
 31
0.0
  0
LINE
  5
10BF
  8
FP-602
 10
20.399996822386129
 20
4.0000000659224488
 30
0.0
 11
65.399996822386129
 21
4.0000000659224488
 31
0.0
  0
LINE
  5
10C0
  8
FP-602
 10
0.3999968223863561
 20
761.50000006592199
 30
0.0
 11
20.39999682238636
 21
761.50000006592199
 31
0.0
  0
LINE
  5
10C1
  8
FP-602
 10
20.399996822386129
 20
759.00000006592199
 30
0.0
 11
65.399996822386129
 21
759.00000006592199
 31
0.0
  0
LINE
  5
10C2
  8
FP-602
 10
65.399996822386129
 20
760.50000006592188
 30
0.0
 11
20.399996822386129
 21
760.50000006592188
 31
0.0
  0
LINE
  5
10C3
  8
FP-602
 10
0.3999968223863561
 20
763.0000000659229
 30
0.0
 11
20.39999682238636
 21
763.0000000659229
 31
0.0
  0
LINE
  5
10C4
  8
FP-602
 10
20.399996822386129
 20
763.0000000659229
 30
0.0
 11
20.399996822386129
 21
0.0000000659224497
 31
0.0
  0
LINE
  5
10C5
  8
FP-602
 10
20.399996822386129
 20
0.0000000659224497
 30
0.0
 11
0.3999968223861288
 21
0.0000000659224497
 31
0.0
  0
LINE
  5
10C6
  8
FP-602
 10
0.3999968223861288
 20
0.0000000659224497
 30
0.0
 11
0.3999968223861288
 21
763.0000000659229
 31
0.0
  0
LINE
  5
10C7
  8
FP-602
 10
65.399996822386129
 20
2.5000000659224488
 30
0.0
 11
65.399996822386129
 21
760.50000006592188
 31
0.0
  0
LINE
  5
10C8
  8
FP-602
 10
-0.0000031776144169
 20
686.01970006592683
 30
0.0
 11
0.3999968223861288
 21
686.01970006592683
 31
0.0
  0
LINE
  5
10C9
  8
FP-602
 10
0.3999968223861288
 20
686.01970006592683
 30
0.0
 11
0.3999968223861288
 21
77.019700065926827
 31
0.0
  0
LINE
  5
10CA
  8
FP-602
 10
0.3999968223861288
 20
77.019700065926827
 30
0.0
 11
-0.0000031776144169
 21
77.019700065926827
 31
0.0
  0
LINE
  5
10CB
  8
FP-602
 10
-0.0000031776144169
 20
77.019700065926827
 30
0.0
 11
-0.0000031776144169
 21
686.01970006592683
 31
0.0
  0
LINE
  5
10CC
  8
FP-602
 10
65.399996822386129
 20
719.50000006592199
 30
0.0
 11
75.399996822385219
 21
720.50000006592199
 31
0.0
  0
LINE
  5
10CD
  8
FP-602
 10
65.399996822386129
 20
741.50000006592199
 30
0.0
 11
75.399996822385219
 21
740.5000000659229
 31
0.0
  0
LINE
  5
10CE
  8
FP-602
 10
65.399996822386129
 20
719.50000006592199
 30
0.0
 11
65.399996822386129
 21
741.50000006592199
 31
0.0
  0
LINE
  5
10CF
  8
FP-602
 10
75.399996822385219
 20
720.50000006592199
 30
0.0
 11
75.399996822385219
 21
740.5000000659229
 31
0.0
  0
LINE
  5
10D0
  8
FP-602
 10
65.499996822385583
 20
21.00000006592245
 30
0.0
 11
75.499996822385583
 21
22.00000006592245
 31
0.0
  0
LINE
  5
10D1
  8
FP-602
 10
65.499996822385583
 20
43.000000065922443
 30
0.0
 11
75.499996822385583
 21
42.00000006592245
 31
0.0
  0
LINE
  5
10D2
  8
FP-602
 10
65.499996822385583
 20
21.00000006592245
 30
0.0
 11
65.499996822385583
 21
43.000000065922443
 31
0.0
  0
LINE
  5
10D3
  8
FP-602
 10
75.499996822385583
 20
22.00000006592245
 30
0.0
 11
75.499996822385583
 21
42.00000006592245
 31
0.0
  0
LINE
  5
10D4
  8
FP-602
 10
65.399996822386129
 20
370.20000006593409
 30
0.0
 11
75.399996822385219
 21
371.20000006593409
 31
0.0
  0
LINE
  5
10D5
  8
FP-602
 10
65.399996822386129
 20
392.20000006593409
 30
0.0
 11
75.399996822385219
 21
391.20000006593409
 31
0.0
  0
LINE
  5
10D6
  8
FP-602
 10
65.399996822386129
 20
370.20000006593409
 30
0.0
 11
65.399996822386129
 21
392.20000006593409
 31
0.0
  0
LINE
  5
10D7
  8
FP-602
 10
75.399996822385219
 20
371.20000006593409
 30
0.0
 11
75.399996822385219
 21
391.20000006593409
 31
0.0
  0
ENDBLK
  5
10DB
  8
0
  0
BLOCK
  8
0
  2
A$C5C9B635F
 70
     0
 10
0.0
 20
0.0
 30
0.0
  3
A$C5C9B635F
  1

  0
LINE
  5
11FF
  8
FP-602
 10
716.50000054307384
 20
65.980301259642602
 30
0.0
 11
716.50000054307384
 21
54.980301259642602
 31
0.0
  0
LINE
  5
1200
  8
FP-602
 10
716.50000054307384
 20
54.980301259642602
 30
0.0
 11
715.50000054307429
 21
54.980301259642602
 31
0.0
  0
LINE
  5
1201
  8
FP-602
 10
715.50000054307429
 20
54.980301259642602
 30
0.0
 11
715.50000054307429
 21
65.980301259642602
 31
0.0
  0
LINE
  5
1202
  8
FP-602
 10
715.50000054307429
 20
65.980301259642602
 30
0.0
 11
716.50000054307384
 21
65.980301259642602
 31
0.0
  0
POLYLINE
  5
1203
  8
FP-602
 66
     1
 10
0.0
 20
0.0
 30
0.0
  0
VERTEX
  5
1844
  8
FP-602
 10
716.50000054307384
 20
55.980301259642602
 30
0.0
  0
VERTEX
  5
1845
  8
FP-602
 10
716.57360054307435
 20
55.886301259630727
 30
0.0
  0
VERTEX
  5
1846
  8
FP-602
 10
716.65110054307434
 20
55.796601259633917
 30
0.0
  0
VERTEX
  5
1847
  8
FP-602
 10
716.73250054307425
 20
55.711101259632862
 30
0.0
  0
VERTEX
  5
1848
  8
FP-602
 10
716.81770054307435
 20
55.629901259632327
 30
0.0
  0
VERTEX
  5
1849
  8
FP-602
 10
716.90690054307424
 20
55.55300125963231
 30
0.0
  0
VERTEX
  5
184A
  8
FP-602
 10
717.00000054307418
 20
55.480301259642602
 30
0.0
  0
VERTEX
  5
184B
  8
FP-602
 10
717.19420054307466
 20
55.349901259633498
 30
0.0
  0
VERTEX
  5
184C
  8
FP-602
 10
717.40090054307484
 20
55.237001259640692
 30
0.0
  0
VERTEX
  5
184D
  8
FP-602
 10
717.61740054307484
 20
55.142701259643673
 30
0.0
  0
VERTEX
  5
184E
  8
FP-602
 10
717.84120054307459
 20
55.067801259636781
 30
0.0
  0
VERTEX
  5
184F
  8
FP-602
 10
718.06950054307435
 20
55.01340125964316
 30
0.0
  0
VERTEX
  5
1850
  8
FP-602
 10
718.30000054307436
 20
54.980301259642602
 30
0.0
  0
VERTEX
  5
1851
  8
FP-602
 10
718.41580054307451
 20
54.972001259641267
 30
0.0
  0
VERTEX
  5
1852
  8
FP-602
 10
718.53160054307455
 20
54.968201259635407
 30
0.0
  0
VERTEX
  5
1853
  8
FP-602
 10
718.64780054307437
 20
54.968201259635407
 30
0.0
  0
VERTEX
  5
1854
  8
FP-602
 10
718.76440054307432
 20
54.970901259632683
 30
0.0
  0
VERTEX
  5
1855
  8
FP-602
 10
718.88170054307454
 20
54.975201259633188
 30
0.0
  0
VERTEX
  5
1856
  8
FP-602
 10
719.00000054307429
 20
54.980301259642602
 30
0.0
  0
VERTEX
  5
1857
  8
FP-602
 10
719.19060054307465
 20
54.989001259633817
 30
0.0
  0
VERTEX
  5
1858
  8
FP-602
 10
719.38160054307446
 20
55.001501259630921
 30
0.0
  0
VERTEX
  5
1859
  8
FP-602
 10
719.57050054307444
 20
55.02240125963408
 30
0.0
  0
VERTEX
  5
185A
  8
FP-602
 10
719.75490054307465
 20
55.05610125963404
 30
0.0
  0
VERTEX
  5
185B
  8
FP-602
 10
719.93220054307449
 20
55.107301259635733
 30
0.0
  0
VERTEX
  5
185C
  8
FP-602
 10
720.10000054307466
 20
55.180301259639691
 30
0.0
  0
VERTEX
  5
185D
  8
FP-602
 10
720.17130054307415
 20
55.221101259642182
 30
0.0
  0
VERTEX
  5
185E
  8
FP-602
 10
720.24050054307463
 20
55.266501259630331
 30
0.0
  0
VERTEX
  5
185F
  8
FP-602
 10
720.30780054307434
 20
55.315801259643649
 30
0.0
  0
VERTEX
  5
1860
  8
FP-602
 10
720.37330054307449
 20
55.368301259634329
 30
0.0
  0
VERTEX
  5
1861
  8
FP-602
 10
720.43730054307468
 20
55.423401259632101
 30
0.0
  0
VERTEX
  5
1862
  8
FP-602
 10
720.50000054307429
 20
55.480301259642602
 30
0.0
  0
VERTEX
  5
1863
  8
FP-602
 10
720.66460054307424
 20
55.641701259639831
 30
0.0
  0
VERTEX
  5
1864
  8
FP-602
 10
720.81940054307461
 20
55.811801259642841
 30
0.0
  0
VERTEX
  5
1865
  8
FP-602
 10
720.96230054307443
 20
55.990801259632008
 30
0.0
  0
VERTEX
  5
1866
  8
FP-602
 10
721.09130054307434
 20
56.178601259631698
 30
0.0
  0
VERTEX
  5
1867
  8
FP-602
 10
721.20450054307446
 20
56.375101259637177
 30
0.0
  0
VERTEX
  5
1868
  8
FP-602
 10
721.30000054307436
 20
56.58030125963387
 30
0.0
  0
VERTEX
  5
1869
  8
FP-602
 10
721.30000054307436
 20
56.58030125963387
 30
0.0
  0
VERTEX
  5
186A
  8
FP-602
 10
721.35370054307441
 20
56.724301259634103
 30
0.0
  0
VERTEX
  5
186B
  8
FP-602
 10
721.39870054307448
 20
56.871601259630999
 30
0.0
  0
VERTEX
  5
186C
  8
FP-602
 10
721.43540054307448
 20
57.021601259639738
 30
0.0
  0
VERTEX
  5
186D
  8
FP-602
 10
721.46430054307439
 20
57.173401259632101
 30
0.0
  0
VERTEX
  5
186E
  8
FP-602
 10
721.48570054307447
 20
57.32660125963298
 30
0.0
  0
VERTEX
  5
186F
  8
FP-602
 10
721.50000054307418
 20
57.480301259642602
 30
0.0
  0
VERTEX
  5
1870
  8
FP-602
 10
721.50490054307465
 20
57.563801259635959
 30
0.0
  0
VERTEX
  5
1871
  8
FP-602
 10
721.50780054307461
 20
57.647101259634383
 30
0.0
  0
VERTEX
  5
1872
  8
FP-602
 10
721.50880054307424
 20
57.730501259637549
 30
0.0
  0
VERTEX
  5
1873
  8
FP-602
 10
721.50780054307461
 20
57.813801259635973
 30
0.0
  0
VERTEX
  5
1874
  8
FP-602
 10
721.50490054307465
 20
57.897101259634383
 30
0.0
  0
VERTEX
  5
1875
  8
FP-602
 10
721.50000054307418
 20
57.980301259642602
 30
0.0
  0
VERTEX
  5
1876
  8
FP-602
 10
721.50000054307418
 20
57.980301259642602
 30
0.0
  0
SEQEND
  5
1877
  8
FP-602
  0
POLYLINE
  5
1204
  8
FP-602
 66
     1
 10
0.0
 20
0.0
 30
0.0
  0
VERTEX
  5
1878
  8
FP-602
 10
716.50000054307384
 20
56.980301259642602
 30
0.0
  0
VERTEX
  5
1879
  8
FP-602
 10
716.59260054307424
 20
56.88910125963298
 30
0.0
  0
VERTEX
  5
187A
  8
FP-602
 10
716.68820054307434
 20
56.801001259639172
 30
0.0
  0
VERTEX
  5
187B
  8
FP-602
 10
716.7867005430744
 20
56.716101259637519
 30
0.0
  0
VERTEX
  5
187C
  8
FP-602
 10
716.88820054307462
 20
56.634301259637603
 30
0.0
  0
VERTEX
  5
187D
  8
FP-602
 10
716.99260054307467
 20
56.555801259634329
 30
0.0
  0
VERTEX
  5
187E
  8
FP-602
 10
717.10000054307454
 20
56.480301259642602
 30
0.0
  0
VERTEX
  5
187F
  8
FP-602
 10
717.2850005430746
 20
56.36220125963564
 30
0.0
  0
VERTEX
  5
1880
  8
FP-602
 10
717.47720054307445
 20
56.255101259641833
 30
0.0
  0
VERTEX
  5
1881
  8
FP-602
 10
717.67580054307416
 20
56.161201259634709
 30
0.0
  0
VERTEX
  5
1882
  8
FP-602
 10
717.87970054307425
 20
56.082601259641251
 30
0.0
  0
VERTEX
  5
1883
  8
FP-602
 10
718.08810054307423
 20
56.021601259639731
 30
0.0
  0
VERTEX
  5
1884
  8
FP-602
 10
718.30000054307436
 20
55.980301259642602
 30
0.0
  0
VERTEX
  5
1885
  8
FP-602
 10
718.41520054307455
 20
55.967001259636611
 30
0.0
  0
VERTEX
  5
1886
  8
FP-602
 10
718.53110054307444
 20
55.959501259644178
 30
0.0
  0
VERTEX
  5
1887
  8
FP-602
 10
718.64760054307453
 20
55.957501259636501
 30
0.0
  0
VERTEX
  5
1888
  8
FP-602
 10
718.76470054307435
 20
55.960601259638217
 30
0.0
  0
VERTEX
  5
1889
  8
FP-602
 10
718.88210054307444
 20
55.968401259630348
 30
0.0
  0
VERTEX
  5
188A
  8
FP-602
 10
719.00000054307429
 20
55.980301259642602
 30
0.0
  0
VERTEX
  5
188B
  8
FP-602
 10
719.15970054307445
 20
56.003001259643952
 30
0.0
  0
VERTEX
  5
188C
  8
FP-602
 10
719.31820054307445
 20
56.034201259641577
 30
0.0
  0
VERTEX
  5
188D
  8
FP-602
 10
719.4733005430744
 20
56.07590125964316
 30
0.0
  0
VERTEX
  5
188E
  8
FP-602
 10
719.62320054307429
 20
56.129601259632629
 30
0.0
  0
VERTEX
  5
188F
  8
FP-602
 10
719.76610054307446
 20
56.197201259642043
 30
0.0
  0
VERTEX
  5
1890
  8
FP-602
 10
719.90000054307484
 20
56.28030125963096
 30
0.0
  0
VERTEX
  5
1891
  8
FP-602
 10
719.95640054307432
 20
56.323001259636378
 30
0.0
  0
VERTEX
  5
1892
  8
FP-602
 10
720.01060054307425
 20
56.368801259643533
 30
0.0
  0
VERTEX
  5
1893
  8
FP-602
 10
720.06220054307448
 20
56.417701259637852
 30
0.0
  0
VERTEX
  5
1894
  8
FP-602
 10
720.11100054307462
 20
56.469401259634189
 30
0.0
  0
VERTEX
  5
1895
  8
FP-602
 10
720.15700054307445
 20
56.523701259637619
 30
0.0
  0
VERTEX
  5
1896
  8
FP-602
 10
720.20000054307445
 20
56.58030125963387
 30
0.0
  0
VERTEX
  5
1897
  8
FP-602
 10
720.24170054307433
 20
56.642401259643968
 30
0.0
  0
VERTEX
  5
1898
  8
FP-602
 10
720.28000054307449
 20
56.706701259642159
 30
0.0
  0
VERTEX
  5
1899
  8
FP-602
 10
720.3148005430744
 20
56.772901259643277
 30
0.0
  0
VERTEX
  5
189A
  8
FP-602
 10
720.34640054307465
 20
56.840701259633079
 30
0.0
  0
VERTEX
  5
189B
  8
FP-602
 10
720.3747005430746
 20
56.90990125963117
 30
0.0
  0
VERTEX
  5
189C
  8
FP-602
 10
720.40000054307427
 20
56.980301259642602
 30
0.0
  0
VERTEX
  5
189D
  8
FP-602
 10
720.40000054307427
 20
56.980301259642602
 30
0.0
  0
VERTEX
  5
189E
  8
FP-602
 10
720.42510054307456
 20
57.061801259642841
 30
0.0
  0
VERTEX
  5
189F
  8
FP-602
 10
720.44650054307419
 20
57.144201259642159
 30
0.0
  0
VERTEX
  5
18A0
  8
FP-602
 10
720.46450054307434
 20
57.227501259640583
 30
0.0
  0
VERTEX
  5
18A1
  8
FP-602
 10
720.47930054307415
 20
57.311401259638387
 30
0.0
  0
VERTEX
  5
18A2
  8
FP-602
 10
720.49100054307416
 20
57.395701259640639
 30
0.0
  0
VERTEX
  5
18A3
  8
FP-602
 10
720.49990054307455
 20
57.480301259642602
 30
0.0
  0
VERTEX
  5
18A4
  8
FP-602
 10
720.50000054307429
 20
57.480301259642602
 30
0.0
  0
VERTEX
  5
18A5
  8
FP-602
 10
720.50620054307456
 20
57.563501259636269
 30
0.0
  0
VERTEX
  5
18A6
  8
FP-602
 10
720.50990054307431
 20
57.646701259629928
 30
0.0
  0
VERTEX
  5
18A7
  8
FP-602
 10
720.51110054307435
 20
57.729901259638147
 30
0.0
  0
VERTEX
  5
18A8
  8
FP-602
 10
720.50990054307431
 20
57.813301259641321
 30
0.0
  0
VERTEX
  5
18A9
  8
FP-602
 10
720.50620054307456
 20
57.896801259634678
 30
0.0
  0
VERTEX
  5
18AA
  8
FP-602
 10
720.50000054307429
 20
57.980301259642602
 30
0.0
  0
SEQEND
  5
18AB
  8
FP-602
  0
LINE
  5
1205
  8
FP-602
 10
720.50000054307429
 20
57.980301259642602
 30
0.0
 11
721.50000054307418
 21
57.980301259642602
 31
0.0
  0
LINE
  5
1206
  8
FP-602
 10
714.00000054307418
 20
48.980301259642602
 30
0.0
 11
715.00000054307429
 21
48.980301259642602
 31
0.0
  0
LINE
  5
1207
  8
FP-602
 10
722.00000054307418
 20
46.480301259642602
 30
0.0
 11
716.00000054307429
 21
24.480301259642602
 31
0.0
  0
POLYLINE
  5
1208
  8
FP-602
 66
     1
 10
0.0
 20
0.0
 30
0.0
  0
VERTEX
  5
18AC
  8
FP-602
 10
715.00000054307429
 20
24.480301259642602
 30
0.0
  0
VERTEX
  5
18AD
  8
FP-602
 10
715.00000054307429
 20
24.268501259638018
 30
0.0
  0
VERTEX
  5
18AE
  8
FP-602
 10
715.01330054307437
 20
24.061301259633641
 30
0.0
  0
VERTEX
  5
18AF
  8
FP-602
 10
715.04000054307426
 20
23.858901259638969
 30
0.0
  0
VERTEX
  5
18B0
  8
FP-602
 10
715.08000054307456
 20
23.661301259639458
 30
0.0
  0
VERTEX
  5
18B1
  8
FP-602
 10
715.13330054307426
 20
23.468501259635111
 30
0.0
  0
VERTEX
  5
18B2
  8
FP-602
 10
715.20000054307445
 20
23.28030125963096
 30
0.0
  0
VERTEX
  5
18B3
  8
FP-602
 10
715.26660054307456
 20
23.124801259637479
 30
0.0
  0
VERTEX
  5
18B4
  8
FP-602
 10
715.34150054307383
 20
22.972101259631469
 30
0.0
  0
VERTEX
  5
18B5
  8
FP-602
 10
715.42360054307426
 20
22.821901259642338
 30
0.0
  0
VERTEX
  5
18B6
  8
FP-602
 10
715.51150054307436
 20
22.673501259636851
 30
0.0
  0
VERTEX
  5
18B7
  8
FP-602
 10
715.60400054307445
 20
22.526501259639652
 30
0.0
  0
VERTEX
  5
18B8
  8
FP-602
 10
715.70000054307445
 20
22.380301259636781
 30
0.0
  0
VERTEX
  5
18B9
  8
FP-602
 10
715.77450054307428
 20
22.270101259641251
 30
0.0
  0
VERTEX
  5
18BA
  8
FP-602
 10
715.85130054307444
 20
22.161701259643898
 30
0.0
  0
VERTEX
  5
18BB
  8
FP-602
 10
715.93120054307417
 20
22.056801259638181
 30
0.0
  0
VERTEX
  5
18BC
  8
FP-602
 10
716.01540054307452
 20
21.9572012596368
 30
0.0
  0
VERTEX
  5
18BD
  8
FP-602
 10
716.10460054307441
 20
21.864501259643021
 30
0.0
  0
VERTEX
  5
18BE
  8
FP-602
 10
716.20000054307445
 20
21.78030125963096
 30
0.0
  0
VERTEX
  5
18BF
  8
FP-602
 10
716.3122005430746
 20
21.699701259644371
 30
0.0
  0
VERTEX
  5
18C0
  8
FP-602
 10
716.43280054307434
 20
21.631301259640619
 30
0.0
  0
VERTEX
  5
18C1
  8
FP-602
 10
716.56190054307444
 20
21.575201259639019
 30
0.0
  0
VERTEX
  5
18C2
  8
FP-602
 10
716.69950054307435
 20
21.531301259634802
 30
0.0
  0
VERTEX
  5
18C3
  8
FP-602
 10
716.84550054307465
 20
21.499701259632729
 30
0.0
  0
VERTEX
  5
18C4
  8
FP-602
 10
717.00000054307418
 20
21.480301259642602
 30
0.0
  0
SEQEND
  5
18C5
  8
FP-602
  0
LINE
  5
1209
  8
FP-602
 10
717.50000054307418
 20
21.480301259642602
 30
0.0
 11
718.00000054307418
 21
21.980301259642602
 31
0.0
  0
POLYLINE
  5
120A
  8
FP-602
 66
     1
 10
0.0
 20
0.0
 30
0.0
  0
VERTEX
  5
18C6
  8
FP-602
 10
716.00000054307429
 20
24.480301259642602
 30
0.0
  0
VERTEX
  5
18C7
  8
FP-602
 10
716.0096005430745
 20
24.278601259637529
 30
0.0
  0
VERTEX
  5
18C8
  8
FP-602
 10
716.02870054307448
 20
24.077601259636602
 30
0.0
  0
VERTEX
  5
18C9
  8
FP-602
 10
716.05730054307423
 20
23.877301259639811
 30
0.0
  0
VERTEX
  5
18CA
  8
FP-602
 10
716.09540054307445
 20
23.677601259642419
 30
0.0
  0
VERTEX
  5
18CB
  8
FP-602
 10
716.14290054307446
 20
23.478601259634619
 30
0.0
  0
VERTEX
  5
18CC
  8
FP-602
 10
716.20000054307445
 20
23.28030125963096
 30
0.0
  0
VERTEX
  5
18CD
  8
FP-602
 10
716.25590054307429
 20
23.113501259639179
 30
0.0
  0
VERTEX
  5
18CE
  8
FP-602
 10
716.32040054307481
 20
22.949801259634569
 30
0.0
  0
VERTEX
  5
18CF
  8
FP-602
 10
716.39530054307443
 20
22.792001259633711
 30
0.0
  0
VERTEX
  5
18D0
  8
FP-602
 10
716.48230054307442
 20
22.642701259643669
 30
0.0
  0
VERTEX
  5
18D1
  8
FP-602
 10
716.58330054307453
 20
22.50460125963264
 30
0.0
  0
VERTEX
  5
18D2
  8
FP-602
 10
716.70000054307445
 20
22.380301259636781
 30
0.0
  0
VERTEX
  5
18D3
  8
FP-602
 10
716.77350054307453
 20
22.31710125963264
 30
0.0
  0
VERTEX
  5
18D4
  8
FP-602
 10
716.85200054307461
 20
22.259101259642652
 30
0.0
  0
VERTEX
  5
18D5
  8
FP-602
 10
716.93460054307434
 20
22.20650125963266
 30
0.0
  0
VERTEX
  5
18D6
  8
FP-602
 10
717.02060054307447
 20
22.159101259636831
 30
0.0
  0
VERTEX
  5
18D7
  8
FP-602
 10
717.10930054307426
 20
22.11710125963555
 30
0.0
  0
VERTEX
  5
18D8
  8
FP-602
 10
717.20000054307457
 20
22.08040125963862
 30
0.0
  0
VERTEX
  5
18D9
  8
FP-602
 10
717.20000054307457
 20
22.08030125963387
 30
0.0
  0
VERTEX
  5
18DA
  8
FP-602
 10
717.32750054307451
 20
22.03830125963259
 30
0.0
  0
VERTEX
  5
18DB
  8
FP-602
 10
717.45730054307433
 20
22.00640125963082
 30
0.0
  0
VERTEX
  5
18DC
  8
FP-602
 10
717.58950054307434
 20
21.984701259633312
 30
0.0
  0
VERTEX
  5
18DD
  8
FP-602
 10
717.72400054307445
 20
21.97310125963531
 30
0.0
  0
VERTEX
  5
18DE
  8
FP-602
 10
717.86080054307467
 20
21.971601259636831
 30
0.0
  0
VERTEX
  5
18DF
  8
FP-602
 10
718.00000054307418
 20
21.980301259642602
 30
0.0
  0
VERTEX
  5
18E0
  8
FP-602
 10
718.00000054307418
 20
21.980301259642602
 30
0.0
  0
SEQEND
  5
18E1
  8
FP-602
  0
LINE
  5
120B
  8
FP-602
 10
717.00000054307418
 20
21.480301259642602
 30
0.0
 11
717.50000054307418
 21
21.480301259642602
 31
0.0
  0
ARC
  5
120C
  8
FP-602
 10
719.00000054307429
 20
46.480301259642602
 30
0.0
 40
3.0
 50
0.0
 51
180.0
  0
LINE
  5
120D
  8
FP-602
 10
716.00000054307429
 20
46.480301259642602
 30
0.0
 11
715.00000054307429
 21
26.480301259642602
 31
0.0
  0
LINE
  5
120E
  8
FP-602
 10
714.00000054307418
 20
23.980301259642602
 30
0.0
 11
715.00000054307429
 21
23.980301259642602
 31
0.0
  0
LINE
  5
120F
  8
FP-602
 10
715.00000054307429
 20
48.980301259642602
 30
0.0
 11
717.50000054307418
 21
48.980301259642602
 31
0.0
  0
LINE
  5
1210
  8
FP-602
 10
714.00000054307418
 20
44.980301259642602
 30
0.0
 11
716.00000054307429
 21
44.980301259642602
 31
0.0
  0
LINE
  5
1211
  8
FP-602
 10
715.00000054307429
 20
23.980301259642602
 30
0.0
 11
715.00000054307429
 21
44.980301259642602
 31
0.0
  0
LINE
  5
1212
  8
FP-602
 10
717.50000054307418
 20
40.980301259642587
 30
0.0
 11
719.00000054307429
 21
40.980301259642587
 31
0.0
  0
LINE
  5
1213
  8
FP-602
 10
719.50000054307429
 20
57.980301259642602
 30
0.0
 11
719.00000054307429
 21
40.980301259642587
 31
0.0
  0
LINE
  5
1214
  8
FP-602
 10
717.50000054307418
 20
40.980301259642587
 30
0.0
 11
718.00000054307418
 21
57.980301259642602
 31
0.0
  0
LINE
  5
1215
  8
FP-602
 10
718.00000054307418
 20
57.980301259642602
 30
0.0
 11
719.50000054307429
 21
57.980301259642602
 31
0.0
  0
LINE
  5
1216
  8
FP-602
 10
146.00000054307441
 20
51.980301259642602
 30
0.0
 11
146.00000054307441
 21
54.980301259642602
 31
0.0
  0
ARC
  5
1217
  8
FP-602
 10
406.00000054307441
 20
49.980301259642602
 30
0.0
 40
2.0
 50
0.0
 51
180.0
  0
LINE
  5
1218
  8
FP-602
 10
404.00000054307429
 20
49.980301259642602
 30
0.0
 11
404.00000054307429
 21
33.980301259642602
 31
0.0
  0
LINE
  5
1219
  8
FP-602
 10
408.00000054307429
 20
49.980301259642602
 30
0.0
 11
408.00000054307429
 21
33.980301259642602
 31
0.0
  0
ARC
  5
121A
  8
FP-602
 10
406.00000054307441
 20
33.980301259642602
 30
0.0
 40
2.0
 50
180.0
 51
0.0
  0
ARC
  5
121B
  8
FP-602
 10
398.00000054307441
 20
49.980301259642602
 30
0.0
 40
2.0
 50
0.0
 51
180.0
  0
LINE
  5
121C
  8
FP-602
 10
396.00000054307441
 20
49.980301259642602
 30
0.0
 11
396.00000054307441
 21
33.980301259642602
 31
0.0
  0
LINE
  5
121D
  8
FP-602
 10
400.00000054307429
 20
49.980301259642602
 30
0.0
 11
400.00000054307429
 21
33.980301259642602
 31
0.0
  0
ARC
  5
121E
  8
FP-602
 10
398.00000054307441
 20
33.980301259642602
 30
0.0
 40
2.0
 50
180.0
 51
0.0
  0
ARC
  5
121F
  8
FP-602
 10
390.00000054307441
 20
49.980301259642602
 30
0.0
 40
2.0
 50
0.0
 51
180.0
  0
LINE
  5
1220
  8
FP-602
 10
388.00000054307441
 20
49.980301259642602
 30
0.0
 11
388.00000054307441
 21
33.980301259642602
 31
0.0
  0
LINE
  5
1221
  8
FP-602
 10
392.00000054307441
 20
49.980301259642602
 30
0.0
 11
392.00000054307441
 21
33.980301259642602
 31
0.0
  0
ARC
  5
1222
  8
FP-602
 10
390.00000054307441
 20
33.980301259642602
 30
0.0
 40
2.0
 50
180.0
 51
0.0
  0
ARC
  5
1223
  8
FP-602
 10
382.00000054307441
 20
49.980301259642602
 30
0.0
 40
2.0
 50
0.0
 51
180.0
  0
LINE
  5
1224
  8
FP-602
 10
380.00000054307441
 20
49.980301259642602
 30
0.0
 11
380.00000054307441
 21
33.980301259642602
 31
0.0
  0
LINE
  5
1225
  8
FP-602
 10
384.00000054307441
 20
49.980301259642602
 30
0.0
 11
384.00000054307441
 21
33.980301259642602
 31
0.0
  0
ARC
  5
1226
  8
FP-602
 10
382.00000054307441
 20
33.980301259642602
 30
0.0
 40
2.0
 50
180.0
 51
0.0
  0
ARC
  5
1227
  8
FP-602
 10
374.00000054307441
 20
49.980301259642602
 30
0.0
 40
2.0
 50
0.0
 51
180.0
  0
LINE
  5
1228
  8
FP-602
 10
372.00000054307441
 20
49.980301259642602
 30
0.0
 11
372.00000054307441
 21
33.980301259642602
 31
0.0
  0
LINE
  5
1229
  8
FP-602
 10
376.00000054307441
 20
49.980301259642602
 30
0.0
 11
376.00000054307441
 21
33.980301259642602
 31
0.0
  0
ARC
  5
122A
  8
FP-602
 10
374.00000054307441
 20
33.980301259642602
 30
0.0
 40
2.0
 50
180.0
 51
0.0
  0
ARC
  5
122B
  8
FP-602
 10
366.00000054307441
 20
49.980301259642602
 30
0.0
 40
2.0
 50
0.0
 51
180.0
  0
LINE
  5
122C
  8
FP-602
 10
364.00000054307441
 20
49.980301259642602
 30
0.0
 11
364.00000054307441
 21
33.980301259642602
 31
0.0
  0
LINE
  5
122D
  8
FP-602
 10
368.00000054307441
 20
49.980301259642602
 30
0.0
 11
368.00000054307441
 21
33.980301259642602
 31
0.0
  0
ARC
  5
122E
  8
FP-602
 10
366.00000054307441
 20
33.980301259642602
 30
0.0
 40
2.0
 50
180.0
 51
0.0
  0
ARC
  5
122F
  8
FP-602
 10
358.00000054307441
 20
49.980301259642602
 30
0.0
 40
2.0
 50
0.0
 51
180.0
  0
LINE
  5
1230
  8
FP-602
 10
356.00000054307441
 20
49.980301259642602
 30
0.0
 11
356.00000054307441
 21
33.980301259642602
 31
0.0
  0
LINE
  5
1231
  8
FP-602
 10
360.00000054307441
 20
49.980301259642602
 30
0.0
 11
360.00000054307441
 21
33.980301259642602
 31
0.0
  0
ARC
  5
1232
  8
FP-602
 10
358.00000054307441
 20
33.980301259642602
 30
0.0
 40
2.0
 50
180.0
 51
0.0
  0
ARC
  5
1233
  8
FP-602
 10
350.00000054307441
 20
49.980301259642602
 30
0.0
 40
2.0
 50
0.0
 51
180.0
  0
LINE
  5
1234
  8
FP-602
 10
348.00000054307441
 20
49.980301259642602
 30
0.0
 11
348.00000054307441
 21
33.980301259642602
 31
0.0
  0
LINE
  5
1235
  8
FP-602
 10
352.00000054307441
 20
49.980301259642602
 30
0.0
 11
352.00000054307441
 21
33.980301259642602
 31
0.0
  0
ARC
  5
1236
  8
FP-602
 10
350.00000054307441
 20
33.980301259642602
 30
0.0
 40
2.0
 50
180.0
 51
0.0
  0
ARC
  5
1237
  8
FP-602
 10
510.00000054307441
 20
49.980301259642602
 30
0.0
 40
2.0
 50
0.0
 51
180.0
  0
LINE
  5
1238
  8
FP-602
 10
508.00000054307429
 20
49.980301259642602
 30
0.0
 11
508.00000054307429
 21
33.980301259642602
 31
0.0
  0
LINE
  5
1239
  8
FP-602
 10
512.00000054307429
 20
49.980301259642602
 30
0.0
 11
512.00000054307429
 21
33.980301259642602
 31
0.0
  0
ARC
  5
123A
  8
FP-602
 10
510.00000054307441
 20
33.980301259642602
 30
0.0
 40
2.0
 50
180.0
 51
0.0
  0
ARC
  5
123B
  8
FP-602
 10
502.00000054307458
 20
49.980301259642602
 30
0.0
 40
2.0
 50
0.0
 51
180.0
  0
LINE
  5
123C
  8
FP-602
 10
500.00000054307429
 20
49.980301259642602
 30
0.0
 11
500.00000054307429
 21
33.980301259642602
 31
0.0
  0
LINE
  5
123D
  8
FP-602
 10
504.00000054307429
 20
49.980301259642602
 30
0.0
 11
504.00000054307429
 21
33.980301259642602
 31
0.0
  0
ARC
  5
123E
  8
FP-602
 10
502.00000054307458
 20
33.980301259642602
 30
0.0
 40
2.0
 50
180.0
 51
0.0
  0
ARC
  5
123F
  8
FP-602
 10
494.00000054307458
 20
49.980301259642602
 30
0.0
 40
2.0
 50
0.0
 51
180.0
  0
LINE
  5
1240
  8
FP-602
 10
492.00000054307429
 20
49.980301259642602
 30
0.0
 11
492.00000054307429
 21
33.980301259642602
 31
0.0
  0
LINE
  5
1241
  8
FP-602
 10
496.00000054307429
 20
49.980301259642602
 30
0.0
 11
496.00000054307429
 21
33.980301259642602
 31
0.0
  0
ARC
  5
1242
  8
FP-602
 10
494.00000054307458
 20
33.980301259642602
 30
0.0
 40
2.0
 50
180.0
 51
0.0
  0
ARC
  5
1243
  8
FP-602
 10
486.00000054307458
 20
49.980301259642602
 30
0.0
 40
2.0
 50
0.0
 51
180.0
  0
LINE
  5
1244
  8
FP-602
 10
484.00000054307441
 20
49.980301259642602
 30
0.0
 11
484.00000054307441
 21
33.980301259642602
 31
0.0
  0
LINE
  5
1245
  8
FP-602
 10
488.00000054307429
 20
49.980301259642602
 30
0.0
 11
488.00000054307429
 21
33.980301259642602
 31
0.0
  0
ARC
  5
1246
  8
FP-602
 10
486.00000054307458
 20
33.980301259642602
 30
0.0
 40
2.0
 50
180.0
 51
0.0
  0
ARC
  5
1247
  8
FP-602
 10
478.00000054307441
 20
49.980301259642602
 30
0.0
 40
2.0
 50
0.0
 51
180.0
  0
LINE
  5
1248
  8
FP-602
 10
476.00000054307441
 20
49.980301259642602
 30
0.0
 11
476.00000054307441
 21
33.980301259642602
 31
0.0
  0
LINE
  5
1249
  8
FP-602
 10
480.00000054307441
 20
49.980301259642602
 30
0.0
 11
480.00000054307441
 21
33.980301259642602
 31
0.0
  0
ARC
  5
124A
  8
FP-602
 10
478.00000054307441
 20
33.980301259642602
 30
0.0
 40
2.0
 50
180.0
 51
0.0
  0
ARC
  5
124B
  8
FP-602
 10
470.00000054307441
 20
49.980301259642602
 30
0.0
 40
2.0
 50
0.0
 51
180.0
  0
LINE
  5
124C
  8
FP-602
 10
468.00000054307441
 20
49.980301259642602
 30
0.0
 11
468.00000054307441
 21
33.980301259642602
 31
0.0
  0
LINE
  5
124D
  8
FP-602
 10
472.00000054307441
 20
49.980301259642602
 30
0.0
 11
472.00000054307441
 21
33.980301259642602
 31
0.0
  0
ARC
  5
124E
  8
FP-602
 10
470.00000054307441
 20
33.980301259642602
 30
0.0
 40
2.0
 50
180.0
 51
0.0
  0
ARC
  5
124F
  8
FP-602
 10
462.00000054307429
 20
49.980301259642602
 30
0.0
 40
2.0
 50
0.0
 51
180.0
  0
LINE
  5
1250
  8
FP-602
 10
460.00000054307441
 20
49.980301259642602
 30
0.0
 11
460.00000054307441
 21
33.980301259642602
 31
0.0
  0
LINE
  5
1251
  8
FP-602
 10
464.00000054307441
 20
49.980301259642602
 30
0.0
 11
464.00000054307441
 21
33.980301259642602
 31
0.0
  0
ARC
  5
1252
  8
FP-602
 10
462.00000054307429
 20
33.980301259642602
 30
0.0
 40
2.0
 50
180.0
 51
0.0
  0
ARC
  5
1253
  8
FP-602
 10
454.00000054307429
 20
49.980301259642602
 30
0.0
 40
2.0
 50
0.0
 51
180.0
  0
LINE
  5
1254
  8
FP-602
 10
452.00000054307441
 20
49.980301259642602
 30
0.0
 11
452.00000054307441
 21
33.980301259642602
 31
0.0
  0
LINE
  5
1255
  8
FP-602
 10
456.00000054307441
 20
49.980301259642602
 30
0.0
 11
456.00000054307441
 21
33.980301259642602
 31
0.0
  0
ARC
  5
1256
  8
FP-602
 10
454.00000054307429
 20
33.980301259642602
 30
0.0
 40
2.0
 50
180.0
 51
0.0
  0
ARC
  5
1257
  8
FP-602
 10
446.00000054307429
 20
49.980301259642602
 30
0.0
 40
2.0
 50
0.0
 51
180.0
  0
LINE
  5
1258
  8
FP-602
 10
444.00000054307458
 20
49.980301259642602
 30
0.0
 11
444.00000054307458
 21
33.980301259642602
 31
0.0
  0
LINE
  5
1259
  8
FP-602
 10
448.00000054307458
 20
49.980301259642602
 30
0.0
 11
448.00000054307458
 21
33.980301259642602
 31
0.0
  0
ARC
  5
125A
  8
FP-602
 10
446.00000054307429
 20
33.980301259642602
 30
0.0
 40
2.0
 50
180.0
 51
0.0
  0
ARC
  5
125B
  8
FP-602
 10
438.00000054307429
 20
49.980301259642602
 30
0.0
 40
2.0
 50
0.0
 51
180.0
  0
LINE
  5
125C
  8
FP-602
 10
436.00000054307458
 20
49.980301259642602
 30
0.0
 11
436.00000054307458
 21
33.980301259642602
 31
0.0
  0
LINE
  5
125D
  8
FP-602
 10
440.00000054307458
 20
49.980301259642602
 30
0.0
 11
440.00000054307458
 21
33.980301259642602
 31
0.0
  0
ARC
  5
125E
  8
FP-602
 10
438.00000054307429
 20
33.980301259642602
 30
0.0
 40
2.0
 50
180.0
 51
0.0
  0
ARC
  5
125F
  8
FP-602
 10
430.00000054307441
 20
49.980301259642602
 30
0.0
 40
2.0
 50
0.0
 51
180.0
  0
LINE
  5
1260
  8
FP-602
 10
428.00000054307441
 20
49.980301259642602
 30
0.0
 11
428.00000054307441
 21
33.980301259642602
 31
0.0
  0
LINE
  5
1261
  8
FP-602
 10
432.00000054307458
 20
49.980301259642602
 30
0.0
 11
432.00000054307458
 21
33.980301259642602
 31
0.0
  0
ARC
  5
1262
  8
FP-602
 10
430.00000054307441
 20
33.980301259642602
 30
0.0
 40
2.0
 50
180.0
 51
0.0
  0
ARC
  5
1263
  8
FP-602
 10
422.00000054307441
 20
49.980301259642602
 30
0.0
 40
2.0
 50
0.0
 51
180.0
  0
LINE
  5
1264
  8
FP-602
 10
420.00000054307441
 20
49.980301259642602
 30
0.0
 11
420.00000054307441
 21
33.980301259642602
 31
0.0
  0
LINE
  5
1265
  8
FP-602
 10
424.00000054307441
 20
49.980301259642602
 30
0.0
 11
424.00000054307441
 21
33.980301259642602
 31
0.0
  0
ARC
  5
1266
  8
FP-602
 10
422.00000054307441
 20
33.980301259642602
 30
0.0
 40
2.0
 50
180.0
 51
0.0
  0
ARC
  5
1267
  8
FP-602
 10
414.00000054307441
 20
49.980301259642602
 30
0.0
 40
2.0
 50
0.0
 51
180.0
  0
LINE
  5
1268
  8
FP-602
 10
412.00000054307429
 20
49.980301259642602
 30
0.0
 11
412.00000054307429
 21
33.980301259642602
 31
0.0
  0
LINE
  5
1269
  8
FP-602
 10
416.00000054307429
 20
49.980301259642602
 30
0.0
 11
416.00000054307429
 21
33.980301259642602
 31
0.0
  0
ARC
  5
126A
  8
FP-602
 10
414.00000054307441
 20
33.980301259642602
 30
0.0
 40
2.0
 50
180.0
 51
0.0
  0
CIRCLE
  5
126B
  8
FP-602
 10
143.00000054307441
 20
52.980301259642602
 30
0.0
 40
1.5
  0
ARC
  5
126C
  8
FP-602
 10
143.00000054307441
 20
52.980301259642602
 30
0.0
 40
3.0
 50
137.99999997101321
 51
0.0
  0
ARC
  5
126D
  8
FP-602
 10
143.00000054307441
 20
52.980301259642602
 30
0.0
 40
3.0
 50
0.0
 51
41.000000024358258
  0
LINE
  5
126E
  8
FP-602
 10
213.00000054307441
 20
75.400001259641158
 30
0.0
 11
642.00000054307475
 21
75.400001259641158
 31
0.0
  0
LINE
  5
126F
  8
FP-602
 10
642.00000054307475
 20
73.400001259641158
 30
0.0
 11
642.00000054307475
 21
73.000001259632427
 31
0.0
  0
LINE
  5
1270
  8
FP-602
 10
642.00000054307475
 20
75.000001259632427
 30
0.0
 11
213.00000054307441
 21
75.000001259632427
 31
0.0
  0
LINE
  5
1271
  8
FP-602
 10
213.00000054307441
 20
75.000001259632427
 30
0.0
 11
213.00000054307441
 21
75.400001259641158
 31
0.0
  0
ARC
  5
1272
  8
FP-602
 10
215.00000054307441
 20
41.980301259642602
 30
0.0
 40
3.0
 50
0.0
 51
90.0
  0
ARC
  5
1273
  8
FP-602
 10
215.00000054307441
 20
23.980301259642602
 30
0.0
 40
3.0
 50
270.0
 51
0.0
  0
LINE
  5
1274
  8
FP-602
 10
167.00000054307441
 20
44.980301259642602
 30
0.0
 11
215.00000054307441
 21
44.980301259642602
 31
0.0
  0
ARC
  5
1275
  8
FP-602
 10
167.00000054307441
 20
41.980301259642602
 30
0.0
 40
3.0
 50
90.0
 51
180.0
  0
LINE
  5
1276
  8
FP-602
 10
167.00000054307441
 20
20.980301259642602
 30
0.0
 11
215.00000054307441
 21
20.980301259642602
 31
0.0
  0
LINE
  5
1277
  8
FP-602
 10
218.00000054307441
 20
41.980301259642602
 30
0.0
 11
218.00000054307441
 21
23.980301259642602
 31
0.0
  0
LINE
  5
1278
  8
FP-602
 10
164.00000054307441
 20
41.980301259642602
 30
0.0
 11
164.00000054307441
 21
23.980301259642602
 31
0.0
  0
ARC
  5
1279
  8
FP-602
 10
167.00000054307441
 20
23.980301259642602
 30
0.0
 40
3.0
 50
180.0
 51
270.0
  0
LINE
  5
127A
  8
FP-602
 10
142.00000054307441
 20
25.50000125963243
 30
0.0
 11
142.00000054307441
 21
38.500001259632427
 31
0.0
  0
LINE
  5
127B
  8
FP-602
 10
142.00000054307441
 20
38.500001259632427
 30
0.0
 11
146.00000054307441
 21
38.500001259632427
 31
0.0
  0
LINE
  5
127C
  8
FP-602
 10
146.00000054307441
 20
38.500001259632427
 30
0.0
 11
146.00000054307441
 21
25.50000125963243
 31
0.0
  0
LINE
  5
127D
  8
FP-602
 10
146.00000054307441
 20
25.50000125963243
 30
0.0
 11
142.00000054307441
 21
25.50000125963243
 31
0.0
  0
LINE
  5
127E
  8
FP-602
 10
146.00000054307441
 20
9.9803012596426015
 30
0.0
 11
146.00000054307441
 21
54.983201259634818
 31
0.0
  0
LINE
  5
127F
  8
FP-602
 10
147.50000054307441
 20
9.9803012596426015
 30
0.0
 11
147.50000054307441
 21
54.980301259642602
 31
0.0
  0
ARC
  5
1280
  8
FP-602
 10
138.50000054307441
 20
64.980301259642602
 30
0.0
 40
10.0
 50
180.0
 51
270.0
  0
LINE
  5
1281
  8
FP-602
 10
128.50000054307441
 20
74.980301259642602
 30
0.0
 11
128.50000054307441
 21
64.967901259635696
 31
0.0
  0
LINE
  5
1282
  8
FP-602
 10
127.50000054307441
 20
73.480301259642602
 30
0.0
 11
128.50000054307441
 21
73.480301259642602
 31
0.0
  0
LINE
  5
1283
  8
FP-602
 10
127.50000054307441
 20
66.980301259642602
 30
0.0
 11
128.50000054307441
 21
66.980301259642602
 31
0.0
  0
LINE
  5
1284
  8
FP-602
 10
127.50000054307441
 20
68.480301259642602
 30
0.0
 11
128.50000054307441
 21
68.480301259642602
 31
0.0
  0
ARC
  5
1285
  8
FP-602
 10
127.50000054307441
 20
70.980301259642602
 30
0.0
 40
4.0
 50
90.0
 51
270.0
  0
ARC
  5
1286
  8
FP-602
 10
127.50000054307441
 20
70.980301259642602
 30
0.0
 40
2.5
 50
90.0
 51
270.0
  0
LINE
  5
1287
  8
FP-602
 10
715.50000054307429
 20
54.980301259642602
 30
0.0
 11
138.50000054307441
 21
54.980301259642602
 31
0.0
  0
LINE
  5
1288
  8
FP-602
 10
712.50000054307418
 20
54.991901259640599
 30
0.0
 11
712.50000054307418
 21
9.9803012596426015
 31
0.0
  0
LINE
  5
1289
  8
FP-602
 10
714.00000054307418
 20
54.983201259634818
 30
0.0
 11
714.00000054307418
 21
9.9803012596426015
 31
0.0
  0
LINE
  5
128A
  8
FP-602
 10
146.00000054307441
 20
9.9803012596426015
 30
0.0
 11
714.00000054307418
 21
9.9803012596426015
 31
0.0
  0
LINE
  5
128B
  8
FP-602
 10
715.50000054307429
 20
74.980301259642602
 30
0.0
 11
715.50000054307429
 21
54.980301259642602
 31
0.0
  0
LINE
  5
128C
  8
FP-602
 10
714.00000054307418
 20
74.980301259642602
 30
0.0
 11
714.00000054307418
 21
54.980301259642602
 31
0.0
  0
LINE
  5
128D
  8
FP-602
 10
127.50000054307441
 20
75.000001259632427
 30
0.0
 11
715.50000054307429
 21
75.000001259632427
 31
0.0
  0
CIRCLE
  5
128E
  8
FP-602
 10
160.00000054307441
 20
33.000001259632427
 30
0.0
 40
2.799999999999998
  0
LINE
  5
128F
  8
FP-602
 10
158.2000005430744
 20
32.700001259644068
 30
0.0
 11
158.2000005430744
 21
33.300001259635337
 31
0.0
  0
LINE
  5
1290
  8
FP-602
 10
159.7000005430744
 20
34.800001259635337
 30
0.0
 11
160.30000054307459
 21
34.800001259635337
 31
0.0
  0
LINE
  5
1291
  8
FP-602
 10
161.80000054307459
 20
32.700001259644068
 30
0.0
 11
161.80000054307459
 21
33.300001259635337
 31
0.0
  0
LINE
  5
1292
  8
FP-602
 10
159.7000005430744
 20
31.200001259644068
 30
0.0
 11
160.30000054307459
 21
31.200001259644068
 31
0.0
  0
LINE
  5
1293
  8
FP-602
 10
161.80000054307459
 20
32.700001259644068
 30
0.0
 11
161.2000005430744
 21
32.700001259644068
 31
0.0
  0
LINE
  5
1294
  8
FP-602
 10
160.30000054307459
 20
31.200001259644068
 30
0.0
 11
160.30000054307459
 21
31.800001259635341
 31
0.0
  0
LINE
  5
1295
  8
FP-602
 10
159.7000005430744
 20
31.200001259644068
 30
0.0
 11
159.7000005430744
 21
31.800001259635341
 31
0.0
  0
LINE
  5
1296
  8
FP-602
 10
158.2000005430744
 20
33.300001259635337
 30
0.0
 11
158.80000054307459
 21
33.300001259635337
 31
0.0
  0
LINE
  5
1297
  8
FP-602
 10
160.30000054307459
 20
34.800001259635337
 30
0.0
 11
160.30000054307459
 21
34.200001259644068
 31
0.0
  0
LINE
  5
1298
  8
FP-602
 10
161.80000054307459
 20
32.700001259644068
 30
0.0
 11
161.2000005430744
 21
32.700001259644068
 31
0.0
  0
LINE
  5
1299
  8
FP-602
 10
161.80000054307459
 20
33.300001259635337
 30
0.0
 11
161.2000005430744
 21
33.300001259635337
 31
0.0
  0
LINE
  5
129A
  8
FP-602
 10
159.7000005430744
 20
34.800001259635337
 30
0.0
 11
159.7000005430744
 21
34.200001259644068
 31
0.0
  0
LINE
  5
129B
  8
FP-602
 10
158.2000005430744
 20
32.700001259644068
 30
0.0
 11
158.80000054307459
 21
32.700001259644068
 31
0.0
  0
ARC
  5
129C
  8
FP-602
 10
161.10000054307449
 20
34.100001259638248
 30
0.0
 40
0.8
 50
172.0000000149044
 51
277.99999998517433
  0
ARC
  5
129D
  8
FP-602
 10
158.9000005430747
 20
34.100001259638248
 30
0.0
 40
0.8
 50
262.00000001482567
 51
0.0
  0
ARC
  5
129E
  8
FP-602
 10
158.9000005430747
 20
34.100001259638248
 30
0.0
 40
0.8
 50
0.0
 51
7.9999999850955694
  0
ARC
  5
129F
  8
FP-602
 10
158.9000005430747
 20
31.900001259641162
 30
0.0
 40
0.8
 50
352.0000000149044
 51
0.0
  0
ARC
  5
12A0
  8
FP-602
 10
158.9000005430747
 20
31.900001259641162
 30
0.0
 40
0.8
 50
0.0
 51
97.999999985174327
  0
ARC
  5
12A1
  8
FP-602
 10
161.10000054307449
 20
31.900001259641162
 30
0.0
 40
0.8
 50
82.000000014825673
 51
187.99999998509551
  0
CIRCLE
  5
12A2
  8
FP-602
 10
222.00000054307441
 20
33.000001259632427
 30
0.0
 40
2.799999999999998
  0
LINE
  5
12A3
  8
FP-602
 10
220.20000054307451
 20
32.700001259644068
 30
0.0
 11
220.20000054307451
 21
33.300001259635337
 31
0.0
  0
LINE
  5
12A4
  8
FP-602
 10
221.7000005430744
 20
34.800001259635337
 30
0.0
 11
222.30000054307459
 21
34.800001259635337
 31
0.0
  0
LINE
  5
12A5
  8
FP-602
 10
223.80000054307459
 20
32.700001259644068
 30
0.0
 11
223.80000054307459
 21
33.300001259635337
 31
0.0
  0
LINE
  5
12A6
  8
FP-602
 10
221.7000005430744
 20
31.200001259644068
 30
0.0
 11
222.30000054307459
 21
31.200001259644068
 31
0.0
  0
LINE
  5
12A7
  8
FP-602
 10
223.80000054307459
 20
32.700001259644068
 30
0.0
 11
223.2000005430744
 21
32.700001259644068
 31
0.0
  0
LINE
  5
12A8
  8
FP-602
 10
222.30000054307459
 20
31.200001259644068
 30
0.0
 11
222.30000054307459
 21
31.800001259635341
 31
0.0
  0
LINE
  5
12A9
  8
FP-602
 10
221.7000005430744
 20
31.200001259644068
 30
0.0
 11
221.7000005430744
 21
31.800001259635341
 31
0.0
  0
LINE
  5
12AA
  8
FP-602
 10
220.20000054307451
 20
33.300001259635337
 30
0.0
 11
220.80000054307479
 21
33.300001259635337
 31
0.0
  0
LINE
  5
12AB
  8
FP-602
 10
222.30000054307459
 20
34.800001259635337
 30
0.0
 11
222.30000054307459
 21
34.200001259644068
 31
0.0
  0
LINE
  5
12AC
  8
FP-602
 10
223.80000054307459
 20
32.700001259644068
 30
0.0
 11
223.2000005430744
 21
32.700001259644068
 31
0.0
  0
LINE
  5
12AD
  8
FP-602
 10
223.80000054307459
 20
33.300001259635337
 30
0.0
 11
223.2000005430744
 21
33.300001259635337
 31
0.0
  0
LINE
  5
12AE
  8
FP-602
 10
221.7000005430744
 20
34.800001259635337
 30
0.0
 11
221.7000005430744
 21
34.200001259644068
 31
0.0
  0
LINE
  5
12AF
  8
FP-602
 10
220.20000054307451
 20
32.700001259644068
 30
0.0
 11
220.80000054307479
 21
32.700001259644068
 31
0.0
  0
ARC
  5
12B0
  8
FP-602
 10
223.10000054307429
 20
34.100001259638248
 30
0.0
 40
0.8
 50
172.0000000149044
 51
277.99999998517433
  0
ARC
  5
12B1
  8
FP-602
 10
220.9000005430747
 20
34.100001259638248
 30
0.0
 40
0.8
 50
262.00000001482567
 51
0.0
  0
ARC
  5
12B2
  8
FP-602
 10
220.9000005430747
 20
34.100001259638248
 30
0.0
 40
0.8
 50
0.0
 51
7.9999999850955694
  0
ARC
  5
12B3
  8
FP-602
 10
220.9000005430747
 20
31.900001259641162
 30
0.0
 40
0.8
 50
352.0000000149044
 51
0.0
  0
ARC
  5
12B4
  8
FP-602
 10
220.9000005430747
 20
31.900001259641162
 30
0.0
 40
0.8
 50
0.0
 51
97.999999985174327
  0
ARC
  5
12B5
  8
FP-602
 10
223.10000054307429
 20
31.900001259641162
 30
0.0
 40
0.8
 50
82.000000014825673
 51
187.99999998509551
  0
POLYLINE
  5
12B6
  8
FP-602
 66
     1
 10
0.0
 20
0.0
 30
0.0
  0
VERTEX
  5
18E2
  8
FP-602
 10
195.60000054307449
 20
33.08030125963387
 30
0.0
  0
VERTEX
  5
18E3
  8
FP-602
 10
195.7428005430744
 20
31.448001259636388
 30
0.0
  0
VERTEX
  5
18E4
  8
FP-602
 10
196.1669005430746
 20
29.865301259637359
 30
0.0
  0
VERTEX
  5
18E5
  8
FP-602
 10
196.8594005430744
 20
28.380301259636781
 30
0.0
  0
VERTEX
  5
18E6
  8
FP-602
 10
197.79920054307451
 20
27.038101259637649
 30
0.0
  0
VERTEX
  5
18E7
  8
FP-602
 10
198.95780054307451
 20
25.879501259642439
 30
0.0
  0
VERTEX
  5
18E8
  8
FP-602
 10
200.30000054307459
 20
24.939701259635061
 30
0.0
  0
VERTEX
  5
18E9
  8
FP-602
 10
201.78500054307449
 20
24.247201259630401
 30
0.0
  0
VERTEX
  5
18EA
  8
FP-602
 10
203.36770054307459
 20
23.823101259641138
 30
0.0
  0
VERTEX
  5
18EB
  8
FP-602
 10
205.00000054307441
 20
23.680301259639691
 30
0.0
  0
VERTEX
  5
18EC
  8
FP-602
 10
206.63230054307439
 20
23.823101259641138
 30
0.0
  0
VERTEX
  5
18ED
  8
FP-602
 10
208.21500054307461
 20
24.247201259630401
 30
0.0
  0
VERTEX
  5
18EE
  8
FP-602
 10
209.70000054307451
 20
24.939701259635061
 30
0.0
  0
VERTEX
  5
18EF
  8
FP-602
 10
211.0422005430743
 20
25.879501259642439
 30
0.0
  0
VERTEX
  5
18F0
  8
FP-602
 10
212.20080054307451
 20
27.038101259637649
 30
0.0
  0
VERTEX
  5
18F1
  8
FP-602
 10
213.14060054307481
 20
28.380301259636781
 30
0.0
  0
VERTEX
  5
18F2
  8
FP-602
 10
213.83310054307449
 20
29.865301259637359
 30
0.0
  0
VERTEX
  5
18F3
  8
FP-602
 10
214.25720054307439
 20
31.448001259636388
 30
0.0
  0
VERTEX
  5
18F4
  8
FP-602
 10
214.4000005430747
 20
33.08030125963387
 30
0.0
  0
VERTEX
  5
18F5
  8
FP-602
 10
214.25720054307439
 20
34.712601259631363
 30
0.0
  0
VERTEX
  5
18F6
  8
FP-602
 10
213.83310054307449
 20
36.295301259630378
 30
0.0
  0
VERTEX
  5
18F7
  8
FP-602
 10
213.14060054307481
 20
37.78030125963096
 30
0.0
  0
VERTEX
  5
18F8
  8
FP-602
 10
212.20080054307451
 20
39.122501259630099
 30
0.0
  0
VERTEX
  5
18F9
  8
FP-602
 10
211.0422005430743
 20
40.281101259639847
 30
0.0
  0
VERTEX
  5
18FA
  8
FP-602
 10
209.70000054307451
 20
41.220901259632683
 30
0.0
  0
VERTEX
  5
18FB
  8
FP-602
 10
208.21500054307461
 20
41.913401259637332
 30
0.0
  0
VERTEX
  5
18FC
  8
FP-602
 10
206.63230054307439
 20
42.337501259641158
 30
0.0
  0
VERTEX
  5
18FD
  8
FP-602
 10
205.00000054307441
 20
42.480301259642602
 30
0.0
  0
VERTEX
  5
18FE
  8
FP-602
 10
203.36770054307459
 20
42.337501259641158
 30
0.0
  0
VERTEX
  5
18FF
  8
FP-602
 10
201.78500054307449
 20
41.913401259637332
 30
0.0
  0
VERTEX
  5
1900
  8
FP-602
 10
200.30000054307459
 20
41.220901259632683
 30
0.0
  0
VERTEX
  5
1901
  8
FP-602
 10
198.95780054307451
 20
40.281101259639847
 30
0.0
  0
VERTEX
  5
1902
  8
FP-602
 10
197.79920054307451
 20
39.122501259630099
 30
0.0
  0
VERTEX
  5
1903
  8
FP-602
 10
196.8594005430744
 20
37.78030125963096
 30
0.0
  0
VERTEX
  5
1904
  8
FP-602
 10
196.1669005430746
 20
36.295301259630378
 30
0.0
  0
VERTEX
  5
1905
  8
FP-602
 10
195.7428005430744
 20
34.712601259631363
 30
0.0
  0
VERTEX
  5
1906
  8
FP-602
 10
195.60000054307449
 20
33.08030125963387
 30
0.0
  0
SEQEND
  5
1907
  8
FP-602
  0
LINE
  5
12B7
  8
FP-602
 10
201.2413005430746
 20
31.712201259641461
 30
0.0
 11
197.48250054307439
 21
30.344101259634499
 31
0.0
  0
LINE
  5
12B8
  8
FP-602
 10
199.4845005430744
 20
28.452201259632151
 30
0.0
 11
198.8717005430745
 21
27.938001259641631
 31
0.0
  0
LINE
  5
12B9
  8
FP-602
 10
201.4000005430745
 20
26.8449012596434
 30
0.0
 11
201.00000054307441
 21
26.152101259639039
 31
0.0
  0
LINE
  5
12BA
  8
FP-602
 10
206.25030054307459
 20
25.989701259637972
 30
0.0
 11
206.38920054307451
 21
25.201801259642259
 31
0.0
  0
POLYLINE
  5
12BB
  8
FP-602
 66
     1
 10
0.0
 20
0.0
 30
0.0
  0
VERTEX
  5
1908
  8
FP-602
 10
199.4845005430744
 20
28.452201259632151
 30
0.0
  0
VERTEX
  5
1909
  8
FP-602
 10
200.3719005430747
 20
27.564801259639811
 30
0.0
  0
VERTEX
  5
190A
  8
FP-602
 10
201.4000005430745
 20
26.8449012596434
 30
0.0
  0
SEQEND
  5
190B
  8
FP-602
  0
POLYLINE
  5
12BC
  8
FP-602
 66
     1
 10
0.0
 20
0.0
 30
0.0
  0
VERTEX
  5
190C
  8
FP-602
 10
206.25020054307441
 20
25.989701259637972
 30
0.0
  0
VERTEX
  5
190D
  8
FP-602
 10
207.4626005430745
 20
26.31450125964011
 30
0.0
  0
VERTEX
  5
190E
  8
FP-602
 10
208.60000054307429
 20
26.8449012596434
 30
0.0
  0
SEQEND
  5
190F
  8
FP-602
  0
LINE
  5
12BD
  8
FP-602
 10
208.60000054307429
 20
26.8449012596434
 30
0.0
 11
209.00000054307441
 21
26.152101259639039
 31
0.0
  0
LINE
  5
12BE
  8
FP-602
 10
211.7658005430747
 20
30.617701259634941
 30
0.0
 11
212.51750054307431
 21
30.344101259634499
 31
0.0
  0
LINE
  5
12BF
  8
FP-602
 10
212.20000054307451
 20
33.08030125963387
 30
0.0
 11
213.00000054307441
 21
33.08030125963387
 31
0.0
  0
LINE
  5
12C0
  8
FP-602
 10
210.51550054307461
 20
37.708401259635593
 30
0.0
 11
211.12830054307449
 21
38.222601259640669
 31
0.0
  0
LINE
  5
12C1
  8
FP-602
 10
208.60000054307429
 20
39.3157012596389
 30
0.0
 11
209.00000054307441
 21
40.008501259643253
 31
0.0
  0
LINE
  5
12C2
  8
FP-602
 10
201.4000005430745
 20
39.3157012596389
 30
0.0
 11
201.00000054307441
 21
40.008501259643253
 31
0.0
  0
LINE
  5
12C3
  8
FP-602
 10
203.74970054307451
 20
40.170901259644317
 30
0.0
 11
203.6108005430743
 21
40.958801259640033
 31
0.0
  0
LINE
  5
12C4
  8
FP-602
 10
197.80000054307459
 20
33.08030125963387
 30
0.0
 11
197.00000054307441
 21
33.08030125963387
 31
0.0
  0
LINE
  5
12C5
  8
FP-602
 10
198.23420054307431
 20
35.542901259632799
 30
0.0
 11
197.48250054307439
 21
35.816501259633242
 31
0.0
  0
POLYLINE
  5
12C6
  8
FP-602
 66
     1
 10
0.0
 20
0.0
 30
0.0
  0
VERTEX
  5
1910
  8
FP-602
 10
211.7658005430747
 20
30.617701259634941
 30
0.0
  0
VERTEX
  5
1911
  8
FP-602
 10
212.0906005430744
 20
31.830101259638919
 30
0.0
  0
VERTEX
  5
1912
  8
FP-602
 10
212.20000054307451
 20
33.08030125963387
 30
0.0
  0
SEQEND
  5
1913
  8
FP-602
  0
POLYLINE
  5
12C7
  8
FP-602
 66
     1
 10
0.0
 20
0.0
 30
0.0
  0
VERTEX
  5
1914
  8
FP-602
 10
210.51550054307461
 20
37.708401259635593
 30
0.0
  0
VERTEX
  5
1915
  8
FP-602
 10
209.62810054307431
 20
38.595801259642492
 30
0.0
  0
VERTEX
  5
1916
  8
FP-602
 10
208.60000054307429
 20
39.3157012596389
 30
0.0
  0
SEQEND
  5
1917
  8
FP-602
  0
POLYLINE
  5
12C8
  8
FP-602
 66
     1
 10
0.0
 20
0.0
 30
0.0
  0
VERTEX
  5
1918
  8
FP-602
 10
203.7498005430744
 20
40.170901259644317
 30
0.0
  0
VERTEX
  5
1919
  8
FP-602
 10
202.5374005430746
 20
39.846101259642182
 30
0.0
  0
VERTEX
  5
191A
  8
FP-602
 10
201.4000005430745
 20
39.3157012596389
 30
0.0
  0
SEQEND
  5
191B
  8
FP-602
  0
POLYLINE
  5
12C9
  8
FP-602
 66
     1
 10
0.0
 20
0.0
 30
0.0
  0
VERTEX
  5
191C
  8
FP-602
 10
198.23420054307431
 20
35.542901259632799
 30
0.0
  0
VERTEX
  5
191D
  8
FP-602
 10
197.90940054307441
 20
34.33050125964337
 30
0.0
  0
VERTEX
  5
191E
  8
FP-602
 10
197.80000054307459
 20
33.08030125963387
 30
0.0
  0
SEQEND
  5
191F
  8
FP-602
  0
POLYLINE
  5
12CA
  8
FP-602
 66
     1
 10
0.0
 20
0.0
 30
0.0
  0
VERTEX
  5
1920
  8
FP-602
 10
197.00000054307441
 20
33.08030125963387
 30
0.0
  0
VERTEX
  5
1921
  8
FP-602
 10
197.1215005430746
 20
31.69110125964335
 30
0.0
  0
VERTEX
  5
1922
  8
FP-602
 10
197.48250054307439
 20
30.344101259634499
 30
0.0
  0
VERTEX
  5
1923
  8
FP-602
 10
198.0718005430746
 20
29.08030125963387
 30
0.0
  0
VERTEX
  5
1924
  8
FP-602
 10
198.8717005430745
 20
27.938001259641631
 30
0.0
  0
SEQEND
  5
1925
  8
FP-602
  0
POLYLINE
  5
12CB
  8
FP-602
 66
     1
 10
0.0
 20
0.0
 30
0.0
  0
VERTEX
  5
1926
  8
FP-602
 10
201.00000054307441
 20
26.152101259639039
 30
0.0
  0
VERTEX
  5
1927
  8
FP-602
 10
202.26380054307461
 20
25.562801259632121
 30
0.0
  0
VERTEX
  5
1928
  8
FP-602
 10
203.6108005430743
 20
25.201801259642259
 30
0.0
  0
VERTEX
  5
1929
  8
FP-602
 10
205.00000054307441
 20
25.08030125963387
 30
0.0
  0
VERTEX
  5
192A
  8
FP-602
 10
206.38920054307451
 20
25.201801259642259
 30
0.0
  0
SEQEND
  5
192B
  8
FP-602
  0
POLYLINE
  5
12CC
  8
FP-602
 66
     1
 10
0.0
 20
0.0
 30
0.0
  0
VERTEX
  5
192C
  8
FP-602
 10
209.00000054307441
 20
26.152101259639039
 30
0.0
  0
VERTEX
  5
192D
  8
FP-602
 10
210.14230054307441
 20
26.9520012596372
 30
0.0
  0
VERTEX
  5
192E
  8
FP-602
 10
211.12830054307449
 20
27.938001259641631
 30
0.0
  0
VERTEX
  5
192F
  8
FP-602
 10
211.9282005430745
 20
29.08030125963387
 30
0.0
  0
VERTEX
  5
1930
  8
FP-602
 10
212.51750054307431
 20
30.344101259634499
 30
0.0
  0
SEQEND
  5
1931
  8
FP-602
  0
POLYLINE
  5
12CD
  8
FP-602
 66
     1
 10
0.0
 20
0.0
 30
0.0
  0
VERTEX
  5
1932
  8
FP-602
 10
213.00000054307441
 20
33.08030125963387
 30
0.0
  0
VERTEX
  5
1933
  8
FP-602
 10
212.87850054307469
 20
34.469501259638953
 30
0.0
  0
VERTEX
  5
1934
  8
FP-602
 10
212.51750054307431
 20
35.816501259633242
 30
0.0
  0
VERTEX
  5
1935
  8
FP-602
 10
211.9282005430745
 20
37.08030125963387
 30
0.0
  0
VERTEX
  5
1936
  8
FP-602
 10
211.12830054307449
 20
38.222601259640669
 30
0.0
  0
SEQEND
  5
1937
  8
FP-602
  0
POLYLINE
  5
12CE
  8
FP-602
 66
     1
 10
0.0
 20
0.0
 30
0.0
  0
VERTEX
  5
1938
  8
FP-602
 10
209.00000054307441
 20
40.008501259643253
 30
0.0
  0
VERTEX
  5
1939
  8
FP-602
 10
207.73620054307449
 20
40.597801259635617
 30
0.0
  0
VERTEX
  5
193A
  8
FP-602
 10
206.38920054307451
 20
40.958801259640033
 30
0.0
  0
VERTEX
  5
193B
  8
FP-602
 10
205.00000054307441
 20
41.08030125963387
 30
0.0
  0
VERTEX
  5
193C
  8
FP-602
 10
203.6108005430743
 20
40.958801259640033
 30
0.0
  0
SEQEND
  5
193D
  8
FP-602
  0
POLYLINE
  5
12CF
  8
FP-602
 66
     1
 10
0.0
 20
0.0
 30
0.0
  0
VERTEX
  5
193E
  8
FP-602
 10
201.00000054307441
 20
40.008501259643253
 30
0.0
  0
VERTEX
  5
193F
  8
FP-602
 10
199.8577005430744
 20
39.208601259630541
 30
0.0
  0
VERTEX
  5
1940
  8
FP-602
 10
198.8717005430745
 20
38.222601259640669
 30
0.0
  0
VERTEX
  5
1941
  8
FP-602
 10
198.0718005430746
 20
37.08030125963387
 30
0.0
  0
VERTEX
  5
1942
  8
FP-602
 10
197.48250054307439
 20
35.816501259633242
 30
0.0
  0
SEQEND
  5
1943
  8
FP-602
  0
LINE
  5
12D0
  8
FP-602
 10
165.50000054307441
 20
40.500001259632427
 30
0.0
 11
186.50000054307441
 21
40.500001259632427
 31
0.0
  0
LINE
  5
12D1
  8
FP-602
 10
186.50000054307441
 20
40.500001259632427
 30
0.0
 11
186.50000054307441
 21
25.50000125963243
 31
0.0
  0
LINE
  5
12D2
  8
FP-602
 10
186.50000054307441
 20
25.50000125963243
 30
0.0
 11
165.50000054307441
 21
25.50000125963243
 31
0.0
  0
LINE
  5
12D3
  8
FP-602
 10
165.50000054307441
 20
25.50000125963243
 30
0.0
 11
165.50000054307441
 21
40.500001259632427
 31
0.0
  0
LINE
  5
12D4
  8
FP-602
 10
168.50000054307441
 20
37.500001259632427
 30
0.0
 11
183.50000054307441
 21
37.500001259632427
 31
0.0
  0
LINE
  5
12D5
  8
FP-602
 10
183.50000054307441
 20
37.500001259632427
 30
0.0
 11
183.50000054307441
 21
28.50000125963243
 31
0.0
  0
LINE
  5
12D6
  8
FP-602
 10
183.50000054307441
 20
28.50000125963243
 30
0.0
 11
168.50000054307441
 21
28.50000125963243
 31
0.0
  0
LINE
  5
12D7
  8
FP-602
 10
168.50000054307441
 20
28.50000125963243
 30
0.0
 11
168.50000054307441
 21
37.500001259632427
 31
0.0
  0
LINE
  5
12D8
  8
FP-602
 10
180.00000054307441
 20
37.000001259632427
 30
0.0
 11
180.00000054307441
 21
29.00000125963243
 31
0.0
  0
CIRCLE
  5
12D9
  8
FP-602
 10
170.00000054307441
 20
32.980301259642602
 30
0.0
 40
1.0
  0
LINE
  5
12DA
  8
FP-602
 10
115.00000054307441
 20
34.978501259644418
 30
0.0
 11
95.000000543074407
 21
34.978501259644418
 31
0.0
  0
LINE
  5
12DB
  8
FP-602
 10
95.000000543074407
 20
28.978501259644421
 30
0.0
 11
115.00000054307441
 21
28.978501259644421
 31
0.0
  0
POLYLINE
  5
12DC
  8
FP-602
 66
     1
 10
0.0
 20
0.0
 30
0.0
  0
VERTEX
  5
1944
  8
FP-602
 10
95.000000543074407
 20
34.978501259644418
 30
0.0
  0
VERTEX
  5
1945
  8
FP-602
 10
93.958100543074465
 20
35.069701259639722
 30
0.0
  0
VERTEX
  5
1946
  8
FP-602
 10
92.947900543074738
 20
35.340301259643176
 30
0.0
  0
VERTEX
  5
1947
  8
FP-602
 10
92.000000543074407
 20
35.78230125963865
 30
0.0
  0
VERTEX
  5
1948
  8
FP-602
 10
91.143300543074346
 20
36.382201259639722
 30
0.0
  0
VERTEX
  5
1949
  8
FP-602
 10
90.403700543074478
 20
37.121801259640513
 30
0.0
  0
VERTEX
  5
194A
  8
FP-602
 10
89.803800543074772
 20
37.978501259644418
 30
0.0
  0
VERTEX
  5
194B
  8
FP-602
 10
89.361800543074764
 20
38.926401259643619
 30
0.0
  0
VERTEX
  5
194C
  8
FP-602
 10
89.091200543074478
 20
39.936601259633342
 30
0.0
  0
VERTEX
  5
194D
  8
FP-602
 10
89.000000543074407
 20
40.97850125964441
 30
0.0
  0
SEQEND
  5
194E
  8
FP-602
  0
POLYLINE
  5
12DD
  8
FP-602
 66
     1
 10
0.0
 20
0.0
 30
0.0
  0
VERTEX
  5
194F
  8
FP-602
 10
95.000000543074407
 20
28.978501259644421
 30
0.0
  0
VERTEX
  5
1950
  8
FP-602
 10
92.916200543074751
 20
29.160801259630261
 30
0.0
  0
VERTEX
  5
1951
  8
FP-602
 10
90.895800543074643
 20
29.702201259632151
 30
0.0
  0
VERTEX
  5
1952
  8
FP-602
 10
89.000000543074407
 20
30.586201259637619
 30
0.0
  0
VERTEX
  5
1953
  8
FP-602
 10
87.286500543074567
 20
31.786001259639761
 30
0.0
  0
VERTEX
  5
1954
  8
FP-602
 10
85.807500543074525
 20
33.265001259631852
 30
0.0
  0
VERTEX
  5
1955
  8
FP-602
 10
84.607700543074429
 20
34.978501259644418
 30
0.0
  0
VERTEX
  5
1956
  8
FP-602
 10
83.723700543074415
 20
36.874301259642827
 30
0.0
  0
VERTEX
  5
1957
  8
FP-602
 10
83.182300543074334
 20
38.894701259636811
 30
0.0
  0
VERTEX
  5
1958
  8
FP-602
 10
83.000000543074407
 20
40.97850125964441
 30
0.0
  0
SEQEND
  5
1959
  8
FP-602
  0
POLYLINE
  5
12DE
  8
FP-602
 66
     1
 10
0.0
 20
0.0
 30
0.0
  0
VERTEX
  5
195A
  8
FP-602
 10
77.000000543074407
 20
46.978501259644418
 30
0.0
  0
VERTEX
  5
195B
  8
FP-602
 10
78.041900543074576
 20
46.887301259634569
 30
0.0
  0
VERTEX
  5
195C
  8
FP-602
 10
79.052100543074289
 20
46.6167012596311
 30
0.0
  0
VERTEX
  5
195D
  8
FP-602
 10
80.000000543074407
 20
46.174701259635633
 30
0.0
  0
VERTEX
  5
195E
  8
FP-602
 10
80.856700543074453
 20
45.574801259634569
 30
0.0
  0
VERTEX
  5
195F
  8
FP-602
 10
81.596300543074562
 20
44.83520125963377
 30
0.0
  0
VERTEX
  5
1960
  8
FP-602
 10
82.196200543074724
 20
43.97850125964441
 30
0.0
  0
VERTEX
  5
1961
  8
FP-602
 10
82.638200543074731
 20
43.030601259630657
 30
0.0
  0
VERTEX
  5
1962
  8
FP-602
 10
82.908800543074548
 20
42.020401259640948
 30
0.0
  0
VERTEX
  5
1963
  8
FP-602
 10
83.000000543074407
 20
40.97850125964441
 30
0.0
  0
SEQEND
  5
1964
  8
FP-602
  0
LINE
  5
12DF
  8
FP-602
 10
77.000000543074407
 20
52.97850125964441
 30
0.0
 11
67.000000543074407
 21
52.97850125964441
 31
0.0
  0
LINE
  5
12E0
  8
FP-602
 10
77.000000543074407
 20
46.978501259644418
 30
0.0
 11
67.000000543074407
 21
46.978501259644418
 31
0.0
  0
POLYLINE
  5
12E1
  8
FP-602
 66
     1
 10
0.0
 20
0.0
 30
0.0
  0
VERTEX
  5
1965
  8
FP-602
 10
66.250000543074407
 20
48.47850125964441
 30
0.0
  0
VERTEX
  5
1966
  8
FP-602
 10
66.261400543074728
 20
48.738901259643619
 30
0.0
  0
VERTEX
  5
1967
  8
FP-602
 10
66.295200543074429
 20
48.991501259636152
 30
0.0
  0
VERTEX
  5
1968
  8
FP-602
 10
66.350500543074403
 20
49.22850125964441
 30
0.0
  0
VERTEX
  5
1969
  8
FP-602
 10
66.425500543074463
 20
49.442701259632031
 30
0.0
  0
VERTEX
  5
196A
  8
FP-602
 10
66.517900543074461
 20
49.627501259634748
 30
0.0
  0
VERTEX
  5
196B
  8
FP-602
 10
66.625000543074407
 20
49.777501259643479
 30
0.0
  0
VERTEX
  5
196C
  8
FP-602
 10
66.743500543074447
 20
49.888001259638713
 30
0.0
  0
VERTEX
  5
196D
  8
FP-602
 10
66.869800543074348
 20
49.955701259638317
 30
0.0
  0
VERTEX
  5
196E
  8
FP-602
 10
67.000000543074407
 20
49.978501259644418
 30
0.0
  0
VERTEX
  5
196F
  8
FP-602
 10
67.130200543074466
 20
49.955701259638317
 30
0.0
  0
VERTEX
  5
1970
  8
FP-602
 10
67.256500543074367
 20
49.888001259638713
 30
0.0
  0
VERTEX
  5
1971
  8
FP-602
 10
67.375000543074407
 20
49.777501259643479
 30
0.0
  0
VERTEX
  5
1972
  8
FP-602
 10
67.48210054307458
 20
49.627501259634748
 30
0.0
  0
VERTEX
  5
1973
  8
FP-602
 10
67.574500543074578
 20
49.442701259632031
 30
0.0
  0
VERTEX
  5
1974
  8
FP-602
 10
67.649500543074396
 20
49.22850125964441
 30
0.0
  0
VERTEX
  5
1975
  8
FP-602
 10
67.704800543074384
 20
48.991501259636152
 30
0.0
  0
VERTEX
  5
1976
  8
FP-602
 10
67.738600543074753
 20
48.738901259643619
 30
0.0
  0
VERTEX
  5
1977
  8
FP-602
 10
67.750000543074407
 20
48.47850125964441
 30
0.0
  0
VERTEX
  5
1978
  8
FP-602
 10
67.738600543074753
 20
48.218001259640452
 30
0.0
  0
VERTEX
  5
1979
  8
FP-602
 10
67.704800543074384
 20
47.965401259633381
 30
0.0
  0
VERTEX
  5
197A
  8
FP-602
 10
67.649500543074396
 20
47.72850125964441
 30
0.0
  0
VERTEX
  5
197B
  8
FP-602
 10
67.574500543074578
 20
47.514301259642252
 30
0.0
  0
VERTEX
  5
197C
  8
FP-602
 10
67.48210054307458
 20
47.329401259634778
 30
0.0
  0
VERTEX
  5
197D
  8
FP-602
 10
67.375000543074407
 20
47.179401259640599
 30
0.0
  0
VERTEX
  5
197E
  8
FP-602
 10
67.256500543074367
 20
47.06890125963082
 30
0.0
  0
VERTEX
  5
197F
  8
FP-602
 10
67.130200543074466
 20
47.001301259635959
 30
0.0
  0
VERTEX
  5
1980
  8
FP-602
 10
67.000000543074407
 20
46.978501259644418
 30
0.0
  0
VERTEX
  5
1981
  8
FP-602
 10
66.869800543074348
 20
47.001301259635959
 30
0.0
  0
VERTEX
  5
1982
  8
FP-602
 10
66.743500543074447
 20
47.06890125963082
 30
0.0
  0
VERTEX
  5
1983
  8
FP-602
 10
66.625000543074407
 20
47.179401259640599
 30
0.0
  0
VERTEX
  5
1984
  8
FP-602
 10
66.517900543074461
 20
47.329401259634778
 30
0.0
  0
VERTEX
  5
1985
  8
FP-602
 10
66.425500543074463
 20
47.514301259642252
 30
0.0
  0
VERTEX
  5
1986
  8
FP-602
 10
66.350500543074403
 20
47.72850125964441
 30
0.0
  0
VERTEX
  5
1987
  8
FP-602
 10
66.295200543074429
 20
47.965401259633381
 30
0.0
  0
VERTEX
  5
1988
  8
FP-602
 10
66.261400543074728
 20
48.218001259640452
 30
0.0
  0
VERTEX
  5
1989
  8
FP-602
 10
66.250000543074407
 20
48.47850125964441
 30
0.0
  0
SEQEND
  5
198A
  8
FP-602
  0
POLYLINE
  5
12E2
  8
FP-602
 66
     1
 10
0.0
 20
0.0
 30
0.0
  0
VERTEX
  5
198B
  8
FP-602
 10
67.000000543074407
 20
49.978501259644418
 30
0.0
  0
VERTEX
  5
198C
  8
FP-602
 10
66.869800543074348
 20
50.001301259635973
 30
0.0
  0
VERTEX
  5
198D
  8
FP-602
 10
66.743500543074447
 20
50.06890125963082
 30
0.0
  0
VERTEX
  5
198E
  8
FP-602
 10
66.625000543074407
 20
50.179401259640592
 30
0.0
  0
VERTEX
  5
198F
  8
FP-602
 10
66.517900543074461
 20
50.329401259634771
 30
0.0
  0
VERTEX
  5
1990
  8
FP-602
 10
66.425500543074463
 20
50.514301259642252
 30
0.0
  0
VERTEX
  5
1991
  8
FP-602
 10
66.350500543074403
 20
50.728501259644418
 30
0.0
  0
VERTEX
  5
1992
  8
FP-602
 10
66.295200543074429
 20
50.965401259633381
 30
0.0
  0
VERTEX
  5
1993
  8
FP-602
 10
66.261400543074728
 20
51.218001259640459
 30
0.0
  0
VERTEX
  5
1994
  8
FP-602
 10
66.250000543074407
 20
51.478501259644418
 30
0.0
  0
VERTEX
  5
1995
  8
FP-602
 10
66.261400543074728
 20
51.738901259643619
 30
0.0
  0
VERTEX
  5
1996
  8
FP-602
 10
66.295200543074429
 20
51.991501259636152
 30
0.0
  0
VERTEX
  5
1997
  8
FP-602
 10
66.350500543074403
 20
52.22850125964441
 30
0.0
  0
VERTEX
  5
1998
  8
FP-602
 10
66.425500543074463
 20
52.442701259632031
 30
0.0
  0
VERTEX
  5
1999
  8
FP-602
 10
66.517900543074461
 20
52.627501259634748
 30
0.0
  0
VERTEX
  5
199A
  8
FP-602
 10
66.625000543074407
 20
52.777501259643493
 30
0.0
  0
VERTEX
  5
199B
  8
FP-602
 10
66.743500543074447
 20
52.888001259638713
 30
0.0
  0
VERTEX
  5
199C
  8
FP-602
 10
66.869800543074348
 20
52.95570125963831
 30
0.0
  0
VERTEX
  5
199D
  8
FP-602
 10
67.000000543074407
 20
52.97850125964441
 30
0.0
  0
SEQEND
  5
199E
  8
FP-602
  0
LINE
  5
12E3
  8
FP-602
 10
0.0000005430744068
 20
56.978501259644418
 30
0.0
 11
17.0000005430744
 21
56.978501259644418
 31
0.0
  0
LINE
  5
12E4
  8
FP-602
 10
17.0000005430744
 20
56.978501259644418
 30
0.0
 11
17.0000005430744
 21
55.97850125964441
 31
0.0
  0
LINE
  5
12E5
  8
FP-602
 10
17.0000005430744
 20
55.97850125964441
 30
0.0
 11
0.0000005430744068
 21
55.97850125964441
 31
0.0
  0
LINE
  5
12E6
  8
FP-602
 10
0.0000005430744068
 20
55.97850125964441
 30
0.0
 11
0.0000005430744068
 21
56.978501259644418
 31
0.0
  0
LINE
  5
12E7
  8
FP-602
 10
0.0000005430744068
 20
44.978501259644418
 30
0.0
 11
17.0000005430744
 21
44.978501259644418
 31
0.0
  0
LINE
  5
12E8
  8
FP-602
 10
17.0000005430744
 20
44.978501259644418
 30
0.0
 11
17.0000005430744
 21
43.97850125964441
 31
0.0
  0
LINE
  5
12E9
  8
FP-602
 10
17.0000005430744
 20
43.97850125964441
 30
0.0
 11
0.0000005430744068
 21
43.97850125964441
 31
0.0
  0
LINE
  5
12EA
  8
FP-602
 10
0.0000005430744068
 20
43.97850125964441
 30
0.0
 11
0.0000005430744068
 21
44.978501259644418
 31
0.0
  0
LINE
  5
12EB
  8
FP-602
 10
37.000000543074407
 20
53.978501259644418
 30
0.0
 11
37.000000543074407
 21
45.97850125964441
 31
0.0
  0
LINE
  5
12EC
  8
FP-602
 10
17.0000005430744
 20
59.978501259644418
 30
0.0
 11
17.0000005430744
 21
39.978501259644418
 31
0.0
  0
ARC
  5
12ED
  8
FP-602
 10
36.000000543074407
 20
53.978501259644418
 30
0.0
 40
1.0
 50
0.0
 51
90.0
  0
ARC
  5
12EE
  8
FP-602
 10
36.000000543074407
 20
45.97850125964441
 30
0.0
 40
1.0
 50
270.0
 51
0.0
  0
LINE
  5
12EF
  8
FP-602
 10
17.0000005430744
 20
59.978501259644418
 30
0.0
 11
25.00000054307441
 21
59.978501259644418
 31
0.0
  0
LINE
  5
12F0
  8
FP-602
 10
25.00000054307441
 20
39.978501259644418
 30
0.0
 11
36.000000543074407
 21
44.978501259644418
 31
0.0
  0
LINE
  5
12F1
  8
FP-602
 10
17.0000005430744
 20
39.978501259644418
 30
0.0
 11
25.00000054307441
 21
39.978501259644418
 31
0.0
  0
LINE
  5
12F2
  8
FP-602
 10
25.00000054307441
 20
57.97850125964441
 30
0.0
 11
25.00000054307441
 21
41.978501259644418
 31
0.0
  0
LINE
  5
12F3
  8
FP-602
 10
35.000000543074407
 20
52.97850125964441
 30
0.0
 11
35.000000543074407
 21
46.978501259644418
 31
0.0
  0
LINE
  5
12F4
  8
FP-602
 10
35.000000543074407
 20
46.978501259644418
 30
0.0
 11
27.000000543074641
 21
47.97850125964441
 31
0.0
  0
LINE
  5
12F5
  8
FP-602
 10
35.000000543074407
 20
52.97850125964441
 30
0.0
 11
27.000000543074641
 21
51.978501259644418
 31
0.0
  0
LINE
  5
12F6
  8
FP-602
 10
27.000000543074641
 20
51.978501259644418
 30
0.0
 11
27.000000543074641
 21
47.97850125964441
 31
0.0
  0
LINE
  5
12F7
  8
FP-602
 10
28.00000054307441
 20
51.978501259644418
 30
0.0
 11
28.00000054307441
 21
47.97850125964441
 31
0.0
  0
LINE
  5
12F8
  8
FP-602
 10
29.00000054307441
 20
51.978501259644418
 30
0.0
 11
29.00000054307441
 21
47.97850125964441
 31
0.0
  0
LINE
  5
12F9
  8
FP-602
 10
30.00000054307441
 20
51.978501259644418
 30
0.0
 11
30.00000054307441
 21
47.97850125964441
 31
0.0
  0
LINE
  5
12FA
  8
FP-602
 10
31.00000054307441
 20
51.978501259644418
 30
0.0
 11
31.00000054307441
 21
47.97850125964441
 31
0.0
  0
LINE
  5
12FB
  8
FP-602
 10
32.000000543074407
 20
51.978501259644418
 30
0.0
 11
32.000000543074407
 21
47.97850125964441
 31
0.0
  0
LINE
  5
12FC
  8
FP-602
 10
34.000000543074407
 20
51.978501259644418
 30
0.0
 11
34.000000543074407
 21
47.97850125964441
 31
0.0
  0
LINE
  5
12FD
  8
FP-602
 10
33.000000543074407
 20
51.978501259644418
 30
0.0
 11
33.000000543074407
 21
47.97850125964441
 31
0.0
  0
LINE
  5
12FE
  8
FP-602
 10
36.000000543074407
 20
54.978501259644418
 30
0.0
 11
33.000000543074407
 21
58.978501259644418
 31
0.0
  0
LINE
  5
12FF
  8
FP-602
 10
36.000000543074407
 20
44.978501259644418
 30
0.0
 11
33.000000543074407
 21
40.97850125964441
 31
0.0
  0
LINE
  5
1300
  8
FP-602
 10
33.000000543074407
 20
58.978501259644418
 30
0.0
 11
29.260000543074401
 21
58.038501259642089
 31
0.0
  0
LINE
  5
1301
  8
FP-602
 10
33.000000543074407
 20
40.97850125964441
 30
0.0
 11
29.25000054307441
 21
41.908501259637433
 31
0.0
  0
LINE
  5
1302
  8
FP-602
 10
25.00000054307441
 20
59.978501259644418
 30
0.0
 11
36.000000543074407
 21
54.978501259644418
 31
0.0
  0
LINE
  5
1303
  8
FP-602
 10
37.000000543074407
 20
53.978501259644418
 30
0.0
 11
54.0000005430744
 21
53.978501259644418
 31
0.0
  0
LINE
  5
1304
  8
FP-602
 10
54.0000005430744
 20
53.978501259644418
 30
0.0
 11
54.0000005430744
 21
45.97850125964441
 31
0.0
  0
LINE
  5
1305
  8
FP-602
 10
54.0000005430744
 20
45.97850125964441
 30
0.0
 11
37.000000543074407
 21
45.97850125964441
 31
0.0
  0
LINE
  5
1306
  8
FP-602
 10
37.000000543074407
 20
45.97850125964441
 30
0.0
 11
37.000000543074407
 21
53.978501259644418
 31
0.0
  0
LINE
  5
1307
  8
FP-602
 10
54.0000005430744
 20
46.978501259644418
 30
0.0
 11
64.000000543074407
 21
46.978501259644418
 31
0.0
  0
LINE
  5
1308
  8
FP-602
 10
54.0000005430744
 20
52.97850125964441
 30
0.0
 11
64.000000543074407
 21
52.97850125964441
 31
0.0
  0
POLYLINE
  5
1309
  8
FP-602
 66
     1
 10
0.0
 20
0.0
 30
0.0
  0
VERTEX
  5
199F
  8
FP-602
 10
64.750000543074407
 20
51.478501259644418
 30
0.0
  0
VERTEX
  5
19A0
  8
FP-602
 10
64.738600543074753
 20
51.21810125963065
 30
0.0
  0
VERTEX
  5
19A1
  8
FP-602
 10
64.704800543074612
 20
50.965501259638131
 30
0.0
  0
VERTEX
  5
19A2
  8
FP-602
 10
64.649500543074396
 20
50.728501259644418
 30
0.0
  0
VERTEX
  5
19A3
  8
FP-602
 10
64.574500543074564
 20
50.514301259642252
 30
0.0
  0
VERTEX
  5
19A4
  8
FP-602
 10
64.48210054307458
 20
50.329501259639528
 30
0.0
  0
VERTEX
  5
19A5
  8
FP-602
 10
64.375000543074407
 20
50.17950125963079
 30
0.0
  0
VERTEX
  5
19A6
  8
FP-602
 10
64.256500543074367
 20
50.06900125963557
 30
0.0
  0
VERTEX
  5
19A7
  8
FP-602
 10
64.130200543074466
 20
50.001301259635973
 30
0.0
  0
VERTEX
  5
19A8
  8
FP-602
 10
64.000000543074407
 20
49.978501259644418
 30
0.0
  0
VERTEX
  5
19A9
  8
FP-602
 10
63.869800543074348
 20
50.001301259635973
 30
0.0
  0
VERTEX
  5
19AA
  8
FP-602
 10
63.743500543074447
 20
50.06900125963557
 30
0.0
  0
VERTEX
  5
19AB
  8
FP-602
 10
63.625000543074407
 20
50.17950125963079
 30
0.0
  0
VERTEX
  5
19AC
  8
FP-602
 10
63.517900543074461
 20
50.329501259639528
 30
0.0
  0
VERTEX
  5
19AD
  8
FP-602
 10
63.425500543074463
 20
50.514301259642252
 30
0.0
  0
VERTEX
  5
19AE
  8
FP-602
 10
63.350500543074411
 20
50.728501259644418
 30
0.0
  0
VERTEX
  5
19AF
  8
FP-602
 10
63.295200543074429
 20
50.965501259638131
 30
0.0
  0
VERTEX
  5
19B0
  8
FP-602
 10
63.261400543074501
 20
51.21810125963065
 30
0.0
  0
VERTEX
  5
19B1
  8
FP-602
 10
63.250000543074407
 20
51.478501259644418
 30
0.0
  0
VERTEX
  5
19B2
  8
FP-602
 10
63.261400543074501
 20
51.739001259633604
 30
0.0
  0
VERTEX
  5
19B3
  8
FP-602
 10
63.295200543074429
 20
51.991601259640902
 30
0.0
  0
VERTEX
  5
19B4
  8
FP-602
 10
63.350500543074411
 20
52.22850125964441
 30
0.0
  0
VERTEX
  5
19B5
  8
FP-602
 10
63.425500543074463
 20
52.442701259632031
 30
0.0
  0
VERTEX
  5
19B6
  8
FP-602
 10
63.517900543074461
 20
52.627601259639498
 30
0.0
  0
VERTEX
  5
19B7
  8
FP-602
 10
63.625000543074407
 20
52.777601259633677
 30
0.0
  0
VERTEX
  5
19B8
  8
FP-602
 10
63.743500543074447
 20
52.888101259643463
 30
0.0
  0
VERTEX
  5
19B9
  8
FP-602
 10
63.869800543074348
 20
52.95570125963831
 30
0.0
  0
VERTEX
  5
19BA
  8
FP-602
 10
64.000000543074407
 20
52.97850125964441
 30
0.0
  0
VERTEX
  5
19BB
  8
FP-602
 10
64.130200543074466
 20
52.95570125963831
 30
0.0
  0
VERTEX
  5
19BC
  8
FP-602
 10
64.256500543074367
 20
52.888101259643463
 30
0.0
  0
VERTEX
  5
19BD
  8
FP-602
 10
64.375000543074407
 20
52.777601259633677
 30
0.0
  0
VERTEX
  5
19BE
  8
FP-602
 10
64.48210054307458
 20
52.627601259639498
 30
0.0
  0
VERTEX
  5
19BF
  8
FP-602
 10
64.574500543074564
 20
52.442701259632031
 30
0.0
  0
VERTEX
  5
19C0
  8
FP-602
 10
64.649500543074396
 20
52.22850125964441
 30
0.0
  0
VERTEX
  5
19C1
  8
FP-602
 10
64.704800543074612
 20
51.991601259640902
 30
0.0
  0
VERTEX
  5
19C2
  8
FP-602
 10
64.738600543074753
 20
51.739001259633604
 30
0.0
  0
VERTEX
  5
19C3
  8
FP-602
 10
64.750000543074407
 20
51.478501259644418
 30
0.0
  0
SEQEND
  5
19C4
  8
FP-602
  0
POLYLINE
  5
130A
  8
FP-602
 66
     1
 10
0.0
 20
0.0
 30
0.0
  0
VERTEX
  5
19C5
  8
FP-602
 10
64.000000543074407
 20
49.978501259644418
 30
0.0
  0
VERTEX
  5
19C6
  8
FP-602
 10
64.130200543074466
 20
49.955701259638317
 30
0.0
  0
VERTEX
  5
19C7
  8
FP-602
 10
64.256500543074367
 20
49.888101259643463
 30
0.0
  0
VERTEX
  5
19C8
  8
FP-602
 10
64.375000543074407
 20
49.777601259633677
 30
0.0
  0
VERTEX
  5
19C9
  8
FP-602
 10
64.48210054307458
 20
49.627601259639498
 30
0.0
  0
VERTEX
  5
19CA
  8
FP-602
 10
64.574500543074564
 20
49.442701259632031
 30
0.0
  0
VERTEX
  5
19CB
  8
FP-602
 10
64.649500543074396
 20
49.22850125964441
 30
0.0
  0
VERTEX
  5
19CC
  8
FP-602
 10
64.704800543074612
 20
48.991601259640902
 30
0.0
  0
VERTEX
  5
19CD
  8
FP-602
 10
64.738600543074753
 20
48.739001259633817
 30
0.0
  0
VERTEX
  5
19CE
  8
FP-602
 10
64.750000543074407
 20
48.47850125964441
 30
0.0
  0
VERTEX
  5
19CF
  8
FP-602
 10
64.738600543074753
 20
48.21810125963065
 30
0.0
  0
VERTEX
  5
19D0
  8
FP-602
 10
64.704800543074612
 20
47.965501259638131
 30
0.0
  0
VERTEX
  5
19D1
  8
FP-602
 10
64.649500543074396
 20
47.72850125964441
 30
0.0
  0
VERTEX
  5
19D2
  8
FP-602
 10
64.574500543074564
 20
47.514301259642252
 30
0.0
  0
VERTEX
  5
19D3
  8
FP-602
 10
64.48210054307458
 20
47.329501259639521
 30
0.0
  0
VERTEX
  5
19D4
  8
FP-602
 10
64.375000543074407
 20
47.179501259630797
 30
0.0
  0
VERTEX
  5
19D5
  8
FP-602
 10
64.256500543074367
 20
47.06900125963557
 30
0.0
  0
VERTEX
  5
19D6
  8
FP-602
 10
64.130200543074466
 20
47.001301259635959
 30
0.0
  0
VERTEX
  5
19D7
  8
FP-602
 10
64.000000543074407
 20
46.978501259644418
 30
0.0
  0
SEQEND
  5
19D8
  8
FP-602
  0
POLYLINE
  5
130B
  8
FP-602
 66
     1
 10
0.0
 20
0.0
 30
0.0
  0
VERTEX
  5
19D9
  8
FP-602
 10
77.000000543074407
 20
52.97850125964441
 30
0.0
  0
VERTEX
  5
19DA
  8
FP-602
 10
79.083800543074275
 20
52.796201259644022
 30
0.0
  0
VERTEX
  5
19DB
  8
FP-602
 10
81.104200543074626
 20
52.254801259642143
 30
0.0
  0
VERTEX
  5
19DC
  8
FP-602
 10
83.000000543074407
 20
51.370801259636671
 30
0.0
  0
VERTEX
  5
19DD
  8
FP-602
 10
84.713500543074474
 20
50.171001259634522
 30
0.0
  0
VERTEX
  5
19DE
  8
FP-602
 10
86.192500543074743
 20
48.692001259642439
 30
0.0
  0
VERTEX
  5
19DF
  8
FP-602
 10
87.392300543074384
 20
46.978501259644418
 30
0.0
  0
VERTEX
  5
19E0
  8
FP-602
 10
88.276300543074385
 20
45.082701259631449
 30
0.0
  0
VERTEX
  5
19E1
  8
FP-602
 10
88.817700543074466
 20
43.062301259637479
 30
0.0
  0
VERTEX
  5
19E2
  8
FP-602
 10
89.000000543074407
 20
40.97850125964441
 30
0.0
  0
SEQEND
  5
19E3
  8
FP-602
  0
LINE
  5
130C
  8
FP-602
 10
115.00000054307441
 20
34.978501259644418
 30
0.0
 11
142.00000054307441
 21
34.978501259644418
 31
0.0
  0
LINE
  5
130D
  8
FP-602
 10
114.00000054307441
 20
28.978501259644421
 30
0.0
 11
142.00000054307441
 21
28.978501259644421
 31
0.0
  0
LINE
  5
130E
  8
FP-602
 10
165.00000054307441
 20
10.00000125963242
 30
0.0
 11
166.00000054307441
 21
0.0000012596324268
 31
0.0
  0
LINE
  5
130F
  8
FP-602
 10
187.00000054307441
 20
10.00000125963242
 30
0.0
 11
186.00000054307441
 21
0.0000012596324268
 31
0.0
  0
LINE
  5
1310
  8
FP-602
 10
165.00000054307441
 20
10.00000125963242
 30
0.0
 11
187.00000054307441
 21
10.00000125963242
 31
0.0
  0
LINE
  5
1311
  8
FP-602
 10
166.00000054307441
 20
0.0000012596324268
 30
0.0
 11
186.00000054307441
 21
0.0000012596324268
 31
0.0
  0
LINE
  5
1312
  8
FP-602
 10
673.00000054307429
 20
10.00000125963242
 30
0.0
 11
674.00000054307429
 21
0.0000012596324268
 31
0.0
  0
LINE
  5
1313
  8
FP-602
 10
695.00000054307429
 20
10.00000125963242
 30
0.0
 11
694.00000054307429
 21
0.0000012596324268
 31
0.0
  0
LINE
  5
1314
  8
FP-602
 10
673.00000054307429
 20
10.00000125963242
 30
0.0
 11
695.00000054307429
 21
10.00000125963242
 31
0.0
  0
LINE
  5
1315
  8
FP-602
 10
674.00000054307429
 20
0.0000012596324268
 30
0.0
 11
694.00000054307429
 21
0.0000012596324268
 31
0.0
  0
LINE
  5
1316
  8
FP-602
 10
419.00000054307441
 20
10.00000125963242
 30
0.0
 11
420.00000054307441
 21
0.0000012596324268
 31
0.0
  0
LINE
  5
1317
  8
FP-602
 10
441.00000054307429
 20
10.00000125963242
 30
0.0
 11
440.00000054307458
 21
0.0000012596324268
 31
0.0
  0
LINE
  5
1318
  8
FP-602
 10
419.00000054307441
 20
10.00000125963242
 30
0.0
 11
441.00000054307429
 21
10.00000125963242
 31
0.0
  0
LINE
  5
1319
  8
FP-602
 10
420.00000054307441
 20
0.0000012596324268
 30
0.0
 11
440.00000054307458
 21
0.0000012596324268
 31
0.0
  0
ENDBLK
  5
131D
  8
0
  0
BLOCK
  8
0
  2
A$C2C756D25
 70
     0
 10
0.0
 20
0.0
 30
0.0
  3
A$C2C756D25
  1

  0
ARC
  5
1329
  8
FP-602
 10
571.9999978614311
 20
691.48030045183168
 30
0.0
 40
3.0
 50
0.0
 51
90.0
  0
LINE
  5
132A
  8
FP-602
 10
571.9999978614311
 20
694.48030045183157
 30
0.0
 11
147.99999786143101
 21
694.48030045183157
 31
0.0
  0
ARC
  5
132B
  8
FP-602
 10
147.99999786143101
 20
691.48030045183168
 30
0.0
 40
3.0
 50
90.0
 51
180.0
  0
LINE
  5
132C
  8
FP-602
 10
574.99999786143121
 20
691.48030045183168
 30
0.0
 11
574.99999786143121
 21
93.480300451831226
 31
0.0
  0
LINE
  5
132D
  8
FP-602
 10
144.99999786143101
 20
93.480300451831226
 30
0.0
 11
144.99999786143101
 21
691.48030045183168
 31
0.0
  0
ARC
  5
132E
  8
FP-602
 10
571.9999978614311
 20
93.480300451831226
 30
0.0
 40
3.0
 50
270.0
 51
0.0
  0
ARC
  5
132F
  8
FP-602
 10
147.99999786143101
 20
93.480300451831226
 30
0.0
 40
3.0
 50
180.0
 51
270.0
  0
LINE
  5
1330
  8
FP-602
 10
571.9999978614311
 20
90.480300451831226
 30
0.0
 11
147.99999786143101
 21
90.480300451831226
 31
0.0
  0
LINE
  5
1331
  8
FP-602
 10
60.999997861430977
 20
772.48030045183157
 30
0.0
 11
55.999997861430977
 21
772.48030045183157
 31
0.0
  0
LINE
  5
1332
  8
FP-602
 10
60.999997861430977
 20
774.00000045182151
 30
0.0
 11
60.999997861430977
 21
772.50000045182048
 31
0.0
  0
LINE
  5
1333
  8
FP-602
 10
646.49999786143098
 20
773.98030045183157
 30
0.0
 11
646.49999786143098
 21
772.48030045183157
 31
0.0
  0
LINE
  5
1334
  8
FP-602
 10
646.49999786143098
 20
772.48030045183157
 30
0.0
 11
647.99999786143087
 21
772.48030045183157
 31
0.0
  0
LINE
  5
1335
  8
FP-602
 10
646.49999786143098
 20
773.98030045183157
 30
0.0
 11
60.999997861430977
 21
773.98030045183157
 31
0.0
  0
LINE
  5
1336
  8
FP-602
 10
646.49999786143098
 20
10.980300451831219
 30
0.0
 11
646.49999786143098
 21
12.480300451831219
 31
0.0
  0
LINE
  5
1337
  8
FP-602
 10
646.49999786143098
 20
12.480300451831219
 30
0.0
 11
647.99999786143087
 21
12.480300451831219
 31
0.0
  0
LINE
  5
1338
  8
FP-602
 10
60.999997861430977
 20
10.980300451831219
 30
0.0
 11
60.999997861430977
 21
12.480300451831219
 31
0.0
  0
LINE
  5
1339
  8
FP-602
 10
60.999997861430977
 20
12.480300451831219
 30
0.0
 11
55.999997861430977
 21
12.480300451831219
 31
0.0
  0
LINE
  5
133A
  8
FP-602
 10
55.999997861430977
 20
772.48030045183157
 30
0.0
 11
55.999997861430977
 21
12.480300451831219
 31
0.0
  0
LINE
  5
133B
  8
FP-602
 10
60.999997861430977
 20
10.980300451831219
 30
0.0
 11
646.49999786143098
 21
10.980300451831219
 31
0.0
  0
LINE
  5
133C
  8
FP-602
 10
138.49999786143101
 20
1.000000451821051
 30
0.0
 11
135.9999978614309
 21
1.000000451821051
 31
0.0
  0
LINE
  5
133D
  8
FP-602
 10
135.9999978614309
 20
1.000000451821051
 30
0.0
 11
135.9999978614309
 21
9.0000004518210517
 31
0.0
  0
LINE
  5
133E
  8
FP-602
 10
135.9999978614309
 20
9.0000004518210517
 30
0.0
 11
138.49999786143101
 21
9.0000004518210517
 31
0.0
  0
LINE
  5
133F
  8
FP-602
 10
138.49999786143101
 20
9.0000004518210517
 30
0.0
 11
138.49999786143101
 21
1.000000451821051
 31
0.0
  0
POLYLINE
  5
1340
  8
FP-602
 66
     1
 10
0.0
 20
0.0
 30
0.0
  0
VERTEX
  5
19E8
  8
FP-602
 10
138.49999786143101
 20
9.0000004518210517
 30
0.0
  0
VERTEX
  5
19E9
  8
FP-602
 10
138.54179786143089
 20
8.8264004518264301
 30
0.0
  0
VERTEX
  5
19EA
  8
FP-602
 10
138.665797861431
 20
8.6580004518314126
 30
0.0
  0
VERTEX
  5
19EB
  8
FP-602
 10
138.868497861431
 20
8.5000004518210517
 30
0.0
  0
VERTEX
  5
19EC
  8
FP-602
 10
139.14349786143131
 20
8.3572004518196081
 30
0.0
  0
VERTEX
  5
19ED
  8
FP-602
 10
139.48229786143131
 20
8.2340004518323422
 30
0.0
  0
VERTEX
  5
19EE
  8
FP-602
 10
139.87499786143101
 20
8.1340004518260685
 30
0.0
  0
VERTEX
  5
19EF
  8
FP-602
 10
140.309497861431
 20
8.0603004518329726
 30
0.0
  0
VERTEX
  5
19F0
  8
FP-602
 10
140.77259786143119
 20
8.0152004518295143
 30
0.0
  0
VERTEX
  5
19F1
  8
FP-602
 10
141.2499978614309
 20
8.0000004518210517
 30
0.0
  0
VERTEX
  5
19F2
  8
FP-602
 10
141.7273978614312
 20
8.0152004518295143
 30
0.0
  0
VERTEX
  5
19F3
  8
FP-602
 10
142.19049786143111
 20
8.0603004518329726
 30
0.0
  0
VERTEX
  5
19F4
  8
FP-602
 10
142.62499786143101
 20
8.1340004518260685
 30
0.0
  0
VERTEX
  5
19F5
  8
FP-602
 10
143.0176978614308
 20
8.2340004518323422
 30
0.0
  0
VERTEX
  5
19F6
  8
FP-602
 10
143.3564978614308
 20
8.3572004518196081
 30
0.0
  0
VERTEX
  5
19F7
  8
FP-602
 10
143.63149786143089
 20
8.5000004518210517
 30
0.0
  0
VERTEX
  5
19F8
  8
FP-602
 10
143.83419786143119
 20
8.6580004518314126
 30
0.0
  0
VERTEX
  5
19F9
  8
FP-602
 10
143.95819786143099
 20
8.8264004518264301
 30
0.0
  0
VERTEX
  5
19FA
  8
FP-602
 10
143.99999786143101
 20
9.0000004518210517
 30
0.0
  0
SEQEND
  5
19FB
  8
FP-602
  0
ARC
  5
1341
  8
FP-602
 10
146.99999786143101
 20
9.0000004518210517
 30
0.0
 40
1.0
 50
180.0
 51
0.0
  0
ARC
  5
1342
  8
FP-602
 10
146.99999786143101
 20
1.000000451821051
 30
0.0
 40
1.0
 50
180.0
 51
0.0
  0
POLYLINE
  5
1343
  8
FP-602
 66
     1
 10
0.0
 20
0.0
 30
0.0
  0
VERTEX
  5
19FC
  8
FP-602
 10
138.49999786143101
 20
1.000000451821051
 30
0.0
  0
VERTEX
  5
19FD
  8
FP-602
 10
138.54179786143089
 20
0.82640045182643
 30
0.0
  0
VERTEX
  5
19FE
  8
FP-602
 10
138.665797861431
 20
0.6580004518314127
 30
0.0
  0
VERTEX
  5
19FF
  8
FP-602
 10
138.868497861431
 20
0.5000004518210517
 30
0.0
  0
VERTEX
  5
1A00
  8
FP-602
 10
139.14349786143131
 20
0.3572004518196081
 30
0.0
  0
VERTEX
  5
1A01
  8
FP-602
 10
139.48229786143131
 20
0.234000451832344
 30
0.0
  0
VERTEX
  5
1A02
  8
FP-602
 10
139.87499786143101
 20
0.1340004518260685
 30
0.0
  0
VERTEX
  5
1A03
  8
FP-602
 10
140.309497861431
 20
0.0603004518329726
 30
0.0
  0
VERTEX
  5
1A04
  8
FP-602
 10
140.77259786143119
 20
0.0152004518299691
 30
0.0
  0
VERTEX
  5
1A05
  8
FP-602
 10
141.2499978614309
 20
0.0000004518210517
 30
0.0
  0
VERTEX
  5
1A06
  8
FP-602
 10
141.7273978614312
 20
0.0152004518299691
 30
0.0
  0
VERTEX
  5
1A07
  8
FP-602
 10
142.19049786143111
 20
0.0603004518329726
 30
0.0
  0
VERTEX
  5
1A08
  8
FP-602
 10
142.62499786143101
 20
0.1340004518260685
 30
0.0
  0
VERTEX
  5
1A09
  8
FP-602
 10
143.0176978614308
 20
0.234000451832344
 30
0.0
  0
VERTEX
  5
1A0A
  8
FP-602
 10
143.3564978614308
 20
0.3572004518196081
 30
0.0
  0
VERTEX
  5
1A0B
  8
FP-602
 10
143.63149786143089
 20
0.5000004518210517
 30
0.0
  0
VERTEX
  5
1A0C
  8
FP-602
 10
143.83419786143119
 20
0.6580004518314127
 30
0.0
  0
VERTEX
  5
1A0D
  8
FP-602
 10
143.95819786143099
 20
0.82640045182643
 30
0.0
  0
VERTEX
  5
1A0E
  8
FP-602
 10
143.99999786143101
 20
1.000000451821051
 30
0.0
  0
SEQEND
  5
1A0F
  8
FP-602
  0
POLYLINE
  5
1344
  8
FP-602
 66
     1
 10
0.0
 20
0.0
 30
0.0
  0
VERTEX
  5
1A10
  8
FP-602
 10
132.49999786143101
 20
1.000000451821051
 30
0.0
  0
VERTEX
  5
1A11
  8
FP-602
 10
132.5265978614311
 20
0.82640045182643
 30
0.0
  0
VERTEX
  5
1A12
  8
FP-602
 10
132.6054978614313
 20
0.6580004518314127
 30
0.0
  0
VERTEX
  5
1A13
  8
FP-602
 10
132.73449786143101
 20
0.5000004518210517
 30
0.0
  0
VERTEX
  5
1A14
  8
FP-602
 10
132.90949786143119
 20
0.3572004518196081
 30
0.0
  0
VERTEX
  5
1A15
  8
FP-602
 10
133.12509786143119
 20
0.234000451832344
 30
0.0
  0
VERTEX
  5
1A16
  8
FP-602
 10
133.37499786143101
 20
0.1340004518260685
 30
0.0
  0
VERTEX
  5
1A17
  8
FP-602
 10
133.6514978614309
 20
0.0603004518329726
 30
0.0
  0
VERTEX
  5
1A18
  8
FP-602
 10
133.94619786143079
 20
0.0152004518299691
 30
0.0
  0
VERTEX
  5
1A19
  8
FP-602
 10
134.24999786143101
 20
0.0000004518210517
 30
0.0
  0
VERTEX
  5
1A1A
  8
FP-602
 10
134.55379786143109
 20
0.0152004518299691
 30
0.0
  0
VERTEX
  5
1A1B
  8
FP-602
 10
134.84849786143101
 20
0.0603004518329726
 30
0.0
  0
VERTEX
  5
1A1C
  8
FP-602
 10
135.12499786143101
 20
0.1340004518260685
 30
0.0
  0
VERTEX
  5
1A1D
  8
FP-602
 10
135.37489786143121
 20
0.234000451832344
 30
0.0
  0
VERTEX
  5
1A1E
  8
FP-602
 10
135.5904978614312
 20
0.3572004518196081
 30
0.0
  0
VERTEX
  5
1A1F
  8
FP-602
 10
135.7654978614309
 20
0.5000004518210517
 30
0.0
  0
VERTEX
  5
1A20
  8
FP-602
 10
135.89449786143109
 20
0.6580004518314127
 30
0.0
  0
VERTEX
  5
1A21
  8
FP-602
 10
135.9733978614311
 20
0.82640045182643
 30
0.0
  0
VERTEX
  5
1A22
  8
FP-602
 10
135.9999978614309
 20
1.000000451821051
 30
0.0
  0
SEQEND
  5
1A23
  8
FP-602
  0
POLYLINE
  5
1345
  8
FP-602
 66
     1
 10
0.0
 20
0.0
 30
0.0
  0
VERTEX
  5
1A24
  8
FP-602
 10
132.49999786143101
 20
9.0000004518210517
 30
0.0
  0
VERTEX
  5
1A25
  8
FP-602
 10
132.5265978614311
 20
8.8264004518264301
 30
0.0
  0
VERTEX
  5
1A26
  8
FP-602
 10
132.6054978614313
 20
8.6580004518314126
 30
0.0
  0
VERTEX
  5
1A27
  8
FP-602
 10
132.73449786143101
 20
8.5000004518210517
 30
0.0
  0
VERTEX
  5
1A28
  8
FP-602
 10
132.90949786143119
 20
8.3572004518196081
 30
0.0
  0
VERTEX
  5
1A29
  8
FP-602
 10
133.12509786143119
 20
8.2340004518323422
 30
0.0
  0
VERTEX
  5
1A2A
  8
FP-602
 10
133.37499786143101
 20
8.1340004518260685
 30
0.0
  0
VERTEX
  5
1A2B
  8
FP-602
 10
133.6514978614309
 20
8.0603004518329726
 30
0.0
  0
VERTEX
  5
1A2C
  8
FP-602
 10
133.94619786143079
 20
8.0152004518295143
 30
0.0
  0
VERTEX
  5
1A2D
  8
FP-602
 10
134.24999786143101
 20
8.0000004518210517
 30
0.0
  0
VERTEX
  5
1A2E
  8
FP-602
 10
134.55379786143109
 20
8.0152004518295143
 30
0.0
  0
VERTEX
  5
1A2F
  8
FP-602
 10
134.84849786143101
 20
8.0603004518329726
 30
0.0
  0
VERTEX
  5
1A30
  8
FP-602
 10
135.12499786143101
 20
8.1340004518260685
 30
0.0
  0
VERTEX
  5
1A31
  8
FP-602
 10
135.37489786143121
 20
8.2340004518323422
 30
0.0
  0
VERTEX
  5
1A32
  8
FP-602
 10
135.5904978614312
 20
8.3572004518196081
 30
0.0
  0
VERTEX
  5
1A33
  8
FP-602
 10
135.7654978614309
 20
8.5000004518210517
 30
0.0
  0
VERTEX
  5
1A34
  8
FP-602
 10
135.89449786143109
 20
8.6580004518314126
 30
0.0
  0
VERTEX
  5
1A35
  8
FP-602
 10
135.9733978614311
 20
8.8264004518264301
 30
0.0
  0
VERTEX
  5
1A36
  8
FP-602
 10
135.9999978614309
 20
9.0000004518210517
 30
0.0
  0
SEQEND
  5
1A37
  8
FP-602
  0
LINE
  5
1346
  8
FP-602
 10
145.99999786143101
 20
1.000000451821051
 30
0.0
 11
143.99999786143101
 21
1.000000451821051
 31
0.0
  0
LINE
  5
1347
  8
FP-602
 10
143.99999786143101
 20
1.000000451821051
 30
0.0
 11
143.99999786143101
 21
9.0000004518210517
 31
0.0
  0
LINE
  5
1348
  8
FP-602
 10
143.99999786143101
 20
9.0000004518210517
 30
0.0
 11
145.99999786143101
 21
9.0000004518210517
 31
0.0
  0
LINE
  5
1349
  8
FP-602
 10
145.99999786143101
 20
9.0000004518210517
 30
0.0
 11
145.99999786143101
 21
1.000000451821051
 31
0.0
  0
LINE
  5
134A
  8
FP-602
 10
145.99999786143101
 20
1.000000451821051
 30
0.0
 11
143.99999786143101
 21
1.000000451821051
 31
0.0
  0
LINE
  5
134B
  8
FP-602
 10
143.99999786143101
 20
1.000000451821051
 30
0.0
 11
143.99999786143101
 21
9.0000004518210517
 31
0.0
  0
LINE
  5
134C
  8
FP-602
 10
143.99999786143101
 20
9.0000004518210517
 30
0.0
 11
145.99999786143101
 21
9.0000004518210517
 31
0.0
  0
LINE
  5
134D
  8
FP-602
 10
145.99999786143101
 20
9.0000004518210517
 30
0.0
 11
145.99999786143101
 21
1.000000451821051
 31
0.0
  0
LINE
  5
134E
  8
FP-602
 10
132.49999786143101
 20
1.000000451821051
 30
0.0
 11
131.99999786143101
 21
1.000000451821051
 31
0.0
  0
LINE
  5
134F
  8
FP-602
 10
131.99999786143101
 20
1.000000451821051
 30
0.0
 11
131.99999786143101
 21
9.0000004518210517
 31
0.0
  0
LINE
  5
1350
  8
FP-602
 10
131.99999786143101
 20
9.0000004518210517
 30
0.0
 11
132.49999786143101
 21
9.0000004518210517
 31
0.0
  0
LINE
  5
1351
  8
FP-602
 10
132.49999786143101
 20
9.0000004518210517
 30
0.0
 11
132.49999786143101
 21
1.000000451821051
 31
0.0
  0
LINE
  5
1352
  8
FP-602
 10
147.99999786143101
 20
8.0000004518210517
 30
0.0
 11
147.99999786143101
 21
1.000000451821051
 31
0.0
  0
LINE
  5
1353
  8
FP-602
 10
146.99999786143101
 20
0.0000004518210517
 30
0.0
 11
132.99999786143101
 21
0.0000004518210517
 31
0.0
  0
LINE
  5
1354
  8
FP-602
 10
132.99999786143101
 20
0.0000004518210517
 30
0.0
 11
131.99999786143101
 21
1.000000451821051
 31
0.0
  0
LINE
  5
1355
  8
FP-602
 10
147.99999786143101
 20
8.0000004518210517
 30
0.0
 11
147.99999786143101
 21
9.0000004518210517
 31
0.0
  0
LINE
  5
1356
  8
FP-602
 10
129.99999786143101
 20
11.00000045182105
 30
0.0
 11
131.99999786143101
 21
9.0000004518210517
 31
0.0
  0
LINE
  5
1357
  8
FP-602
 10
147.99999786143101
 20
9.0000004518210517
 30
0.0
 11
149.99999786143101
 21
11.00000045182105
 31
0.0
  0
LINE
  5
1358
  8
FP-602
 10
647.99999786143087
 20
12.480300451831219
 30
0.0
 11
647.99999786143087
 21
772.48030045183157
 31
0.0
  0
LINE
  5
1359
  8
FP-602
 10
647.99999786143087
 20
201.25000045182099
 30
0.0
 11
647.99999786143087
 21
223.25000045182111
 31
0.0
  0
LINE
  5
135A
  8
FP-602
 10
647.99999786143087
 20
223.25000045182111
 30
0.0
 11
648.99999786143087
 21
223.25000045182111
 31
0.0
  0
LINE
  5
135B
  8
FP-602
 10
648.99999786143087
 20
223.25000045182111
 30
0.0
 11
648.99999786143087
 21
201.25000045182099
 31
0.0
  0
LINE
  5
135C
  8
FP-602
 10
648.99999786143087
 20
201.25000045182099
 30
0.0
 11
647.99999786143087
 21
201.25000045182099
 31
0.0
  0
LINE
  5
135D
  8
FP-602
 10
650.69999786143126
 20
220.25000045182099
 30
0.0
 11
651.69999786143126
 21
220.25000045182099
 31
0.0
  0
LINE
  5
135E
  8
FP-602
 10
650.69999786143126
 20
204.25000045182111
 30
0.0
 11
651.69999786143126
 21
204.25000045182111
 31
0.0
  0
LINE
  5
135F
  8
FP-602
 10
652.99999786143087
 20
206.75000045182111
 30
0.0
 11
652.99999786143087
 21
217.75000045182099
 31
0.0
  0
LINE
  5
1360
  8
FP-602
 10
652.99999786143087
 20
217.75000045182099
 30
0.0
 11
653.99999786143053
 21
217.75000045182099
 31
0.0
  0
LINE
  5
1361
  8
FP-602
 10
653.99999786143053
 20
217.75000045182099
 30
0.0
 11
653.99999786143053
 21
206.75000045182111
 31
0.0
  0
LINE
  5
1362
  8
FP-602
 10
653.99999786143053
 20
206.75000045182111
 30
0.0
 11
652.99999786143087
 21
206.75000045182111
 31
0.0
  0
ARC
  5
1363
  8
FP-602
 10
650.74999786143087
 20
222.50000045182111
 30
0.0
 40
0.75
 50
0.0
 51
180.0
  0
LINE
  5
1364
  8
FP-602
 10
649.99999786143098
 20
222.50000045182111
 30
0.0
 11
650.49999786143098
 21
220.25000045182099
 31
0.0
  0
LINE
  5
1365
  8
FP-602
 10
651.99999786143087
 20
220.25000045182099
 30
0.0
 11
651.49999786143098
 21
222.50000045182111
 31
0.0
  0
ARC
  5
1366
  8
FP-602
 10
650.74999786143087
 20
202.00000045182111
 30
0.0
 40
0.75
 50
180.0
 51
0.0
  0
LINE
  5
1367
  8
FP-602
 10
649.99999786143098
 20
202.00000045182111
 30
0.0
 11
650.49999786143098
 21
204.25000045182111
 31
0.0
  0
LINE
  5
1368
  8
FP-602
 10
651.49999786143098
 20
202.00000045182111
 30
0.0
 11
651.99999786143087
 21
204.25000045182111
 31
0.0
  0
LINE
  5
1369
  8
FP-602
 10
652.99999786143087
 20
206.75000045182111
 30
0.0
 11
652.99999786143087
 21
217.75000045182099
 31
0.0
  0
LINE
  5
136A
  8
FP-602
 10
652.99999786143087
 20
217.75000045182099
 30
0.0
 11
653.99999786143053
 21
217.75000045182099
 31
0.0
  0
LINE
  5
136B
  8
FP-602
 10
653.99999786143053
 20
217.75000045182099
 30
0.0
 11
653.99999786143053
 21
206.75000045182111
 31
0.0
  0
LINE
  5
136C
  8
FP-602
 10
653.99999786143053
 20
206.75000045182111
 30
0.0
 11
652.99999786143087
 21
206.75000045182111
 31
0.0
  0
LINE
  5
136D
  8
FP-602
 10
650.49999786143098
 20
204.25000045182111
 30
0.0
 11
650.49999786143098
 21
206.75000045182111
 31
0.0
  0
LINE
  5
136E
  8
FP-602
 10
651.99999786143087
 20
204.25000045182111
 30
0.0
 11
651.99999786143087
 21
206.75000045182111
 31
0.0
  0
LINE
  5
136F
  8
FP-602
 10
651.99999786143087
 20
220.25000045182099
 30
0.0
 11
651.99999786143087
 21
219.45000045183269
 31
0.0
  0
LINE
  5
1370
  8
FP-602
 10
651.99999786143087
 20
219.45000045183269
 30
0.0
 11
651.99999786143087
 21
217.75000045182099
 31
0.0
  0
LINE
  5
1371
  8
FP-602
 10
651.99999786143087
 20
206.75000045182111
 30
0.0
 11
651.99999786143087
 21
217.75000045182099
 31
0.0
  0
LINE
  5
1372
  8
FP-602
 10
651.99999786143087
 20
217.75000045182099
 30
0.0
 11
652.99999786143087
 21
217.75000045182099
 31
0.0
  0
LINE
  5
1373
  8
FP-602
 10
652.99999786143087
 20
217.75000045182099
 30
0.0
 11
652.99999786143087
 21
206.75000045182111
 31
0.0
  0
LINE
  5
1374
  8
FP-602
 10
652.99999786143087
 20
206.75000045182111
 30
0.0
 11
651.99999786143087
 21
206.75000045182111
 31
0.0
  0
LINE
  5
1375
  8
FP-602
 10
650.49999786143098
 20
206.75000045182111
 30
0.0
 11
650.49999786143098
 21
217.8500004518269
 31
0.0
  0
LINE
  5
1376
  8
FP-602
 10
651.99999786143087
 20
217.75000045182099
 30
0.0
 11
651.99999786143087
 21
219.45000045183269
 31
0.0
  0
LINE
  5
1377
  8
FP-602
 10
651.99999786143087
 20
219.45000045183269
 30
0.0
 11
652.29999786143105
 21
219.45000045183269
 31
0.0
  0
LINE
  5
1378
  8
FP-602
 10
652.29999786143105
 20
219.45000045183269
 30
0.0
 11
652.29999786143105
 21
217.75000045182099
 31
0.0
  0
LINE
  5
1379
  8
FP-602
 10
652.29999786143105
 20
217.75000045182099
 30
0.0
 11
651.99999786143087
 21
217.75000045182099
 31
0.0
  0
LINE
  5
137A
  8
FP-602
 10
650.49999786143098
 20
220.25000045182099
 30
0.0
 11
650.49999786143098
 21
219.4438004518293
 31
0.0
  0
LINE
  5
137B
  8
FP-602
 10
650.49999786143098
 20
204.25000045182111
 30
0.0
 11
650.49999786143098
 21
206.75000045182111
 31
0.0
  0
LINE
  5
137C
  8
FP-602
 10
651.99999786143087
 20
205.45000045183269
 30
0.0
 11
651.99999786143087
 21
206.75000045182111
 31
0.0
  0
LINE
  5
137D
  8
FP-602
 10
651.99999786143087
 20
206.75000045182111
 30
0.0
 11
652.29999786143105
 21
206.75000045182111
 31
0.0
  0
LINE
  5
137E
  8
FP-602
 10
652.29999786143105
 20
206.75000045182111
 30
0.0
 11
652.29999786143105
 21
205.45000045183269
 31
0.0
  0
LINE
  5
137F
  8
FP-602
 10
652.29999786143105
 20
205.45000045183269
 30
0.0
 11
651.99999786143087
 21
205.45000045183269
 31
0.0
  0
LINE
  5
1380
  8
FP-602
 10
650.49999786143098
 20
217.75000045182099
 30
0.0
 11
648.99999786143087
 21
217.75000045182099
 31
0.0
  0
LINE
  5
1381
  8
FP-602
 10
650.49999786143098
 20
206.75000045182111
 30
0.0
 11
648.99999786143087
 21
206.75000045182111
 31
0.0
  0
LINE
  5
1382
  8
FP-602
 10
650.49999786143098
 20
219.45000045183269
 30
0.0
 11
649.89999786143096
 21
219.45000045183269
 31
0.0
  0
LINE
  5
1383
  8
FP-602
 10
649.89999786143096
 20
217.95000045183269
 30
0.0
 11
649.89999786143096
 21
219.25000045182111
 31
0.0
  0
LINE
  5
1384
  8
FP-602
 10
650.49999786143098
 20
217.75000045182099
 30
0.0
 11
650.49999786143098
 21
219.55000045182399
 31
0.0
  0
LINE
  5
1385
  8
FP-602
 10
649.89999786143096
 20
219.45000045183269
 30
0.0
 11
648.99999786143087
 21
219.45000045183269
 31
0.0
  0
LINE
  5
1386
  8
FP-602
 10
649.99999786143098
 20
222.45000045183269
 30
0.0
 11
648.99999786143087
 21
219.45000045183269
 31
0.0
  0
LINE
  5
1387
  8
FP-602
 10
648.99999786143087
 20
205.45000045183269
 30
0.0
 11
648.99999786143087
 21
206.75000045182111
 31
0.0
  0
LINE
  5
1388
  8
FP-602
 10
648.99999786143087
 20
206.75000045182111
 30
0.0
 11
650.49999786143098
 21
206.75000045182111
 31
0.0
  0
LINE
  5
1389
  8
FP-602
 10
650.49999786143098
 20
206.75000045182111
 30
0.0
 11
650.49999786143098
 21
205.45000045183269
 31
0.0
  0
LINE
  5
138A
  8
FP-602
 10
650.49999786143098
 20
205.45000045183269
 30
0.0
 11
648.99999786143087
 21
205.45000045183269
 31
0.0
  0
LINE
  5
138B
  8
FP-602
 10
649.99999786143098
 20
201.95000045183269
 30
0.0
 11
648.99999786143087
 21
205.45000045183269
 31
0.0
  0
LINE
  5
138C
  8
FP-602
 10
649.89999786143096
 20
205.65000045182981
 30
0.0
 11
649.89999786143096
 21
206.55000045182399
 31
0.0
  0
LINE
  5
138D
  8
FP-602
 10
652.29999786143105
 20
217.75000045182099
 30
0.0
 11
652.29999786143105
 21
219.45000045183269
 31
0.0
  0
LINE
  5
138E
  8
FP-602
 10
652.29999786143105
 20
219.45000045183269
 30
0.0
 11
652.99999786143087
 21
219.45000045183269
 31
0.0
  0
LINE
  5
138F
  8
FP-602
 10
652.99999786143087
 20
219.45000045183269
 30
0.0
 11
652.99999786143087
 21
217.75000045182099
 31
0.0
  0
LINE
  5
1390
  8
FP-602
 10
652.99999786143087
 20
217.75000045182099
 30
0.0
 11
652.29999786143105
 21
217.75000045182099
 31
0.0
  0
LINE
  5
1391
  8
FP-602
 10
652.29999786143105
 20
205.45000045183269
 30
0.0
 11
652.29999786143105
 21
206.75000045182111
 31
0.0
  0
LINE
  5
1392
  8
FP-602
 10
652.29999786143105
 20
206.75000045182111
 30
0.0
 11
652.99999786143087
 21
206.75000045182111
 31
0.0
  0
LINE
  5
1393
  8
FP-602
 10
652.99999786143087
 20
206.75000045182111
 30
0.0
 11
652.99999786143087
 21
205.45000045183269
 31
0.0
  0
LINE
  5
1394
  8
FP-602
 10
652.99999786143087
 20
205.45000045183269
 30
0.0
 11
652.29999786143105
 21
205.45000045183269
 31
0.0
  0
LINE
  5
1395
  8
FP-602
 10
647.99999786143087
 20
561.75000045182048
 30
0.0
 11
647.99999786143087
 21
583.75000045182151
 31
0.0
  0
LINE
  5
1396
  8
FP-602
 10
647.99999786143087
 20
583.75000045182151
 30
0.0
 11
648.99999786143087
 21
583.75000045182151
 31
0.0
  0
LINE
  5
1397
  8
FP-602
 10
648.99999786143087
 20
583.75000045182151
 30
0.0
 11
648.99999786143087
 21
561.75000045182048
 31
0.0
  0
LINE
  5
1398
  8
FP-602
 10
648.99999786143087
 20
561.75000045182048
 30
0.0
 11
647.99999786143087
 21
561.75000045182048
 31
0.0
  0
LINE
  5
1399
  8
FP-602
 10
650.69999786143126
 20
580.7500004518206
 30
0.0
 11
651.69999786143126
 21
580.7500004518206
 31
0.0
  0
LINE
  5
139A
  8
FP-602
 10
650.69999786143126
 20
564.7500004518206
 30
0.0
 11
651.69999786143126
 21
564.7500004518206
 31
0.0
  0
LINE
  5
139B
  8
FP-602
 10
652.99999786143087
 20
567.25000045182048
 30
0.0
 11
652.99999786143087
 21
578.2500004518206
 31
0.0
  0
LINE
  5
139C
  8
FP-602
 10
652.99999786143087
 20
578.2500004518206
 30
0.0
 11
653.99999786143053
 21
578.2500004518206
 31
0.0
  0
LINE
  5
139D
  8
FP-602
 10
653.99999786143053
 20
578.2500004518206
 30
0.0
 11
653.99999786143053
 21
567.25000045182048
 31
0.0
  0
LINE
  5
139E
  8
FP-602
 10
653.99999786143053
 20
567.25000045182048
 30
0.0
 11
652.99999786143087
 21
567.25000045182048
 31
0.0
  0
ARC
  5
139F
  8
FP-602
 10
650.74999786143087
 20
583.0000004518206
 30
0.0
 40
0.75
 50
0.0
 51
180.0
  0
LINE
  5
13A0
  8
FP-602
 10
649.99999786143098
 20
583.0000004518206
 30
0.0
 11
650.49999786143098
 21
580.7500004518206
 31
0.0
  0
LINE
  5
13A1
  8
FP-602
 10
651.99999786143087
 20
580.7500004518206
 30
0.0
 11
651.49999786143098
 21
583.0000004518206
 31
0.0
  0
ARC
  5
13A2
  8
FP-602
 10
650.74999786143087
 20
562.50000045182151
 30
0.0
 40
0.75
 50
180.0
 51
0.0
  0
LINE
  5
13A3
  8
FP-602
 10
649.99999786143098
 20
562.50000045182151
 30
0.0
 11
650.49999786143098
 21
564.7500004518206
 31
0.0
  0
LINE
  5
13A4
  8
FP-602
 10
651.49999786143098
 20
562.50000045182151
 30
0.0
 11
651.99999786143087
 21
564.7500004518206
 31
0.0
  0
LINE
  5
13A5
  8
FP-602
 10
652.99999786143087
 20
567.25000045182048
 30
0.0
 11
652.99999786143087
 21
578.2500004518206
 31
0.0
  0
LINE
  5
13A6
  8
FP-602
 10
652.99999786143087
 20
578.2500004518206
 30
0.0
 11
653.99999786143053
 21
578.2500004518206
 31
0.0
  0
LINE
  5
13A7
  8
FP-602
 10
653.99999786143053
 20
578.2500004518206
 30
0.0
 11
653.99999786143053
 21
567.25000045182048
 31
0.0
  0
LINE
  5
13A8
  8
FP-602
 10
653.99999786143053
 20
567.25000045182048
 30
0.0
 11
652.99999786143087
 21
567.25000045182048
 31
0.0
  0
LINE
  5
13A9
  8
FP-602
 10
650.49999786143098
 20
564.7500004518206
 30
0.0
 11
650.49999786143098
 21
567.25000045182048
 31
0.0
  0
LINE
  5
13AA
  8
FP-602
 10
651.99999786143087
 20
564.7500004518206
 30
0.0
 11
651.99999786143087
 21
567.25000045182048
 31
0.0
  0
LINE
  5
13AB
  8
FP-602
 10
651.99999786143087
 20
580.7500004518206
 30
0.0
 11
651.99999786143087
 21
579.95000045183224
 31
0.0
  0
LINE
  5
13AC
  8
FP-602
 10
651.99999786143087
 20
579.95000045183224
 30
0.0
 11
651.99999786143087
 21
578.2500004518206
 31
0.0
  0
LINE
  5
13AD
  8
FP-602
 10
651.99999786143087
 20
567.25000045182048
 30
0.0
 11
651.99999786143087
 21
578.2500004518206
 31
0.0
  0
LINE
  5
13AE
  8
FP-602
 10
651.99999786143087
 20
578.2500004518206
 30
0.0
 11
652.99999786143087
 21
578.2500004518206
 31
0.0
  0
LINE
  5
13AF
  8
FP-602
 10
652.99999786143087
 20
578.2500004518206
 30
0.0
 11
652.99999786143087
 21
567.25000045182048
 31
0.0
  0
LINE
  5
13B0
  8
FP-602
 10
652.99999786143087
 20
567.25000045182048
 30
0.0
 11
651.99999786143087
 21
567.25000045182048
 31
0.0
  0
LINE
  5
13B1
  8
FP-602
 10
650.49999786143098
 20
567.25000045182048
 30
0.0
 11
650.49999786143098
 21
578.35000045182642
 31
0.0
  0
LINE
  5
13B2
  8
FP-602
 10
651.99999786143087
 20
578.2500004518206
 30
0.0
 11
651.99999786143087
 21
579.95000045183224
 31
0.0
  0
LINE
  5
13B3
  8
FP-602
 10
651.99999786143087
 20
579.95000045183224
 30
0.0
 11
652.29999786143105
 21
579.95000045183224
 31
0.0
  0
LINE
  5
13B4
  8
FP-602
 10
652.29999786143105
 20
579.95000045183224
 30
0.0
 11
652.29999786143105
 21
578.2500004518206
 31
0.0
  0
LINE
  5
13B5
  8
FP-602
 10
652.29999786143105
 20
578.2500004518206
 30
0.0
 11
651.99999786143087
 21
578.2500004518206
 31
0.0
  0
LINE
  5
13B6
  8
FP-602
 10
650.49999786143098
 20
580.7500004518206
 30
0.0
 11
650.49999786143098
 21
579.9438004518297
 31
0.0
  0
LINE
  5
13B7
  8
FP-602
 10
650.49999786143098
 20
564.7500004518206
 30
0.0
 11
650.49999786143098
 21
567.25000045182048
 31
0.0
  0
LINE
  5
13B8
  8
FP-602
 10
651.99999786143087
 20
565.95000045183224
 30
0.0
 11
651.99999786143087
 21
567.25000045182048
 31
0.0
  0
LINE
  5
13B9
  8
FP-602
 10
651.99999786143087
 20
567.25000045182048
 30
0.0
 11
652.29999786143105
 21
567.25000045182048
 31
0.0
  0
LINE
  5
13BA
  8
FP-602
 10
652.29999786143105
 20
567.25000045182048
 30
0.0
 11
652.29999786143105
 21
565.95000045183224
 31
0.0
  0
LINE
  5
13BB
  8
FP-602
 10
652.29999786143105
 20
565.95000045183224
 30
0.0
 11
651.99999786143087
 21
565.95000045183224
 31
0.0
  0
LINE
  5
13BC
  8
FP-602
 10
650.49999786143098
 20
578.2500004518206
 30
0.0
 11
648.99999786143087
 21
578.2500004518206
 31
0.0
  0
LINE
  5
13BD
  8
FP-602
 10
650.49999786143098
 20
567.25000045182048
 30
0.0
 11
648.99999786143087
 21
567.25000045182048
 31
0.0
  0
LINE
  5
13BE
  8
FP-602
 10
650.49999786143098
 20
579.95000045183224
 30
0.0
 11
649.89999786143096
 21
579.95000045183224
 31
0.0
  0
LINE
  5
13BF
  8
FP-602
 10
649.89999786143096
 20
578.45000045183224
 30
0.0
 11
649.89999786143096
 21
579.75000045182048
 31
0.0
  0
LINE
  5
13C0
  8
FP-602
 10
650.49999786143098
 20
578.2500004518206
 30
0.0
 11
650.49999786143098
 21
580.05000045182351
 31
0.0
  0
LINE
  5
13C1
  8
FP-602
 10
649.89999786143096
 20
579.95000045183224
 30
0.0
 11
648.99999786143087
 21
579.95000045183224
 31
0.0
  0
LINE
  5
13C2
  8
FP-602
 10
649.99999786143098
 20
582.95000045183224
 30
0.0
 11
648.99999786143087
 21
579.95000045183224
 31
0.0
  0
LINE
  5
13C3
  8
FP-602
 10
648.99999786143087
 20
565.95000045183224
 30
0.0
 11
648.99999786143087
 21
567.25000045182048
 31
0.0
  0
LINE
  5
13C4
  8
FP-602
 10
648.99999786143087
 20
567.25000045182048
 30
0.0
 11
650.49999786143098
 21
567.25000045182048
 31
0.0
  0
LINE
  5
13C5
  8
FP-602
 10
650.49999786143098
 20
567.25000045182048
 30
0.0
 11
650.49999786143098
 21
565.95000045183224
 31
0.0
  0
LINE
  5
13C6
  8
FP-602
 10
650.49999786143098
 20
565.95000045183224
 30
0.0
 11
648.99999786143087
 21
565.95000045183224
 31
0.0
  0
LINE
  5
13C7
  8
FP-602
 10
649.99999786143098
 20
562.45000045183224
 30
0.0
 11
648.99999786143087
 21
565.95000045183224
 31
0.0
  0
LINE
  5
13C8
  8
FP-602
 10
649.89999786143096
 20
566.15000045182933
 30
0.0
 11
649.89999786143096
 21
567.05000045182351
 31
0.0
  0
LINE
  5
13C9
  8
FP-602
 10
652.29999786143105
 20
578.2500004518206
 30
0.0
 11
652.29999786143105
 21
579.95000045183224
 31
0.0
  0
LINE
  5
13CA
  8
FP-602
 10
652.29999786143105
 20
579.95000045183224
 30
0.0
 11
652.99999786143087
 21
579.95000045183224
 31
0.0
  0
LINE
  5
13CB
  8
FP-602
 10
652.99999786143087
 20
579.95000045183224
 30
0.0
 11
652.99999786143087
 21
578.2500004518206
 31
0.0
  0
LINE
  5
13CC
  8
FP-602
 10
652.99999786143087
 20
578.2500004518206
 30
0.0
 11
652.29999786143105
 21
578.2500004518206
 31
0.0
  0
LINE
  5
13CD
  8
FP-602
 10
652.29999786143105
 20
565.95000045183224
 30
0.0
 11
652.29999786143105
 21
567.25000045182048
 31
0.0
  0
LINE
  5
13CE
  8
FP-602
 10
652.29999786143105
 20
567.25000045182048
 30
0.0
 11
652.99999786143087
 21
567.25000045182048
 31
0.0
  0
LINE
  5
13CF
  8
FP-602
 10
652.99999786143087
 20
567.25000045182048
 30
0.0
 11
652.99999786143087
 21
565.95000045183224
 31
0.0
  0
LINE
  5
13D0
  8
FP-602
 10
652.99999786143087
 20
565.95000045183224
 30
0.0
 11
652.29999786143105
 21
565.95000045183224
 31
0.0
  0
LINE
  5
13D1
  8
FP-602
 10
48.749997861430977
 20
60.000000451821052
 30
0.0
 11
28.74999786143098
 21
60.000000451821052
 31
0.0
  0
LINE
  5
13D2
  8
FP-602
 10
28.74999786143098
 20
54.000000451821052
 30
0.0
 11
48.749997861430977
 21
54.000000451821052
 31
0.0
  0
ARC
  5
13D3
  8
FP-602
 10
28.74999786143098
 20
66.000000451821052
 30
0.0
 40
6.0
 50
180.0
 51
270.0
  0
ARC
  5
13D4
  8
FP-602
 10
28.74999786143098
 20
66.000000451821052
 30
0.0
 40
12.0
 50
180.0
 51
270.0
  0
ARC
  5
13D5
  8
FP-602
 10
10.74999786143098
 20
66.000000451821052
 30
0.0
 40
6.0
 50
0.0
 51
90.0
  0
LINE
  5
13D6
  8
FP-602
 10
10.74999786143098
 20
78.000000451821052
 30
0.0
 11
0.7499978614309839
 21
78.000000451821052
 31
0.0
  0
LINE
  5
13D7
  8
FP-602
 10
10.74999786143098
 20
72.000000451821052
 30
0.0
 11
0.7499978614309839
 21
72.000000451821052
 31
0.0
  0
ARC
  5
13D8
  8
FP-602
 10
10.74999786143098
 20
66.000000451821052
 30
0.0
 40
12.0
 50
0.0
 51
90.0
  0
POLYLINE
  5
13D9
  8
FP-602
 66
     1
 10
0.0
 20
0.0
 30
0.0
  0
VERTEX
  5
1A38
  8
FP-602
 10
-0.0000021385690161
 20
73.500000451821052
 30
0.0
  0
VERTEX
  5
1A39
  8
FP-602
 10
0.0113978614310781
 20
73.76040045182026
 30
0.0
  0
VERTEX
  5
1A3A
  8
FP-602
 10
0.0451978614310065
 20
74.013000451827324
 30
0.0
  0
VERTEX
  5
1A3B
  8
FP-602
 10
0.1004978614309948
 20
74.250000451821052
 30
0.0
  0
VERTEX
  5
1A3C
  8
FP-602
 10
0.1754978614310403
 20
74.464200451823217
 30
0.0
  0
VERTEX
  5
1A3D
  8
FP-602
 10
0.2678978614310381
 20
74.649000451825941
 30
0.0
  0
VERTEX
  5
1A3E
  8
FP-602
 10
0.3749978614309839
 20
74.79900045182012
 30
0.0
  0
VERTEX
  5
1A3F
  8
FP-602
 10
0.493497861431024
 20
74.909500451829899
 30
0.0
  0
VERTEX
  5
1A40
  8
FP-602
 10
0.619797861430925
 20
74.977200451829503
 30
0.0
  0
VERTEX
  5
1A41
  8
FP-602
 10
0.7499978614309839
 20
75.000000451821052
 30
0.0
  0
VERTEX
  5
1A42
  8
FP-602
 10
0.8801978614310428
 20
74.977200451829503
 30
0.0
  0
VERTEX
  5
1A43
  8
FP-602
 10
1.006497861430943
 20
74.909500451829899
 30
0.0
  0
VERTEX
  5
1A44
  8
FP-602
 10
1.124997861430983
 20
74.79900045182012
 30
0.0
  0
VERTEX
  5
1A45
  8
FP-602
 10
1.2320978614311571
 20
74.649000451825941
 30
0.0
  0
VERTEX
  5
1A46
  8
FP-602
 10
1.324497861431154
 20
74.464200451823217
 30
0.0
  0
VERTEX
  5
1A47
  8
FP-602
 10
1.3994978614311999
 20
74.250000451821052
 30
0.0
  0
VERTEX
  5
1A48
  8
FP-602
 10
1.4547978614309609
 20
74.013000451827324
 30
0.0
  0
VERTEX
  5
1A49
  8
FP-602
 10
1.488597861431344
 20
73.76040045182026
 30
0.0
  0
VERTEX
  5
1A4A
  8
FP-602
 10
1.499997861430983
 20
73.500000451821052
 30
0.0
  0
VERTEX
  5
1A4B
  8
FP-602
 10
1.488597861431344
 20
73.239500451831645
 30
0.0
  0
VERTEX
  5
1A4C
  8
FP-602
 10
1.4547978614309609
 20
72.986900451824567
 30
0.0
  0
VERTEX
  5
1A4D
  8
FP-602
 10
1.3994978614311999
 20
72.750000451821052
 30
0.0
  0
VERTEX
  5
1A4E
  8
FP-602
 10
1.324497861431154
 20
72.535800451818886
 30
0.0
  0
VERTEX
  5
1A4F
  8
FP-602
 10
1.2320978614311571
 20
72.350900451825964
 30
0.0
  0
VERTEX
  5
1A50
  8
FP-602
 10
1.124997861430983
 20
72.200900451831785
 30
0.0
  0
VERTEX
  5
1A51
  8
FP-602
 10
1.006497861430943
 20
72.090400451821552
 30
0.0
  0
VERTEX
  5
1A52
  8
FP-602
 10
0.8801978614310428
 20
72.022800451827152
 30
0.0
  0
VERTEX
  5
1A53
  8
FP-602
 10
0.7499978614309839
 20
72.000000451821052
 30
0.0
  0
VERTEX
  5
1A54
  8
FP-602
 10
0.619797861430925
 20
72.022800451827152
 30
0.0
  0
VERTEX
  5
1A55
  8
FP-602
 10
0.493497861431024
 20
72.090400451821552
 30
0.0
  0
VERTEX
  5
1A56
  8
FP-602
 10
0.3749978614309839
 20
72.200900451831785
 30
0.0
  0
VERTEX
  5
1A57
  8
FP-602
 10
0.2678978614310381
 20
72.350900451825964
 30
0.0
  0
VERTEX
  5
1A58
  8
FP-602
 10
0.1754978614310403
 20
72.535800451818886
 30
0.0
  0
VERTEX
  5
1A59
  8
FP-602
 10
0.1004978614309948
 20
72.750000451821052
 30
0.0
  0
VERTEX
  5
1A5A
  8
FP-602
 10
0.0451978614310065
 20
72.986900451824567
 30
0.0
  0
VERTEX
  5
1A5B
  8
FP-602
 10
0.0113978614310781
 20
73.239500451831645
 30
0.0
  0
VERTEX
  5
1A5C
  8
FP-602
 10
-0.0000021385690161
 20
73.500000451821052
 30
0.0
  0
SEQEND
  5
1A5D
  8
FP-602
  0
POLYLINE
  5
13DA
  8
FP-602
 66
     1
 10
0.0
 20
0.0
 30
0.0
  0
VERTEX
  5
1A5E
  8
FP-602
 10
0.7499978614309839
 20
75.000000451821052
 30
0.0
  0
VERTEX
  5
1A5F
  8
FP-602
 10
0.619797861430925
 20
75.022800451827152
 30
0.0
  0
VERTEX
  5
1A60
  8
FP-602
 10
0.493497861431024
 20
75.090400451821552
 30
0.0
  0
VERTEX
  5
1A61
  8
FP-602
 10
0.3749978614309839
 20
75.200900451831785
 30
0.0
  0
VERTEX
  5
1A62
  8
FP-602
 10
0.2678978614310381
 20
75.350900451825964
 30
0.0
  0
VERTEX
  5
1A63
  8
FP-602
 10
0.1754978614310403
 20
75.535800451818886
 30
0.0
  0
VERTEX
  5
1A64
  8
FP-602
 10
0.1004978614309948
 20
75.750000451821052
 30
0.0
  0
VERTEX
  5
1A65
  8
FP-602
 10
0.0451978614310065
 20
75.986900451824567
 30
0.0
  0
VERTEX
  5
1A66
  8
FP-602
 10
0.0113978614310781
 20
76.239500451831645
 30
0.0
  0
VERTEX
  5
1A67
  8
FP-602
 10
-0.0000021385690161
 20
76.500000451821052
 30
0.0
  0
VERTEX
  5
1A68
  8
FP-602
 10
0.0113978614310781
 20
76.76040045182026
 30
0.0
  0
VERTEX
  5
1A69
  8
FP-602
 10
0.0451978614310065
 20
77.013000451827324
 30
0.0
  0
VERTEX
  5
1A6A
  8
FP-602
 10
0.1004978614309948
 20
77.250000451821052
 30
0.0
  0
VERTEX
  5
1A6B
  8
FP-602
 10
0.1754978614310403
 20
77.464200451823217
 30
0.0
  0
VERTEX
  5
1A6C
  8
FP-602
 10
0.2678978614310381
 20
77.649000451825941
 30
0.0
  0
VERTEX
  5
1A6D
  8
FP-602
 10
0.3749978614309839
 20
77.79900045182012
 30
0.0
  0
VERTEX
  5
1A6E
  8
FP-602
 10
0.493497861431024
 20
77.909500451829445
 30
0.0
  0
VERTEX
  5
1A6F
  8
FP-602
 10
0.619797861430925
 20
77.977200451829049
 30
0.0
  0
VERTEX
  5
1A70
  8
FP-602
 10
0.7499978614309839
 20
78.000000451821052
 30
0.0
  0
SEQEND
  5
1A71
  8
FP-602
  0
LINE
  5
13DB
  8
FP-602
 10
43.999997861430977
 20
54.000000451821052
 30
0.0
 11
55.999997861430977
 21
54.000000451821052
 31
0.0
  0
LINE
  5
13DC
  8
FP-602
 10
47.999997861430977
 20
60.000000451821052
 30
0.0
 11
55.999997861430977
 21
60.000000451821052
 31
0.0
  0
LINE
  5
13DD
  8
FP-602
  6
HIDDEN
 10
149.99999786143101
 20
689.50000045182048
 30
0.0
 11
569.99999786143121
 21
689.50000045182048
 31
0.0
  0
LINE
  5
13DE
  8
FP-602
  6
HIDDEN
 10
569.99999786143121
 20
689.50000045182048
 30
0.0
 11
569.99999786143121
 21
95.537814868995156
 31
0.0
  0
LINE
  5
13DF
  8
FP-602
  6
HIDDEN
 10
569.99999786143121
 20
95.500000451821052
 30
0.0
 11
149.99999786143101
 21
95.500000451821052
 31
0.0
  0
LINE
  5
13E0
  8
FP-602
  6
HIDDEN
 10
149.99999786143101
 20
95.500000451821052
 30
0.0
 11
149.99999786143101
 21
689.50000045182048
 31
0.0
  0
ENDBLK
  5
13E4
  8
0
  0
BLOCK
  8
0
  2
*U17
 70
     1
 10
0.0
 20
0.0
 30
0.0
  3
*U17
  1

  0
TEXT
  5
1695
  8
0
 62
     0
 10
564.05422804166187
 20
2964.0232767307471
 30
0.0
 40
12.5
  1
94
  0
ENDBLK
  5
1697
  8
0
  0
BLOCK
  8
0
  2
*U18
 70
     1
 10
0.0
 20
0.0
 30
0.0
  3
*U18
  1

  0
TEXT
  5
1699
  8
0
 62
     0
 10
815.84589470832873
 20
2964.0232767307471
 30
0.0
 40
12.5
  1
420
  0
ENDBLK
  5
169B
  8
0
  0
BLOCK
  8
0
  2
*U19
 70
     1
 10
0.0
 20
0.0
 30
0.0
  3
*U19
  1

  0
TEXT
  5
169D
  8
0
 62
     0
 10
431.00183142473509
 20
2481.4007364595191
 30
0.0
 40
12.5
  1
594
 50
90.0
  0
ENDBLK
  5
169F
  8
0
  0
BLOCK
  8
0
  2
*U20
 70
     1
 10
0.0
 20
0.0
 30
0.0
  3
*U20
  1

  0
TEXT
  5
16A1
  8
0
 62
     0
 10
360.27671809658631
 20
1811.0721569787061
 30
0.0
 40
12.5
  1
(11)
 50
90.0
  0
ENDBLK
  5
16A3
  8
0
  0
BLOCK
  8
0
  2
*U21
 70
     1
 10
0.0
 20
0.0
 30
0.0
  3
*U21
  1

  0
TEXT
  5
19E5
  8
0
 62
     0
 10
360.27671809658631
 20
1875.427456978716
 30
0.0
 40
12.5
  1
65
 50
90.0
  0
ENDBLK
  5
19E7
  8
0
  0
BLOCK
  8
0
  2
*U22
 70
     1
 10
0.0
 20
0.0
 30
0.0
  3
*U22
  1

  0
TEXT
  5
1A73
  8
0
 62
     0
 10
428.91849809140172
 20
2817.5257364595191
 30
0.0
 40
12.5
  1
84,5
 50
90.0
  0
ENDBLK
  5
1A75
  8
0
  0
BLOCK
  8
0
  2
*U23
 70
     1
 10
0.0
 20
0.0
 30
0.0
  3
*U23
  1

  0
TEXT
  5
1A77
  8
0
 62
     0
 10
806.80422804166187
 20
3028.9081288185939
 30
0.0
 40
12.5
  1
592
  0
ENDBLK
  5
1A79
  8
0
  0
BLOCK
  8
0
  2
*U24
 70
     1
 10
0.0
 20
0.0
 30
0.0
  3
*U24
  1

  0
TEXT
  5
1A7B
  8
0
 62
     0
 10
360.27671809658631
 20
2481.3908864595251
 30
0.0
 40
12.5
  1
763
 50
90.0
  0
ENDBLK
  5
1A7D
  8
0
  0
BLOCK
  8
0
  2
*U25
 70
     1
 10
0.0
 20
0.0
 30
0.0
  3
*U25
  1

  0
TEXT
  5
1A7F
  8
0
 10
336.91517339238447
 20
1931.9793635406099
 30
0.0
 40
12.5
  1
Cable-length 2000
  0
ENDBLK
  5
1A81
  8
0
  0
ENDSEC
  0
SECTION
  2
ENTITIES
  0
DIMENSION
  5
B0E
  8
0
  2
*D5
 10
1041.4708947083291
 20
2963.3982767307471
 30
0.0
 11
831.47089470832873
 21
2970.2732767307471
 31
0.0
 70
     0
 13
621.47089470832861
 23
2798.0674031261851
 33
0.0
 14
1041.4708947083291
 24
2795.0674031261851
 34
0.0
1001
ACAD
1000
DSTYLE
1002
{
1070
   140
1040
12.5
1002
}
  0
DIMENSION
  5
B27
  8
0
  2
*D6
 10
527.4708947083285
 20
2963.3982767307471
 30
0.0
 11
574.47089470832861
 21
2970.2732767307471
 31
0.0
 70
     0
 13
621.47089470832861
 23
2795.0674031261851
 33
0.0
 14
527.4708947083285
 24
2878.0477031261962
 34
0.0
1001
ACAD
1000
DSTYLE
1002
{
1070
   140
1040
12.5
1002
}
  0
DIMENSION
  5
B3F
  8
0
  2
*D7
 10
431.62683142473543
 20
2201.067403126186
 30
0.0
 11
424.75183142473509
 21
2498.067403126186
 31
0.0
 70
     0
 13
621.47089470832861
 23
2795.0674031261851
 33
0.0
 14
621.47089470832861
 24
2201.067403126186
 34
0.0
 50
90.0
1001
ACAD
1000
DSTYLE
1002
{
1070
   140
1040
12.5
1002
}
  0
DIMENSION
  5
C6F
  8
0
  2
*D8
 10
431.62683142473549
 20
2879.567403126186
 30
0.0
 11
423.7101647580684
 21
2837.317403126186
 31
0.0
 70
     0
 13
621.47089470832861
 23
2795.0674031261851
 33
0.0
 14
532.47089470832861
 24
2879.567403126186
 34
0.0
 50
90.0
1001
ACAD
1000
DSTYLE
1002
{
1070
   140
1040
12.5
1002
}
  0
DIMENSION
  5
C87
  8
0
  2
*D9
 10
360.90171809658648
 20
2116.5477031261962
 30
0.0
 11
354.02671809658631
 21
2498.0575531261911
 31
0.0
 70
     0
 13
532.47089470832861
 23
2879.567403126186
 33
0.0
 14
532.47089470832861
 24
2116.5477031261962
 34
0.0
 50
90.0
1001
ACAD
1000
DSTYLE
1002
{
1070
   140
1040
12.5
1070
   271
1070
     1
1002
}
  0
DIMENSION
  5
CA8
  8
0
  2
*D10
 10
1119.4708947083279
 20
3028.2831288185948
 30
0.0
 11
823.4708947083285
 21
3035.1581288185939
 31
0.0
 70
     0
 13
527.4708947083285
 23
2878.0477031261962
 33
0.0
 14
1119.4708947083279
 24
2878.0477031261962
 34
0.0
1001
ACAD
1000
DSTYLE
1002
{
1070
   140
1040
12.5
1002
}
  0
DIMENSION
  5
D3D
  8
0
  2
*D11
 10
360.90171809658648
 20
1843.3638236453719
 30
0.0
 11
354.02671809658631
 21
1825.6554903120391
 31
0.0
 70
     0
  1
(11)
 13
544.97089470832873
 23
1853.3441236453821
 33
0.0
 14
564.97089470832873
 24
1843.3638236453719
 34
0.0
 50
90.0
1001
ACAD
1000
DSTYLE
1002
{
1070
   140
1040
12.5
1002
}
  0
DIMENSION
  5
EAB
  8
0
  2
*D12
 10
360.90171809658648
 20
1853.3441236453821
 30
0.0
 11
354.02671809658631
 21
1885.8441236453821
 31
0.0
 70
     0
 13
527.47089470832873
 23
1918.3441236453821
 33
0.0
 14
544.97089470832873
 24
1853.3441236453821
 34
0.0
 50
90.0
1001
ACAD
1000
DSTYLE
1002
{
1070
   140
1040
12.5
1002
}
  0
INSERT
  5
10DC
  8
FP-602
  2
A$C2AB63598
 10
1439.2970469280731
 20
2116.5477030602742
 30
0.0
  0
INSERT
  5
131E
  8
FP-602
  2
A$C5C9B635F
 10
398.34589416525432
 20
1843.3638223857399
 30
0.0
  0
INSERT
  5
13E5
  8
FP-602
  2
A$C2C756D25
 10
471.47089684689757
 20
2105.567402674365
 30
0.0
  0
INSERT
  5
1424
  8
FP-602
  2
*U25
 10
0.0
 20
0.0
 30
0.0
  0
ENDSEC
  0
EOF
