  0
SECTION
  2
HEADER
  9
$ACADVER
  1
AC1009
  9
$INSBASE
 10
0.0
 20
0.0
 30
0.0
  9
$EXTMIN
 10
925.05038521250844
 20
570.18798659150605
 30
-0.000000000000013
  9
$EXTMAX
 10
2718.2868583533818
 20
1262.3376048413529
 30
0.0000000000000023
  9
$LIMMIN
 10
0.0
 20
0.0
  9
$LIMMAX
 10
420.0
 20
297.0
  9
$ORTHOMODE
 70
     1
  9
$REGENMODE
 70
     1
  9
$FILLMODE
 70
     1
  9
$QTEXTMODE
 70
     0
  9
$MIRRTEXT
 70
     0
  9
$DRAGMODE
 70
     2
  9
$LTSCALE
 40
1.0
  9
$OSMODE
 70
   695
  9
$ATTMODE
 70
     1
  9
$TEXTSIZE
 40
2.5
  9
$TRACEWID
 40
1.0
  9
$TEXTSTYLE
  7
STANDARD
  9
$CLAYER
  8
0
  9
$CELTYPE
  6
BYLAYER
  9
$CECOLOR
 62
   256
  9
$DIMSCALE
 40
1.0
  9
$DIMASZ
 40
2.5
  9
$DIMEXO
 40
0.625
  9
$DIMDLI
 40
3.75
  9
$DIMRND
 40
0.0
  9
$DIMDLE
 40
0.0
  9
$DIMEXE
 40
1.25
  9
$DIMTP
 40
0.0
  9
$DIMTM
 40
0.0
  9
$DIMTXT
 40
2.5
  9
$DIMCEN
 40
2.5
  9
$DIMTSZ
 40
0.0
  9
$DIMTOL
 70
     0
  9
$DIMLIM
 70
     0
  9
$DIMTIH
 70
     0
  9
$DIMTOH
 70
     0
  9
$DIMSE1
 70
     0
  9
$DIMSE2
 70
     0
  9
$DIMTAD
 70
     1
  9
$DIMZIN
 70
     8
  9
$DIMBLK
  1

  9
$DIMASO
 70
     1
  9
$DIMSHO
 70
     1
  9
$DIMPOST
  1

  9
$DIMAPOST
  1

  9
$DIMALT
 70
     0
  9
$DIMALTD
 70
     3
  9
$DIMALTF
 40
0.03937007874016
  9
$DIMLFAC
 40
1.0
  9
$DIMTOFL
 70
     1
  9
$DIMTVP
 40
0.0
  9
$DIMTIX
 70
     0
  9
$DIMSOXD
 70
     0
  9
$DIMSAH
 70
     0
  9
$DIMBLK1
  1

  9
$DIMBLK2
  1

  9
$DIMSTYLE
  2
ISO-25
  9
$DIMCLRD
 70
     0
  9
$DIMCLRE
 70
     0
  9
$DIMCLRT
 70
     0
  9
$DIMTFAC
 40
1.0
  9
$DIMGAP
 40
0.625
  9
$LUNITS
 70
     2
  9
$LUPREC
 70
     4
  9
$SKETCHINC
 40
1.0
  9
$FILLETRAD
 40
0.0
  9
$AUNITS
 70
     0
  9
$AUPREC
 70
     0
  9
$MENU
  1
.
  9
$ELEVATION
 40
0.0
  9
$PELEVATION
 40
0.0
  9
$THICKNESS
 40
0.0
  9
$LIMCHECK
 70
     0
  9
$BLIPMODE
 70
     0
  9
$CHAMFERA
 40
0.0
  9
$CHAMFERB
 40
0.0
  9
$SKPOLY
 70
     0
  9
$TDCREATE
 40
2456563.8970290739
  9
$TDUPDATE
 40
2456564.5569391898
  9
$TDINDWG
 40
0.0059671644
  9
$TDUSRTIMER
 40
0.0059669792
  9
$USRTIMER
 70
     1
  9
$ANGBASE
 50
0.0
  9
$ANGDIR
 70
     0
  9
$PDMODE
 70
     0
  9
$PDSIZE
 40
0.0
  9
$PLINEWID
 40
0.0
  9
$COORDS
 70
     1
  9
$SPLFRAME
 70
     0
  9
$SPLINETYPE
 70
     6
  9
$SPLINESEGS
 70
     8
  9
$ATTDIA
 70
     0
  9
$ATTREQ
 70
     1
  9
$HANDLING
 70
     1
  9
$HANDSEED
  5
B85
  9
$SURFTAB1
 70
     6
  9
$SURFTAB2
 70
     6
  9
$SURFTYPE
 70
     6
  9
$SURFU
 70
     6
  9
$SURFV
 70
     6
  9
$UCSNAME
  2

  9
$UCSORG
 10
0.0
 20
0.0
 30
0.0
  9
$UCSXDIR
 10
1.0
 20
0.0
 30
0.0
  9
$UCSYDIR
 10
0.0
 20
1.0
 30
0.0
  9
$PUCSNAME
  2

  9
$PUCSORG
 10
0.0
 20
0.0
 30
0.0
  9
$PUCSXDIR
 10
1.0
 20
0.0
 30
0.0
  9
$PUCSYDIR
 10
0.0
 20
1.0
 30
0.0
  9
$USERI1
 70
     0
  9
$USERI2
 70
     0
  9
$USERI3
 70
     0
  9
$USERI4
 70
     0
  9
$USERI5
 70
     0
  9
$USERR1
 40
0.0
  9
$USERR2
 40
0.0
  9
$USERR3
 40
0.0
  9
$USERR4
 40
0.0
  9
$USERR5
 40
0.0
  9
$WORLDVIEW
 70
     1
  9
$SHADEDGE
 70
     3
  9
$SHADEDIF
 70
    70
  9
$TILEMODE
 70
     1
  9
$MAXACTVP
 70
    64
  9
$PLIMCHECK
 70
     0
  9
$PEXTMIN
 10
0.0
 20
0.0
 30
0.0
  9
$PEXTMAX
 10
0.0
 20
0.0
 30
0.0
  9
$PLIMMIN
 10
0.0
 20
0.0
  9
$PLIMMAX
 10
12.0
 20
9.0
  9
$UNITMODE
 70
     0
  9
$VISRETAIN
 70
     1
  9
$PLINEGEN
 70
     0
  9
$PSLTSCALE
 70
     1
  0
ENDSEC
  0
SECTION
  2
TABLES
  0
TABLE
  2
VPORT
 70
     1
  0
VPORT
  2
*ACTIVE
 70
     0
 10
0.0
 20
0.0
 11
1.0
 21
1.0
 12
1821.6686217829449
 22
916.26279571642976
 13
0.0
 23
0.0
 14
10.0
 24
10.0
 15
10.0
 25
10.0
 16
0.0
 26
0.0
 36
1.0
 17
0.0
 27
0.0
 37
0.0
 40
1122.504970849209
 41
1.6058906030855531
 42
50.0
 43
0.0
 44
0.0
 50
0.0
 51
0.0
 71
     0
 72
  1000
 73
     1
 74
     3
 75
     0
 76
     0
 77
     0
 78
     0
  0
ENDTAB
  0
TABLE
  2
LTYPE
 70
     4
  0
LTYPE
  2
CONTINUOUS
 70
     0
  3
Solid line
 72
    65
 73
     0
 40
0.0
  0
LTYPE
  2
HIDDEN
 70
     0
  3
Hidden __ __ __ __ __ __ __ __ __ __ __ __ __ _
 72
    65
 73
     2
 40
0.375
 49
0.25
 49
-0.125
  0
LTYPE
  2
CENTER
 70
     0
  3
Center ____ _ ____ _ ____ _ ____ _ ____ _ ____
 72
    65
 73
     4
 40
2.0
 49
1.25
 49
-0.25
 49
0.25
 49
-0.25
  0
LTYPE
  2
CENTER2
 70
     0
  3
__ _ __ _ __ _
 72
    65
 73
     4
 40
10.0
 49
7.0
 49
-1.0
 49
1.0
 49
-1.0
  0
ENDTAB
  0
TABLE
  2
LAYER
 70
     3
  0
LAYER
  2
0
 70
     0
 62
     7
  6
CONTINUOUS
  0
LAYER
  2
HLST
 70
     0
 62
     7
  6
CONTINUOUS
  0
LAYER
  2
DEFPOINTS
 70
     0
 62
     7
  6
CONTINUOUS
  0
ENDTAB
  0
TABLE
  2
STYLE
 70
     2
  0
STYLE
  2
STANDARD
 70
     0
 40
0.0
 41
1.0
 50
0.0
 71
     0
 42
2.5
  3
txt
  4
extfont2.shx
  0
ENDTAB
  0
TABLE
  2
VIEW
 70
     0
  0
ENDTAB
  0
TABLE
  2
UCS
 70
     0
  0
ENDTAB
  0
TABLE
  2
APPID
 70
    10
  0
APPID
  2
ACAD
 70
     0
  0
APPID
  2
ACAD_PSEXT
 70
     0
  0
APPID
  2
ACADANNOPO
 70
     0
  0
APPID
  2
ACADANNOTATIVE
 70
     0
  0
APPID
  2
ACAD_DSTYLE_DIMJAG
 70
     0
  0
APPID
  2
ACAD_DSTYLE_DIMTALN
 70
     0
  0
APPID
  2
ACAD_MLEADERVER
 70
     0
  0
APPID
  2
ACAECLAYERSTANDARD
 70
     0
  0
APPID
  2
ACAD_DSTYLE_DIMBREAK
 70
     0
  0
APPID
  2
ACAD_DSTYLE_DIMTEXT_FILL
 70
     0
  0
ENDTAB
  0
TABLE
  2
DIMSTYLE
 70
     3
  0
DIMSTYLE
  2
ISO-25
 70
     0
  3

  4

  5

  6

  7

 40
1.0
 41
2.5
 42
0.625
 43
3.75
 44
1.25
 45
0.0
 46
0.0
 47
0.0
 48
0.0
140
2.5
141
2.5
142
0.0
143
0.03937007874016
144
1.0
145
0.0
146
1.0
147
0.625
 71
     0
 72
     0
 73
     0
 74
     0
 75
     0
 76
     0
 77
     1
 78
     8
170
     0
171
     3
172
     1
173
     0
174
     0
175
     0
176
     0
177
     0
178
     0
  0
ENDTAB
  0
ENDSEC
  0
SECTION
  2
BLOCKS
  0
BLOCK
  8
0
  2
$MODEL_SPACE
 70
     0
 10
0.0
 20
0.0
 30
0.0
  3
$MODEL_SPACE
  1

  0
ENDBLK
  5
21
  8
0
  0
BLOCK
 67
     1
  8
0
  2
$PAPER_SPACE
 70
     0
 10
0.0
 20
0.0
 30
0.0
  3
$PAPER_SPACE
  1

  0
ENDBLK
  5
D5
 67
     1
  8
0
  0
BLOCK
  8
0
  2
A$C368937F0
 70
     0
 10
0.0
 20
0.0
 30
0.0
  3
A$C368937F0
  1

  0
ARC
  5
6CD
  8
HLST
 10
89.999998510943669
 20
60.491100058049938
 30
0.0
 40
14.0
 50
122.392365485992
 51
244.62306647499929
  0
ARC
  5
6CE
  8
HLST
 10
89.999998510943669
 20
60.491100058049938
 30
0.0
 40
12.0
 50
128.6821874540037
 51
239.99999999999949
  0
ARC
  5
6CF
  8
HLST
 10
93.499998510943655
 20
47.971116033049832
 30
0.0
 40
1.0
 50
0.0
 51
177.7585231999976
  0
ARC
  5
6D0
  8
HLST
 10
89.999998510943669
 20
60.491100058049938
 30
0.0
 40
12.0
 50
245.37568164800331
 51
254.38150172400219
  0
ARC
  5
6D1
  8
HLST
 10
89.999998510943669
 20
60.491100058049938
 30
0.0
 40
12.0
 50
300.00000000000051
 51
51.317812546997288
  0
ARC
  5
6D2
  8
HLST
 10
86.499998510943669
 20
47.971116033049832
 30
0.0
 40
1.0
 50
2.2414768000023422
 51
177.76023648400221
  0
LINE
  5
6D3
  8
HLST
 10
94.499998510943655
 20
53.000000893049901
 30
0.0
 11
94.999998510943669
 21
53.000000893049901
 31
0.0
  0
LINE
  5
6D4
  8
HLST
 10
93.499998510943655
 20
56.000000893049901
 30
0.0
 11
86.499998510943669
 21
56.000000893049901
 31
0.0
  0
LINE
  5
6D5
  8
HLST
 10
96.599998510943806
 20
56.700000893049953
 30
0.0
 11
95.999998510943655
 21
56.700000893049953
 31
0.0
  0
LINE
  5
6D6
  8
HLST
 10
96.599998510943806
 20
52.300000893049862
 30
0.0
 11
96.599998510943806
 21
56.700000893049953
 31
0.0
  0
LINE
  5
6D7
  8
HLST
 10
84.999998510943669
 20
53.000000893049901
 30
0.0
 11
85.499998510943669
 21
53.000000893049901
 31
0.0
  0
LINE
  5
6D8
  8
HLST
 10
94.999998510943669
 20
56.000000893049901
 30
0.0
 11
94.499998510943655
 21
56.000000893049901
 31
0.0
  0
LINE
  5
6D9
  8
HLST
 10
95.999998510943655
 20
52.300000893049862
 30
0.0
 11
96.599998510943806
 21
52.300000893049862
 31
0.0
  0
LINE
  5
6DA
  8
HLST
 10
86.499998510943669
 20
53.000000893049901
 30
0.0
 11
93.499998510943655
 21
53.000000893049901
 31
0.0
  0
ARC
  5
6DB
  8
HLST
 10
85.124998510943655
 20
54.500000904049898
 30
0.0
 40
2.924999999999998
 50
112.61986494800431
 51
247.38013505199561
  0
LINE
  5
6DC
  8
HLST
 10
85.499998510943669
 20
56.000000893049901
 30
0.0
 11
84.999998510943669
 21
56.000000893049901
 31
0.0
  0
LINE
  5
6DD
  8
HLST
 10
97.499998510943669
 20
75.500000893049901
 30
0.0
 11
97.499998510943669
 21
68.000000893049901
 31
0.0
  0
ARC
  5
6DE
  8
HLST
 10
89.999998510943669
 20
60.491100058049938
 30
0.0
 40
14.0
 50
295.37693352500071
 51
57.607634513989993
  0
CIRCLE
  5
6DF
  8
HLST
 10
89.999998510943669
 20
50.500000893049901
 30
0.0
 40
1.6000000000000001
  0
LINE
  5
6E0
  8
HLST
 10
86.499998510943669
 20
58.500000893049901
 30
0.0
 11
86.499998510943669
 21
49.02103365704977
 31
0.0
  0
LINE
  5
6E1
  8
HLST
 10
86.499998510943669
 20
50.500000893049901
 30
0.0
 11
85.499998510943669
 21
50.500000893049901
 31
0.0
  0
LINE
  5
6E2
  8
HLST
 10
94.499998510943655
 20
50.500000893049901
 30
0.0
 11
93.499998510943655
 21
50.500000893049901
 31
0.0
  0
LINE
  5
6E3
  8
HLST
 10
85.499998510943669
 20
58.500000893049901
 30
0.0
 11
94.499998510943655
 21
58.500000893049901
 31
0.0
  0
LINE
  5
6E4
  8
HLST
 10
94.499998510943655
 20
58.500000893049901
 30
0.0
 11
94.499998510943655
 21
49.378863240050009
 31
0.0
  0
LINE
  5
6E5
  8
HLST
 10
81.999998510943897
 20
84.000000893049901
 30
0.0
 11
97.999998510943669
 21
84.000000893049901
 31
0.0
  0
ARC
  5
6E6
  8
HLST
 10
97.999998510943669
 20
80.500000893049901
 30
0.0
 40
3.5
 50
310.14045945499828
 51
90.0
  0
CIRCLE
  5
6E7
  8
HLST
 10
97.999998510943669
 20
80.500000893049901
 30
0.0
 40
1.6000000000000001
  0
LINE
  5
6E8
  8
HLST
 10
100.2563211769436
 20
77.824368627049793
 30
0.0
 11
97.499998510943669
 21
75.500000893049901
 31
0.0
  0
LINE
  5
6E9
  8
HLST
 10
79.743675844943709
 20
77.824368627049793
 30
0.0
 11
82.499998510943669
 21
75.500000893049901
 31
0.0
  0
CIRCLE
  5
6EA
  8
HLST
 10
81.999998510943655
 20
80.500000893049901
 30
0.0
 40
1.6000000000000001
  0
ARC
  5
6EB
  8
HLST
 10
81.999998510943655
 20
80.500000893049901
 30
0.0
 40
3.5
 50
90.0
 51
229.85954054500161
  0
LINE
  5
6EC
  8
HLST
 10
82.499998510943669
 20
68.000000893049901
 30
0.0
 11
82.499998510943669
 21
75.500000893049901
 31
0.0
  0
LINE
  5
6ED
  8
HLST
 10
83.999998510943669
 20
73.846242949049838
 30
0.0
 11
95.999998510943655
 21
73.846242949049838
 31
0.0
  0
ARC
  5
6EE
  8
HLST
 10
83.999998510943669
 20
72.346242949049838
 30
0.0
 40
1.5
 50
90.0
 51
180.0
  0
LINE
  5
6EF
  8
HLST
 10
95.999998510943655
 20
73.000000893049901
 30
0.0
 11
83.999998510943669
 21
73.000000893049901
 31
0.0
  0
ARC
  5
6F0
  8
HLST
 10
83.999998510943669
 20
71.500000893049901
 30
0.0
 40
1.5
 50
90.0
 51
180.0
  0
ARC
  5
6F1
  8
HLST
 10
95.999998510943655
 20
71.500000893049901
 30
0.0
 40
1.5
 50
0.0
 51
90.0
  0
ARC
  5
6F2
  8
HLST
 10
95.999998510943655
 20
72.346242949049838
 30
0.0
 40
1.5
 50
0.0
 51
90.0
  0
LINE
  5
6F3
  8
HLST
 10
97.499998510943669
 20
68.000000893049901
 30
0.0
 11
82.499998510943669
 21
68.000000893049901
 31
0.0
  0
ARC
  5
6F4
  8
HLST
 10
84.599998510943806
 20
22.667950086050041
 30
0.0
 40
0.6
 50
90.0
 51
180.0
  0
ARC
  5
6F5
  8
HLST
 10
95.399998510943774
 20
22.667950086050041
 30
0.0
 40
0.6
 50
0.0
 51
90.0
  0
LINE
  5
6F6
  8
HLST
 10
84.999998510943669
 20
22.76795008604995
 30
0.0
 11
94.999998510943669
 21
22.76795008604995
 31
0.0
  0
LINE
  5
6F7
  8
HLST
 10
84.999998510943669
 20
22.76795008604995
 30
0.0
 11
84.999998510943669
 21
22.500000893049901
 31
0.0
  0
LINE
  5
6F8
  8
HLST
 10
95.399998510943774
 20
23.26795008604995
 30
0.0
 11
84.599998510943806
 21
23.26795008604995
 31
0.0
  0
LINE
  5
6F9
  8
HLST
 10
94.999998510943669
 20
22.500000893049901
 30
0.0
 11
94.999998510943669
 21
22.76795008604995
 31
0.0
  0
LINE
  5
6FA
  8
HLST
 10
84.999998510943669
 20
22.500000893049901
 30
0.0
 11
83.999998510943669
 21
22.500000893049901
 31
0.0
  0
LINE
  5
6FB
  8
HLST
 10
93.499998510943655
 20
49.024563314049942
 30
0.0
 11
93.499998510943655
 21
58.500000893049901
 31
0.0
  0
LINE
  5
6FC
  8
HLST
 10
85.499998510943669
 20
49.386546410049959
 30
0.0
 11
85.499998510943669
 21
58.500000893049901
 31
0.0
  0
LINE
  5
6FD
  8
HLST
 10
94.999998510943669
 20
58.500000893049901
 30
0.0
 11
95.999998510943655
 21
58.500000893049901
 31
0.0
  0
LINE
  5
6FE
  8
HLST
 10
94.999998510943669
 20
48.01022720504988
 30
0.0
 11
94.999998510943669
 21
58.500000893049901
 31
0.0
  0
LINE
  5
6FF
  8
HLST
 10
83.999998510943669
 20
48.01022720504988
 30
0.0
 11
95.999998510943655
 21
48.01022720504988
 31
0.0
  0
LINE
  5
700
  8
HLST
 10
84.999998510943669
 20
58.500000893049901
 30
0.0
 11
84.999998510943669
 21
48.01022720504988
 31
0.0
  0
LINE
  5
701
  8
HLST
 10
83.999998510943669
 20
58.500000893049901
 30
0.0
 11
84.999998510943669
 21
58.500000893049901
 31
0.0
  0
LINE
  5
702
  8
HLST
 10
83.999998510943669
 20
22.500000893049901
 30
0.0
 11
83.999998510943669
 21
58.500000893049901
 31
0.0
  0
LINE
  5
703
  8
HLST
 10
95.999998510943655
 20
22.500000893049901
 30
0.0
 11
94.999998510943669
 21
22.500000893049901
 31
0.0
  0
LINE
  5
704
  8
HLST
 10
95.999998510943655
 20
58.500000893049901
 30
0.0
 11
95.999998510943655
 21
22.500000893049901
 31
0.0
  0
ARC
  5
705
  8
HLST
 10
89.999998510943669
 20
60.491100058049938
 30
0.0
 40
12.0
 50
285.61849827599781
 51
294.62431835199681
  0
ARC
  5
706
  8
HLST
 10
89.999998510943669
 20
60.491100058049938
 30
0.0
 40
14.0
 50
72.54231599099802
 51
107.45768400900189
  0
ARC
  5
707
  8
HLST
 10
889.99999851094276
 20
60.491100058049938
 30
0.0
 40
14.0
 50
122.392365485992
 51
244.62306647499929
  0
ARC
  5
708
  8
HLST
 10
889.99999851094276
 20
60.491100058049938
 30
0.0
 40
12.0
 50
128.68218745400779
 51
239.99999999999949
  0
ARC
  5
709
  8
HLST
 10
893.49999851094276
 20
47.971116033049832
 30
0.0
 40
1.0
 50
0.0
 51
177.7585231999976
  0
ARC
  5
70A
  8
HLST
 10
889.99999851094276
 20
60.491100058049938
 30
0.0
 40
12.0
 50
245.37568164800331
 51
254.38150172400219
  0
ARC
  5
70B
  8
HLST
 10
889.99999851094276
 20
60.491100058049938
 30
0.0
 40
12.0
 50
300.00000000000051
 51
51.317812546993217
  0
ARC
  5
70C
  8
HLST
 10
886.49999851094265
 20
47.971116033049832
 30
0.0
 40
1.0
 50
2.2414768000023422
 51
177.76023648400221
  0
LINE
  5
70D
  8
HLST
 10
894.49999851094265
 20
53.000000893049901
 30
0.0
 11
894.99999851094265
 21
53.000000893049901
 31
0.0
  0
LINE
  5
70E
  8
HLST
 10
893.49999851094276
 20
56.000000893049901
 30
0.0
 11
886.49999851094265
 21
56.000000893049901
 31
0.0
  0
LINE
  5
70F
  8
HLST
 10
896.59999851094278
 20
56.700000893049953
 30
0.0
 11
895.99999851094276
 21
56.700000893049953
 31
0.0
  0
LINE
  5
710
  8
HLST
 10
896.59999851094278
 20
52.300000893049862
 30
0.0
 11
896.59999851094278
 21
56.700000893049953
 31
0.0
  0
LINE
  5
711
  8
HLST
 10
884.99999851094265
 20
53.000000893049901
 30
0.0
 11
885.49999851094276
 21
53.000000893049901
 31
0.0
  0
LINE
  5
712
  8
HLST
 10
894.99999851094265
 20
56.000000893049901
 30
0.0
 11
894.49999851094265
 21
56.000000893049901
 31
0.0
  0
LINE
  5
713
  8
HLST
 10
895.99999851094276
 20
52.300000893049862
 30
0.0
 11
896.59999851094278
 21
52.300000893049862
 31
0.0
  0
LINE
  5
714
  8
HLST
 10
886.49999851094265
 20
53.000000893049901
 30
0.0
 11
893.49999851094276
 21
53.000000893049901
 31
0.0
  0
ARC
  5
715
  8
HLST
 10
885.12499851094265
 20
54.500000904049898
 30
0.0
 40
2.924999999999998
 50
112.61986494800431
 51
247.38013505199561
  0
LINE
  5
716
  8
HLST
 10
885.49999851094276
 20
56.000000893049901
 30
0.0
 11
884.99999851094265
 21
56.000000893049901
 31
0.0
  0
LINE
  5
717
  8
HLST
 10
897.49999851094265
 20
75.500000893049901
 30
0.0
 11
897.49999851094265
 21
68.000000893049901
 31
0.0
  0
ARC
  5
718
  8
HLST
 10
889.99999851094276
 20
60.491100058049938
 30
0.0
 40
14.0
 50
295.37693352500071
 51
57.607634513989993
  0
CIRCLE
  5
719
  8
HLST
 10
889.99999851094276
 20
50.500000893049901
 30
0.0
 40
1.6000000000000001
  0
LINE
  5
71A
  8
HLST
 10
886.49999851094265
 20
58.500000893049901
 30
0.0
 11
886.49999851094265
 21
49.02103365704977
 31
0.0
  0
LINE
  5
71B
  8
HLST
 10
886.49999851094265
 20
50.500000893049901
 30
0.0
 11
885.49999851094276
 21
50.500000893049901
 31
0.0
  0
LINE
  5
71C
  8
HLST
 10
894.49999851094265
 20
50.500000893049901
 30
0.0
 11
893.49999851094276
 21
50.500000893049901
 31
0.0
  0
LINE
  5
71D
  8
HLST
 10
885.49999851094276
 20
58.500000893049901
 30
0.0
 11
894.49999851094265
 21
58.500000893049901
 31
0.0
  0
LINE
  5
71E
  8
HLST
 10
894.49999851094265
 20
58.500000893049901
 30
0.0
 11
894.49999851094265
 21
49.378863240050009
 31
0.0
  0
LINE
  5
71F
  8
HLST
 10
881.99999851094287
 20
84.000000893049901
 30
0.0
 11
897.99999851094276
 21
84.000000893049901
 31
0.0
  0
ARC
  5
720
  8
HLST
 10
897.99999851094276
 20
80.500000893049901
 30
0.0
 40
3.5
 50
310.14045945499828
 51
90.0
  0
CIRCLE
  5
721
  8
HLST
 10
897.99999851094276
 20
80.500000893049901
 30
0.0
 40
1.6000000000000001
  0
LINE
  5
722
  8
HLST
 10
900.25632117694272
 20
77.824368627049793
 30
0.0
 11
897.49999851094265
 21
75.500000893049901
 31
0.0
  0
LINE
  5
723
  8
HLST
 10
879.7436758449428
 20
77.824368627049793
 30
0.0
 11
882.49999851094265
 21
75.500000893049901
 31
0.0
  0
CIRCLE
  5
724
  8
HLST
 10
881.99999851094265
 20
80.500000893049901
 30
0.0
 40
1.6000000000000001
  0
ARC
  5
725
  8
HLST
 10
881.99999851094265
 20
80.500000893049901
 30
0.0
 40
3.5
 50
90.0
 51
229.85954054500161
  0
LINE
  5
726
  8
HLST
 10
882.49999851094265
 20
68.000000893049901
 30
0.0
 11
882.49999851094265
 21
75.500000893049901
 31
0.0
  0
LINE
  5
727
  8
HLST
 10
883.99999851094265
 20
73.846242949049838
 30
0.0
 11
895.99999851094276
 21
73.846242949049838
 31
0.0
  0
ARC
  5
728
  8
HLST
 10
883.99999851094265
 20
72.346242949049838
 30
0.0
 40
1.5
 50
90.0
 51
180.0
  0
LINE
  5
729
  8
HLST
 10
895.99999851094276
 20
73.000000893049901
 30
0.0
 11
883.99999851094265
 21
73.000000893049901
 31
0.0
  0
ARC
  5
72A
  8
HLST
 10
883.99999851094265
 20
71.500000893049901
 30
0.0
 40
1.5
 50
90.0
 51
180.0
  0
ARC
  5
72B
  8
HLST
 10
895.99999851094276
 20
71.500000893049901
 30
0.0
 40
1.5
 50
0.0
 51
90.0
  0
ARC
  5
72C
  8
HLST
 10
895.99999851094276
 20
72.346242949049838
 30
0.0
 40
1.5
 50
0.0
 51
90.0
  0
LINE
  5
72D
  8
HLST
 10
897.49999851094265
 20
68.000000893049901
 30
0.0
 11
882.49999851094265
 21
68.000000893049901
 31
0.0
  0
ARC
  5
72E
  8
HLST
 10
884.5999985109429
 20
22.667950086050041
 30
0.0
 40
0.6
 50
90.0
 51
180.0
  0
ARC
  5
72F
  8
HLST
 10
895.39999851094285
 20
22.667950086050041
 30
0.0
 40
0.6
 50
0.0
 51
90.0
  0
LINE
  5
730
  8
HLST
 10
884.99999851094265
 20
22.76795008604995
 30
0.0
 11
894.99999851094265
 21
22.76795008604995
 31
0.0
  0
LINE
  5
731
  8
HLST
 10
884.99999851094265
 20
22.76795008604995
 30
0.0
 11
884.99999851094265
 21
22.500000893049901
 31
0.0
  0
LINE
  5
732
  8
HLST
 10
895.39999851094285
 20
23.26795008604995
 30
0.0
 11
884.5999985109429
 21
23.26795008604995
 31
0.0
  0
LINE
  5
733
  8
HLST
 10
894.99999851094265
 20
22.500000893049901
 30
0.0
 11
894.99999851094265
 21
22.76795008604995
 31
0.0
  0
LINE
  5
734
  8
HLST
 10
884.99999851094265
 20
22.500000893049901
 30
0.0
 11
883.99999851094265
 21
22.500000893049901
 31
0.0
  0
LINE
  5
735
  8
HLST
 10
893.49999851094276
 20
49.024563314049942
 30
0.0
 11
893.49999851094276
 21
58.500000893049901
 31
0.0
  0
LINE
  5
736
  8
HLST
 10
885.49999851094276
 20
49.386546410049959
 30
0.0
 11
885.49999851094276
 21
58.500000893049901
 31
0.0
  0
LINE
  5
737
  8
HLST
 10
894.99999851094265
 20
58.500000893049901
 30
0.0
 11
895.99999851094276
 21
58.500000893049901
 31
0.0
  0
LINE
  5
738
  8
HLST
 10
894.99999851094265
 20
48.01022720504988
 30
0.0
 11
894.99999851094265
 21
58.500000893049901
 31
0.0
  0
LINE
  5
739
  8
HLST
 10
883.99999851094265
 20
48.01022720504988
 30
0.0
 11
895.99999851094276
 21
48.01022720504988
 31
0.0
  0
LINE
  5
73A
  8
HLST
 10
884.99999851094265
 20
58.500000893049901
 30
0.0
 11
884.99999851094265
 21
48.01022720504988
 31
0.0
  0
LINE
  5
73B
  8
HLST
 10
883.99999851094265
 20
58.500000893049901
 30
0.0
 11
884.99999851094265
 21
58.500000893049901
 31
0.0
  0
LINE
  5
73C
  8
HLST
 10
883.99999851094265
 20
22.500000893049901
 30
0.0
 11
883.99999851094265
 21
58.500000893049901
 31
0.0
  0
LINE
  5
73D
  8
HLST
 10
895.99999851094276
 20
22.500000893049901
 30
0.0
 11
894.99999851094265
 21
22.500000893049901
 31
0.0
  0
LINE
  5
73E
  8
HLST
 10
895.99999851094276
 20
58.500000893049901
 30
0.0
 11
895.99999851094276
 21
22.500000893049901
 31
0.0
  0
ARC
  5
73F
  8
HLST
 10
889.99999851094276
 20
60.491100058049938
 30
0.0
 40
12.0
 50
285.61849827599781
 51
294.62431835199681
  0
ARC
  5
740
  8
HLST
 10
889.99999851094276
 20
60.491100058049938
 30
0.0
 40
14.0
 50
72.54231599099802
 51
107.45768400900189
  0
ARC
  5
741
  8
HLST
 10
1289.999998510943
 20
60.491100058049938
 30
0.0
 40
14.0
 50
122.392365485992
 51
244.62306647499929
  0
ARC
  5
742
  8
HLST
 10
1289.999998510943
 20
60.491100058049938
 30
0.0
 40
12.0
 50
128.68218745400779
 51
239.99999999999949
  0
ARC
  5
743
  8
HLST
 10
1293.499998510943
 20
47.971116033049832
 30
0.0
 40
1.0
 50
0.0
 51
177.7585231999976
  0
ARC
  5
744
  8
HLST
 10
1289.999998510943
 20
60.491100058049938
 30
0.0
 40
12.0
 50
245.37568164800331
 51
254.38150172400219
  0
ARC
  5
745
  8
HLST
 10
1289.999998510943
 20
60.491100058049938
 30
0.0
 40
12.0
 50
300.00000000000051
 51
51.317812546993217
  0
ARC
  5
746
  8
HLST
 10
1286.499998510943
 20
47.971116033049832
 30
0.0
 40
1.0
 50
2.2414768000023422
 51
177.76023648400221
  0
LINE
  5
747
  8
HLST
 10
1294.499998510943
 20
53.000000893049901
 30
0.0
 11
1294.999998510943
 21
53.000000893049901
 31
0.0
  0
LINE
  5
748
  8
HLST
 10
1293.499998510943
 20
56.000000893049901
 30
0.0
 11
1286.499998510943
 21
56.000000893049901
 31
0.0
  0
LINE
  5
749
  8
HLST
 10
1296.5999985109429
 20
56.700000893049953
 30
0.0
 11
1295.999998510943
 21
56.700000893049953
 31
0.0
  0
LINE
  5
74A
  8
HLST
 10
1296.5999985109429
 20
52.300000893049862
 30
0.0
 11
1296.5999985109429
 21
56.700000893049953
 31
0.0
  0
LINE
  5
74B
  8
HLST
 10
1284.999998510943
 20
53.000000893049901
 30
0.0
 11
1285.499998510943
 21
53.000000893049901
 31
0.0
  0
LINE
  5
74C
  8
HLST
 10
1294.999998510943
 20
56.000000893049901
 30
0.0
 11
1294.499998510943
 21
56.000000893049901
 31
0.0
  0
LINE
  5
74D
  8
HLST
 10
1295.999998510943
 20
52.300000893049862
 30
0.0
 11
1296.5999985109429
 21
52.300000893049862
 31
0.0
  0
LINE
  5
74E
  8
HLST
 10
1286.499998510943
 20
53.000000893049901
 30
0.0
 11
1293.499998510943
 21
53.000000893049901
 31
0.0
  0
ARC
  5
74F
  8
HLST
 10
1285.124998510943
 20
54.500000904049898
 30
0.0
 40
2.924999999999998
 50
112.61986494800431
 51
247.38013505199561
  0
LINE
  5
750
  8
HLST
 10
1285.499998510943
 20
56.000000893049901
 30
0.0
 11
1284.999998510943
 21
56.000000893049901
 31
0.0
  0
LINE
  5
751
  8
HLST
 10
1297.499998510943
 20
75.500000893049901
 30
0.0
 11
1297.499998510943
 21
68.000000893049901
 31
0.0
  0
ARC
  5
752
  8
HLST
 10
1289.999998510943
 20
60.491100058049938
 30
0.0
 40
14.0
 50
295.37693352500071
 51
57.607634513989993
  0
CIRCLE
  5
753
  8
HLST
 10
1289.999998510943
 20
50.500000893049901
 30
0.0
 40
1.6000000000000001
  0
LINE
  5
754
  8
HLST
 10
1286.499998510943
 20
58.500000893049901
 30
0.0
 11
1286.499998510943
 21
49.02103365704977
 31
0.0
  0
LINE
  5
755
  8
HLST
 10
1286.499998510943
 20
50.500000893049901
 30
0.0
 11
1285.499998510943
 21
50.500000893049901
 31
0.0
  0
LINE
  5
756
  8
HLST
 10
1294.499998510943
 20
50.500000893049901
 30
0.0
 11
1293.499998510943
 21
50.500000893049901
 31
0.0
  0
LINE
  5
757
  8
HLST
 10
1285.499998510943
 20
58.500000893049901
 30
0.0
 11
1294.499998510943
 21
58.500000893049901
 31
0.0
  0
LINE
  5
758
  8
HLST
 10
1294.499998510943
 20
58.500000893049901
 30
0.0
 11
1294.499998510943
 21
49.378863240050009
 31
0.0
  0
LINE
  5
759
  8
HLST
 10
1281.9999985109439
 20
84.000000893049901
 30
0.0
 11
1297.999998510943
 21
84.000000893049901
 31
0.0
  0
ARC
  5
75A
  8
HLST
 10
1297.999998510943
 20
80.500000893049901
 30
0.0
 40
3.5
 50
310.14045945499828
 51
90.0
  0
CIRCLE
  5
75B
  8
HLST
 10
1297.999998510943
 20
80.500000893049901
 30
0.0
 40
1.6000000000000001
  0
LINE
  5
75C
  8
HLST
 10
1300.2563211769441
 20
77.824368627049793
 30
0.0
 11
1297.499998510943
 21
75.500000893049901
 31
0.0
  0
LINE
  5
75D
  8
HLST
 10
1279.7436758449439
 20
77.824368627049793
 30
0.0
 11
1282.499998510943
 21
75.500000893049901
 31
0.0
  0
CIRCLE
  5
75E
  8
HLST
 10
1281.999998510943
 20
80.500000893049901
 30
0.0
 40
1.6000000000000001
  0
ARC
  5
75F
  8
HLST
 10
1281.999998510943
 20
80.500000893049901
 30
0.0
 40
3.5
 50
90.0
 51
229.85954054500161
  0
LINE
  5
760
  8
HLST
 10
1282.499998510943
 20
68.000000893049901
 30
0.0
 11
1282.499998510943
 21
75.500000893049901
 31
0.0
  0
LINE
  5
761
  8
HLST
 10
1283.999998510943
 20
73.846242949049838
 30
0.0
 11
1295.999998510943
 21
73.846242949049838
 31
0.0
  0
ARC
  5
762
  8
HLST
 10
1283.999998510943
 20
72.346242949049838
 30
0.0
 40
1.5
 50
90.0
 51
180.0
  0
LINE
  5
763
  8
HLST
 10
1295.999998510943
 20
73.000000893049901
 30
0.0
 11
1283.999998510943
 21
73.000000893049901
 31
0.0
  0
ARC
  5
764
  8
HLST
 10
1283.999998510943
 20
71.500000893049901
 30
0.0
 40
1.5
 50
90.0
 51
180.0
  0
ARC
  5
765
  8
HLST
 10
1295.999998510943
 20
71.500000893049901
 30
0.0
 40
1.5
 50
0.0
 51
90.0
  0
ARC
  5
766
  8
HLST
 10
1295.999998510943
 20
72.346242949049838
 30
0.0
 40
1.5
 50
0.0
 51
90.0
  0
LINE
  5
767
  8
HLST
 10
1297.499998510943
 20
68.000000893049901
 30
0.0
 11
1282.499998510943
 21
68.000000893049901
 31
0.0
  0
ARC
  5
768
  8
HLST
 10
1284.599998510944
 20
22.667950086050041
 30
0.0
 40
0.6
 50
90.0
 51
180.0
  0
ARC
  5
769
  8
HLST
 10
1295.399998510944
 20
22.667950086050041
 30
0.0
 40
0.6
 50
0.0
 51
90.0
  0
LINE
  5
76A
  8
HLST
 10
1284.999998510943
 20
22.76795008604995
 30
0.0
 11
1294.999998510943
 21
22.76795008604995
 31
0.0
  0
LINE
  5
76B
  8
HLST
 10
1284.999998510943
 20
22.76795008604995
 30
0.0
 11
1284.999998510943
 21
22.500000893049901
 31
0.0
  0
LINE
  5
76C
  8
HLST
 10
1295.399998510944
 20
23.26795008604995
 30
0.0
 11
1284.599998510944
 21
23.26795008604995
 31
0.0
  0
LINE
  5
76D
  8
HLST
 10
1294.999998510943
 20
22.500000893049901
 30
0.0
 11
1294.999998510943
 21
22.76795008604995
 31
0.0
  0
LINE
  5
76E
  8
HLST
 10
1284.999998510943
 20
22.500000893049901
 30
0.0
 11
1283.999998510943
 21
22.500000893049901
 31
0.0
  0
LINE
  5
76F
  8
HLST
 10
1293.499998510943
 20
49.024563314049942
 30
0.0
 11
1293.499998510943
 21
58.500000893049901
 31
0.0
  0
LINE
  5
770
  8
HLST
 10
1285.499998510943
 20
49.386546410049959
 30
0.0
 11
1285.499998510943
 21
58.500000893049901
 31
0.0
  0
LINE
  5
771
  8
HLST
 10
1294.999998510943
 20
58.500000893049901
 30
0.0
 11
1295.999998510943
 21
58.500000893049901
 31
0.0
  0
LINE
  5
772
  8
HLST
 10
1294.999998510943
 20
48.01022720504988
 30
0.0
 11
1294.999998510943
 21
58.500000893049901
 31
0.0
  0
LINE
  5
773
  8
HLST
 10
1283.999998510943
 20
48.01022720504988
 30
0.0
 11
1295.999998510943
 21
48.01022720504988
 31
0.0
  0
LINE
  5
774
  8
HLST
 10
1284.999998510943
 20
58.500000893049901
 30
0.0
 11
1284.999998510943
 21
48.01022720504988
 31
0.0
  0
LINE
  5
775
  8
HLST
 10
1283.999998510943
 20
58.500000893049901
 30
0.0
 11
1284.999998510943
 21
58.500000893049901
 31
0.0
  0
LINE
  5
776
  8
HLST
 10
1283.999998510943
 20
22.500000893049901
 30
0.0
 11
1283.999998510943
 21
58.500000893049901
 31
0.0
  0
LINE
  5
777
  8
HLST
 10
1295.999998510943
 20
22.500000893049901
 30
0.0
 11
1294.999998510943
 21
22.500000893049901
 31
0.0
  0
LINE
  5
778
  8
HLST
 10
1295.999998510943
 20
58.500000893049901
 30
0.0
 11
1295.999998510943
 21
22.500000893049901
 31
0.0
  0
ARC
  5
779
  8
HLST
 10
1289.999998510943
 20
60.491100058049938
 30
0.0
 40
12.0
 50
285.61849827599781
 51
294.62431835199681
  0
ARC
  5
77A
  8
HLST
 10
1289.999998510943
 20
60.491100058049938
 30
0.0
 40
14.0
 50
72.54231599099802
 51
107.45768400900189
  0
ARC
  5
77B
  8
HLST
 10
489.99999851094339
 20
60.491100058049938
 30
0.0
 40
14.0
 50
122.392365485992
 51
244.62306647499929
  0
ARC
  5
77C
  8
HLST
 10
489.99999851094339
 20
60.491100058049938
 30
0.0
 40
12.0
 50
128.68218745400779
 51
239.99999999999949
  0
ARC
  5
77D
  8
HLST
 10
493.49999851094339
 20
47.971116033049832
 30
0.0
 40
1.0
 50
0.0
 51
177.7585231999976
  0
ARC
  5
77E
  8
HLST
 10
489.99999851094339
 20
60.491100058049938
 30
0.0
 40
12.0
 50
245.37568164800331
 51
254.38150172400219
  0
ARC
  5
77F
  8
HLST
 10
489.99999851094339
 20
60.491100058049938
 30
0.0
 40
12.0
 50
300.00000000000051
 51
51.317812546993217
  0
ARC
  5
780
  8
HLST
 10
486.49999851094339
 20
47.971116033049832
 30
0.0
 40
1.0
 50
2.2414768000023422
 51
177.76023648400221
  0
LINE
  5
781
  8
HLST
 10
494.49999851094339
 20
53.000000893049901
 30
0.0
 11
494.99999851094339
 21
53.000000893049901
 31
0.0
  0
LINE
  5
782
  8
HLST
 10
493.49999851094339
 20
56.000000893049901
 30
0.0
 11
486.49999851094339
 21
56.000000893049901
 31
0.0
  0
LINE
  5
783
  8
HLST
 10
496.59999851094352
 20
56.700000893049953
 30
0.0
 11
495.99999851094339
 21
56.700000893049953
 31
0.0
  0
LINE
  5
784
  8
HLST
 10
496.59999851094352
 20
52.300000893049862
 30
0.0
 11
496.59999851094352
 21
56.700000893049953
 31
0.0
  0
LINE
  5
785
  8
HLST
 10
484.99999851094339
 20
53.000000893049901
 30
0.0
 11
485.49999851094339
 21
53.000000893049901
 31
0.0
  0
LINE
  5
786
  8
HLST
 10
494.99999851094339
 20
56.000000893049901
 30
0.0
 11
494.49999851094339
 21
56.000000893049901
 31
0.0
  0
LINE
  5
787
  8
HLST
 10
495.99999851094339
 20
52.300000893049862
 30
0.0
 11
496.59999851094352
 21
52.300000893049862
 31
0.0
  0
LINE
  5
788
  8
HLST
 10
486.49999851094339
 20
53.000000893049901
 30
0.0
 11
493.49999851094339
 21
53.000000893049901
 31
0.0
  0
ARC
  5
789
  8
HLST
 10
485.12499851094339
 20
54.500000904049898
 30
0.0
 40
2.924999999999998
 50
112.61986494800431
 51
247.38013505199561
  0
LINE
  5
78A
  8
HLST
 10
485.49999851094339
 20
56.000000893049901
 30
0.0
 11
484.99999851094339
 21
56.000000893049901
 31
0.0
  0
LINE
  5
78B
  8
HLST
 10
497.49999851094339
 20
75.500000893049901
 30
0.0
 11
497.49999851094339
 21
68.000000893049901
 31
0.0
  0
ARC
  5
78C
  8
HLST
 10
489.99999851094339
 20
60.491100058049938
 30
0.0
 40
14.0
 50
295.37693352500071
 51
57.607634513989993
  0
CIRCLE
  5
78D
  8
HLST
 10
489.99999851094339
 20
50.500000893049901
 30
0.0
 40
1.6000000000000001
  0
LINE
  5
78E
  8
HLST
 10
486.49999851094339
 20
58.500000893049901
 30
0.0
 11
486.49999851094339
 21
49.02103365704977
 31
0.0
  0
LINE
  5
78F
  8
HLST
 10
486.49999851094339
 20
50.500000893049901
 30
0.0
 11
485.49999851094339
 21
50.500000893049901
 31
0.0
  0
LINE
  5
790
  8
HLST
 10
494.49999851094339
 20
50.500000893049901
 30
0.0
 11
493.49999851094339
 21
50.500000893049901
 31
0.0
  0
LINE
  5
791
  8
HLST
 10
485.49999851094339
 20
58.500000893049901
 30
0.0
 11
494.49999851094339
 21
58.500000893049901
 31
0.0
  0
LINE
  5
792
  8
HLST
 10
494.49999851094339
 20
58.500000893049901
 30
0.0
 11
494.49999851094339
 21
49.378863240050009
 31
0.0
  0
LINE
  5
793
  8
HLST
 10
481.99999851094361
 20
84.000000893049901
 30
0.0
 11
497.99999851094339
 21
84.000000893049901
 31
0.0
  0
ARC
  5
794
  8
HLST
 10
497.99999851094339
 20
80.500000893049901
 30
0.0
 40
3.5
 50
310.14045945499828
 51
90.0
  0
CIRCLE
  5
795
  8
HLST
 10
497.99999851094339
 20
80.500000893049901
 30
0.0
 40
1.6000000000000001
  0
LINE
  5
796
  8
HLST
 10
500.2563211769434
 20
77.824368627049793
 30
0.0
 11
497.49999851094339
 21
75.500000893049901
 31
0.0
  0
LINE
  5
797
  8
HLST
 10
479.74367584494348
 20
77.824368627049793
 30
0.0
 11
482.49999851094339
 21
75.500000893049901
 31
0.0
  0
CIRCLE
  5
798
  8
HLST
 10
481.99999851094339
 20
80.500000893049901
 30
0.0
 40
1.6000000000000001
  0
ARC
  5
799
  8
HLST
 10
481.99999851094339
 20
80.500000893049901
 30
0.0
 40
3.5
 50
90.0
 51
229.85954054500161
  0
LINE
  5
79A
  8
HLST
 10
482.49999851094339
 20
68.000000893049901
 30
0.0
 11
482.49999851094339
 21
75.500000893049901
 31
0.0
  0
LINE
  5
79B
  8
HLST
 10
483.99999851094339
 20
73.846242949049838
 30
0.0
 11
495.99999851094339
 21
73.846242949049838
 31
0.0
  0
ARC
  5
79C
  8
HLST
 10
483.99999851094339
 20
72.346242949049838
 30
0.0
 40
1.5
 50
90.0
 51
180.0
  0
LINE
  5
79D
  8
HLST
 10
495.99999851094339
 20
73.000000893049901
 30
0.0
 11
483.99999851094339
 21
73.000000893049901
 31
0.0
  0
ARC
  5
79E
  8
HLST
 10
483.99999851094339
 20
71.500000893049901
 30
0.0
 40
1.5
 50
90.0
 51
180.0
  0
ARC
  5
79F
  8
HLST
 10
495.99999851094339
 20
71.500000893049901
 30
0.0
 40
1.5
 50
0.0
 51
90.0
  0
ARC
  5
7A0
  8
HLST
 10
495.99999851094339
 20
72.346242949049838
 30
0.0
 40
1.5
 50
0.0
 51
90.0
  0
LINE
  5
7A1
  8
HLST
 10
497.49999851094339
 20
68.000000893049901
 30
0.0
 11
482.49999851094339
 21
68.000000893049901
 31
0.0
  0
ARC
  5
7A2
  8
HLST
 10
484.59999851094352
 20
22.667950086050041
 30
0.0
 40
0.6
 50
90.0
 51
180.0
  0
ARC
  5
7A3
  8
HLST
 10
495.39999851094348
 20
22.667950086050041
 30
0.0
 40
0.6
 50
0.0
 51
90.0
  0
LINE
  5
7A4
  8
HLST
 10
484.99999851094339
 20
22.76795008604995
 30
0.0
 11
494.99999851094339
 21
22.76795008604995
 31
0.0
  0
LINE
  5
7A5
  8
HLST
 10
484.99999851094339
 20
22.76795008604995
 30
0.0
 11
484.99999851094339
 21
22.500000893049901
 31
0.0
  0
LINE
  5
7A6
  8
HLST
 10
495.39999851094348
 20
23.26795008604995
 30
0.0
 11
484.59999851094352
 21
23.26795008604995
 31
0.0
  0
LINE
  5
7A7
  8
HLST
 10
494.99999851094339
 20
22.500000893049901
 30
0.0
 11
494.99999851094339
 21
22.76795008604995
 31
0.0
  0
LINE
  5
7A8
  8
HLST
 10
484.99999851094339
 20
22.500000893049901
 30
0.0
 11
483.99999851094339
 21
22.500000893049901
 31
0.0
  0
LINE
  5
7A9
  8
HLST
 10
493.49999851094339
 20
49.024563314049942
 30
0.0
 11
493.49999851094339
 21
58.500000893049901
 31
0.0
  0
LINE
  5
7AA
  8
HLST
 10
485.49999851094339
 20
49.386546410049959
 30
0.0
 11
485.49999851094339
 21
58.500000893049901
 31
0.0
  0
LINE
  5
7AB
  8
HLST
 10
494.99999851094339
 20
58.500000893049901
 30
0.0
 11
495.99999851094339
 21
58.500000893049901
 31
0.0
  0
LINE
  5
7AC
  8
HLST
 10
494.99999851094339
 20
48.01022720504988
 30
0.0
 11
494.99999851094339
 21
58.500000893049901
 31
0.0
  0
LINE
  5
7AD
  8
HLST
 10
483.99999851094339
 20
48.01022720504988
 30
0.0
 11
495.99999851094339
 21
48.01022720504988
 31
0.0
  0
LINE
  5
7AE
  8
HLST
 10
484.99999851094339
 20
58.500000893049901
 30
0.0
 11
484.99999851094339
 21
48.01022720504988
 31
0.0
  0
LINE
  5
7AF
  8
HLST
 10
483.99999851094339
 20
58.500000893049901
 30
0.0
 11
484.99999851094339
 21
58.500000893049901
 31
0.0
  0
LINE
  5
7B0
  8
HLST
 10
483.99999851094339
 20
22.500000893049901
 30
0.0
 11
483.99999851094339
 21
58.500000893049901
 31
0.0
  0
LINE
  5
7B1
  8
HLST
 10
495.99999851094339
 20
22.500000893049901
 30
0.0
 11
494.99999851094339
 21
22.500000893049901
 31
0.0
  0
LINE
  5
7B2
  8
HLST
 10
495.99999851094339
 20
58.500000893049901
 30
0.0
 11
495.99999851094339
 21
22.500000893049901
 31
0.0
  0
ARC
  5
7B3
  8
HLST
 10
489.99999851094339
 20
60.491100058049938
 30
0.0
 40
12.0
 50
285.61849827599781
 51
294.62431835199681
  0
ARC
  5
7B4
  8
HLST
 10
489.99999851094339
 20
60.491100058049938
 30
0.0
 40
14.0
 50
72.54231599099802
 51
107.45768400900189
  0
LINE
  5
7B5
  8
HLST
 10
1357.499998510943
 20
55.500000893049901
 30
0.0
 11
1354.999998510943
 21
55.500000893049901
 31
0.0
  0
LINE
  5
7B6
  8
HLST
 10
1354.999998510943
 20
55.500000893049901
 30
0.0
 11
1354.999998510943
 21
13.500000893049901
 31
0.0
  0
LINE
  5
7B7
  8
HLST
 10
1354.999998510943
 20
13.500000893049901
 30
0.0
 11
1357.499998510943
 21
13.500000893049901
 31
0.0
  0
LINE
  5
7B8
  8
HLST
 10
1357.499998510943
 20
13.500000893049901
 30
0.0
 11
1357.499998510943
 21
55.500000893049901
 31
0.0
  0
LINE
  5
7B9
  8
HLST
 10
1362.999998510943
 20
46.500000893049901
 30
0.0
 11
1357.4773985109459
 21
46.500000893049901
 31
0.0
  0
LINE
  5
7BA
  8
HLST
 10
1362.999998510943
 20
22.500000893049901
 30
0.0
 11
1357.499998510943
 21
22.500000893049901
 31
0.0
  0
LINE
  5
7BB
  8
HLST
 10
1362.499998510943
 20
47.000000893049901
 30
0.0
 11
1362.499998510943
 21
22.000000893049901
 31
0.0
  0
LINE
  5
7BC
  8
HLST
 10
1357.499998510943
 20
47.000000893049901
 30
0.0
 11
1362.499998510943
 21
47.000000893049901
 31
0.0
  0
LINE
  5
7BD
  8
HLST
 10
1362.499998510943
 20
47.000000893049901
 30
0.0
 11
1362.999998510943
 21
46.500000893049901
 31
0.0
  0
LINE
  5
7BE
  8
HLST
 10
1362.999998510943
 20
46.500000893049901
 30
0.0
 11
1362.999998510943
 21
22.500000893049901
 31
0.0
  0
LINE
  5
7BF
  8
HLST
 10
1362.999998510943
 20
22.500000893049901
 30
0.0
 11
1362.499998510943
 21
22.000000893049901
 31
0.0
  0
LINE
  5
7C0
  8
HLST
 10
1362.499998510943
 20
22.000000893049901
 30
0.0
 11
1357.499998510943
 21
22.000000893049901
 31
0.0
  0
LINE
  5
7C1
  8
HLST
 10
24.99999946587468
 20
4.4999991203471827
 30
0.0
 11
24.99999946587468
 21
67.899999120347047
 31
0.0
  0
LINE
  5
7C2
  8
HLST
 10
4.99999946587468
 20
4.4999991203471827
 30
0.0
 11
4.99999946587468
 21
-0.0000008796528164
 31
0.0
  0
LINE
  5
7C3
  8
HLST
 10
59.99999946587468
 20
4.4999991203471827
 30
0.0
 11
59.99999946587468
 21
-0.0000008796528164
 31
0.0
  0
LINE
  5
7C4
  8
HLST
 10
59.99999946587468
 20
-0.0000008796528164
 30
0.0
 11
-0.0000005341252063
 21
-0.0000008796528164
 31
0.0
  0
LINE
  5
7C5
  8
HLST
 10
-0.0000005341252063
 20
-0.0000008796528164
 30
0.0
 11
-0.0000005341252063
 21
4.4999991203471827
 31
0.0
  0
LINE
  5
7C6
  8
HLST
 10
-0.0000005341252063
 20
4.4999991203471827
 30
0.0
 11
24.99999946587468
 21
4.4999991203471827
 31
0.0
  0
ARC
  5
7C7
  8
HLST
 10
26.59999946587482
 20
67.899999120347047
 30
0.0
 40
1.6000000000000001
 50
90.0
 51
180.0
  0
LINE
  5
7C8
  8
HLST
 10
1319.999999465874
 20
4.4999991203471827
 30
0.0
 11
59.99999946587468
 21
4.4999991203471827
 31
0.0
  0
LINE
  5
7C9
  8
HLST
 10
1354.9999994658749
 20
67.899999120347275
 30
0.0
 11
1354.9999994658749
 21
4.4999991203471827
 31
0.0
  0
ARC
  5
7CA
  8
HLST
 10
1353.399999465875
 20
67.899999120347275
 30
0.0
 40
1.6000000000000001
 50
0.0
 51
90.0
  0
LINE
  5
7CB
  8
HLST
 10
1319.999999465874
 20
-0.0000008796528164
 30
0.0
 11
1379.9999994658749
 21
-0.0000008796528164
 31
0.0
  0
LINE
  5
7CC
  8
HLST
 10
1379.9999994658749
 20
4.4999991203471827
 30
0.0
 11
1354.9999994658749
 21
4.4999991203471827
 31
0.0
  0
LINE
  5
7CD
  8
HLST
 10
1319.999999465874
 20
4.4999991203471827
 30
0.0
 11
1319.999999465874
 21
-0.0000008796528164
 31
0.0
  0
LINE
  5
7CE
  8
HLST
 10
1379.9999994658749
 20
4.4999991203471827
 30
0.0
 11
1379.9999994658749
 21
-0.0000008796528164
 31
0.0
  0
LINE
  5
7CF
  8
HLST
 10
1374.9999994658749
 20
-0.0000008796528164
 30
0.0
 11
1374.9999994658749
 21
4.4999991203471827
 31
0.0
  0
LINE
  5
7D0
  8
HLST
 10
26.59999946587482
 20
69.49999912034707
 30
0.0
 11
79.283670535446163
 21
69.49999912034707
 31
0.0
  0
LINE
  5
7D1
  8
HLST
 10
100.7163283963032
 20
69.49999912034707
 30
0.0
 11
479.28367053544611
 21
69.499999120347184
 31
0.0
  0
LINE
  5
7D2
  8
HLST
 10
500.7163283963032
 20
69.499999120347184
 30
0.0
 11
879.28367053544616
 21
69.499999120347184
 31
0.0
  0
LINE
  5
7D3
  8
HLST
 10
900.7163283963032
 20
69.499999120347184
 30
0.0
 11
1279.2836705354459
 21
69.499999120347297
 31
0.0
  0
LINE
  5
7D4
  8
HLST
 10
1300.716328396303
 20
69.499999120347297
 30
0.0
 11
1353.399999465875
 21
69.499999120347297
 31
0.0
  0
CIRCLE
  5
7D5
  8
HLST
 10
154.99999611930889
 20
80.500000893049901
 30
0.0
 40
2.0
  0
CIRCLE
  5
7D6
  8
HLST
 10
854.99999611930889
 20
80.500000893049901
 30
0.0
 40
2.0
  0
CIRCLE
  5
7D7
  8
HLST
 10
1224.999996119308
 20
80.500000893049901
 30
0.0
 40
2.0
  0
LINE
  5
7D8
  8
HLST
 10
24.999996119308889
 20
94.500000893049915
 30
0.0
 11
1354.999996119308
 21
94.500000893049915
 31
0.0
  0
LINE
  5
7D9
  8
HLST
 10
1354.999996119308
 20
94.500000893049915
 30
0.0
 11
1354.999996119308
 21
74.100000893049923
 31
0.0
  0
ARC
  5
7DA
  8
HLST
 10
1353.399996119309
 20
74.100000893049923
 30
0.0
 40
1.6000000000000001
 50
270.0
 51
0.0
  0
ARC
  5
7DB
  8
HLST
 10
26.599996119308798
 20
74.100000893049923
 30
0.0
 40
1.6000000000000001
 50
180.0
 51
270.0
  0
LINE
  5
7DC
  8
HLST
 10
24.999996119308889
 20
74.100000893049923
 30
0.0
 11
24.999996119308889
 21
94.500000893049915
 31
0.0
  0
CIRCLE
  5
7DD
  8
HLST
 10
524.99999611930889
 20
80.500000893049901
 30
0.0
 40
2.0
  0
LINE
  5
7DE
  8
HLST
 10
26.599996119308798
 20
72.500000893049901
 30
0.0
 11
82.499996119308875
 21
72.500000893049901
 31
0.0
  0
LINE
  5
7DF
  8
HLST
 10
97.499996119308875
 20
72.500000893049901
 30
0.0
 11
482.49999611930878
 21
72.500000893049901
 31
0.0
  0
LINE
  5
7E0
  8
HLST
 10
497.49999611930889
 20
72.500000893049901
 30
0.0
 11
882.49999611930889
 21
72.500000893049901
 31
0.0
  0
LINE
  5
7E1
  8
HLST
 10
897.49999611930889
 20
72.500000893049901
 30
0.0
 11
1282.499996119308
 21
72.500000893049901
 31
0.0
  0
LINE
  5
7E2
  8
HLST
 10
1297.499996119308
 20
72.500000893049901
 30
0.0
 11
1353.399996119309
 21
72.500000893049901
 31
0.0
  0
ENDBLK
  5
7E4
  8
0
  0
BLOCK
  8
0
  2
A$C65B94820
 70
     0
 10
0.0
 20
0.0
 30
0.0
  3
A$C65B94820
  1

  0
LINE
  5
7E7
  8
HLST
 10
114.9999985109436
 20
101.86052239452781
 30
0.0
 11
1264.999998510943
 21
101.86052239452781
 31
0.0
  0
LINE
  5
7E8
  8
HLST
 10
1264.999998510943
 20
101.86052239452781
 30
0.0
 11
1264.999998510943
 21
21.86052239452783
 31
0.0
  0
LINE
  5
7E9
  8
HLST
 10
1264.999998510943
 20
21.86052239452783
 30
0.0
 11
114.9999985109436
 21
21.86052239452783
 31
0.0
  0
LINE
  5
7EA
  8
HLST
 10
114.9999985109436
 20
21.86052239452783
 30
0.0
 11
114.9999985109436
 21
101.86052239452781
 31
0.0
  0
LINE
  5
7EB
  8
HLST
 10
26.599998510943578
 20
111.86052239452781
 30
0.0
 11
1353.3999985109431
 21
111.86052239452781
 31
0.0
  0
LINE
  5
7EC
  8
HLST
 10
1354.999998510943
 20
110.2605223945279
 30
0.0
 11
1354.999998510943
 21
13.46052239452797
 31
0.0
  0
ARC
  5
7ED
  8
HLST
 10
1353.3999985109431
 20
13.46052239452797
 30
0.0
 40
1.6000000000000001
 50
270.0
 51
0.0
  0
ARC
  5
7EE
  8
HLST
 10
1353.3999985109431
 20
110.2605223945279
 30
0.0
 40
1.6000000000000001
 50
0.0
 51
90.0
  0
LINE
  5
7EF
  8
HLST
 10
1353.3999985109431
 20
11.86052239452783
 30
0.0
 11
26.599998510943578
 21
11.86052239452783
 31
0.0
  0
ARC
  5
7F0
  8
HLST
 10
26.599998510943578
 20
13.46052239452797
 30
0.0
 40
1.6000000000000001
 50
180.0
 51
270.0
  0
LINE
  5
7F1
  8
HLST
 10
24.999998510943669
 20
13.46052239452797
 30
0.0
 11
24.999998510943669
 21
110.2605223945279
 31
0.0
  0
ARC
  5
7F2
  8
HLST
 10
26.599998510943578
 20
110.2605223945279
 30
0.0
 40
1.6000000000000001
 50
90.0
 51
180.0
  0
LINE
  5
7F3
  8
HLST
 10
101.4999985109434
 20
10.36052239452783
 30
0.0
 11
101.4999985109434
 21
11.86052239452783
 31
0.0
  0
LINE
  5
7F4
  8
HLST
 10
78.499998510943655
 20
10.36052239452783
 30
0.0
 11
78.499998510943655
 21
11.86052239452783
 31
0.0
  0
LINE
  5
7F5
  8
HLST
 10
78.499998510943655
 20
11.86052239452783
 30
0.0
 11
101.4999985109434
 21
11.86052239452783
 31
0.0
  0
LINE
  5
7F6
  8
HLST
 10
78.499998510943655
 20
10.36052239452783
 30
0.0
 11
101.4999985109434
 21
10.36052239452783
 31
0.0
  0
LINE
  5
7F7
  8
HLST
 10
82.499998510943442
 20
3.8605223945278331
 30
0.0
 11
97.499998510943669
 21
3.8605223945278331
 31
0.0
  0
LINE
  5
7F8
  8
HLST
 10
82.499998510943442
 20
5.0990192195276904
 30
0.0
 11
97.499998510943669
 21
5.0990192195276904
 31
0.0
  0
LINE
  5
7F9
  8
HLST
 10
97.499998510943669
 20
3.8605223945278331
 30
0.0
 11
97.499998510943669
 21
8.3306896515280187
 31
0.0
  0
LINE
  5
7FA
  8
HLST
 10
82.499998510943442
 20
3.8605223945278331
 30
0.0
 11
82.499998510943442
 21
8.3306896515280187
 31
0.0
  0
LINE
  5
7FB
  8
HLST
 10
83.999998510943669
 20
1.5150836975278701
 30
0.0
 11
95.999998510943428
 21
1.5150836975278701
 31
0.0
  0
LINE
  5
7FC
  8
HLST
 10
95.999998510943428
 20
-0.0000018634723347
 30
0.0
 11
95.999998510943428
 21
3.8605223945278331
 31
0.0
  0
LINE
  5
7FD
  8
HLST
 10
83.999998510943669
 20
-0.0000018634723347
 30
0.0
 11
83.999998510943669
 21
3.8605223945278331
 31
0.0
  0
LINE
  5
7FE
  8
HLST
 10
83.999998510943669
 20
-0.0000018634723347
 30
0.0
 11
95.999998510943428
 21
-0.0000018634723347
 31
0.0
  0
LINE
  5
7FF
  8
HLST
 10
76.999751790943492
 20
8.3306896515280187
 30
0.0
 11
103.00024523094361
 21
8.3306896515280187
 31
0.0
  0
LINE
  5
800
  8
HLST
 10
103.9999985109434
 20
8.3306896515280187
 30
0.0
 11
103.9999985109434
 21
8.3306896515280187
 31
0.0
  0
LINE
  5
801
  8
HLST
 10
76.999751790943492
 20
10.330196211527889
 30
0.0
 11
103.00024523094361
 21
10.330196211527889
 31
0.0
  0
ARC
  5
802
  8
HLST
 10
103.00024523094361
 20
9.3304429315280686
 30
0.0
 40
0.9997532799999362
 50
270.0
 51
90.0
  0
ARC
  5
803
  8
HLST
 10
76.999751790943492
 20
9.3304429315280686
 30
0.0
 40
0.9997532799999431
 50
90.0
 51
270.0
  0
LINE
  5
804
  8
HLST
 10
114.9999985109436
 20
111.8605239967078
 30
0.0
 11
64.999998510943669
 21
111.8605239967078
 31
0.0
  0
LINE
  5
805
  8
HLST
 10
64.999998510943669
 20
111.8605239967078
 30
0.0
 11
64.999998510943669
 21
118.3605239967078
 31
0.0
  0
LINE
  5
806
  8
HLST
 10
64.999998510943669
 20
118.3605239967078
 30
0.0
 11
114.9999985109436
 21
118.3605239967078
 31
0.0
  0
LINE
  5
807
  8
HLST
 10
114.9999985109436
 20
111.8605239967078
 30
0.0
 11
114.9999985109436
 21
118.3605239967078
 31
0.0
  0
LINE
  5
808
  8
HLST
 10
64.999998510943669
 20
113.3605239967078
 30
0.0
 11
114.9999985109436
 21
113.3605239967078
 31
0.0
  0
LINE
  5
809
  8
HLST
 10
102.4999985109436
 20
113.3605239967078
 30
0.0
 11
102.4999985109436
 21
118.3605239967078
 31
0.0
  0
LINE
  5
80A
  8
HLST
 10
77.499998510943669
 20
113.3605239967078
 30
0.0
 11
77.499998510943669
 21
118.3605239967078
 31
0.0
  0
LINE
  5
80B
  8
HLST
 10
501.49999851094339
 20
10.36052239452783
 30
0.0
 11
501.49999851094339
 21
11.86052239452783
 31
0.0
  0
LINE
  5
80C
  8
HLST
 10
478.49999851094339
 20
10.36052239452783
 30
0.0
 11
478.49999851094339
 21
11.86052239452783
 31
0.0
  0
LINE
  5
80D
  8
HLST
 10
478.49999851094339
 20
11.86052239452783
 30
0.0
 11
501.49999851094339
 21
11.86052239452783
 31
0.0
  0
LINE
  5
80E
  8
HLST
 10
478.49999851094339
 20
10.36052239452783
 30
0.0
 11
501.49999851094339
 21
10.36052239452783
 31
0.0
  0
LINE
  5
80F
  8
HLST
 10
482.49999851094339
 20
3.8605223945278331
 30
0.0
 11
497.49999851094339
 21
3.8605223945278331
 31
0.0
  0
LINE
  5
810
  8
HLST
 10
482.49999851094339
 20
5.0990192195276904
 30
0.0
 11
497.49999851094339
 21
5.0990192195276904
 31
0.0
  0
LINE
  5
811
  8
HLST
 10
497.49999851094339
 20
3.8605223945278331
 30
0.0
 11
497.49999851094339
 21
8.3306896515280187
 31
0.0
  0
LINE
  5
812
  8
HLST
 10
482.49999851094339
 20
3.8605223945278331
 30
0.0
 11
482.49999851094339
 21
8.3306896515280187
 31
0.0
  0
LINE
  5
813
  8
HLST
 10
483.99999851094339
 20
1.5150836975278701
 30
0.0
 11
495.99999851094339
 21
1.5150836975278701
 31
0.0
  0
LINE
  5
814
  8
HLST
 10
495.99999851094339
 20
-0.0000018634723347
 30
0.0
 11
495.99999851094339
 21
3.8605223945278331
 31
0.0
  0
LINE
  5
815
  8
HLST
 10
483.99999851094339
 20
-0.0000018634723347
 30
0.0
 11
483.99999851094339
 21
3.8605223945278331
 31
0.0
  0
LINE
  5
816
  8
HLST
 10
483.99999851094339
 20
-0.0000018634723347
 30
0.0
 11
495.99999851094339
 21
-0.0000018634723347
 31
0.0
  0
LINE
  5
817
  8
HLST
 10
476.99975179094321
 20
8.3306896515280187
 30
0.0
 11
503.00024523094328
 21
8.3306896515280187
 31
0.0
  0
LINE
  5
818
  8
HLST
 10
503.99999851094339
 20
8.3306896515280187
 30
0.0
 11
503.99999851094339
 21
8.3306896515280187
 31
0.0
  0
LINE
  5
819
  8
HLST
 10
476.99975179094321
 20
10.330196211527889
 30
0.0
 11
503.00024523094328
 21
10.330196211527889
 31
0.0
  0
ARC
  5
81A
  8
HLST
 10
503.00024523094328
 20
9.3304429315280686
 30
0.0
 40
0.9997532799999362
 50
270.0
 51
90.0
  0
ARC
  5
81B
  8
HLST
 10
476.99975179094321
 20
9.3304429315280686
 30
0.0
 40
0.9997532799999431
 50
90.0
 51
270.0
  0
LINE
  5
81C
  8
HLST
 10
514.99999851094356
 20
111.8605239967078
 30
0.0
 11
464.99999851094361
 21
111.8605239967078
 31
0.0
  0
LINE
  5
81D
  8
HLST
 10
464.99999851094361
 20
111.8605239967078
 30
0.0
 11
464.99999851094361
 21
118.3605239967078
 31
0.0
  0
LINE
  5
81E
  8
HLST
 10
464.99999851094361
 20
118.3605239967078
 30
0.0
 11
514.99999851094356
 21
118.3605239967078
 31
0.0
  0
LINE
  5
81F
  8
HLST
 10
514.99999851094356
 20
111.8605239967078
 30
0.0
 11
514.99999851094356
 21
118.3605239967078
 31
0.0
  0
LINE
  5
820
  8
HLST
 10
464.99999851094361
 20
113.3605239967078
 30
0.0
 11
514.99999851094356
 21
113.3605239967078
 31
0.0
  0
LINE
  5
821
  8
HLST
 10
502.49999851094361
 20
113.3605239967078
 30
0.0
 11
502.49999851094361
 21
118.3605239967078
 31
0.0
  0
LINE
  5
822
  8
HLST
 10
477.49999851094378
 20
113.3605239967078
 30
0.0
 11
477.49999851094378
 21
118.3605239967078
 31
0.0
  0
LINE
  5
823
  8
HLST
 10
901.49999851094356
 20
10.36052239452783
 30
0.0
 11
901.49999851094356
 21
11.86052239452783
 31
0.0
  0
LINE
  5
824
  8
HLST
 10
878.49999851094344
 20
10.36052239452783
 30
0.0
 11
878.49999851094344
 21
11.86052239452783
 31
0.0
  0
LINE
  5
825
  8
HLST
 10
878.49999851094344
 20
11.86052239452783
 30
0.0
 11
901.49999851094356
 21
11.86052239452783
 31
0.0
  0
LINE
  5
826
  8
HLST
 10
878.49999851094344
 20
10.36052239452783
 30
0.0
 11
901.49999851094356
 21
10.36052239452783
 31
0.0
  0
LINE
  5
827
  8
HLST
 10
882.49999851094321
 20
3.8605223945278331
 30
0.0
 11
897.49999851094344
 21
3.8605223945278331
 31
0.0
  0
LINE
  5
828
  8
HLST
 10
882.49999851094321
 20
5.0990192195276904
 30
0.0
 11
897.49999851094344
 21
5.0990192195276904
 31
0.0
  0
LINE
  5
829
  8
HLST
 10
897.49999851094344
 20
3.8605223945278331
 30
0.0
 11
897.49999851094344
 21
8.3306896515280187
 31
0.0
  0
LINE
  5
82A
  8
HLST
 10
882.49999851094321
 20
3.8605223945278331
 30
0.0
 11
882.49999851094321
 21
8.3306896515280187
 31
0.0
  0
LINE
  5
82B
  8
HLST
 10
883.99999851094344
 20
1.5150836975278701
 30
0.0
 11
895.99999851094333
 21
1.5150836975278701
 31
0.0
  0
LINE
  5
82C
  8
HLST
 10
895.99999851094333
 20
-0.0000018634723347
 30
0.0
 11
895.99999851094333
 21
3.8605223945278331
 31
0.0
  0
LINE
  5
82D
  8
HLST
 10
883.99999851094344
 20
-0.0000018634723347
 30
0.0
 11
883.99999851094344
 21
3.8605223945278331
 31
0.0
  0
LINE
  5
82E
  8
HLST
 10
883.99999851094344
 20
-0.0000018634723347
 30
0.0
 11
895.99999851094333
 21
-0.0000018634723347
 31
0.0
  0
LINE
  5
82F
  8
HLST
 10
876.99975179094315
 20
8.3306896515280187
 30
0.0
 11
903.00024523094328
 21
8.3306896515280187
 31
0.0
  0
LINE
  5
830
  8
HLST
 10
903.99999851094333
 20
8.3306896515280187
 30
0.0
 11
903.99999851094333
 21
8.3306896515280187
 31
0.0
  0
LINE
  5
831
  8
HLST
 10
876.99975179094315
 20
10.330196211527889
 30
0.0
 11
903.00024523094328
 21
10.330196211527889
 31
0.0
  0
ARC
  5
832
  8
HLST
 10
903.00024523094328
 20
9.3304429315280686
 30
0.0
 40
0.9997532799999362
 50
270.0
 51
90.0
  0
ARC
  5
833
  8
HLST
 10
876.99975179094315
 20
9.3304429315280686
 30
0.0
 40
0.9997532799999431
 50
90.0
 51
270.0
  0
LINE
  5
834
  8
HLST
 10
914.9999985109431
 20
111.8605239967078
 30
0.0
 11
864.9999985109431
 21
111.8605239967078
 31
0.0
  0
LINE
  5
835
  8
HLST
 10
864.9999985109431
 20
111.8605239967078
 30
0.0
 11
864.9999985109431
 21
118.3605239967078
 31
0.0
  0
LINE
  5
836
  8
HLST
 10
864.9999985109431
 20
118.3605239967078
 30
0.0
 11
914.9999985109431
 21
118.3605239967078
 31
0.0
  0
LINE
  5
837
  8
HLST
 10
914.9999985109431
 20
111.8605239967078
 30
0.0
 11
914.9999985109431
 21
118.3605239967078
 31
0.0
  0
LINE
  5
838
  8
HLST
 10
864.9999985109431
 20
113.3605239967078
 30
0.0
 11
914.9999985109431
 21
113.3605239967078
 31
0.0
  0
LINE
  5
839
  8
HLST
 10
902.4999985109431
 20
113.3605239967078
 30
0.0
 11
902.4999985109431
 21
118.3605239967078
 31
0.0
  0
LINE
  5
83A
  8
HLST
 10
877.4999985109431
 20
113.3605239967078
 30
0.0
 11
877.4999985109431
 21
118.3605239967078
 31
0.0
  0
LINE
  5
83B
  8
HLST
 10
1301.499998510943
 20
10.36052239452783
 30
0.0
 11
1301.499998510943
 21
11.86052239452783
 31
0.0
  0
LINE
  5
83C
  8
HLST
 10
1278.499998510943
 20
10.36052239452783
 30
0.0
 11
1278.499998510943
 21
11.86052239452783
 31
0.0
  0
LINE
  5
83D
  8
HLST
 10
1278.499998510943
 20
11.86052239452783
 30
0.0
 11
1301.499998510943
 21
11.86052239452783
 31
0.0
  0
LINE
  5
83E
  8
HLST
 10
1278.499998510943
 20
10.36052239452783
 30
0.0
 11
1301.499998510943
 21
10.36052239452783
 31
0.0
  0
LINE
  5
83F
  8
HLST
 10
1282.499998510943
 20
3.8605223945278331
 30
0.0
 11
1297.499998510943
 21
3.8605223945278331
 31
0.0
  0
LINE
  5
840
  8
HLST
 10
1282.499998510943
 20
5.0990192195276904
 30
0.0
 11
1297.499998510943
 21
5.0990192195276904
 31
0.0
  0
LINE
  5
841
  8
HLST
 10
1297.499998510943
 20
3.8605223945278331
 30
0.0
 11
1297.499998510943
 21
8.3306896515280187
 31
0.0
  0
LINE
  5
842
  8
HLST
 10
1282.499998510943
 20
3.8605223945278331
 30
0.0
 11
1282.499998510943
 21
8.3306896515280187
 31
0.0
  0
LINE
  5
843
  8
HLST
 10
1283.999998510943
 20
1.5150836975278701
 30
0.0
 11
1295.999998510943
 21
1.5150836975278701
 31
0.0
  0
LINE
  5
844
  8
HLST
 10
1295.999998510943
 20
-0.0000018634723347
 30
0.0
 11
1295.999998510943
 21
3.8605223945278331
 31
0.0
  0
LINE
  5
845
  8
HLST
 10
1283.999998510943
 20
-0.0000018634723347
 30
0.0
 11
1283.999998510943
 21
3.8605223945278331
 31
0.0
  0
LINE
  5
846
  8
HLST
 10
1283.999998510943
 20
-0.0000018634723347
 30
0.0
 11
1295.999998510943
 21
-0.0000018634723347
 31
0.0
  0
LINE
  5
847
  8
HLST
 10
1276.999751790943
 20
8.3306896515280187
 30
0.0
 11
1303.0002452309429
 21
8.3306896515280187
 31
0.0
  0
LINE
  5
848
  8
HLST
 10
1303.999998510943
 20
8.3306896515280187
 30
0.0
 11
1303.999998510943
 21
8.3306896515280187
 31
0.0
  0
LINE
  5
849
  8
HLST
 10
1276.999751790943
 20
10.330196211527889
 30
0.0
 11
1303.0002452309429
 21
10.330196211527889
 31
0.0
  0
ARC
  5
84A
  8
HLST
 10
1303.0002452309429
 20
9.3304429315280686
 30
0.0
 40
0.9997532799999362
 50
270.0
 51
90.0
  0
ARC
  5
84B
  8
HLST
 10
1276.999751790943
 20
9.3304429315280686
 30
0.0
 40
0.9997532799999431
 50
90.0
 51
270.0
  0
LINE
  5
84C
  8
HLST
 10
1314.999998510943
 20
111.8605239967078
 30
0.0
 11
1264.999998510943
 21
111.8605239967078
 31
0.0
  0
LINE
  5
84D
  8
HLST
 10
1264.999998510943
 20
111.8605239967078
 30
0.0
 11
1264.999998510943
 21
118.3605239967078
 31
0.0
  0
LINE
  5
84E
  8
HLST
 10
1264.999998510943
 20
118.3605239967078
 30
0.0
 11
1314.999998510943
 21
118.3605239967078
 31
0.0
  0
LINE
  5
84F
  8
HLST
 10
1314.999998510943
 20
111.8605239967078
 30
0.0
 11
1314.999998510943
 21
118.3605239967078
 31
0.0
  0
LINE
  5
850
  8
HLST
 10
1264.999998510943
 20
113.3605239967078
 30
0.0
 11
1314.999998510943
 21
113.3605239967078
 31
0.0
  0
LINE
  5
851
  8
HLST
 10
1302.499998510943
 20
113.3605239967078
 30
0.0
 11
1302.499998510943
 21
118.3605239967078
 31
0.0
  0
LINE
  5
852
  8
HLST
 10
1277.499998510943
 20
113.3605239967078
 30
0.0
 11
1277.499998510943
 21
118.3605239967078
 31
0.0
  0
LINE
  5
853
  8
HLST
 10
1357.4999985109439
 20
57.860522394528061
 30
0.0
 11
1354.9999985109439
 21
57.860522394528061
 31
0.0
  0
LINE
  5
854
  8
HLST
 10
1354.9999985109439
 20
57.860522394528061
 30
0.0
 11
1354.9999985109439
 21
15.86052239452806
 31
0.0
  0
LINE
  5
855
  8
HLST
 10
1354.9999985109439
 20
15.86052239452806
 30
0.0
 11
1357.4999985109439
 21
15.86052239452806
 31
0.0
  0
LINE
  5
856
  8
HLST
 10
1357.4999985109439
 20
15.86052239452806
 30
0.0
 11
1357.4999985109439
 21
57.860522394528061
 31
0.0
  0
LINE
  5
857
  8
HLST
 10
1362.9999985109439
 20
48.860522394528061
 30
0.0
 11
1357.4773985109471
 21
48.860522394528061
 31
0.0
  0
LINE
  5
858
  8
HLST
 10
1362.9999985109439
 20
24.860522394528061
 30
0.0
 11
1357.4999985109439
 21
24.860522394528061
 31
0.0
  0
LINE
  5
859
  8
HLST
 10
1362.4999985109439
 20
49.360522394528061
 30
0.0
 11
1362.4999985109439
 21
24.360522394528061
 31
0.0
  0
LINE
  5
85A
  8
HLST
 10
1357.4999985109439
 20
49.360522394528061
 30
0.0
 11
1362.4999985109439
 21
49.360522394528061
 31
0.0
  0
LINE
  5
85B
  8
HLST
 10
1362.4999985109439
 20
49.360522394528061
 30
0.0
 11
1362.9999985109439
 21
48.860522394528061
 31
0.0
  0
LINE
  5
85C
  8
HLST
 10
1362.9999985109439
 20
48.860522394528061
 30
0.0
 11
1362.9999985109439
 21
24.860522394528061
 31
0.0
  0
LINE
  5
85D
  8
HLST
 10
1362.9999985109439
 20
24.860522394528061
 30
0.0
 11
1362.4999985109439
 21
24.360522394528061
 31
0.0
  0
LINE
  5
85E
  8
HLST
 10
1362.4999985109439
 20
24.360522394528061
 30
0.0
 11
1357.4999985109439
 21
24.360522394528061
 31
0.0
  0
LINE
  5
85F
  8
HLST
 10
1361.999998510943
 20
95.360522394528275
 30
0.0
 11
1361.999998510943
 21
78.360522394528289
 31
0.0
  0
LINE
  5
860
  8
HLST
 10
1356.999998510943
 20
70.860522394528289
 30
0.0
 11
1354.999998510943
 21
70.860522394528289
 31
0.0
  0
LINE
  5
861
  8
HLST
 10
1356.999998510943
 20
102.8605223945283
 30
0.0
 11
1354.999998510943
 21
102.8605223945283
 31
0.0
  0
LINE
  5
862
  8
HLST
 10
1356.999998510943
 20
102.8605223945283
 30
0.0
 11
1356.999998510943
 21
70.860522394528289
 31
0.0
  0
LINE
  5
863
  8
HLST
 10
1354.999998510943
 20
102.8605223945283
 30
0.0
 11
1354.999998510943
 21
70.860522394528289
 31
0.0
  0
LINE
  5
864
  8
HLST
 10
1361.999998510943
 20
95.360522394528275
 30
0.0
 11
1361.999998510943
 21
78.360522394528289
 31
0.0
  0
LINE
  5
865
  8
HLST
 10
1360.999998510943
 20
77.360522394528289
 30
0.0
 11
1356.999998510943
 21
77.360522394528289
 31
0.0
  0
LINE
  5
866
  8
HLST
 10
1360.999998510943
 20
96.360522394528303
 30
0.0
 11
1356.999998510943
 21
96.360522394528303
 31
0.0
  0
LINE
  5
867
  8
HLST
 10
1361.999998510943
 20
95.360522394528275
 30
0.0
 11
1356.999998510943
 21
95.360522394528275
 31
0.0
  0
LINE
  5
868
  8
HLST
 10
1361.999998510943
 20
78.360522394528289
 30
0.0
 11
1356.999998510943
 21
78.360522394528289
 31
0.0
  0
LINE
  5
869
  8
HLST
 10
1360.999998510943
 20
96.360522394528303
 30
0.0
 11
1360.999998510943
 21
77.360522394528289
 31
0.0
  0
LINE
  5
86A
  8
HLST
 10
1360.999998510943
 20
96.360522394528303
 30
0.0
 11
1361.999998510943
 21
95.360522394528275
 31
0.0
  0
LINE
  5
86B
  8
HLST
 10
1360.999998510943
 20
77.360522394528289
 30
0.0
 11
1361.999998510943
 21
78.360522394528289
 31
0.0
  0
CIRCLE
  5
86C
  8
HLST
 10
9.9999986642324075
 20
96.860523996707798
 30
0.0
 40
5.0
  0
CIRCLE
  5
86D
  8
HLST
 10
9.9999986642324075
 20
26.860523996707801
 30
0.0
 40
5.0
  0
LINE
  5
86E
  8
HLST
 10
-0.0000013357674788
 20
106.8605239967078
 30
0.0
 11
-0.0000013357674788
 21
16.860523996707801
 31
0.0
  0
LINE
  5
86F
  8
HLST
 10
4.9999986642324066
 20
111.8605239967078
 30
0.0
 11
24.999998664232411
 21
111.8605239967078
 31
0.0
  0
LINE
  5
870
  8
HLST
 10
4.9999986642324066
 20
111.8605239967078
 30
0.0
 11
-0.0000013357674788
 21
106.8605239967078
 31
0.0
  0
LINE
  5
871
  8
HLST
 10
4.9999986642324066
 20
11.8605239967078
 30
0.0
 11
24.999998664232411
 21
11.8605239967078
 31
0.0
  0
LINE
  5
872
  8
HLST
 10
-0.0000013357674788
 20
16.860523996707801
 30
0.0
 11
4.9999986642324066
 21
11.8605239967078
 31
0.0
  0
LINE
  5
873
  8
HLST
 10
24.999998664232411
 20
111.8605239967078
 30
0.0
 11
1354.999998664232
 21
111.8605239967078
 31
0.0
  0
LINE
  5
874
  8
HLST
 10
1354.999998664232
 20
111.8605239967078
 30
0.0
 11
1354.999998664232
 21
11.8605239967078
 31
0.0
  0
LINE
  5
875
  8
HLST
 10
1354.999998664232
 20
11.8605239967078
 30
0.0
 11
24.999998664232411
 21
11.8605239967078
 31
0.0
  0
LINE
  5
876
  8
HLST
 10
24.999998664232411
 20
11.8605239967078
 30
0.0
 11
24.999998664232411
 21
111.8605239967078
 31
0.0
  0
LINE
  5
877
  8
HLST
 10
1354.999998664232
 20
111.8605239967078
 30
0.0
 11
1374.999998664232
 21
111.8605239967078
 31
0.0
  0
LINE
  5
878
  8
HLST
 10
1354.999998664232
 20
11.8605239967078
 30
0.0
 11
1374.999998664232
 21
11.8605239967078
 31
0.0
  0
LINE
  5
879
  8
HLST
 10
1379.999998664232
 20
106.8605239967078
 30
0.0
 11
1379.999998664232
 21
16.860523996707801
 31
0.0
  0
LINE
  5
87A
  8
HLST
 10
1374.999998664232
 20
11.8605239967078
 30
0.0
 11
1379.999998664232
 21
16.860523996707801
 31
0.0
  0
LINE
  5
87B
  8
HLST
 10
1374.999998664232
 20
111.8605239967078
 30
0.0
 11
1379.999998664232
 21
106.8605239967078
 31
0.0
  0
CIRCLE
  5
87C
  8
HLST
 10
1369.999998664232
 20
96.860523996707798
 30
0.0
 40
5.0
  0
CIRCLE
  5
87D
  8
HLST
 10
1369.999998664232
 20
26.860523996707801
 30
0.0
 40
5.0
  0
LINE
  5
87E
  8
HLST
 10
2.4989979834122091
 20
96.860524397252433
 30
0.0
 11
17.49899798341221
 21
96.860524397252433
 31
0.0
  0
LINE
  5
87F
  8
HLST
 10
10.00500206833339
 20
104.3605219939832
 30
0.0
 11
9.9989979834124352
 21
89.360524397252433
 31
0.0
  0
LINE
  5
880
  8
HLST
 10
2.499998664232407
 20
26.860523996707801
 30
0.0
 11
17.499998664232411
 21
26.860523996707801
 31
0.0
  0
LINE
  5
881
  8
HLST
 10
10.006002749153369
 20
34.360521593438541
 30
0.0
 11
9.9999986642326348
 21
19.360523996707801
 31
0.0
  0
LINE
  5
882
  8
HLST
 10
1362.499998664231
 20
96.860523996707343
 30
0.0
 11
1377.499998664231
 21
96.860523996707343
 31
0.0
  0
LINE
  5
883
  8
HLST
 10
1370.0060027491529
 20
104.36052159343799
 30
0.0
 11
1369.999998664232
 21
89.360523996707329
 31
0.0
  0
LINE
  5
884
  8
HLST
 10
1362.49699662129
 20
26.86052399670757
 30
0.0
 11
1377.49699662129
 21
26.86052399670757
 31
0.0
  0
LINE
  5
885
  8
HLST
 10
1370.003000706211
 20
34.360521593438307
 30
0.0
 11
1369.99699662129
 21
19.36052399670757
 31
0.0
  0
ENDBLK
  5
887
  8
0
  0
BLOCK
  8
0
  2
A$C2DA26593
 70
     0
 10
0.0
 20
0.0
 30
0.0
  3
A$C2DA26593
  1

  0
CIRCLE
  5
88A
  8
HLST
 10
36.860522311113527
 20
34.500000893049901
 30
0.0
 40
21.0
  0
CIRCLE
  5
88B
  8
HLST
 10
36.860522311113527
 20
34.500000893049901
 30
0.0
 40
12.0
  0
LINE
  5
88C
  8
HLST
 10
33.860522311113527
 20
23.500000893049901
 30
0.0
 11
34.860522311113527
 21
24.500000893049901
 31
0.0
  0
LINE
  5
88D
  8
HLST
 10
34.860522311113527
 20
24.500000893049901
 30
0.0
 11
38.860522311113527
 21
24.500000893049901
 31
0.0
  0
LINE
  5
88E
  8
HLST
 10
38.860522311113527
 20
24.500000893049901
 30
0.0
 11
39.860522311113527
 21
23.500000893049901
 31
0.0
  0
CIRCLE
  5
88F
  8
HLST
 10
36.860522311113527
 20
51.500000893049901
 30
0.0
 40
2.5
  0
LINE
  5
890
  8
HLST
 10
35.860522311113527
 20
51.500000893049901
 30
0.0
 11
37.860522311113527
 21
51.500000893049901
 31
0.0
  0
LINE
  5
891
  8
HLST
 10
36.860522311113527
 20
52.500000893049901
 30
0.0
 11
36.860522311113527
 21
50.500000893049901
 31
0.0
  0
CIRCLE
  5
892
  8
HLST
 10
22.360522311113531
 20
26.000000893049901
 30
0.0
 40
2.5
  0
LINE
  5
893
  8
HLST
 10
21.360522311113531
 20
26.000000893049901
 30
0.0
 11
23.360522311113531
 21
26.000000893049901
 31
0.0
  0
LINE
  5
894
  8
HLST
 10
22.360522311113531
 20
27.000000893049901
 30
0.0
 11
22.360522311113531
 21
25.000000893049901
 31
0.0
  0
CIRCLE
  5
895
  8
HLST
 10
51.360522311113527
 20
26.000000893049901
 30
0.0
 40
2.5
  0
LINE
  5
896
  8
HLST
 10
50.36052231111352
 20
26.000000893049901
 30
0.0
 11
52.360522311113527
 21
26.000000893049901
 31
0.0
  0
LINE
  5
897
  8
HLST
 10
51.360522311113527
 20
27.000000893049901
 30
0.0
 11
51.360522311113527
 21
25.000000893049901
 31
0.0
  0
CIRCLE
  5
898
  8
HLST
 10
29.860522311113531
 20
36.500000893049901
 30
0.0
 40
1.5
  0
CIRCLE
  5
899
  8
HLST
 10
36.860522311113527
 20
41.500000893049901
 30
0.0
 40
1.5
  0
CIRCLE
  5
89A
  8
HLST
 10
43.86052231111352
 20
36.500000893049901
 30
0.0
 40
1.5
  0
CIRCLE
  5
89B
  8
HLST
 10
32.860522311113527
 20
28.500000893049901
 30
0.0
 40
1.5
  0
CIRCLE
  5
89C
  8
HLST
 10
40.86052231111352
 20
28.500000893049901
 30
0.0
 40
1.5
  0
CIRCLE
  5
89D
  8
HLST
 10
36.860522311113527
 20
34.500000893049901
 30
0.0
 40
13.0
  0
CIRCLE
  5
89E
  8
HLST
 10
86.860522311113513
 20
34.500000893049901
 30
0.0
 40
16.0
  0
CIRCLE
  5
89F
  8
HLST
 10
86.860522311113513
 20
34.500000893049901
 30
0.0
 40
9.5
  0
CIRCLE
  5
8A0
  8
HLST
 10
86.860522311113513
 20
34.500000893049901
 30
0.0
 40
9.0
  0
ARC
  5
8A1
  8
HLST
 10
86.860522311113513
 20
25.500000893049901
 30
0.0
 40
1.0
 50
3.1847385367265728
 51
176.8152614632734
  0
ARC
  5
8A2
  8
HLST
  6
BYBLOCK
 62
     0
 10
87.460522311113436
 20
47.850000893049923
 30
0.0
 40
0.3
 50
180.0
 51
270.0
  0
ARC
  5
8A3
  8
HLST
  6
BYBLOCK
 62
     0
 10
86.260522311113164
 20
46.650000893049878
 30
0.0
 40
0.3
 50
0.0
 51
90.0
  0
ARC
  5
8A4
  8
HLST
  6
BYBLOCK
 62
     0
 10
87.460522311113436
 20
46.650000893049878
 30
0.0
 40
0.3
 50
90.0
 51
180.0
  0
ARC
  5
8A5
  8
HLST
  6
BYBLOCK
 62
     0
 10
86.260522311113164
 20
47.850000893049923
 30
0.0
 40
0.3
 50
270.0
 51
0.0
  0
CIRCLE
  5
8A6
  8
HLST
  6
BYBLOCK
 62
     0
 10
86.860522311113513
 20
47.250000893049901
 30
0.0
 40
2.75
  0
LINE
  5
8A7
  8
HLST
  6
BYBLOCK
 62
     0
 10
86.260522311113164
 20
47.550000893049969
 30
0.0
 11
85.210522311113436
 21
47.550000893049969
 31
0.0
  0
LINE
  5
8A8
  8
HLST
  6
BYBLOCK
 62
     0
 10
88.510522311113164
 20
47.550000893049969
 30
0.0
 11
87.460522311113436
 21
47.550000893049969
 31
0.0
  0
LINE
  5
8A9
  8
HLST
  6
BYBLOCK
 62
     0
 10
86.260522311113164
 20
46.950000893049939
 30
0.0
 11
85.210522311113436
 21
46.950000893049832
 31
0.0
  0
LINE
  5
8AA
  8
HLST
  6
BYBLOCK
 62
     0
 10
88.510522311113164
 20
46.950000893049832
 30
0.0
 11
87.460522311113436
 21
46.950000893049939
 31
0.0
  0
LINE
  5
8AB
  8
HLST
  6
BYBLOCK
 62
     0
 10
87.160522311113255
 20
48.900000893049871
 30
0.0
 11
86.560522311113345
 21
48.900000893049871
 31
0.0
  0
LINE
  5
8AC
  8
HLST
  6
BYBLOCK
 62
     0
 10
87.160522311113255
 20
45.600000893049923
 30
0.0
 11
86.560522311113345
 21
45.600000893049923
 31
0.0
  0
LINE
  5
8AD
  8
HLST
  6
BYBLOCK
 62
     0
 10
87.160522311113255
 20
46.650000893049878
 30
0.0
 11
87.160522311113255
 21
45.600000893049923
 31
0.0
  0
LINE
  5
8AE
  8
HLST
  6
BYBLOCK
 62
     0
 10
87.160522311113255
 20
48.900000893049871
 30
0.0
 11
87.160522311113255
 21
47.850000893049923
 31
0.0
  0
LINE
  5
8AF
  8
HLST
  6
BYBLOCK
 62
     0
 10
86.560522311113345
 20
46.650000893049878
 30
0.0
 11
86.560522311113345
 21
45.600000893049923
 31
0.0
  0
LINE
  5
8B0
  8
HLST
  6
BYBLOCK
 62
     0
 10
86.560522311113345
 20
48.900000893049871
 30
0.0
 11
86.560522311113345
 21
47.850000893049923
 31
0.0
  0
LINE
  5
8B1
  8
HLST
  6
BYBLOCK
 62
     0
 10
88.510522311113164
 20
47.550000893049969
 30
0.0
 11
88.510522311113164
 21
46.950000893049832
 31
0.0
  0
LINE
  5
8B2
  8
HLST
  6
BYBLOCK
 62
     0
 10
85.210522311113436
 20
46.950000893049832
 30
0.0
 11
85.210522311113436
 21
47.550000893049969
 31
0.0
  0
ARC
  5
8B3
  8
HLST
  6
BYBLOCK
 62
     0
 10
76.418698412860522
 20
28.725000893050261
 30
0.0
 40
0.3
 50
180.0
 51
270.0
  0
ARC
  5
8B4
  8
HLST
  6
BYBLOCK
 62
     0
 10
75.218698412860249
 20
27.525000893050219
 30
0.0
 40
0.3
 50
0.0
 51
90.0
  0
ARC
  5
8B5
  8
HLST
  6
BYBLOCK
 62
     0
 10
76.418698412860522
 20
27.525000893050219
 30
0.0
 40
0.3
 50
90.0
 51
180.0
  0
ARC
  5
8B6
  8
HLST
  6
BYBLOCK
 62
     0
 10
75.218698412860249
 20
28.725000893050261
 30
0.0
 40
0.3
 50
270.0
 51
0.0
  0
CIRCLE
  5
8B7
  8
HLST
  6
BYBLOCK
 62
     0
 10
75.818698412860613
 20
28.125000893050359
 30
0.0
 40
2.75
  0
LINE
  5
8B8
  8
HLST
  6
BYBLOCK
 62
     0
 10
75.218698412860249
 20
28.42500089305031
 30
0.0
 11
74.168698412860522
 21
28.42500089305031
 31
0.0
  0
LINE
  5
8B9
  8
HLST
  6
BYBLOCK
 62
     0
 10
77.468698412860249
 20
28.42500089305031
 30
0.0
 11
76.418698412860522
 21
28.42500089305031
 31
0.0
  0
LINE
  5
8BA
  8
HLST
  6
BYBLOCK
 62
     0
 10
75.218698412860249
 20
27.825000893050401
 30
0.0
 11
74.168698412860522
 21
27.825000893050291
 31
0.0
  0
LINE
  5
8BB
  8
HLST
  6
BYBLOCK
 62
     0
 10
77.468698412860249
 20
27.825000893050291
 30
0.0
 11
76.418698412860522
 21
27.825000893050401
 31
0.0
  0
LINE
  5
8BC
  8
HLST
  6
BYBLOCK
 62
     0
 10
76.11869841286034
 20
29.775000893050219
 30
0.0
 11
75.518698412860431
 21
29.775000893050219
 31
0.0
  0
LINE
  5
8BD
  8
HLST
  6
BYBLOCK
 62
     0
 10
76.11869841286034
 20
26.475000893050261
 30
0.0
 11
75.518698412860431
 21
26.475000893050261
 31
0.0
  0
LINE
  5
8BE
  8
HLST
  6
BYBLOCK
 62
     0
 10
76.11869841286034
 20
27.525000893050219
 30
0.0
 11
76.11869841286034
 21
26.475000893050261
 31
0.0
  0
LINE
  5
8BF
  8
HLST
  6
BYBLOCK
 62
     0
 10
76.11869841286034
 20
29.775000893050219
 30
0.0
 11
76.11869841286034
 21
28.725000893050261
 31
0.0
  0
LINE
  5
8C0
  8
HLST
  6
BYBLOCK
 62
     0
 10
75.518698412860431
 20
27.525000893050219
 30
0.0
 11
75.518698412860431
 21
26.475000893050261
 31
0.0
  0
LINE
  5
8C1
  8
HLST
  6
BYBLOCK
 62
     0
 10
75.518698412860431
 20
29.775000893050219
 30
0.0
 11
75.518698412860431
 21
28.725000893050261
 31
0.0
  0
LINE
  5
8C2
  8
HLST
  6
BYBLOCK
 62
     0
 10
77.468698412860249
 20
28.42500089305031
 30
0.0
 11
77.468698412860249
 21
27.825000893050291
 31
0.0
  0
LINE
  5
8C3
  8
HLST
  6
BYBLOCK
 62
     0
 10
74.168698412860522
 20
27.825000893050291
 30
0.0
 11
74.168698412860522
 21
28.42500089305031
 31
0.0
  0
ARC
  5
8C4
  8
HLST
  6
BYBLOCK
 62
     0
 10
98.502346209363168
 20
28.7250008930489
 30
0.0
 40
0.3
 50
180.0
 51
270.0
  0
ARC
  5
8C5
  8
HLST
  6
BYBLOCK
 62
     0
 10
97.302346209362895
 20
27.525000893048858
 30
0.0
 40
0.3
 50
0.0
 51
90.0
  0
ARC
  5
8C6
  8
HLST
  6
BYBLOCK
 62
     0
 10
98.502346209363168
 20
27.525000893048858
 30
0.0
 40
0.3
 50
90.0
 51
180.0
  0
ARC
  5
8C7
  8
HLST
  6
BYBLOCK
 62
     0
 10
97.302346209362895
 20
28.7250008930489
 30
0.0
 40
0.3
 50
270.0
 51
0.0
  0
CIRCLE
  5
8C8
  8
HLST
  6
BYBLOCK
 62
     0
 10
97.902346209362804
 20
28.125000893048991
 30
0.0
 40
2.75
  0
LINE
  5
8C9
  8
HLST
  6
BYBLOCK
 62
     0
 10
97.302346209362895
 20
28.425000893048949
 30
0.0
 11
96.252346209363182
 21
28.425000893048949
 31
0.0
  0
LINE
  5
8CA
  8
HLST
  6
BYBLOCK
 62
     0
 10
99.552346209362895
 20
28.425000893048949
 30
0.0
 11
98.502346209363168
 21
28.425000893048949
 31
0.0
  0
LINE
  5
8CB
  8
HLST
  6
BYBLOCK
 62
     0
 10
97.302346209362895
 20
27.82500089304904
 30
0.0
 11
96.252346209363182
 21
27.82500089304893
 31
0.0
  0
LINE
  5
8CC
  8
HLST
  6
BYBLOCK
 62
     0
 10
99.552346209362895
 20
27.82500089304893
 30
0.0
 11
98.502346209363168
 21
27.82500089304904
 31
0.0
  0
LINE
  5
8CD
  8
HLST
  6
BYBLOCK
 62
     0
 10
98.202346209362986
 20
29.775000893048858
 30
0.0
 11
97.602346209363091
 21
29.775000893048858
 31
0.0
  0
LINE
  5
8CE
  8
HLST
  6
BYBLOCK
 62
     0
 10
98.202346209362986
 20
26.4750008930489
 30
0.0
 11
97.602346209363091
 21
26.4750008930489
 31
0.0
  0
LINE
  5
8CF
  8
HLST
  6
BYBLOCK
 62
     0
 10
98.202346209362986
 20
27.525000893048858
 30
0.0
 11
98.202346209362986
 21
26.4750008930489
 31
0.0
  0
LINE
  5
8D0
  8
HLST
  6
BYBLOCK
 62
     0
 10
98.202346209362986
 20
29.775000893048858
 30
0.0
 11
98.202346209362986
 21
28.7250008930489
 31
0.0
  0
LINE
  5
8D1
  8
HLST
  6
BYBLOCK
 62
     0
 10
97.602346209363091
 20
27.525000893048858
 30
0.0
 11
97.602346209363091
 21
26.4750008930489
 31
0.0
  0
LINE
  5
8D2
  8
HLST
  6
BYBLOCK
 62
     0
 10
97.602346209363091
 20
29.775000893048858
 30
0.0
 11
97.602346209363091
 21
28.7250008930489
 31
0.0
  0
LINE
  5
8D3
  8
HLST
  6
BYBLOCK
 62
     0
 10
99.552346209362895
 20
28.425000893048949
 30
0.0
 11
99.552346209362895
 21
27.82500089304893
 31
0.0
  0
LINE
  5
8D4
  8
HLST
  6
BYBLOCK
 62
     0
 10
96.252346209363182
 20
27.82500089304893
 30
0.0
 11
96.252346209363182
 21
28.425000893048949
 31
0.0
  0
CIRCLE
  5
8D5
  8
HLST
 10
86.860522311113513
 20
40.000000893049901
 30
0.0
 40
1.5
  0
CIRCLE
  5
8D6
  8
HLST
 10
81.629711471489827
 20
36.199594362111498
 30
0.0
 40
1.5
  0
CIRCLE
  5
8D7
  8
HLST
 10
83.627703423505409
 20
30.050407423987281
 30
0.0
 40
1.5
  0
CIRCLE
  5
8D8
  8
HLST
 10
90.093341198722555
 20
30.050407423987739
 30
0.0
 40
1.4999999999999989
  0
CIRCLE
  5
8D9
  8
HLST
 10
92.091333150737228
 20
36.199594362112641
 30
0.0
 40
1.4999999999999989
  0
LINE
  5
8DA
  8
HLST
 10
13.460522311113429
 20
94.502842167779818
 30
0.0
 11
110.2605223111136
 21
94.502842167779818
 31
0.0
  0
ARC
  5
8DB
  8
HLST
 10
110.2605223111136
 20
92.902842167779895
 30
0.0
 40
1.5999999999999091
 50
359.99999999999352
 51
90.0
  0
LINE
  5
8DC
  8
HLST
 10
111.8605223111135
 20
92.902842167779795
 30
0.0
 11
111.8605223111135
 21
74.102842167779841
 31
0.0
  0
ARC
  5
8DD
  8
HLST
 10
110.260522311114
 20
74.102842167779727
 30
0.0
 40
1.5999999999999091
 50
270.0
 51
0.0
  0
LINE
  5
8DE
  8
HLST
 10
110.260522311114
 20
72.502842167779804
 30
0.0
 11
13.46052231111298
 21
72.502842167779804
 31
0.0
  0
ARC
  5
8DF
  8
HLST
 10
13.46052231111298
 20
74.102842167779727
 30
0.0
 40
1.5999999999999091
 50
179.99999999999349
 51
270.0
  0
LINE
  5
8E0
  8
HLST
 10
11.860522311113529
 20
74.102842167779841
 30
0.0
 11
11.860522311113529
 21
92.902842167779795
 31
0.0
  0
ARC
  5
8E1
  8
HLST
 10
13.460522311113429
 20
92.902842167779895
 30
0.0
 40
1.5999999999999091
 50
90.0
 51
180.0
  0
LINE
  5
8E2
  8
HLST
 10
11.86051786609096
 20
4.4999991203471827
 30
0.0
 11
11.86051786609096
 21
-0.0000008796528164
 31
0.0
  0
LINE
  5
8E3
  8
HLST
 10
16.860517866090959
 20
-0.0000008796528164
 30
0.0
 11
16.860517866090959
 21
4.4999991203471827
 31
0.0
  0
LINE
  5
8E4
  8
HLST
 10
106.8605178660909
 20
4.4999991203471827
 30
0.0
 11
106.8605178660909
 21
-0.0000008796528164
 31
0.0
  0
LINE
  5
8E5
  8
HLST
 10
110.26051786609059
 20
69.499999120347184
 30
0.0
 11
13.460517866090409
 21
69.499999120347184
 31
0.0
  0
ARC
  5
8E6
  8
HLST
 10
13.460517866090409
 20
67.899999120347161
 30
0.0
 40
1.6000000000000001
 50
90.0
 51
180.0
  0
LINE
  5
8E7
  8
HLST
 10
11.86051786609096
 20
67.899999120347161
 30
0.0
 11
11.86051786609096
 21
5.4999991203471827
 31
0.0
  0
ARC
  5
8E8
  8
HLST
 10
12.86051786609096
 20
5.4999991203471827
 30
0.0
 40
1.0
 50
180.0
 51
270.0
  0
LINE
  5
8E9
  8
HLST
 10
12.86051786609096
 20
4.4999991203471827
 30
0.0
 11
110.8605178660909
 21
4.4999991203471827
 31
0.0
  0
ARC
  5
8EA
  8
HLST
 10
110.8605178660909
 20
5.4999991203471827
 30
0.0
 40
1.0
 50
270.0
 51
0.0
  0
LINE
  5
8EB
  8
HLST
 10
111.8605178660909
 20
5.4999991203471827
 30
0.0
 11
111.8605178660909
 21
67.899999120347161
 31
0.0
  0
ARC
  5
8EC
  8
HLST
 10
110.26051786609059
 20
67.899999120347161
 30
0.0
 40
1.6000000000000001
 50
0.0
 51
90.0
  0
LINE
  5
8ED
  8
HLST
 10
11.86051786609096
 20
4.4999991203471827
 30
0.0
 11
111.8605178660909
 21
4.4999991203471827
 31
0.0
  0
LINE
  5
8EE
  8
HLST
 10
111.8605178660909
 20
4.4999991203471827
 30
0.0
 11
111.8605178660909
 21
-0.0000008796528164
 31
0.0
  0
LINE
  5
8EF
  8
HLST
 10
111.8605178660909
 20
-0.0000008796528164
 30
0.0
 11
11.86051786609096
 21
-0.0000008796528164
 31
0.0
  0
LINE
  5
8F0
  8
HLST
 10
113.3605223111135
 20
58.002842167779811
 30
0.0
 11
113.8605223111135
 21
58.002842167779811
 31
0.0
  0
ARC
  5
8F1
  8
HLST
  6
CONTINUOUS
 62
     7
 10
8.4767368821130731
 20
52.744767722779777
 30
0.0
 40
1.1000000000000001
 50
142.26947547400471
 51
355.12531840800062
  0
LINE
  5
8F2
  8
HLST
  6
CONTINUOUS
 62
     7
 10
9.5836341871136028
 20
52.650951623779861
 30
0.0
 11
10.329702689113221
 21
76.391236282779914
 31
0.0
  0
ARC
  5
8F3
  8
HLST
  6
CONTINUOUS
 62
     7
 10
9.3301961281131298
 20
76.422647041779896
 30
0.0
 40
1.0
 50
358.20000000000238
 51
178.2000000000024
  0
LINE
  5
8F4
  8
HLST
  6
CONTINUOUS
 62
     7
 10
8.3306895681134847
 20
76.454057800779879
 30
0.0
 11
7.5661991941133229
 21
52.127579648779829
 31
0.0
  0
ARC
  5
8F5
  8
HLST
  6
CONTINUOUS
 62
     7
 10
-13.56745037988639
 20
50.09885584677977
 30
0.0
 40
25.0
 50
336.00000000000227
 51
337.78673491300168
  0
LINE
  5
8F6
  8
HLST
  6
CONTINUOUS
 62
     7
 10
7.8922549541130129
 20
62.502842167779811
 30
0.0
 11
5.8605223111135274
 21
62.502842167779811
 31
0.0
  0
ARC
  5
8F7
  8
HLST
  6
CONTINUOUS
 62
     7
 10
-13.56745037988639
 20
50.09885584677977
 30
0.0
 40
25.0
 50
337.78673491300168
 51
20.923474195000221
  0
ARC
  5
8F8
  8
HLST
  6
CONTINUOUS
 62
     7
 10
8.8605223111135274
 20
75.002842167779804
 30
0.0
 40
1.5
 50
339.9861654980067
 51
0.0
  0
ARC
  5
8F9
  8
HLST
  6
CONTINUOUS
 62
     7
 10
8.8605223111135274
 20
75.002842167779804
 30
0.0
 40
3.0
 50
296.55598416699559
 51
0.0
  0
LINE
  5
8FA
  8
HLST
  6
CONTINUOUS
 62
     7
 10
0.9135435101134135
 20
26.076053929779849
 30
0.0
 11
-0.0000019468866412
 21
26.482790572779781
 31
0.0
  0
ARC
  5
8FB
  8
HLST
  6
CONTINUOUS
 62
     7
 10
0.329005315113136
 20
34.597532989779779
 30
0.0
 40
3.0
 50
336.00000000000227
 51
6.0000000000030589
  0
ARC
  5
8FC
  8
HLST
  6
CONTINUOUS
 62
     7
 10
1.7270167971137189
 20
27.903144844779831
 30
0.0
 40
2.0
 50
245.99999999999639
 51
336.00000000000227
  0
LINE
  5
8FD
  8
HLST
  6
CONTINUOUS
 62
     7
 10
3.5541077121133631
 20
27.089671558779848
 30
0.0
 11
9.2711860611134398
 21
39.930439769779809
 31
0.0
  0
LINE
  5
8FE
  8
HLST
  6
CONTINUOUS
 62
     7
 10
3.0696416881132791
 20
33.37732305977989
 30
0.0
 11
-0.0000019468866412
 21
26.482790572779781
 31
0.0
  0
LINE
  5
8FF
  8
HLST
  6
CONTINUOUS
 62
     7
 10
1.5150836141133359
 20
52.013068479779797
 30
0.0
 11
3.3125710011136098
 21
34.911118378779747
 31
0.0
  0
LINE
  5
900
  8
HLST
  6
CONTINUOUS
 62
     7
 10
2.5096055101134871
 20
52.117596942779862
 30
0.0
 11
1.5150836141133359
 21
52.013068479779797
 31
0.0
  0
LINE
  5
901
  8
HLST
  6
CONTINUOUS
 62
     7
 10
1.8824347301133451
 20
58.084728314779909
 30
0.0
 11
2.5096055101134871
 21
52.117596942779862
 31
0.0
  0
ARC
  5
902
  8
HLST
  6
CONTINUOUS
 62
     7
 10
5.8605223111135274
 20
58.502842167779932
 30
0.0
 40
4.0
 50
59.757812999008102
 51
186.0000000000031
  0
LINE
  5
903
  8
HLST
  6
CENTER2
 62
     2
 10
7.3404565751134214
 20
44.502842167779932
 30
0.0
 11
14.458505981113371
 21
44.502842167779932
 31
0.0
  0
LINE
  5
904
  8
HLST
  6
CENTER2
 62
     2
 10
7.3404565751134214
 20
54.502842167779818
 30
0.0
 11
14.458505981113371
 21
54.502842167779818
 31
0.0
  0
LINE
  5
905
  8
HLST
  6
CONTINUOUS
 62
     7
 10
10.36052231111352
 20
39.502842167779932
 30
0.0
 11
11.860522311113529
 21
39.502842167779932
 31
0.0
  0
LINE
  5
906
  8
HLST
  6
CONTINUOUS
 62
     7
 10
11.860522311113529
 20
62.502842167779811
 30
0.0
 11
9.8933664951132414
 21
62.502842167779811
 31
0.0
  0
LINE
  5
907
  8
HLST
  6
CONTINUOUS
 62
     7
 10
11.860522311113529
 20
39.502842167779932
 30
0.0
 11
11.860522311113529
 21
62.502842167779811
 31
0.0
  0
LINE
  5
908
  8
HLST
  6
CENTER2
 62
     2
 10
0.0390153251132688
 20
58.502842167779932
 30
0.0
 11
11.0038868651136
 21
58.502842167779932
 31
0.0
  0
LINE
  5
909
  8
HLST
  6
CENTER2
 62
     2
 10
5.8605223111135274
 20
64.221983497779775
 30
0.0
 11
5.8605223111135274
 21
52.424794976779822
 31
0.0
  0
LINE
  5
90A
  8
HLST
  6
CONTINUOUS
 62
     7
 10
6.3835286661133059
 20
73.310358053779964
 30
0.0
 11
3.8605223111135269
 21
77.002842167779818
 31
0.0
  0
LINE
  5
90B
  8
HLST
  6
CONTINUOUS
 62
     7
 10
10.36052231111352
 20
88.002842167779804
 30
0.0
 11
10.36052231111352
 21
75.002842167779804
 31
0.0
  0
LINE
  5
90C
  8
HLST
  6
CONTINUOUS
 62
     7
 10
11.860522311113529
 20
75.002842167779804
 30
0.0
 11
11.860522311113529
 21
88.002842167779804
 31
0.0
  0
ARC
  5
90D
  8
HLST
  6
CONTINUOUS
 62
     7
 10
8.8605223111135274
 20
75.002842167779804
 30
0.0
 40
1.5
 50
214.34407570100259
 51
245.65327551800959
  0
ARC
  5
90E
  8
HLST
  6
CONTINUOUS
 62
     7
 10
8.8605223111135274
 20
75.002842167779804
 30
0.0
 40
3.0
 50
214.34407570100259
 51
257.14691711600602
  0
LINE
  5
90F
  8
HLST
  6
CONTINUOUS
 62
     7
 10
10.36052231111352
 20
88.002842167779804
 30
0.0
 11
11.860522311113529
 21
88.002842167779804
 31
0.0
  0
LINE
  5
910
  8
HLST
  6
CONTINUOUS
 62
     7
 10
11.860522311113529
 20
79.502842167779818
 30
0.0
 11
10.36052231111352
 21
79.502842167779818
 31
0.0
  0
LINE
  5
911
  8
HLST
  6
CENTER2
 62
     2
 10
7.3404565751134214
 20
84.502842167779818
 30
0.0
 11
14.458505981113371
 21
84.502842167779818
 31
0.0
  0
ARC
  5
912
  8
HLST
  6
CONTINUOUS
 62
     7
 10
10.36052231111352
 20
40.502842167779932
 30
0.0
 40
1.0
 50
196.14588587500401
 51
270.0
  0
ARC
  5
913
  8
HLST
  6
CONTINUOUS
 62
     7
 10
5.8605223111135274
 20
58.502842167779932
 30
0.0
 40
2.7000000000000002
 50
43.322948639989448
 51
313.07705136000112
  0
LINE
  5
914
  8
HLST
  6
CONTINUOUS
 62
     7
 10
5.099019136113383
 20
77.849084223779869
 30
0.0
 11
3.8605223111135269
 21
77.002842167779818
 31
0.0
  0
LINE
  5
915
  8
HLST
  6
CONTINUOUS
 62
     7
 10
7.622025488113195
 20
74.156600110779891
 30
0.0
 11
5.099019136113383
 21
77.849084223779869
 31
0.0
  0
ARC
  5
916
  8
HLST
  6
CONTINUOUS
 62
     7
 10
115.1105223111135
 20
72.002842167779818
 30
0.0
 40
3.25
 50
180.0
 51
122.578969999987
  0
CIRCLE
  5
917
  8
HLST
  6
CONTINUOUS
 62
     7
 10
115.1105223111135
 20
72.002842167779818
 30
0.0
 40
2.0
  0
LINE
  5
918
  8
HLST
  6
CENTER
 62
     2
 10
114.9761833111133
 20
62.002842167779818
 30
0.0
 11
110.21550431111331
 21
62.002842167779818
 31
0.0
  0
LINE
  5
919
  8
HLST
  6
CENTER
 62
     2
 10
114.9761833111133
 20
82.002842167779818
 30
0.0
 11
110.21550431111331
 21
82.002842167779818
 31
0.0
  0
LINE
  5
91A
  8
HLST
  6
CONTINUOUS
 62
     7
 10
113.3605223111135
 20
68.302842167779886
 30
0.0
 11
111.8605223111135
 21
68.302842167779886
 31
0.0
  0
LINE
  5
91B
  8
HLST
  6
CENTER
 62
     2
 10
119.44851131111319
 20
72.002842167779818
 30
0.0
 11
110.4704263111134
 21
72.002842167779818
 31
0.0
  0
LINE
  5
91C
  8
HLST
  6
CENTER
 62
     2
 10
115.1105223111135
 20
67.5806141677798
 30
0.0
 11
115.1105223111135
 21
76.322433167779991
 31
0.0
  0
LINE
  5
91D
  8
HLST
  6
CONTINUOUS
 62
     7
 10
113.3605223111135
 20
56.002842167779818
 30
0.0
 11
113.3605223111135
 21
69.264229167779831
 31
0.0
  0
LINE
  5
91E
  8
HLST
  6
CONTINUOUS
 62
     7
 10
111.8605223111135
 20
56.002842167779818
 30
0.0
 11
113.3605223111135
 21
56.002842167779818
 31
0.0
  0
LINE
  5
91F
  8
HLST
  6
CONTINUOUS
 62
     7
 10
113.3605223111135
 20
88.002842167779804
 30
0.0
 11
111.8605223111135
 21
88.002842167779804
 31
0.0
  0
CIRCLE
  5
920
  8
HLST
  6
HIDDEN
 62
     4
 10
115.1105223111135
 20
72.002842167779818
 30
0.0
 40
1.5
  0
LINE
  5
921
  8
HLST
  6
CONTINUOUS
 62
     7
 10
111.8605223111135
 20
56.002842167779818
 30
0.0
 11
111.8605223111135
 21
88.002842167779804
 31
0.0
  0
LINE
  5
922
  8
HLST
  6
CONTINUOUS
 62
     7
 10
113.3605223111135
 20
72.971087167779842
 30
0.0
 11
113.3605223111135
 21
88.002842167779804
 31
0.0
  0
LINE
  5
923
  8
HLST
  6
CONTINUOUS
 62
     7
 10
114.03359931111299
 20
73.688142167779802
 30
0.0
 11
113.3605223111135
 21
74.741454167779921
 31
0.0
  0
ARC
  5
924
  8
HLST
  6
BYBLOCK
 62
     0
 10
115.5326365310116
 20
80.202842167779849
 30
0.0
 40
1.0
 50
270.0
 51
333.25631604959329
  0
ARC
  5
925
  8
HLST
  6
BYBLOCK
 62
     0
 10
115.5326365310116
 20
83.802842167779787
 30
0.0
 40
1.0
 50
26.743683950406691
 51
90.0
  0
ARC
  5
926
  8
HLST
  6
BYBLOCK
 62
     0
 10
111.9605223111129
 20
82.002842167779818
 30
0.0
 40
5.0
 50
333.25631604959329
 51
26.743683950406691
  0
LINE
  5
927
  8
HLST
  6
BYBLOCK
 62
     0
 10
113.8605223111135
 20
82.002842167779818
 30
0.0
 11
114.5605223111133
 21
81.002842167779818
 31
0.0
  0
LINE
  5
928
  8
HLST
  6
BYBLOCK
 62
     0
 10
114.5605223111133
 20
81.502842167779804
 30
0.0
 11
113.8605223111135
 21
82.502842167779818
 31
0.0
  0
LINE
  5
929
  8
HLST
  6
BYBLOCK
 62
     0
 10
114.5605223111133
 20
84.802842167779772
 30
0.0
 11
114.5605223111133
 21
79.202842167779863
 31
0.0
  0
LINE
  5
92A
  8
HLST
  6
BYBLOCK
 62
     0
 10
114.5605223111133
 20
84.802842167779772
 30
0.0
 11
115.5326365310116
 21
84.802842167779772
 31
0.0
  0
LINE
  5
92B
  8
HLST
  6
BYBLOCK
 62
     0
 10
115.5326365310116
 20
79.202842167779863
 30
0.0
 11
114.5605223111133
 21
79.202842167779863
 31
0.0
  0
LINE
  5
92C
  8
HLST
  6
BYBLOCK
 62
     0
 10
113.3605223111135
 20
85.502842167779804
 30
0.0
 11
113.3605223111135
 21
78.502842167779818
 31
0.0
  0
LINE
  5
92D
  8
HLST
  6
BYBLOCK
 62
     0
 10
113.3605223111135
 20
78.502842167779818
 30
0.0
 11
113.8605223111135
 21
78.502842167779818
 31
0.0
  0
LINE
  5
92E
  8
HLST
  6
BYBLOCK
 62
     0
 10
113.8605223111135
 20
78.502842167779818
 30
0.0
 11
113.8605223111135
 21
85.502842167779804
 31
0.0
  0
LINE
  5
92F
  8
HLST
  6
BYBLOCK
 62
     0
 10
113.8605223111135
 20
85.502842167779804
 30
0.0
 11
113.3605223111135
 21
85.502842167779804
 31
0.0
  0
LINE
  5
930
  8
HLST
  6
BYBLOCK
 62
     0
 10
113.8605223111135
 20
84.952842167779863
 30
0.0
 11
113.8605223111135
 21
79.052842167779772
 31
0.0
  0
LINE
  5
931
  8
HLST
  6
BYBLOCK
 62
     0
 10
113.8605223111135
 20
79.052842167779772
 30
0.0
 11
114.5605223111133
 21
79.052842167779772
 31
0.0
  0
LINE
  5
932
  8
HLST
  6
BYBLOCK
 62
     0
 10
114.5605223111133
 20
79.052842167779772
 30
0.0
 11
114.5605223111133
 21
84.952842167779863
 31
0.0
  0
LINE
  5
933
  8
HLST
  6
BYBLOCK
 62
     0
 10
114.5605223111133
 20
84.952842167779863
 30
0.0
 11
113.8605223111135
 21
84.952842167779863
 31
0.0
  0
ARC
  5
934
  8
HLST
  6
BYBLOCK
 62
     0
 10
115.5326365310116
 20
60.202842167779863
 30
0.0
 40
1.0
 50
270.0
 51
333.25631604959329
  0
ARC
  5
935
  8
HLST
  6
BYBLOCK
 62
     0
 10
115.5326365310116
 20
63.802842167779772
 30
0.0
 40
1.0
 50
26.743683950406691
 51
90.0
  0
ARC
  5
936
  8
HLST
  6
BYBLOCK
 62
     0
 10
111.9605223111129
 20
62.002842167779818
 30
0.0
 40
5.0
 50
333.25631604959329
 51
26.743683950406691
  0
LINE
  5
937
  8
HLST
  6
BYBLOCK
 62
     0
 10
113.8605223111135
 20
62.002842167779818
 30
0.0
 11
114.5605223111133
 21
61.002842167779818
 31
0.0
  0
LINE
  5
938
  8
HLST
  6
BYBLOCK
 62
     0
 10
114.5605223111133
 20
61.502842167779818
 30
0.0
 11
113.8605223111135
 21
62.502842167779811
 31
0.0
  0
LINE
  5
939
  8
HLST
  6
BYBLOCK
 62
     0
 10
114.5605223111133
 20
64.802842167779772
 30
0.0
 11
114.5605223111133
 21
59.202842167779863
 31
0.0
  0
LINE
  5
93A
  8
HLST
  6
BYBLOCK
 62
     0
 10
114.5605223111133
 20
64.802842167779772
 30
0.0
 11
115.5326365310116
 21
64.802842167779772
 31
0.0
  0
LINE
  5
93B
  8
HLST
  6
BYBLOCK
 62
     0
 10
115.5326365310116
 20
59.202842167779863
 30
0.0
 11
114.5605223111133
 21
59.202842167779863
 31
0.0
  0
LINE
  5
93C
  8
HLST
  6
BYBLOCK
 62
     0
 10
113.3605223111135
 20
65.502842167779804
 30
0.0
 11
113.3605223111135
 21
58.502842167779818
 31
0.0
  0
LINE
  5
93D
  8
HLST
  6
BYBLOCK
 62
     0
 10
113.3605223111135
 20
58.502842167779818
 30
0.0
 11
113.8605223111135
 21
58.502842167779818
 31
0.0
  0
LINE
  5
93E
  8
HLST
  6
BYBLOCK
 62
     0
 10
113.8605223111135
 20
58.502842167779818
 30
0.0
 11
113.8605223111135
 21
65.502842167779804
 31
0.0
  0
LINE
  5
93F
  8
HLST
  6
BYBLOCK
 62
     0
 10
113.8605223111135
 20
65.502842167779804
 30
0.0
 11
113.3605223111135
 21
65.502842167779804
 31
0.0
  0
LINE
  5
940
  8
HLST
  6
BYBLOCK
 62
     0
 10
113.8605223111135
 20
64.952842167779863
 30
0.0
 11
113.8605223111135
 21
59.052842167779772
 31
0.0
  0
LINE
  5
941
  8
HLST
  6
BYBLOCK
 62
     0
 10
113.8605223111135
 20
59.052842167779772
 30
0.0
 11
114.5605223111133
 21
59.052842167779772
 31
0.0
  0
LINE
  5
942
  8
HLST
  6
BYBLOCK
 62
     0
 10
114.5605223111133
 20
59.052842167779772
 30
0.0
 11
114.5605223111133
 21
64.952842167779863
 31
0.0
  0
LINE
  5
943
  8
HLST
  6
BYBLOCK
 62
     0
 10
114.5605223111133
 20
64.952842167779863
 30
0.0
 11
113.8605223111135
 21
64.952842167779863
 31
0.0
  0
ARC
  5
944
  8
HLST
  6
BYBLOCK
 62
     0
 10
8.1884080912150239
 20
86.302842167779787
 30
0.0
 40
1.0
 50
90.0
 51
153.25631604959329
  0
ARC
  5
945
  8
HLST
  6
BYBLOCK
 62
     0
 10
8.1884080912150239
 20
82.702842167779849
 30
0.0
 40
1.0
 50
206.74368395040671
 51
270.0
  0
ARC
  5
946
  8
HLST
  6
BYBLOCK
 62
     0
 10
11.76052231111316
 20
84.502842167779818
 30
0.0
 40
5.0
 50
153.25631604959329
 51
206.74368395040671
  0
LINE
  5
947
  8
HLST
  6
BYBLOCK
 62
     0
 10
9.8605223111135274
 20
84.502842167779818
 30
0.0
 11
9.1605223111132545
 21
85.502842167779804
 31
0.0
  0
LINE
  5
948
  8
HLST
  6
BYBLOCK
 62
     0
 10
9.1605223111132545
 20
85.002842167779818
 30
0.0
 11
9.8605223111135274
 21
84.002842167779804
 31
0.0
  0
LINE
  5
949
  8
HLST
  6
BYBLOCK
 62
     0
 10
9.1605223111132545
 20
81.702842167779863
 30
0.0
 11
9.1605223111132545
 21
87.302842167779772
 31
0.0
  0
LINE
  5
94A
  8
HLST
  6
BYBLOCK
 62
     0
 10
9.1605223111132545
 20
81.702842167779863
 30
0.0
 11
8.1884080912150239
 21
81.702842167779863
 31
0.0
  0
LINE
  5
94B
  8
HLST
  6
BYBLOCK
 62
     0
 10
8.1884080912150239
 20
87.302842167779772
 30
0.0
 11
9.1605223111132545
 21
87.302842167779772
 31
0.0
  0
LINE
  5
94C
  8
HLST
  6
BYBLOCK
 62
     0
 10
10.36052231111352
 20
81.002842167779818
 30
0.0
 11
10.36052231111352
 21
88.002842167779804
 31
0.0
  0
LINE
  5
94D
  8
HLST
  6
BYBLOCK
 62
     0
 10
10.36052231111352
 20
88.002842167779804
 30
0.0
 11
9.8605223111135274
 21
88.002842167779804
 31
0.0
  0
LINE
  5
94E
  8
HLST
  6
BYBLOCK
 62
     0
 10
9.8605223111135274
 20
88.002842167779804
 30
0.0
 11
9.8605223111135274
 21
81.002842167779818
 31
0.0
  0
LINE
  5
94F
  8
HLST
  6
BYBLOCK
 62
     0
 10
9.8605223111135274
 20
81.002842167779818
 30
0.0
 11
10.36052231111352
 21
81.002842167779818
 31
0.0
  0
LINE
  5
950
  8
HLST
  6
BYBLOCK
 62
     0
 10
9.8605223111135274
 20
81.552842167779758
 30
0.0
 11
9.8605223111135274
 21
87.452842167779863
 31
0.0
  0
LINE
  5
951
  8
HLST
  6
BYBLOCK
 62
     0
 10
9.8605223111135274
 20
87.452842167779863
 30
0.0
 11
9.1605223111132545
 21
87.452842167779863
 31
0.0
  0
LINE
  5
952
  8
HLST
  6
BYBLOCK
 62
     0
 10
9.1605223111132545
 20
87.452842167779863
 30
0.0
 11
9.1605223111132545
 21
81.552842167779758
 31
0.0
  0
LINE
  5
953
  8
HLST
  6
BYBLOCK
 62
     0
 10
9.1605223111132545
 20
81.552842167779758
 30
0.0
 11
9.8605223111135274
 21
81.552842167779758
 31
0.0
  0
ENDBLK
  5
955
  8
0
  0
BLOCK
  8
0
  2
*D5
 70
     1
 10
0.0
 20
0.0
 30
0.0
  3
*D5
  1

  0
LINE
  5
A79
  8
0
 62
     0
 10
1049.5454935352991
 20
698.11252032167613
 30
0.0
 11
955.74212035771416
 21
698.11252032167613
 31
0.0
  0
LINE
  5
A7A
  8
0
 62
     0
 10
1024.5454968818649
 20
608.1125185489733
 30
0.0
 11
955.74212035771416
 21
608.1125185489733
 31
0.0
  0
LINE
  5
A7B
  8
0
 62
     0
 10
956.99212035771404
 20
695.61252032167613
 30
0.0
 11
956.99212035771404
 21
610.61251854897341
 31
0.0
  0
SOLID
  5
A7C
  8
0
 62
     0
 10
956.57545369104753
 20
695.61252032167613
 30
0.0
 11
957.40878702438079
 21
695.61252032167613
 31
0.0
 12
956.99212035771404
 22
698.11252032167613
 32
0.0
 13
956.99212035771404
 23
698.11252032167613
 33
0.0
  0
SOLID
  5
A7D
  8
0
 62
     0
 10
956.57545369104753
 20
610.61251854897341
 30
0.0
 11
957.40878702438079
 21
610.61251854897341
 31
0.0
 12
956.99212035771404
 22
608.1125185489733
 32
0.0
 13
956.99212035771404
 23
608.1125185489733
 33
0.0
  0
INSERT
  5
A7E
  8
0
  2
*U18
 10
0.0
 20
0.0
 30
0.0
  0
POINT
  5
A7F
  8
DEFPOINTS
 62
     0
 10
1050.1704935352991
 20
698.11252032167613
 30
0.0
  0
POINT
  5
A80
  8
DEFPOINTS
 62
     0
 10
1025.1704968818649
 20
608.1125185489733
 30
0.0
  0
POINT
  5
A81
  8
DEFPOINTS
 62
     0
 10
956.99212035771404
 20
608.1125185489733
 30
0.0
  0
ENDBLK
  5
95D
  8
0
  0
BLOCK
  8
0
  2
*D6
 70
     1
 10
0.0
 20
0.0
 30
0.0
  3
*D6
  1

  0
LINE
  5
A82
  8
0
 62
     0
 10
1024.5454968818649
 20
608.1125185489733
 30
0.0
 11
955.74212035771416
 21
608.1125185489733
 31
0.0
  0
LINE
  5
A83
  8
0
 62
     0
 10
1024.5454968818649
 20
603.6125185489733
 30
0.0
 11
955.74212035771416
 21
603.6125185489733
 31
0.0
  0
LINE
  5
A84
  8
0
 62
     0
 10
956.99212035771404
 20
610.61251854897341
 30
0.0
 11
956.99212035771404
 21
613.11251854897341
 31
0.0
  0
LINE
  5
A85
  8
0
 62
     0
 10
956.99212035771404
 20
601.11251854897341
 30
0.0
 11
956.99212035771404
 21
570.27918521564004
 31
0.0
  0
LINE
  5
A86
  8
0
 62
     0
 10
956.99212035771404
 20
608.1125185489733
 30
0.0
 11
956.99212035771404
 21
603.6125185489733
 31
0.0
  0
SOLID
  5
A87
  8
0
 62
     0
 10
956.57545369104753
 20
610.61251854897341
 30
0.0
 11
957.40878702438079
 21
610.61251854897341
 31
0.0
 12
956.99212035771404
 22
608.1125185489733
 32
0.0
 13
956.99212035771404
 23
608.1125185489733
 33
0.0
  0
SOLID
  5
A88
  8
0
 62
     0
 10
956.57545369104753
 20
601.11251854897341
 30
0.0
 11
957.40878702438079
 21
601.11251854897341
 31
0.0
 12
956.99212035771404
 22
603.6125185489733
 32
0.0
 13
956.99212035771404
 23
603.6125185489733
 33
0.0
  0
INSERT
  5
A89
  8
0
  2
*U19
 10
0.0
 20
0.0
 30
0.0
  0
POINT
  5
A8A
  8
DEFPOINTS
 62
     0
 10
1025.1704968818649
 20
608.1125185489733
 30
0.0
  0
POINT
  5
A8B
  8
DEFPOINTS
 62
     0
 10
1025.1704968818649
 20
603.6125185489733
 30
0.0
  0
POINT
  5
A8C
  8
DEFPOINTS
 62
     0
 10
956.99212035771404
 20
603.6125185489733
 30
0.0
  0
ENDBLK
  5
975
  8
0
  0
BLOCK
  8
0
  2
*D7
 70
     1
 10
0.0
 20
0.0
 30
0.0
  3
*D7
  1

  0
LINE
  5
A70
  8
0
 62
     0
 10
1140.1704967285759
 20
1032.6899548317369
 30
0.0
 11
1140.1704967285759
 21
1125.755836421552
 31
0.0
  0
LINE
  5
A71
  8
0
 62
     0
 10
2290.1704967285759
 20
1032.6899548317369
 30
0.0
 11
2290.1704967285759
 21
1125.755836421552
 31
0.0
  0
LINE
  5
A72
  8
0
 62
     0
 10
1142.6704967285759
 20
1124.505836421552
 30
0.0
 11
2287.6704967285759
 21
1124.505836421552
 31
0.0
  0
SOLID
  5
A73
  8
0
 62
     0
 10
1142.6704967285759
 20
1124.922503088218
 30
0.0
 11
1142.6704967285759
 21
1124.089169754885
 31
0.0
 12
1140.1704967285759
 22
1124.505836421552
 32
0.0
 13
1140.1704967285759
 23
1124.505836421552
 33
0.0
  0
SOLID
  5
A74
  8
0
 62
     0
 10
2287.6704967285759
 20
1124.922503088218
 30
0.0
 11
2287.6704967285759
 21
1124.089169754885
 31
0.0
 12
2290.1704967285759
 22
1124.505836421552
 32
0.0
 13
2290.1704967285759
 23
1124.505836421552
 33
0.0
  0
INSERT
  5
A75
  8
0
  2
*U17
 10
0.0
 20
0.0
 30
0.0
  0
POINT
  5
A76
  8
DEFPOINTS
 62
     0
 10
1140.1704967285759
 20
1032.0649548317369
 30
0.0
  0
POINT
  5
A77
  8
DEFPOINTS
 62
     0
 10
2290.1704967285759
 20
1032.0649548317369
 30
0.0
  0
POINT
  5
A78
  8
DEFPOINTS
 62
     0
 10
2290.1704967285759
 20
1124.505836421552
 30
0.0
  0
ENDBLK
  5
991
  8
0
  0
BLOCK
  8
0
  2
*D8
 70
     1
 10
0.0
 20
0.0
 30
0.0
  3
*D8
  1

  0
LINE
  5
A67
  8
0
 62
     0
 10
1050.1704968818649
 20
1042.6899564339169
 30
0.0
 11
1050.1704968818649
 21
1188.9625520568111
 31
0.0
  0
LINE
  5
A68
  8
0
 62
     0
 10
2380.1704968818649
 20
1042.6899564339169
 30
0.0
 11
2380.1704968818649
 21
1188.9625520568111
 31
0.0
  0
LINE
  5
A69
  8
0
 62
     0
 10
1052.6704968818649
 20
1187.7125520568111
 30
0.0
 11
2377.6704968818649
 21
1187.7125520568111
 31
0.0
  0
SOLID
  5
A6A
  8
0
 62
     0
 10
1052.6704968818649
 20
1188.1292187234781
 30
0.0
 11
1052.6704968818649
 21
1187.2958853901439
 31
0.0
 12
1050.1704968818649
 22
1187.7125520568111
 32
0.0
 13
1050.1704968818649
 23
1187.7125520568111
 33
0.0
  0
SOLID
  5
A6B
  8
0
 62
     0
 10
2377.6704968818649
 20
1188.1292187234781
 30
0.0
 11
2377.6704968818649
 21
1187.2958853901439
 31
0.0
 12
2380.1704968818649
 22
1187.7125520568111
 32
0.0
 13
2380.1704968818649
 23
1187.7125520568111
 33
0.0
  0
INSERT
  5
A6C
  8
0
  2
*U16
 10
0.0
 20
0.0
 30
0.0
  0
POINT
  5
A6D
  8
DEFPOINTS
 62
     0
 10
1050.1704968818649
 20
1042.0649564339169
 30
0.0
  0
POINT
  5
A6E
  8
DEFPOINTS
 62
     0
 10
2380.1704968818649
 20
1042.0649564339169
 30
0.0
  0
POINT
  5
A6F
  8
DEFPOINTS
 62
     0
 10
2380.1704968818649
 20
1187.7125520568111
 30
0.0
  0
ENDBLK
  5
9A9
  8
0
  0
BLOCK
  8
0
  2
*D9
 70
     1
 10
0.0
 20
0.0
 30
0.0
  3
*D9
  1

  0
LINE
  5
A5E
  8
0
 62
     0
 10
1025.1704968818649
 20
1037.6899564339169
 30
0.0
 11
1025.1704968818649
 21
1250.411726756668
 31
0.0
  0
LINE
  5
A5F
  8
0
 62
     0
 10
2405.1704968818649
 20
1037.6899564339169
 30
0.0
 11
2405.1704968818649
 21
1250.411726756668
 31
0.0
  0
LINE
  5
A60
  8
0
 62
     0
 10
1027.6704968818649
 20
1249.161726756668
 30
0.0
 11
2402.6704968818649
 21
1249.161726756668
 31
0.0
  0
SOLID
  5
A61
  8
0
 62
     0
 10
1027.6704968818649
 20
1249.578393423335
 30
0.0
 11
1027.6704968818649
 21
1248.7450600900011
 31
0.0
 12
1025.1704968818649
 22
1249.161726756668
 32
0.0
 13
1025.1704968818649
 23
1249.161726756668
 33
0.0
  0
SOLID
  5
A62
  8
0
 62
     0
 10
2402.6704968818649
 20
1249.578393423335
 30
0.0
 11
2402.6704968818649
 21
1248.7450600900011
 31
0.0
 12
2405.1704968818649
 22
1249.161726756668
 32
0.0
 13
2405.1704968818649
 23
1249.161726756668
 33
0.0
  0
INSERT
  5
A63
  8
0
  2
*U15
 10
0.0
 20
0.0
 30
0.0
  0
POINT
  5
A64
  8
DEFPOINTS
 62
     0
 10
1025.1704968818649
 20
1037.0649564339169
 30
0.0
  0
POINT
  5
A65
  8
DEFPOINTS
 62
     0
 10
2405.1704968818649
 20
1037.0649564339169
 30
0.0
  0
POINT
  5
A66
  8
DEFPOINTS
 62
     0
 10
2405.1704968818649
 20
1249.161726756668
 30
0.0
  0
ENDBLK
  5
9CA
  8
0
  0
BLOCK
  8
0
  2
*D10
 70
     1
 10
0.0
 20
0.0
 30
0.0
  3
*D10
  1

  0
LINE
  5
A55
  8
0
 62
     0
 10
1035.1704968818649
 20
948.9399564339169
 30
0.0
 11
1035.1704968818649
 21
859.1888635242625
 31
0.0
  0
LINE
  5
A56
  8
0
 62
     0
 10
2395.1674948389232
 20
948.93995643391656
 30
0.0
 11
2395.1674948389232
 21
859.1888635242625
 31
0.0
  0
LINE
  5
A57
  8
0
 62
     0
 10
1037.6704968818649
 20
860.43886352426262
 30
0.0
 11
2392.6674948389232
 21
860.43886352426262
 31
0.0
  0
SOLID
  5
A58
  8
0
 62
     0
 10
1037.6704968818649
 20
860.85553019092924
 30
0.0
 11
1037.6704968818649
 21
860.02219685759599
 31
0.0
 12
1035.1704968818649
 22
860.43886352426262
 32
0.0
 13
1035.1704968818649
 23
860.43886352426262
 33
0.0
  0
SOLID
  5
A59
  8
0
 62
     0
 10
2392.6674948389232
 20
860.85553019092924
 30
0.0
 11
2392.6674948389232
 21
860.02219685759599
 31
0.0
 12
2395.1674948389232
 22
860.43886352426262
 32
0.0
 13
2395.1674948389232
 23
860.43886352426262
 33
0.0
  0
INSERT
  5
A5A
  8
0
  2
*U14
 10
0.0
 20
0.0
 30
0.0
  0
POINT
  5
A5B
  8
DEFPOINTS
 62
     0
 10
1035.1704968818649
 20
949.5649564339169
 30
0.0
  0
POINT
  5
A5C
  8
DEFPOINTS
 62
     0
 10
2395.1674948389232
 20
949.56495643391668
 30
0.0
  0
POINT
  5
A5D
  8
DEFPOINTS
 62
     0
 10
2395.1674948389232
 20
860.43886352426262
 30
0.0
  0
ENDBLK
  5
9E2
  8
0
  0
BLOCK
  8
0
  2
*D11
 70
     1
 10
0.0
 20
0.0
 30
0.0
  3
*D11
  1

  0
LINE
  5
AFE
  8
0
 62
     0
 10
1139.5454967285759
 20
1032.0649548317369
 30
0.0
 11
969.57465991637764
 21
1032.0649548317369
 31
0.0
  0
LINE
  5
AFF
  8
0
 62
     0
 10
1139.5454967285759
 20
952.06495483173683
 30
0.0
 11
969.57465991637764
 21
952.06495483173683
 31
0.0
  0
LINE
  5
B00
  8
0
 62
     0
 10
970.82465991637775
 20
1029.5649548317369
 30
0.0
 11
970.82465991637775
 21
954.56495483173694
 31
0.0
  0
SOLID
  5
B01
  8
0
 62
     0
 10
970.40799324971101
 20
1029.5649548317369
 30
0.0
 11
971.24132658304427
 21
1029.5649548317369
 31
0.0
 12
970.82465991637775
 22
1032.0649548317369
 32
0.0
 13
970.82465991637775
 23
1032.0649548317369
 33
0.0
  0
SOLID
  5
B02
  8
0
 62
     0
 10
970.40799324971101
 20
954.56495483173694
 30
0.0
 11
971.24132658304427
 21
954.56495483173694
 31
0.0
 12
970.82465991637775
 22
952.06495483173683
 32
0.0
 13
970.82465991637775
 23
952.06495483173683
 33
0.0
  0
INSERT
  5
B03
  8
0
  2
*U22
 10
0.0
 20
0.0
 30
0.0
  0
POINT
  5
B04
  8
DEFPOINTS
 62
     0
 10
1140.1704967285759
 20
1032.0649548317369
 30
0.0
  0
POINT
  5
B05
  8
DEFPOINTS
 62
     0
 10
1140.1704967285759
 20
952.06495483173683
 30
0.0
  0
POINT
  5
B06
  8
DEFPOINTS
 62
     0
 10
970.82465991637775
 20
952.06495483173683
 30
0.0
  0
ENDBLK
  5
AA7
  8
0
  0
BLOCK
  8
0
  2
*D12
 70
     1
 10
0.0
 20
0.0
 30
0.0
  3
*D12
  1

  0
LINE
  5
AF5
  8
0
 62
     0
 10
1029.5454968818649
 20
1042.0649564339169
 30
0.0
 11
938.30525224602479
 21
1042.0649564339169
 31
0.0
  0
LINE
  5
AF6
  8
0
 62
     0
 10
1029.5454968818649
 20
942.06495643391702
 30
0.0
 11
938.30525224602479
 21
942.06495643391702
 31
0.0
  0
LINE
  5
AF7
  8
0
 62
     0
 10
939.55525224602468
 20
1039.5649564339169
 30
0.0
 11
939.55525224602468
 21
944.56495643391679
 31
0.0
  0
SOLID
  5
AF8
  8
0
 62
     0
 10
939.13858557935805
 20
1039.5649564339169
 30
0.0
 11
939.97191891269142
 21
1039.5649564339169
 31
0.0
 12
939.55525224602468
 22
1042.0649564339169
 32
0.0
 13
939.55525224602468
 23
1042.0649564339169
 33
0.0
  0
SOLID
  5
AF9
  8
0
 62
     0
 10
939.13858557935805
 20
944.56495643391679
 30
0.0
 11
939.97191891269142
 21
944.56495643391679
 31
0.0
 12
939.55525224602468
 22
942.06495643391702
 32
0.0
 13
939.55525224602468
 23
942.06495643391702
 33
0.0
  0
INSERT
  5
AFA
  8
0
  2
*U21
 10
0.0
 20
0.0
 30
0.0
  0
POINT
  5
AFB
  8
DEFPOINTS
 62
     0
 10
1030.1704968818649
 20
1042.0649564339169
 30
0.0
  0
POINT
  5
AFC
  8
DEFPOINTS
 62
     0
 10
1030.1704968818649
 20
942.06495643391702
 30
0.0
  0
POINT
  5
AFD
  8
DEFPOINTS
 62
     0
 10
939.55525224602468
 20
942.06495643391702
 30
0.0
  0
ENDBLK
  5
ABF
  8
0
  0
BLOCK
  8
0
  2
*D13
 70
     1
 10
0.0
 20
0.0
 30
0.0
  3
*D13
  1

  0
LINE
  5
AEC
  8
0
 62
     0
 10
2403.295496881864
 20
1027.064956433916
 30
0.0
 11
2471.508218287303
 21
1027.064956433916
 31
0.0
  0
LINE
  5
AED
  8
0
 62
     0
 10
2403.2924948389232
 20
957.06495643391656
 30
0.0
 11
2471.508218287303
 21
957.06495643391656
 31
0.0
  0
LINE
  5
AEE
  8
0
 62
     0
 10
2470.258218287303
 20
1024.564956433916
 30
0.0
 11
2470.258218287303
 21
959.56495643391668
 31
0.0
  0
SOLID
  5
AEF
  8
0
 62
     0
 10
2469.841551620636
 20
1024.564956433916
 30
0.0
 11
2470.6748849539699
 21
1024.564956433916
 31
0.0
 12
2470.258218287303
 22
1027.064956433916
 32
0.0
 13
2470.258218287303
 23
1027.064956433916
 33
0.0
  0
SOLID
  5
AF0
  8
0
 62
     0
 10
2469.841551620636
 20
959.56495643391668
 30
0.0
 11
2470.674884953969
 21
959.56495643391668
 31
0.0
 12
2470.258218287303
 22
957.06495643391656
 32
0.0
 13
2470.258218287303
 23
957.06495643391656
 33
0.0
  0
INSERT
  5
AF1
  8
0
  2
*U20
 10
0.0
 20
0.0
 30
0.0
  0
POINT
  5
AF2
  8
DEFPOINTS
 62
     0
 10
2402.670496881864
 20
1027.064956433916
 30
0.0
  0
POINT
  5
AF3
  8
DEFPOINTS
 62
     0
 10
2402.6674948389232
 20
957.06495643391656
 30
0.0
  0
POINT
  5
AF4
  8
DEFPOINTS
 62
     0
 10
2470.258218287303
 20
957.06495643391656
 30
0.0
  0
ENDBLK
  5
AD7
  8
0
  0
BLOCK
  8
0
  2
*U14
 70
     1
 10
0.0
 20
0.0
 30
0.0
  3
*U14
  1

  0
TEXT
  5
B54
  8
0
 62
     0
 10
1704.7523291937271
 20
861.06386352426262
 30
0.0
 40
12.5
  1
L2
  0
ENDBLK
  5
B56
  8
0
  0
BLOCK
  8
0
  2
*U15
 70
     1
 10
0.0
 20
0.0
 30
0.0
  3
*U15
  1

  0
TEXT
  5
B58
  8
0
 62
     0
 10
1706.8371635485321
 20
1249.786726756668
 30
0.0
 40
12.5
  1
L1
  0
ENDBLK
  5
B5A
  8
0
  0
BLOCK
  8
0
  2
*U16
 70
     1
 10
0.0
 20
0.0
 30
0.0
  3
*U16
  1

  0
TEXT
  5
B5C
  8
0
 62
     0
 10
1704.7538302151979
 20
1188.3375520568111
 30
0.0
 40
12.5
  1
L3
  0
ENDBLK
  5
B5E
  8
0
  0
BLOCK
  8
0
  2
*U17
 70
     1
 10
0.0
 20
0.0
 30
0.0
  3
*U17
  1

  0
TEXT
  5
B60
  8
0
 62
     0
 10
1704.753830061909
 20
1125.130836421552
 30
0.0
 40
12.5
  1
L4
  0
ENDBLK
  5
B62
  8
0
  0
BLOCK
  8
0
  2
*U18
 70
     1
 10
0.0
 20
0.0
 30
0.0
  3
*U18
  1

  0
TEXT
  5
B64
  8
0
 62
     0
 10
956.36712035771404
 20
643.73751943532488
 30
0.0
 40
12.5
  1
90
 50
90.0
  0
ENDBLK
  5
B66
  8
0
  0
BLOCK
  8
0
  2
*U19
 70
     1
 10
0.0
 20
0.0
 30
0.0
  3
*U19
  1

  0
TEXT
  5
B68
  8
0
 62
     0
 10
954.28378702438079
 20
570.90418521564015
 30
0.0
 40
12.5
  1
4,5
 50
90.0
  0
ENDBLK
  5
B6A
  8
0
  0
BLOCK
  8
0
  2
*U20
 70
     1
 10
0.0
 20
0.0
 30
0.0
  3
*U20
  1

  0
TEXT
  5
B6C
  8
0
 62
     0
 10
2469.633218287303
 20
982.68995643391702
 30
0.0
 40
12.5
  1
70
 50
90.0
  0
ENDBLK
  5
B6E
  8
0
  0
BLOCK
  8
0
  2
*U21
 70
     1
 10
0.0
 20
0.0
 30
0.0
  3
*U21
  1

  0
TEXT
  5
B70
  8
0
 62
     0
 10
938.93025224602457
 20
979.56495643391702
 30
0.0
 40
12.5
  1
100
 50
90.0
  0
ENDBLK
  5
B72
  8
0
  0
BLOCK
  8
0
  2
*U22
 70
     1
 10
0.0
 20
0.0
 30
0.0
  3
*U22
  1

  0
TEXT
  5
B74
  8
0
 62
     0
 10
970.19965991637753
 20
982.68995483173705
 30
0.0
 40
12.5
  1
80
 50
90.0
  0
ENDBLK
  5
B76
  8
0
  0
BLOCK
  8
0
  2
*U23
 70
     1
 10
0.0
 20
0.0
 30
0.0
  3
*U23
  1

  0
TEXT
  5
B78
  8
0
 10
2432.3674926900421
 20
1077.4304486354761
 30
0.0
 40
12.5
  1
4-\U+220510
  0
LINE
  5
B79
  8
0
  6
BYBLOCK
 10
2422.3674926900421
 20
1074.930448635477
 30
0.0
 11
2430.3674926900421
 21
1074.930448635477
 31
0.0
  0
POLYLINE
  5
B7A
  8
0
  6
BYBLOCK
 66
     1
 10
0.0
 20
0.0
 30
0.0
  0
VERTEX
  5
B7B
  8
0
  6
BYBLOCK
 10
2397.146572599062
 20
1030.5427610230081
 30
0.0
  0
VERTEX
  5
B7C
  8
0
  6
BYBLOCK
 10
2422.3674926900421
 20
1074.930448635477
 30
0.0
  0
SEQEND
  5
B7D
  8
0
  6
BYBLOCK
  0
SOLID
  5
B7E
  8
0
 10
2397.7262066972439
 20
1030.213415070142
 30
0.0
 11
2395.1704968818649
 21
1027.0649564339169
 31
0.0
 12
2396.56693850088
 22
1030.872106975874
 32
0.0
 13
2396.56693850088
 23
1030.872106975874
 33
0.0
  0
POLYLINE
  5
B7F
  8
0
  6
BYBLOCK
 66
     1
 10
0.0
 20
0.0
 30
0.0
  0
VERTEX
  5
B80
  8
0
  6
BYBLOCK
 10
2430.3674926900421
 20
1074.930448635477
 30
0.0
  0
VERTEX
  5
B81
  8
0
  6
BYBLOCK
 10
2484.4508260233752
 20
1074.930448635477
 30
0.0
  0
SEQEND
  5
B82
  8
0
  6
BYBLOCK
  0
ENDBLK
  5
B84
  8
0
  0
ENDSEC
  0
SECTION
  2
ENTITIES
  0
INSERT
  5
7E5
  8
0
  2
A$C368937F0
 10
1025.17049741599
 20
603.61251942862623
 30
0.0
  0
INSERT
  5
888
  8
0
  2
A$C65B94820
 10
1025.170498217632
 20
930.20443243720899
 30
0.0
  0
INSERT
  5
956
  8
0
  2
A$C2DA26593
 10
2598.7178042188129
 20
603.61251942862623
 30
0.0
  0
DIMENSION
  5
959
  8
0
  2
*D5
 10
956.99212035771404
 20
608.1125185489733
 30
0.0
 11
950.11712035771404
 21
653.11251943532488
 31
0.0
 70
     0
 13
1050.1704935352991
 23
698.11252032167613
 33
0.0
 14
1025.1704968818649
 24
608.1125185489733
 34
0.0
 50
90.0
1001
ACAD
1000
DSTYLE
1002
{
1070
   140
1040
12.5
1002
}
  0
DIMENSION
  5
972
  8
0
  2
*D6
 10
956.99212035771404
 20
603.6125185489733
 30
0.0
 11
949.07545369104741
 21
584.4458518823069
 31
0.0
 70
     0
 13
1025.1704968818649
 23
608.1125185489733
 33
0.0
 14
1025.1704968818649
 24
603.6125185489733
 34
0.0
 50
90.0
1001
ACAD
1000
DSTYLE
1002
{
1070
   140
1040
12.5
1002
}
  0
DIMENSION
  5
98E
  8
0
  2
*D7
 10
2290.1704967285759
 20
1124.505836421552
 30
0.0
 11
1715.1704967285759
 21
1124.505836421552
 31
0.0
 70
   128
  1
L4
 13
1140.1704967285759
 23
1032.0649548317369
 33
0.0
 14
2290.1704967285759
 24
1032.0649548317369
 34
0.0
1001
ACAD
1000
DSTYLE
1002
{
1070
   140
1040
12.5
1002
}
  0
DIMENSION
  5
9A6
  8
0
  2
*D8
 10
2380.1704968818649
 20
1187.7125520568111
 30
0.0
 11
1715.1704968818649
 21
1194.5875520568111
 31
0.0
 70
     0
  1
L3
 13
1050.1704968818649
 23
1042.0649564339169
 33
0.0
 14
2380.1704968818649
 24
1042.0649564339169
 34
0.0
1001
ACAD
1000
DSTYLE
1002
{
1070
   140
1040
12.5
1002
}
  0
DIMENSION
  5
9C7
  8
0
  2
*D9
 10
2405.1704968818649
 20
1249.161726756668
 30
0.0
 11
1715.1704968818649
 21
1256.036726756668
 31
0.0
 70
     0
  1
L1
 13
1025.1704968818649
 23
1037.0649564339169
 33
0.0
 14
2405.1704968818649
 24
1037.0649564339169
 34
0.0
1001
ACAD
1000
DSTYLE
1002
{
1070
   140
1040
12.5
1002
}
  0
DIMENSION
  5
9DF
  8
0
  2
*D10
 10
2395.1674948389232
 20
860.43886352426262
 30
0.0
 11
1715.168995860394
 21
867.31386352426262
 31
0.0
 70
     0
  1
L2
 13
1035.1704968818649
 23
949.5649564339169
 33
0.0
 14
2395.1674948389232
 24
949.56495643391668
 34
0.0
1001
ACAD
1000
DSTYLE
1002
{
1070
   140
1040
12.5
1002
}
  0
DIMENSION
  5
AA4
  8
0
  2
*D11
 10
970.82465991637775
 20
952.06495483173683
 30
0.0
 11
963.94965991637753
 21
992.06495483173705
 31
0.0
 70
     0
 13
1140.1704967285759
 23
1032.0649548317369
 33
0.0
 14
1140.1704967285759
 24
952.06495483173683
 34
0.0
 50
90.0
1001
ACAD
1000
DSTYLE
1002
{
1070
   140
1040
12.5
1070
    69
1070
     1
1002
}
  0
DIMENSION
  5
ABC
  8
0
  2
*D12
 10
939.55525224602468
 20
942.06495643391702
 30
0.0
 11
932.68025224602457
 21
992.06495643391702
 31
0.0
 70
     0
 13
1030.1704968818649
 23
1042.0649564339169
 33
0.0
 14
1030.1704968818649
 24
942.06495643391702
 34
0.0
 50
90.0
1001
ACAD
1000
DSTYLE
1002
{
1070
   140
1040
12.5
1070
    69
1070
     1
1002
}
  0
DIMENSION
  5
AD4
  8
0
  2
*D13
 10
2470.258218287303
 20
957.06495643391656
 30
0.0
 11
2463.383218287303
 21
992.06495643391702
 31
0.0
 70
     0
 13
2402.670496881864
 23
1027.064956433916
 33
0.0
 14
2402.6674948389232
 24
957.06495643391656
 34
0.0
 50
90.0
1001
ACAD
1000
DSTYLE
1002
{
1070
   140
1040
12.5
1070
    69
1070
     1
1002
}
  0
INSERT
  5
B25
  8
0
  2
*U23
 10
0.0
 20
0.0
 30
0.0
1001
ACAD_MLEADERVER
1070
     2
  0
ENDSEC
  0
EOF
